# Created by Kenney (www.kenney.nl)

mtllib battlement_cornerOuter.mtl

g battlement_cornerOuter

v 0.35 0.3 -0.35
v 0.1 0.3 -0.35
v 0.35 0.3 -0.5
v 0.1 0.3 -0.5
v 0.2 0 -0.2
v 0.2 5.414336E-16 -0.4
v -0.5 0 -0.2
v -0.5 0 -0.4
v -0.4 0.4 -0.5
v -0.4 0.4 -0.35
v -0.5 0.4 -0.5
v -0.5 0.4 -0.35
v 0.1 0.4 -0.5
v 0.1 0.4 -0.35
v -0.1 0.4 -0.5
v -0.1 0.4 -0.35
v -0.1 0.3 -0.5
v -0.1 0.3 -0.35
v -0.4 0.3 -0.5
v -0.4 0.3 -0.35
v 0.5 0.4 0.1
v 0.35 0.4 0.1
v 0.5 0.4 -0.1
v 0.35 0.4 -0.1
v 0.35 0.2 0.5
v 0.2 0.2 0.5
v 0.35 0.2 -0.35
v 0.2 0.2 -0.2
v 0.5 0.3 0.4
v 0.35 0.3 0.4
v 0.5 0.3 0.1
v 0.35 0.3 0.1
v 0.5 0.4 0.5
v 0.35 0.4 0.5
v 0.5 0.4 0.4
v 0.35 0.4 0.4
v 0.5 0.4 -0.5
v 0.5 0.4 -0.35
v 0.35 0.4 -0.5
v 0.35 0.4 -0.35
v 0.4 0 0.5
v 0.4 0 -0.4
v 0.2 0 0.5
v -0.5 0.2 -0.35
v -0.5 0.2 -0.2
v 0.5 0.3 -0.1
v 0.35 0.3 -0.1
v 0.5 0.3 -0.35
v -0.5 0.2 -0.5
v 0.5 0.2 -0.5
v 0.5 0.2 0.5

vn 0 1 0
vn 0 -1 0
vn 0 0 1
vn 0 -0.4472136 -0.8944272
vn -1 0 0
vn 1 0 0
vn 0.8944272 -0.4472136 0
vn 0 0 -1

vt 0.15 -0.95
vt 0.4 -0.95
vt 0.15 -1.1
vt 0.4 -1.1
vt -0.3 -0.8
vt -0.3 -1
vt -1 -0.8
vt -1 -1
vt 0.9 -1.1
vt 0.9 -0.95
vt 1 -1.1
vt 1 -0.95
vt 0.6 -1.1
vt 0.6 -0.95
vt 1 -0.8
vt 1.85 -0.95
vt 1.7 -0.8
vt 0.1 -1.1
vt 0.1 -0.95
vt 2.220446E-16 -1.1
vt 0 -0.95
vt 0.85 -1.1
vt 0.85 -0.95
vt -1.110223E-16 -1
vt -0.9 -1
vt 2.220446E-16 -0.8
vt -0.7 -0.8
vt -0.9 -0.8
vt 0.3 -0.8
vt -1.45 0.3
vt -1.65 0.3
vt -1.45 0.4
vt -1.65 0.4
vt -1.95 0.3
vt -1.2 0.3
vt -2.05 0.2
vt -1.2 0.2
vt -2.05 0.4
vt -1.95 0.4
vt -1.05 0.3
vt -1.05 0.4
vt -1.2 0.4
vt -0.3 0
vt -1 0
vt -0.3 0.2
vt -1 0.2
vt -1.505603 -0.06097665
vt -2.205603 -0.06097665
vt -1.505603 0.1626301
vt -2.505603 0.1626301
vt -2.405603 -0.06097665
vt -1.1 0.3
vt -1.1 0.4
vt -0.95 0.3
vt -0.95 0.4
vt -1.110223E-16 0
vt 0.05 0.2
vt 0.2 0
vt 0.2 0.2
vt 0.05 0.4
vt -0.1 0.4
vt -0.1 0.2
vt -0.9 0.4
vt -0.9 0.3
vt -1.35 0.3
vt -1.35 0.4
vt -0.35 0.2
vt -0.75 0.3
vt -0.45 0.3
vt -0.45 0.4
vt -0.35 0.4
vt -0.75 0.4
vt 0.4 0
vt 0.4 0.2
vt 1.394397 1.235943
vt 1.294397 1.012336
vt 0.394397 1.235943
vt 0.394397 1.012336
vt -0.1 0.3
vt 1.998401E-15 0.2
vt 1.998401E-15 0.4
vt -0.85 0.3
vt -1 0.4
vt -0.4 0.3
vt -0.6 0.3
vt -0.4 0.4
vt -0.6 0.4
vt -0.85 0.4
vt -0.15 0.3
vt -3.38618E-15 0.2
vt -0.15 0.4
vt -3.38618E-15 0.4
vt 3.108624E-15 0.2
vt -0.15 0.2
vt 3.108624E-15 0.4
vt -0.1 0

usemtl bricks

f 3/3/1 2/2/1 1/1/1
f 2/2/1 3/3/1 4/4/1
f 7/7/2 6/6/2 5/5/2
f 6/6/2 7/7/2 8/8/2
f 11/11/1 10/10/1 9/9/1
f 10/10/1 11/11/1 12/12/1
f 15/13/1 14/2/1 13/4/1
f 14/2/1 15/13/1 16/14/1
f 19/9/1 18/14/1 17/13/1
f 18/14/1 19/9/1 20/10/1
f 23/13/1 22/2/1 21/4/1
f 22/2/1 23/13/1 24/14/1
f 27/16/1 26/15/1 25/12/1
f 26/15/1 27/16/1 28/17/1
f 31/4/1 30/19/1 29/18/1
f 30/19/1 31/4/1 32/2/1
f 35/18/1 34/21/1 33/20/1
f 34/21/1 35/18/1 36/19/1
f 39/12/1 38/22/1 37/11/1
f 38/22/1 39/12/1 40/23/1
f 43/26/2 42/25/2 41/24/2
f 42/25/2 43/26/2 5/27/2
f 42/25/2 5/27/2 6/28/2
f 44/12/1 28/29/1 27/1/1
f 28/29/1 44/12/1 45/15/1
f 48/22/1 47/14/1 46/13/1
f 47/14/1 48/22/1 1/23/1

usemtl stones

f 14/32/3 18/31/3 2/30/3
f 18/31/3 14/32/3 16/33/3
f 20/34/3 2/30/3 18/31/3
f 20/34/3 1/35/3 2/30/3
f 44/36/3 1/35/3 20/34/3
f 1/35/3 44/36/3 27/37/3
f 44/36/3 20/34/3 12/38/3
f 12/38/3 20/34/3 10/39/3
f 38/41/3 1/35/3 48/40/3
f 1/35/3 38/41/3 40/42/3
f 28/45/3 7/44/3 5/43/3
f 7/44/3 28/45/3 45/46/3
f 49/49/4 6/48/4 8/47/4
f 50/50/4 6/48/4 49/49/4
f 6/48/4 50/50/4 42/51/4
f 18/54/5 15/53/5 17/52/5
f 15/53/5 18/54/5 16/55/5
f 7/58/5 44/57/5 8/56/5
f 44/57/5 7/58/5 45/59/5
f 12/60/5 8/56/5 44/57/5
f 11/61/5 8/56/5 12/60/5
f 8/56/5 11/61/5 49/62/5
f 14/41/6 4/64/6 13/63/6
f 4/64/6 14/41/6 2/40/6
f 10/41/6 19/64/6 9/63/6
f 19/64/6 10/41/6 20/40/6
f 1/35/5 39/66/5 3/65/5
f 39/66/5 1/35/5 40/42/5
f 25/67/5 1/35/5 27/37/5
f 1/35/5 25/67/5 47/54/5
f 47/54/5 25/67/5 32/68/5
f 47/54/5 32/68/5 24/55/5
f 32/68/5 25/67/5 30/69/5
f 30/69/5 25/67/5 36/70/5
f 36/70/5 25/67/5 34/71/5
f 22/72/5 24/55/5 32/68/5
f 43/73/5 28/45/5 5/43/5
f 28/45/5 43/73/5 26/74/5
f 51/77/7 42/76/7 50/75/7
f 42/76/7 51/77/7 41/78/7
f 24/55/8 46/52/8 47/54/8
f 46/52/8 24/55/8 23/53/8
f 49/80/8 19/79/8 50/46/8
f 19/79/8 49/80/8 11/81/8
f 19/79/8 11/81/8 9/61/8
f 3/82/8 50/46/8 19/79/8
f 50/46/8 3/82/8 37/83/8
f 3/82/8 19/79/8 17/84/8
f 3/82/8 17/84/8 4/85/8
f 15/86/8 4/85/8 17/84/8
f 4/85/8 15/86/8 13/87/8
f 37/83/8 3/82/8 39/88/8
f 21/63/3 32/40/3 31/64/3
f 32/40/3 21/63/3 22/41/3
f 36/55/8 29/52/8 30/54/8
f 29/52/8 36/55/8 35/53/8
f 21/87/6 46/84/6 23/86/6
f 31/85/6 46/84/6 21/87/6
f 51/46/6 46/84/6 31/85/6
f 51/46/6 48/89/6 46/84/6
f 50/90/6 48/89/6 51/46/6
f 50/90/6 38/91/6 48/89/6
f 38/91/6 50/90/6 37/92/6
f 51/46/6 31/85/6 29/64/6
f 51/46/6 29/64/6 33/83/6
f 33/83/6 29/64/6 35/63/6
f 33/95/3 25/94/3 51/93/3
f 25/94/3 33/95/3 34/91/3
f 26/45/3 51/93/3 25/94/3
f 43/43/3 51/93/3 26/45/3
f 51/93/3 43/43/3 41/96/3

