# Created by Kenney (www.kenney.nl)

mtllib battlement.mtl

g battlement

v 0.5 0 -0.3
v 0.5 0 -0.5
v -0.5 0 -0.3
v -0.5 0 -0.5
v -0.4 0.4 -0.6
v -0.4 0.4 -0.45
v -0.5 0.4 -0.6
v -0.5 0.4 -0.45
v 0.1 0.4 -0.6
v 0.1 0.4 -0.45
v -0.1 0.4 -0.6
v -0.1 0.4 -0.45
v 0.5 0.4 -0.6
v 0.5 0.4 -0.45
v 0.4 0.4 -0.6
v 0.4 0.4 -0.45
v -0.1 0.3 -0.6
v -0.1 0.3 -0.45
v -0.4 0.3 -0.6
v -0.4 0.3 -0.45
v 0.4 0.3 -0.6
v 0.4 0.3 -0.45
v 0.1 0.3 -0.6
v 0.1 0.3 -0.45
v 0.5 0.2 -0.45
v 0.5 0.2 -0.3
v -0.5 0.2 -0.45
v -0.5 0.2 -0.3
v 0.5 0.2 -0.6
v -0.5 0.2 -0.6

vn 0 -1 0
vn 0 1 0
vn 0 0 1
vn 0 0 -1
vn 1 0 0
vn 0 -0.4472136 -0.8944272
vn -1 0 0

vt 0 -0.8
vt 0 -1
vt -1 -0.8
vt -1 -1
vt 0.9 -1.1
vt 0.9 -0.95
vt 1 -1.1
vt 1 -0.95
vt 0.4 -1.1
vt 0.4 -0.95
vt 0.6 -1.1
vt 0.6 -0.95
vt 0 -1.1
vt 0 -0.95
vt 0.1 -1.1
vt 0.1 -0.95
vt 1 -0.8
vt 1.110223E-16 0
vt -1 0
vt 1.110223E-16 0.2
vt -1 0.2
vt -0.1 0.3
vt 0 0.2
vt 0 0.4
vt -0.1 0.4
vt -0.9 0.3
vt -1 0.4
vt -0.4 0.3
vt -0.6 0.3
vt -0.4 0.4
vt -0.6 0.4
vt -0.9 0.4
vt -0.9 0.2
vt -1.05 0.4
vt -1.05 0.2
vt -1.2 0
vt -1.2 0.2
vt -0.005603047 -0.06097665
vt -1.005603 -0.06097665
vt -0.005603047 0.1626301
vt -1.005603 0.1626301
vt -1.110223E-16 0
vt 0.05 0.2
vt 0.2 0
vt 0.2 0.2
vt 0.05 0.4
vt -0.1 0.2
vt -1.05 0.3
vt -1.1 0.3
vt -1.1 0.4
vt -0.95 0.3
vt -0.95 0.4
vt -2.05 0.2
vt -1.15 0.3
vt -1.15 0.4
vt -1.95 0.3
vt -2.05 0.4
vt -1.45 0.3
vt -1.65 0.3
vt -1.45 0.4
vt -1.65 0.4
vt -1.95 0.4

usemtl bricks

f 3/3/1 2/2/1 1/1/1
f 2/2/1 3/3/1 4/4/1
f 7/7/2 6/6/2 5/5/2
f 6/6/2 7/7/2 8/8/2
f 11/11/2 10/10/2 9/9/2
f 10/10/2 11/11/2 12/12/2
f 15/15/2 14/14/2 13/13/2
f 14/14/2 15/15/2 16/16/2
f 19/5/2 18/12/2 17/11/2
f 18/12/2 19/5/2 20/6/2
f 23/9/2 22/16/2 21/15/2
f 22/16/2 23/9/2 24/10/2
f 27/8/2 26/1/2 25/14/2
f 26/1/2 27/8/2 28/17/2

usemtl stones

f 26/20/3 3/19/3 1/18/3
f 3/19/3 26/20/3 28/21/3
f 30/23/4 19/22/4 29/21/4
f 19/22/4 30/23/4 7/24/4
f 19/22/4 7/24/4 5/25/4
f 21/26/4 29/21/4 19/22/4
f 29/21/4 21/26/4 13/27/4
f 21/26/4 19/22/4 17/28/4
f 21/26/4 17/28/4 23/29/4
f 11/30/4 23/29/4 17/28/4
f 23/29/4 11/30/4 9/31/4
f 13/27/4 21/26/4 15/32/4
f 14/34/5 29/33/5 13/32/5
f 29/33/5 14/34/5 2/19/5
f 2/19/5 14/34/5 25/35/5
f 2/19/5 25/35/5 1/36/5
f 1/36/5 25/35/5 26/37/5
f 30/40/6 2/39/6 4/38/6
f 2/39/6 30/40/6 29/41/6
f 3/44/7 27/43/7 4/42/7
f 27/43/7 3/44/7 28/45/7
f 8/46/7 4/42/7 27/43/7
f 7/25/7 4/42/7 8/46/7
f 4/42/7 7/25/7 30/47/7
f 10/34/5 23/26/5 9/32/5
f 23/26/5 10/34/5 24/48/5
f 22/51/7 15/50/7 21/49/7
f 15/50/7 22/51/7 16/52/7
f 6/34/5 19/26/5 5/32/5
f 19/26/5 6/34/5 20/48/5
f 25/35/3 22/54/3 27/53/3
f 22/54/3 25/35/3 14/34/3
f 22/54/3 14/34/3 16/55/3
f 20/56/3 27/53/3 22/54/3
f 27/53/3 20/56/3 8/57/3
f 20/56/3 22/54/3 24/58/3
f 20/56/3 24/58/3 18/59/3
f 10/60/3 18/59/3 24/58/3
f 18/59/3 10/60/3 12/61/3
f 8/57/3 20/56/3 6/62/3
f 18/51/7 11/50/7 17/49/7
f 11/50/7 18/51/7 12/52/7

