# Created by Kenney (www.kenney.nl)

mtllib battlement_cornerInner.mtl

g battlement_cornerInner

v 0.35 0.4 -0.1
v 0.35 0.4 0.1
v 0.2 0.4 -0.1
v 0.2 0.4 0.1
v 0.35 0.4 -0.5
v 0.35 0.4 -0.4
v 0.2 0.4 -0.5
v 0.2 0.4 -0.4
v 0.35 0.3 -0.4
v 0.35 0.3 -0.1
v 0.2 0.3 -0.4
v 0.2 0.3 -0.1
v 0.5 0 -0.5
v 0.3 0 -0.5
v 0.5 0 0.5
v 0.3 0 0.3
v -0.4 0.4 0.2
v -0.4 0.4 0.35
v -0.5 0.4 0.2
v -0.5 0.4 0.35
v 0.09999999 0.4 0.2
v 0.09999999 0.4 0.35
v -0.1 0.4 0.2
v -0.1 0.4 0.35
v -0.5 0 0.5
v -0.5 0 0.3
v 0.35 0.3 0.1
v 0.35 0.3 0.35
v 0.2 0.3 0.1
v 0.2 0.3 0.2
v -0.1 0.3 0.2
v -0.1 0.3 0.35
v -0.4 0.3 0.2
v -0.4 0.3 0.35
v 0.5 0.2 0.5
v -0.5 0.2 0.5
v 0.35 0.2 0.35
v -0.5 0.2 0.35
v 0.5 0.2 -0.5
v 0.35 0.2 -0.5
v 0.09999999 0.3 0.35
v 0.09999999 0.3 0.2
v 0.2 0.2 -0.5
v 0.2 0.2 0.2
v -0.5 0.2 0.2

vn 0 1 0
vn 0 -1 0
vn 0 0 -1
vn 0 0 1
vn -0.8944272 -0.4472136 0
vn 1 0 0
vn -1 0 0
vn 0 -0.4472136 -0.8944272

vt 0.4 -0.95
vt 0.6 -0.95
vt 0.4 -1.1
vt 0.6 -1.1
vt 2.220446E-16 -0.95
vt 0.1 -0.95
vt 4.440892E-16 -1.1
vt 0.1 -1.1
vt -1.110223E-16 -0.8
vt 1.110223E-16 -1
vt -1 -0.8
vt -0.8 -1
vt 0.9 -1.1
vt 0.9 -0.95
vt 1 -1.1
vt 1 -0.95
vt 0 -0.8
vt -0.2 -1
vt -1 -1
vt 0.85 -0.95
vt 0.7 -1.1
vt 1 -0.8
vt 0.15 -0.95
vt 1.110223E-16 -0.8
vt 0.3 -1.1
vt -0.9 0.3
vt -1.05 0.3
vt -0.9 0.4
vt -1.05 0.4
vt -0.9 0.2
vt -1.05 0.2
vt -1.2 0.2
vt -1.2 0
vt -1 0
vt -0.95 0.3
vt -1.1 0.3
vt -0.95 0.4
vt -1.1 0.4
vt -2.105603 2.175091
vt -1.405603 2.175091
vt -2.105603 1.951485
vt -1.305603 1.951485
vt -1.707781E-09 0.2
vt -1.707781E-09 4.150858E-09
vt -1 0.2
vt -1 4.150858E-09
vt -1 0.4
vt -0.3 0.2
vt -0.6 0.3
vt -0.6 0.4
vt -0.4 0.3
vt -0.3 0.3
vt -0.4 0.4
vt -1.45 0.4
vt -1.45 0.3
vt -1.65 0.4
vt -1.65 0.3
vt -1.9 0.2
vt -1.15 0.3
vt -1.15 0.4
vt -1.9 0.3
vt -2.320547E-09 -2.642844E-08
vt -1 -2.642844E-08
vt -2.320547E-09 0.2
vt -1 0.2
vt -1.005603 -0.06097665
vt -1.805603 -0.06097665
vt -1.005603 0.1626301
vt -1.705603 0.1626301
vt 1.110223E-16 0
vt 0.05 0.2
vt 0.2 0
vt 0.2 0.2
vt 0.05 0.4
vt -0.1 0.4
vt -0.1 0.2
vt -0.7 0.2
vt -0.1 0.3
vt 2.220446E-15 0.2
vt 2.220446E-15 0.4
vt -0.7 0.3
vt -1.95 0.3
vt -1.2 0.3
vt -2.05 0.2
vt -2.05 0.4
vt -1.95 0.4

usemtl bricks

f 3/3/1 2/2/1 1/1/1
f 2/2/1 3/3/1 4/4/1
f 7/7/1 6/6/1 5/5/1
f 6/6/1 7/7/1 8/8/1
f 11/8/1 10/1/1 9/6/1
f 10/1/1 11/8/1 12/3/1
f 15/11/2 14/10/2 13/9/2
f 14/10/2 15/11/2 16/12/2
f 19/15/1 18/14/1 17/13/1
f 18/14/1 19/15/1 20/16/1
f 23/4/1 22/1/1 21/3/1
f 22/1/1 23/4/1 24/2/1
f 25/11/2 16/18/2 15/17/2
f 16/18/2 25/11/2 26/19/2
f 29/4/1 28/20/1 27/2/1
f 28/20/1 29/4/1 30/21/1
f 33/13/1 32/2/1 31/4/1
f 32/2/1 33/13/1 34/14/1
f 37/23/1 36/22/1 35/17/1
f 36/22/1 37/23/1 38/16/1
f 40/5/1 35/22/1 39/24/1
f 35/22/1 40/5/1 37/20/1
f 30/25/1 41/1/1 28/23/1
f 41/1/1 30/25/1 42/3/1

usemtl stones

f 3/28/3 10/27/3 12/26/3
f 10/27/3 3/28/3 1/29/3
f 7/28/3 40/31/3 43/30/3
f 40/31/3 7/28/3 5/29/3
f 39/32/3 43/30/3 40/31/3
f 13/33/3 43/30/3 39/32/3
f 43/30/3 13/33/3 14/34/3
f 2/37/4 29/36/4 27/35/4
f 29/36/4 2/37/4 4/38/4
f 6/37/4 11/36/4 9/35/4
f 11/36/4 6/37/4 8/38/4
f 14/41/5 44/40/5 43/39/5
f 44/40/5 14/41/5 16/42/5
f 35/45/6 13/44/6 39/43/6
f 13/44/6 35/45/6 15/46/6
f 43/45/7 11/26/7 7/47/7
f 11/26/7 43/45/7 44/48/7
f 11/26/7 44/48/7 12/49/7
f 12/49/7 44/48/7 3/50/7
f 3/50/7 44/48/7 29/51/7
f 29/51/7 44/48/7 30/52/7
f 4/53/7 3/50/7 29/51/7
f 8/28/7 7/47/7 11/26/7
f 2/56/6 10/55/6 1/54/6
f 27/57/6 10/55/6 2/56/6
f 37/58/6 10/55/6 27/57/6
f 37/58/6 9/59/6 10/55/6
f 40/31/6 9/59/6 37/58/6
f 40/31/6 6/60/6 9/59/6
f 6/60/6 40/31/6 5/29/6
f 37/58/6 27/57/6 28/61/6
f 35/64/4 25/63/4 15/62/4
f 25/63/4 35/64/4 36/65/4
f 45/68/8 16/67/8 26/66/8
f 16/67/8 45/68/8 44/69/8
f 25/72/7 38/71/7 26/70/7
f 38/71/7 25/72/7 36/73/7
f 20/74/7 26/70/7 38/71/7
f 19/75/7 26/70/7 20/74/7
f 26/70/7 19/75/7 45/76/7
f 22/29/6 42/26/6 21/28/6
f 42/26/6 22/29/6 41/27/6
f 45/79/3 33/78/3 44/77/3
f 33/78/3 45/79/3 19/80/3
f 33/78/3 19/80/3 17/75/3
f 33/78/3 30/81/3 44/77/3
f 30/81/3 33/78/3 31/51/3
f 30/81/3 31/51/3 42/49/3
f 23/53/3 42/49/3 31/51/3
f 42/49/3 23/53/3 21/50/3
f 32/35/7 23/38/7 31/36/7
f 23/38/7 32/35/7 24/37/7
f 18/29/6 33/26/6 17/28/6
f 33/26/6 18/29/6 34/27/6
f 22/54/4 32/57/4 41/55/4
f 32/57/4 22/54/4 24/56/4
f 34/82/4 41/55/4 32/57/4
f 34/82/4 28/83/4 41/55/4
f 38/84/4 28/83/4 34/82/4
f 28/83/4 38/84/4 37/32/4
f 38/84/4 34/82/4 20/85/4
f 20/85/4 34/82/4 18/86/4

