# Created by Kenney (www.kenney.nl)

mtllib column.mtl

g column

v 0.1 0 0.1
v -0.1 0 0.1
v 0.1 1 0.1
v -0.1 1 0.1
v 0.1 1 -0.1
v 0.1 0 -0.1
v -0.1 0 -0.1
v -0.1 1 -0.1

vn 0 0 1
vn 1 0 0
vn -1 0 0
vn 0 0 -1
vn 0 1 0
vn 0 -1 0

vt -1.3 0
vt -1.5 0
vt -1.3 1
vt -1.5 1
vt -2.2 1
vt -2.2 0
vt -2.4 1
vt -2.4 0
vt -1.7 0
vt -1.7 1
vt -2 0
vt -2 1
vt 0.8 -0.2
vt 0.8 0
vt 1 -0.2
vt 1 0
vt -0.8 0
vt -0.8 -0.2
vt -1 0
vt -1 -0.2

usemtl stones

f 3/3/1 2/2/1 1/1/1
f 2/2/1 3/3/1 4/4/1
f 3/7/2 6/6/2 5/5/2
f 6/6/2 3/7/2 1/8/2
f 2/2/3 8/10/3 7/9/3
f 8/10/3 2/2/3 4/4/3
f 8/12/4 6/6/4 7/11/4
f 6/6/4 8/12/4 5/5/4

usemtl bricks

f 8/15/5 3/14/5 5/13/5
f 3/14/5 8/15/5 4/16/5
f 2/19/6 6/18/6 1/17/6
f 6/18/6 2/19/6 7/20/6

