# Created by Kenney (www.kenney.nl)

mtllib column_damaged.mtl

g column_damaged

v 0.1 0.9 -1.490115E-09
v 0 0.9 0
v 0.1 1 -1.490115E-09
v 0 0.7 0
v -0.1 0.7 1.490115E-09
v -1.490115E-09 0.6 -0.1
v -0.1 0.6 -0.1
v 0 0.8 0
v 0.1 0.8 0.1
v 1.490115E-09 0.8 0.1
v -0.1 0.7 0.1
v 0.1 1 -0.1
v -1.490115E-09 0.9 -0.1
v 0.1 0 0.1
v 0.1 0 -0.1
v -0.1 0 0.1
v -0.1 0 -0.1

vn 0 0 1
vn 0 0.7071068 -0.7071068
vn 0 0 -1
vn 0 0.7071068 0.7071068
vn -0.7071068 0.7071068 0
vn -1 0 0
vn 0 -1 0
vn 1 0 0

vt 1 1.9
vt 0.9 1.9
vt 1 2
vt 3.1 0.7171573
vt 3.2 0.7171573
vt 3.1 0.5757359
vt 3.2 0.5757359
vt 3.2 1.7
vt 3.1 1.7
vt 3.1 1.8
vt 1 2.272792
vt 0.9 2.272792
vt 1 2.414214
vt 0.9 2.414214
vt 1 0.787868
vt 1 0.6464466
vt 0.9 0.787868
vt 0.9 0.6464466
vt 0.9 1
vt 0.9 0.8585786
vt 0.8 1
vt 0.8 0.8585786
vt 0.8 1.6
vt 0.8 1.9
vt 0.9 1.7
vt 0.9 1.8
vt 1 1.8
vt -1 1.387779E-16
vt -0.8 1.110223E-16
vt -1 -0.2
vt -0.8 -0.2
vt -1.5 0
vt -1.7 0
vt -1.5 0.8
vt -1.7 0.7
vt -1.6 0.8
vt -2.2 0
vt -2.2 0.6
vt -2 0
vt -2.1 0.7
vt -2 0.7
vt -1.3 1
vt -1.3 0
vt -1.4 1
vt -1.4 0.9
vt -2.4 0
vt -2.3 0.6
vt -2.4 1
vt -2.3 0.9

usemtl bricks

f 3/3/1 2/2/1 1/1/1
f 6/6/2 5/5/2 4/4/2
f 5/5/2 6/6/2 7/7/2
f 8/10/3 4/9/3 5/8/3
f 1/13/4 10/12/4 9/11/4
f 10/12/4 1/13/4 2/14/4
f 8/17/5 11/16/5 10/15/5
f 11/16/5 8/17/5 5/18/5
f 12/21/5 2/20/5 3/19/5
f 2/20/5 12/21/5 13/22/5
f 4/25/6 13/24/6 6/23/6
f 13/24/6 4/25/6 2/2/6
f 2/2/6 4/25/6 8/26/6
f 2/2/6 8/26/6 10/27/6
f 16/30/7 15/29/7 14/28/7
f 15/29/7 16/30/7 17/31/7

usemtl stones

f 9/34/1 16/33/1 14/32/1
f 16/33/1 9/34/1 11/35/1
f 11/35/1 9/34/1 10/36/1
f 16/39/6 7/38/6 17/37/6
f 7/38/6 16/39/6 5/40/6
f 5/40/6 16/39/6 11/41/6
f 3/44/8 15/43/8 12/42/8
f 15/43/8 3/44/8 1/45/8
f 15/43/8 1/45/8 14/32/8
f 14/32/8 1/45/8 9/34/8
f 7/38/3 15/46/3 17/37/3
f 15/46/3 7/38/3 6/47/3
f 15/46/3 6/47/3 12/48/3
f 12/48/3 6/47/3 13/49/3

