# Created by Kenney (www.kenney.nl)

mtllib columnPaint_damaged.mtl

g columnPaint_damaged

v 0.1 0.8 -0.1
v 0.1 0 -0.1
v 0.1 0.8 -6.172249E-10
v 0.1 0.7 -6.172249E-10
v 0.1 0 0.1
v 0.1 0.6 0.1
v -0.1 0 0.1
v -0.1 0.5 0.1
v 6.17225E-10 0.6 0.1
v -0.1 0 -0.1
v -0.1 0.4 -0.1
v -6.17225E-10 0.4 -0.1
v -6.17225E-10 0.7 -0.1
v -0.1 0.5 6.172249E-10
v 0 0.6 0
v 0 0.7 0
v 0 0.5 0

vn 1 0 0
vn 0 0 1
vn 0 0 -1
vn -1 0 0
vn -0.7071068 0.7071068 0
vn 0 -1 0
vn 0 0.7071068 0.7071068
vn 0 0.7071068 -0.7071068

vt 0.7 0.8
vt 0.7 0
vt 0.6 0.8
vt 0.6 0.7
vt 0.5 0
vt 0.5 0.6
vt -1 0
vt -1.2 0
vt -1 0.6
vt -1.2 0.5
vt -1.1 0.6
vt 1.2 0
vt 1 0
vt 1.2 0.4
vt 1.1 0.4
vt 1 0.8
vt 1.1 0.7
vt -0.7 0
vt -0.7 0.4
vt -0.5 0
vt -0.6 0.5
vt -0.5 0.5
vt 0.9 0.6464466
vt 1 0.6464466
vt 0.9 0.5050253
vt 1 0.5050253
vt -1 5.551115E-17
vt -0.8 -5.551115E-17
vt -1 -0.2
vt -0.8 -0.2
vt 0.9 0.9292893
vt 0.9 0.787868
vt 0.8 0.9292893
vt 0.8 0.787868
vt 0.5 1.7
vt 0.4 1.7
vt 0.5 1.8
vt 0.5 1.777817
vt 0.4 1.777817
vt 0.5 1.919239
vt 0.4 1.919239
vt 0.8 1.4
vt 0.8 1.7
vt 0.9 1.5
vt 0.9 1.7
vt 0.9 1.6
vt 1 1.6
vt 2.6 0.9292893
vt 2.7 0.9292893
vt 2.6 0.787868
vt 2.7 0.787868
vt 2.7 1.5
vt 2.6 1.5
vt 2.6 1.6

usemtl stonesPainted

f 3/3/1 2/2/1 1/1/1
f 2/2/1 3/3/1 4/4/1
f 2/2/1 4/4/1 5/5/1
f 5/5/1 4/4/1 6/6/1
f 6/9/2 7/8/2 5/7/2
f 7/8/2 6/9/2 8/10/2
f 8/10/2 6/9/2 9/11/2
f 11/14/3 2/13/3 10/12/3
f 2/13/3 11/14/3 12/15/3
f 2/13/3 12/15/3 1/16/3
f 1/16/3 12/15/3 13/17/3
f 7/20/4 11/19/4 10/18/4
f 11/19/4 7/20/4 14/21/4
f 14/21/4 7/20/4 8/22/4

usemtl bricks

f 14/25/5 9/24/5 15/23/5
f 9/24/5 14/25/5 8/26/5
f 7/29/6 2/28/6 5/27/6
f 2/28/6 7/29/6 10/30/6
f 1/33/5 16/32/5 3/31/5
f 16/32/5 1/33/5 13/34/5
f 3/37/2 16/36/2 4/35/2
f 4/40/7 9/39/7 6/38/7
f 9/39/7 4/40/7 16/41/7
f 17/44/4 13/43/4 12/42/4
f 13/43/4 17/44/4 16/45/4
f 16/45/4 17/44/4 15/46/4
f 16/45/4 15/46/4 9/47/4
f 12/50/8 14/49/8 17/48/8
f 14/49/8 12/50/8 11/51/8
f 15/54/3 17/53/3 14/52/3

