# Created by Kenney (www.kenney.nl)

mtllib detail_barrel.mtl

g detail_barrel

v -1.443823E-15 0.0885 -0.123
v 0.08697414 0.0885 -0.08697414
v -1.443823E-15 0.2115 -0.123
v 0.08697414 0.2115 -0.08697414
v -7.219114E-16 0.3 -0.1
v 0.07071068 0.3 -0.07071068
v -7.219114E-16 0 -0.1
v 0.07071068 0 -0.07071068
v 0.123 0.2115 0
v 0.123 0.0885 0
v 0.08697414 0.2115 0.08697414
v -1.443823E-15 0.2115 0.123
v 0.07071068 0.3 0.07071068
v -7.219114E-16 0.3 0.1
v 0.07071068 0 0.07071068
v -7.219114E-16 0 0.1
v 0.08697414 0.0885 0.08697414
v -1.443823E-15 0.0885 0.123
v 0.1 0.3 -7.219114E-16
v 0.1 0 -7.219114E-16
v -0.07071068 0.3 -0.07071068
v -0.07071068 0.3 0.07071068
v -0.1 0.3 -7.219114E-16
v -0.08697414 0.0885 -0.08697414
v -0.123 0.0885 0
v -0.07071068 0 -0.07071068
v -0.1 0 -7.219114E-16
v -0.08697414 0.2115 -0.08697414
v -0.123 0.2115 0
v -0.08697414 0.2115 0.08697414
v -0.07071068 0 0.07071068
v -0.08697414 0.0885 0.08697414

vn 0 0 -1
vn 0.7071068 0 -0.7071068
vn 0 0.2515314 -0.9678491
vn 0.6843727 0.2515315 -0.6843727
vn 0 -0.2515314 -0.9678491
vn 0.6843727 -0.2515315 -0.6843727
vn 1 0 0
vn 0.6843727 0.2515315 0.6843727
vn 0 0.2515314 0.9678491
vn 0.6843727 -0.2515315 0.6843727
vn 0 -0.2515314 0.9678491
vn 0.7071068 0 0.7071068
vn 0 0 1
vn 0.9678491 0.2515314 0
vn 0.9678491 -0.2515314 0
vn 0 1 0
vn -0.6843727 -0.2515315 -0.6843727
vn -0.9678491 -0.2515314 0
vn -0.7071068 0 -0.7071068
vn -1 0 0
vn -0.6843727 0.2515315 -0.6843727
vn -0.9678491 0.2515314 0
vn -0.6843727 0.2515315 0.6843727
vn -0.6843727 -0.2515315 0.6843727
vn -0.7071068 0 0.7071068
vn 0 -1 0

vt 5.234631 0.6433008
vt 5.089762 0.6433011
vt 5.234631 0.8277532
vt 5.089762 0.8277534
vt 5.221087 0.9678131
vt 5.103307 0.9678133
vt 5.221086 0.503241
vt 5.103306 0.5032412
vt 5.23463 0.6433008
vt 2.748632 0.9799647
vt 2.90991 0.9131609
vt 2.587354 0.9131614
vt 2.52055 0.7518834
vt 2.976713 0.7518827
vt 2.587353 0.5906051
vt 2.909909 0.5906046
vt 2.748631 0.5238013
vt 5.229232 0.9647632
vt 5.347012 0.9647629
vt 5.215687 0.8247033
vt 5.360556 0.824703
vt 5.229231 0.5001911
vt 5.215687 0.640251
vt 5.347011 0.5001909
vt 5.360556 0.6402507
vt 5.478862 0.6371338
vt 5.333993 0.6371341
vt 5.478863 0.8215862
vt 5.333994 0.8215864
vt 5.465317 0.497074
vt 5.347538 0.4970742
vt 5.360556 0.8247031
vt 5.465318 0.961646
vt 5.347539 0.9616463
vt 2.909909 0.5906047

usemtl barrel

f 3/3/1 2/2/2 1/1/1
f 2/2/2 3/3/1 4/4/2
f 5/5/3 4/4/4 3/3/3
f 4/4/4 5/5/3 6/6/4
f 1/9/5 8/8/6 7/7/5
f 8/8/6 1/9/5 2/2/6
f 9/4/7 2/1/2 4/3/2
f 2/1/2 9/4/7 10/2/7
f 13/5/8 12/4/9 11/3/8
f 12/4/9 13/5/8 14/6/9
f 17/9/10 16/8/11 15/7/10
f 16/8/11 17/9/10 18/2/11
f 11/3/12 18/2/13 17/1/12
f 18/2/13 11/3/12 12/4/13
f 6/5/4 9/4/14 4/3/4
f 9/4/14 6/5/4 19/6/14
f 11/4/12 10/1/7 9/3/7
f 10/1/7 11/4/12 17/2/12
f 13/6/8 9/3/14 19/5/14
f 9/3/14 13/6/8 11/4/8
f 10/9/15 15/8/10 20/7/15
f 15/8/10 10/9/15 17/2/10
f 10/2/15 8/7/6 2/9/6
f 8/7/6 10/2/15 20/8/15
f 6/12/16 13/11/16 19/10/16
f 13/11/16 6/12/16 5/13/16
f 13/11/16 5/13/16 14/14/16
f 14/14/16 5/13/16 21/15/16
f 14/14/16 21/15/16 22/16/16
f 22/16/16 21/15/16 23/17/16
f 26/8/17 25/9/18 24/2/17
f 25/9/18 26/8/17 27/7/18
f 25/1/20 28/4/19 24/2/19
f 28/4/19 25/1/20 29/3/20
f 29/3/22 21/6/21 28/4/21
f 21/6/21 29/3/22 23/5/22
f 28/3/19 1/2/1 24/1/19
f 1/2/1 28/3/19 3/4/1
f 21/5/21 3/4/3 28/3/21
f 3/4/3 21/5/21 5/6/3
f 29/20/22 22/19/23 23/18/22
f 22/19/23 29/20/22 30/21/23
f 31/24/24 25/23/18 27/22/18
f 25/23/18 31/24/24 32/25/24
f 12/28/13 32/27/25 18/26/13
f 32/27/25 12/28/13 30/29/25
f 24/9/17 7/8/5 26/7/17
f 7/8/5 24/9/17 1/2/5
f 18/26/11 31/31/24 16/30/11
f 31/31/24 18/26/11 32/27/24
f 32/25/25 29/20/20 25/23/20
f 29/20/20 32/25/25 30/32/25
f 14/33/9 30/29/23 12/28/9
f 30/29/23 14/33/9 22/34/23
f 15/11/26 8/12/26 20/10/26
f 8/12/26 15/11/26 16/14/26
f 8/12/26 16/14/26 7/13/26
f 7/13/26 16/14/26 31/35/26
f 7/13/26 31/35/26 26/15/26
f 26/15/26 31/35/26 27/17/26

