# Created by Kenney (www.kenney.nl)

mtllib detail_crate.mtl

g detail_crate

v 0.15 0 0.15
v -0.15 0 0.15
v 0.15 0.3 0.15
v -0.15 0.3 0.15
v -0.15 0 -0.15
v 0.15 0 -0.15
v -0.15 0.3 -0.15
v 0.15 0.3 -0.15

vn 0 0 1
vn 0 0 -1
vn 1 0 0
vn 0 1 0
vn 0 -1 0
vn -1 0 0

vt 3.497718 0.004930325
vt 3.008574 0.004930325
vt 3.497719 0.4940715
vt 3.008575 0.4940715
vt 3.008574 0.004930325
vt 3.496593 0.992303
vt 3.496592 0.503162
vt 3.007452 0.9923037
vt 3.007451 0.5031628
vt 3.504707 0.4966945
vt 3.993848 0.4966937
vt 3.504707 0.007553523
vt 3.993848 0.007552732
vt 3.496592 0.503162
vt 3.007451 0.5031628

usemtl barrel

f 3/3/1 2/2/1 1/1/1
f 2/2/1 3/3/1 4/4/1
f 7/3/2 6/5/2 5/1/2
f 6/5/2 7/3/2 8/4/2
f 3/8/3 6/7/3 8/6/3
f 6/7/3 3/8/3 1/9/3
f 7/12/4 3/11/4 8/10/4
f 3/11/4 7/12/4 4/13/4
f 2/14/5 6/8/5 1/6/5
f 6/8/5 2/14/5 5/15/5
f 2/14/6 7/8/6 5/15/6
f 7/8/6 2/14/6 4/6/6

