# Created by Kenney (www.kenney.nl)

mtllib floor_stairsCornerInner.mtl

g floor_stairsCornerInner

v 0.5 0 0.5
v -0.5 0 0.5
v 0.5 0.35 0.5
v -0.5 0.35 0.5
v -0.5 0 -0.5
v -0.5 0.05 -0.5
v -0.5 0.05 -0.25
v -0.5 0.15 -0.25
v -0.5 0.15 1.263345E-14
v -0.5 0.25 1.263345E-14
v -0.5 0.25 0.25
v -0.5 0.35 0.25
v 0.5 0.35 -0.5
v 0.5 0 -0.5
v -0.25 0.05 -0.5
v -2.68912E-14 0.15 -0.5
v -0.25 0.15 -0.5
v 0.25 0.25 -0.5
v -2.68912E-14 0.25 -0.5
v 0.25 0.35 -0.5
v -2.68912E-14 0.15 1.263345E-14
v -2.68912E-14 0.25 1.263345E-14
v -0.25 0.05 -0.25
v -0.25 0.15 -0.25
v 0.25 0.25 0.25
v 0.25 0.35 0.25

vn 0 0 1
vn -1 0 0
vn 1 0 0
vn 0 0 -1
vn 0 1 0

vt 2.125 0
vt 1.125 0
vt 2.125 0.35
vt 1.125 0.35
vt 0.125 0
vt 0.125 0.05
vt 0.375 0.05
vt 0.375 0.15
vt 0.625 0.15
vt 0.625 0.25
vt 0.875 0.25
vt 0.875 0.35
vt 7.241755 0.35
vt 7.241755 0
vt 6.241755 0.35
vt 6.241755 0
vt 8.241755 -4.657435E-27
vt 7.241755 -6.68954E-28
vt 8.241755 0.05
vt 7.991755 0.05
vt 7.741755 0.15
vt 7.991755 0.15
vt 7.491755 0.25
vt 7.741755 0.25
vt 7.491755 0.35
vt -1 0.15
vt -1.5 0.15
vt -1 0.25
vt -1.5 0.25
vt -7.116755 0.25
vt -7.116755 0.35
vt -6.866755 0.25
vt -6.866755 0.35
vt -1.25 0.25
vt -1.25 0.35
vt -1 0.35
vt -7.116755 0.15
vt -6.616755 0.15
vt -6.616755 0.25
vt -1.75 0.25
vt -1.75 0.35
vt -6.366755 0.25
vt -6.366755 0.35
vt -1 -1
vt -1.25 -0.75
vt -1 -0.75
vt -1.5 -0.5
vt -1 -0.5
vt -1.75 -0.25
vt -1 -0.25
vt -6.106227E-16 -0.25
vt 0.75 -0.25
vt 2.775558E-16 -0.5
vt 0.5 -0.5
vt 5.551115E-17 4.440892E-16
vt 1 9.625634E-14
vt -2.775558E-16 -0.75
vt 0.25 -0.75
vt 9.586776E-14 -1
vt -2 5.551115E-16
vt -1 5.551115E-16

usemtl stones

f 3/3/1 2/2/1 1/1/1
f 2/2/1 3/3/1 4/4/1
f 2/2/2 6/6/2 5/5/2
f 6/6/2 2/2/2 7/7/2
f 7/7/2 2/2/2 8/8/2
f 8/8/2 2/2/2 9/9/2
f 9/9/2 2/2/2 10/10/2
f 10/10/2 2/2/2 11/11/2
f 11/11/2 2/2/2 12/12/2
f 12/12/2 2/2/2 4/4/2
f 3/15/3 14/14/3 13/13/3
f 14/14/3 3/15/3 1/16/3
f 6/19/4 14/18/4 5/17/4
f 14/18/4 6/19/4 15/20/4
f 15/20/4 13/13/4 14/18/4
f 13/13/4 15/20/4 16/21/4
f 16/21/4 15/20/4 17/22/4
f 13/13/4 16/21/4 18/23/4
f 19/24/4 18/23/4 16/21/4
f 13/13/4 18/23/4 20/25/4
f 10/28/4 21/27/4 9/26/4
f 21/27/4 10/28/4 22/29/4
f 23/32/2 17/31/2 15/30/2
f 17/31/2 23/32/2 24/33/2
f 7/28/4 24/35/4 23/34/4
f 24/35/4 7/28/4 8/36/4
f 21/38/2 19/30/2 16/37/2
f 19/30/2 21/38/2 22/39/2
f 12/36/4 25/40/4 11/28/4
f 25/40/4 12/36/4 26/41/4
f 25/42/2 20/31/2 18/30/2
f 20/31/2 25/42/2 26/43/2

usemtl bricks

f 7/46/5 23/45/5 6/44/5
f 24/45/5 9/48/5 21/47/5
f 9/48/5 24/45/5 8/46/5
f 22/47/5 11/50/5 25/49/5
f 11/50/5 22/47/5 10/48/5
f 19/53/5 25/52/5 18/51/5
f 25/52/5 19/53/5 22/54/5
f 20/51/5 3/56/5 13/55/5
f 3/56/5 20/51/5 26/52/5
f 6/59/5 23/58/5 15/57/5
f 17/57/5 21/54/5 16/53/5
f 21/54/5 17/57/5 24/58/5
f 26/49/5 4/61/5 3/60/5
f 4/61/5 26/49/5 12/50/5

