# Created by Kenney (www.kenney.nl)

mtllib floor_stairsCornerOuter.mtl

g floor_stairsCornerOuter

v 3.609557E-15 0.15 -2.887646E-15
v 3.609557E-15 0.25 -2.887646E-15
v 3.609557E-15 0.15 0.5
v 3.609557E-15 0.25 0.5
v 0.5 0.15 -2.887646E-15
v 0.5 0.25 -2.887646E-15
v -0.25 0.05 -0.25
v -0.25 0.15 -0.25
v -0.25 0.05 0.5
v -0.25 0.15 0.5
v 0.25 0.25 0.25
v 0.25 0.35 0.25
v 0.25 0.25 0.5
v 0.25 0.35 0.5
v 0.5 0.05 -0.25
v 0.5 0.15 -0.25
v 0.5 0.25 0.25
v 0.5 0.35 0.25
v -0.5 0 0.5
v 0.5 0 0.5
v 0.5 0.35 0.5
v -0.5 0.05 0.5
v -0.5 0 -0.5
v -0.5 0.05 -0.5
v 0.5 0 -0.5
v 0.5 0.05 -0.5

vn -1 0 0
vn 0 0 -1
vn 0 0 1
vn 1 0 0
vn 0 1 0

vt -6.208666 0.15
vt -6.208666 0.25
vt -5.708666 0.15
vt -5.708666 0.25
vt 0.5 0.15
vt 0 0.15
vt 0.5 0.25
vt 0 0.25
vt -6.458666 0.25
vt -6.458666 0.35
vt -5.708666 0.35
vt -5.958666 0.25
vt -5.958666 0.35
vt 0.75 0.25
vt 0.75 0.35
vt 0 0.35
vt 0.25 0.25
vt 0.25 0.35
vt 4.833666 -2.997671E-28
vt 5.083666 0.05
vt 5.833666 -2.587464E-28
vt 5.583666 0.25
vt 5.833666 0.35
vt 5.333666 0.15
vt 5.583666 0.35
vt 5.333666 0.25
vt 5.083666 0.15
vt 4.833666 0.05
vt -6.708666 0.2
vt -6.708666 0.25
vt -5.708666 0.2
vt 1 0.2
vt -4.662937E-15 0.2
vt 1 0.25
vt -4.662937E-15 0.25
vt 6.583666 0.15
vt 6.583666 0.05
vt 6.333666 0.15
vt 5.833666 0
vt 6.833666 0
vt 6.833666 0.05
vt 6.083666 0.25
vt 6.333666 0.25
vt 6.083666 0.35
vt 0 -0.5
vt 0 -0.25
vt 0.5 -0.5
vt 0.25 -0.25
vt -1.25 -0.25
vt -1 -7.882583E-15
vt -1 -0.25
vt 0 -3.608225E-15
vt 0 -0.75
vt 0.75 -0.75
vt -1.75 -0.75
vt -1 -0.75
vt -2 -1
vt -1 -1
vt -1.5 -0.5
vt -1 -0.5
vt 0 -1
vt 1 -1

usemtl stones

f 3/3/1 2/2/1 1/1/1
f 2/2/1 3/3/1 4/4/1
f 2/7/2 5/6/2 1/5/2
f 5/6/2 2/7/2 6/8/2
f 9/4/1 8/10/1 7/9/1
f 8/10/1 9/4/1 10/11/1
f 13/4/1 12/13/1 11/12/1
f 12/13/1 13/4/1 14/11/1
f 8/15/2 15/8/2 7/14/2
f 15/8/2 8/15/2 16/16/2
f 12/18/2 17/8/2 11/17/2
f 17/8/2 12/18/2 18/16/2
f 20/21/3 9/20/3 19/19/3
f 9/20/3 20/21/3 13/22/3
f 13/22/3 20/21/3 21/23/3
f 9/20/3 13/22/3 3/24/3
f 13/22/3 21/23/3 14/25/3
f 4/26/3 3/24/3 13/22/3
f 10/27/3 9/20/3 3/24/3
f 22/28/3 19/19/3 9/20/3
f 19/31/1 24/30/1 23/29/1
f 24/30/1 19/31/1 22/4/1
f 24/34/2 25/33/2 23/32/2
f 25/33/2 24/34/2 26/35/2
f 5/38/4 15/37/4 16/36/4
f 20/39/4 15/37/4 5/38/4
f 25/40/4 15/37/4 20/39/4
f 15/37/4 25/40/4 26/41/4
f 20/39/4 5/38/4 17/42/4
f 17/42/4 5/38/4 6/43/4
f 20/39/4 17/42/4 21/23/4
f 21/23/4 17/42/4 18/44/4

usemtl bricks

f 2/47/5 17/46/5 6/45/5
f 17/46/5 2/47/5 11/48/5
f 14/51/5 21/50/5 12/49/5
f 12/48/5 21/52/5 18/46/5
f 8/54/5 5/45/5 16/53/5
f 5/45/5 8/54/5 1/47/5
f 24/57/5 9/56/5 7/55/5
f 9/56/5 24/57/5 22/58/5
f 2/59/5 13/51/5 11/49/5
f 13/51/5 2/59/5 4/60/5
f 8/55/5 3/60/5 1/59/5
f 3/60/5 8/55/5 10/56/5
f 24/62/5 15/53/5 26/61/5
f 15/53/5 24/62/5 7/54/5

