# Created by Kenney (www.kenney.nl)

mtllib floor.mtl

g floor

v 0.5 0.05 -0.5
v 0.5 0.05 0.5
v -0.5 0.05 -0.5
v -0.5 0.05 0.5
v 0.5 0 0.5
v -0.5 0 0.5
v -0.5 0 -0.5
v 0.5 0 -0.5

vn 0 1 0
vn 0 0 1
vn -1 0 0
vn 1 0 0
vn 0 0 -1

vt -1 -1
vt -1 7.21645E-16
vt 0 -1
vt 0 7.21645E-16
vt 1.125 0
vt 0.125 0
vt 1.125 0.05
vt 0.125 0.05
vt -0.875 0
vt -0.875 0.05
vt -0.125 0.05
vt -0.125 -2.313275E-15
vt -1.125 0.05
vt -1.125 -2.313275E-15
vt 1.44329E-15 0.2
vt -1 0.2
vt 1.44329E-15 0.25
vt -1 0.25

usemtl bricks

f 3/3/1 2/2/1 1/1/1
f 2/2/1 3/3/1 4/4/1

usemtl stones

f 2/7/2 6/6/2 5/5/2
f 6/6/2 2/7/2 4/8/2
f 6/6/3 3/10/3 7/9/3
f 3/10/3 6/6/3 4/8/3
f 2/13/4 8/12/4 1/11/4
f 8/12/4 2/13/4 5/14/4
f 3/17/5 8/16/5 7/15/5
f 8/16/5 3/17/5 1/18/5

