# Created by Kenney (www.kenney.nl)

mtllib floor_stairs.mtl

g floor_stairs

v 0.5 0.35 0.25
v 0.5 0.35 0.5
v -0.5 0.35 0.25
v -0.5 0.35 0.5
v 0.5 0.25 0
v 0.5 0.25 0.25
v -0.5 0.25 0
v -0.5 0.25 0.25
v 0.5 0.15 -0.25
v 0.5 0.15 0
v -0.5 0.15 -0.25
v -0.5 0.15 0
v 0.5 0.05 -0.5
v 0.5 0.05 -0.25
v -0.5 0.05 -0.5
v -0.5 0.05 -0.25
v 0.5 0 0.5
v -0.5 0 0.5
v -0.5 0 -0.5
v 0.5 0 -0.5

vn 0 1 0
vn 0 0 -1
vn 0 0 1
vn -1 0 0
vn 1 0 0

vt -1 -0.25
vt -1 7.21645E-16
vt 0 -0.25
vt 0 7.21645E-16
vt -1 -0.5
vt 0 -0.5
vt -1 -0.75
vt 0 -0.75
vt -1 -1
vt 0 -1
vt 0 0.25
vt -1 0.25
vt 0 0.35
vt -1 0.35
vt 1.125 0
vt 0.125 0
vt 1.125 0.35
vt 0.125 0.35
vt 0 0.15
vt -1 0.15
vt -0.875 0
vt -0.875 0.05
vt -0.625 0.05
vt -0.625 0.15
vt -0.375 0.15
vt -0.375 0.25
vt -0.125 0.25
vt -0.125 0.35
vt -0.375 0.05
vt -1.125 -2.313275E-15
vt -0.125 -2.313275E-15
vt -0.125 0.05
vt -0.875 0.25
vt -0.625 0.25
vt -1.125 0.35
vt -0.875 0.35
vt 1.165734E-15 0.2
vt -1 0.2
vt 1.165734E-15 0.25

usemtl bricks

f 3/3/1 2/2/1 1/1/1
f 2/2/1 3/3/1 4/4/1
f 7/6/1 6/1/1 5/5/1
f 6/1/1 7/6/1 8/3/1
f 11/8/1 10/5/1 9/7/1
f 10/5/1 11/8/1 12/6/1
f 15/10/1 14/7/1 13/9/1
f 14/7/1 15/10/1 16/8/1

usemtl stones

f 3/13/2 6/12/2 8/11/2
f 6/12/2 3/13/2 1/14/2
f 2/17/3 18/16/3 17/15/3
f 18/16/3 2/17/3 4/18/3
f 7/11/2 10/20/2 12/19/2
f 10/20/2 7/11/2 5/12/2
f 18/16/4 15/22/4 19/21/4
f 15/22/4 18/16/4 16/23/4
f 16/23/4 18/16/4 11/24/4
f 11/24/4 18/16/4 12/25/4
f 12/25/4 18/16/4 7/26/4
f 7/26/4 18/16/4 8/27/4
f 8/27/4 18/16/4 3/28/4
f 3/28/4 18/16/4 4/18/4
f 10/24/5 14/29/5 9/25/5
f 17/30/5 14/29/5 10/24/5
f 20/31/5 14/29/5 17/30/5
f 14/29/5 20/31/5 13/32/5
f 17/30/5 10/24/5 6/33/5
f 6/33/5 10/24/5 5/34/5
f 17/30/5 6/33/5 2/35/5
f 2/35/5 6/33/5 1/36/5
f 11/13/2 14/12/2 16/11/2
f 14/12/2 11/13/2 9/14/2
f 15/39/2 20/38/2 19/37/2
f 20/38/2 15/39/2 13/12/2

