# Created by Kenney (www.kenney.nl)

mtllib overhang.mtl

g overhang

v 0.5 0.312132 -0.15
v 0.5 0.262132 -0.15
v 0.5 0.312132 0.15
v 0.5 0.262132 0.15
v 0.4 0.262132 0.15
v 0.4 0.262132 -0.15
v 0.3 0.262132 0.15
v -0.3 0.262132 0.15
v -0.4 0.262132 0.15
v -0.5 0.262132 0.15
v -0.5 0.312132 0.15
v -0.4 0.212132 0.15
v -0.3 0.212132 0.15
v -0.5 0.262132 -0.15
v -0.4 0.262132 -0.15
v -0.5 0.312132 -0.15
v -0.3 0.262132 -0.15
v 0.3 0.262132 -0.15
v 0.4 0 0.15
v 0.3 0 0.15
v 0.4 0.07071068 0.15
v 0.3 0.07071068 0.15
v 0.4 0.212132 -0.06213203
v 0.4 0.212132 0.008578644
v 0.3 0.212132 -0.06213203
v 0.3 0.212132 0.008578644
v 0.4 0.212132 -0.15
v 0.4 0.212132 0.15
v 0.3 0.212132 -0.15
v 0.3 0.212132 0.15
v -0.4 0.212132 -0.15
v -0.4 0.212132 -0.06213203
v -0.4 0.212132 0.008578644
v -0.3 0.212132 -0.15
v -0.3 0.212132 -0.06213203
v -0.3 0.212132 0.008578644
v -0.3 1.804779E-16 0.15
v -0.3 0.07071068 0.15
v -0.4 1.804779E-16 0.15
v -0.4 0.07071068 0.15

vn 1 0 0
vn 0 -1 0
vn 0 0 1
vn 0 0 -1
vn -1 0 0
vn 0 1 0
vn 0 -0.7071068 -0.7071068
vn 0 0.7071068 0.7071068

vt 0.9365723 4.727813
vt 0.9834033 4.727813
vt 0.9365723 4.446827
vt 0.9834032 4.446827
vt 0.03185518 -0.6396981
vt 0.03185521 -0.3587125
vt 0.1255171 -0.6396981
vt 0.1255171 -0.3587125
vt 0.03185525 0.01593498
vt 0.1255171 0.01593497
vt 0.03185524 -0.03089595
vt 0.219179 0.01593496
vt 0.7811502 0.0159349
vt 0.8748121 0.01593489
vt 0.968474 0.01593488
vt 0.968474 -0.03089605
vt 0.8748121 0.06276583
vt 0.7811502 0.06276584
vt 0.9684739 -0.3587126
vt 0.8748121 -0.3587126
vt 0.9684739 -0.3118816
vt 0.7811502 -0.3587126
vt 0.219179 -0.3587125
vt 0.03185521 -0.3118816
vt 0.9834027 -0.329928
vt 0.9365718 -0.329928
vt 0.9834027 -0.04894241
vt 0.9365718 -0.04894241
vt 0.03185521 -0.3118815
vt 0.968474 -0.3118817
vt 0.968474 -0.03089605
vt 0.1463082 0.2649696
vt 0.2399701 0.2649696
vt 0.1463082 0.1987407
vt 0.2399701 0.1987406
vt -0.9419805 0.2673667
vt -0.9419805 -0.0326333
vt -0.9919805 0.2173667
vt -0.9919806 0.01736669
vt 0.9 8.326673E-16
vt 0.9 -0.3
vt 1 8.326673E-16
vt 1 -0.3
vt -0.9419806 -0.3326333
vt -0.9919806 -0.2826333
vt -0.9419805 -0.03263331
vt -0.9919806 -0.08263331
vt 0.9 -0.25
vt 0.9 -0.05
vt 1 -0.25
vt 1 -0.05
vt -0.9919806 0.2673667
vt -0.9919806 -0.03263331
vt -0.9419805 0.1794987
vt -0.9419805 0.1087881
vt 1 0.95
vt 0.9 0.95
vt 1 1
vt 0.9 1
vt 0.9 6.106227E-16
vt 0.9 -0.1414214
vt 1 6.106227E-16
vt 1 -0.1414214
vt -0.9419805 -0.3326333
vt -0.9919806 -0.3326333
vt -0.9419805 -0.2447653
vt -0.9419805 -0.1740547
vt 0.1463082 0.06628276
vt 0.2399701 0.06628276
vt 0.1463082 0.01945183
vt 0.2399701 0.01945182
vt 0.9 -0.212132
vt 1 -0.212132
vt 0.2191789 -0.6396981
vt 0.7811502 -0.6396982
vt 0.9 -3.608225E-16
vt 1 -3.608225E-16
vt 0.8748121 -0.6396982
vt 0.9684739 -0.6396982
vt 0.9 6.938894E-16
vt 1 6.938894E-16
vt 0.7811503 0.2614527
vt 0.8748121 0.2614527
vt 0.7811502 0.1952237
vt 0.8748121 0.1952237

usemtl planks

f 3/3/1 2/2/1 1/1/1
f 2/2/1 3/3/1 4/4/1
f 5/7/2 2/6/2 4/5/2
f 2/6/2 5/7/2 6/8/2
f 3/11/3 5/10/3 4/9/3
f 5/10/3 3/11/3 7/12/3
f 7/12/3 3/11/3 8/13/3
f 8/13/3 3/11/3 9/14/3
f 9/14/3 3/11/3 10/15/3
f 10/15/3 3/11/3 11/16/3
f 12/17/3 8/13/3 9/14/3
f 8/13/3 12/17/3 13/18/3
f 4/9/4 5/10/4 3/11/4
f 7/12/4 3/11/4 5/10/4
f 8/13/4 3/11/4 7/12/4
f 9/14/4 3/11/4 8/13/4
f 10/15/4 3/11/4 9/14/4
f 11/16/4 3/11/4 10/15/4
f 9/14/4 8/13/4 12/17/4
f 13/18/4 12/17/4 8/13/4
f 16/21/4 15/20/4 14/19/4
f 15/20/4 16/21/4 17/22/4
f 17/22/4 16/21/4 18/23/4
f 18/23/4 16/21/4 6/8/4
f 6/8/4 16/21/4 2/6/4
f 2/6/4 16/21/4 1/24/4
f 10/27/5 16/26/5 14/25/5
f 16/26/5 10/27/5 11/28/5
f 16/30/6 3/11/6 1/29/6
f 3/11/6 16/30/6 11/31/6
f 21/34/3 20/33/3 19/32/3
f 20/33/3 21/34/3 22/35/3
f 24/38/1 19/37/1 23/36/1
f 19/37/1 24/38/1 21/39/1
f 20/42/7 23/41/7 19/40/7
f 23/41/7 20/42/7 25/43/7
f 20/46/5 26/45/5 25/44/5
f 26/45/5 20/46/5 22/47/5
f 26/50/8 21/49/8 24/48/8
f 21/49/8 26/50/8 22/51/8
f 5/53/1 27/36/1 6/52/1
f 27/36/1 5/53/1 23/54/1
f 23/54/1 5/53/1 24/55/1
f 24/55/1 5/53/1 28/46/1
f 18/58/4 27/57/4 29/56/4
f 27/57/4 18/58/4 6/59/4
f 30/62/2 24/61/2 28/60/2
f 24/61/2 30/62/2 26/63/2
f 25/66/5 18/65/5 29/64/5
f 18/65/5 25/66/5 7/53/5
f 7/53/5 25/66/5 26/67/5
f 7/53/5 26/67/5 30/46/5
f 5/70/3 30/69/3 28/68/3
f 30/69/3 5/70/3 7/71/3
f 28/68/4 30/69/4 5/70/4
f 7/71/4 5/70/4 30/69/4
f 25/73/2 27/41/2 23/72/2
f 27/41/2 25/73/2 29/43/2
f 8/75/2 18/23/2 7/74/2
f 18/23/2 8/75/2 17/22/2
f 32/66/5 15/65/5 31/64/5
f 15/65/5 32/66/5 9/53/5
f 9/53/5 32/66/5 33/67/5
f 9/53/5 33/67/5 12/46/5
f 8/53/1 34/36/1 17/52/1
f 34/36/1 8/53/1 35/54/1
f 35/54/1 8/53/1 36/55/1
f 36/55/1 8/53/1 13/46/1
f 12/77/2 36/61/2 13/76/2
f 36/61/2 12/77/2 33/63/2
f 15/58/4 34/57/4 31/56/4
f 34/57/4 15/58/4 17/59/4
f 10/79/2 15/20/2 9/78/2
f 15/20/2 10/79/2 14/19/2
f 36/38/1 37/37/1 35/36/1
f 37/37/1 36/38/1 38/39/1
f 39/81/7 35/41/7 37/80/7
f 35/41/7 39/81/7 32/43/7
f 33/50/8 38/49/8 36/48/8
f 38/49/8 33/50/8 40/51/8
f 39/46/5 33/45/5 32/44/5
f 33/45/5 39/46/5 40/47/5
f 38/84/3 39/83/3 37/82/3
f 39/83/3 38/84/3 40/85/3
f 32/73/2 34/41/2 35/72/2
f 34/41/2 32/73/2 31/43/2

