# Created by Kenney (www.kenney.nl)

mtllib overhang_fence.mtl

g overhang_fence

v -0.5 0 -0.15
v -0.4 0 -0.15
v -0.5 0.15 -0.15
v -0.4 0.15 -0.15
v -0.4 0.25 -0.15
v -0.5 0.25 -0.15
v -0.4 0.3 -0.15
v -0.5 0.3 -0.15
v 0.4 0 -0.15
v 0.5 0 -0.15
v 0.4 0.15 -0.15
v 0.5 0.15 -0.15
v 0.4 0.25 -0.15
v 0.5 0.25 -0.15
v 0.4 0.3 -0.15
v 0.5 0.3 -0.15
v -0.5 0.15 0.05
v -0.5 0.25 0.05
v -0.5 0 0.05
v -0.5 0 0.15
v -0.5 0.3 0.15
v -0.5 0.3 0.05
v 0.5 0.15 0.05
v 0.5 0.25 0.05
v 0.5 0 0.05
v 0.5 0 0.15
v 0.5 0.3 0.05
v 0.5 0.3 0.15

vn 0 0 -1
vn 0 0 1
vn -1 0 0
vn 1 0 0

vt -1.367456 -1.011758
vt -1.248966 -1.011758
vt -1.367456 -1.189494
vt -1.248966 -1.189494
vt -1.248966 -1.307985
vt -1.367457 -1.307985
vt -1.248966 -1.36723
vt -1.367457 -1.36723
vt -5.383169 1.017542
vt -5.483169 1.017542
vt -5.383169 1.167542
vt -5.483169 1.167542
vt -5.383169 1.267542
vt -5.483169 1.267542
vt -5.383169 1.317542
vt -5.483169 1.317542
vt -0.1112167 1.166879
vt -0.1112168 0.1165072
vt -0.2425132 1.166879
vt -0.2425134 0.1165072
vt -0.1112168 0.3791002
vt -0.2425133 0.3791002
vt -0.1150811 -1.178649
vt -0.1150813 -1.29714
vt -0.1150809 -1.000913
vt -0.2335718 -1.000914
vt -0.2335722 -1.356386
vt -0.1150813 -1.356385

usemtl planks

f 3/3/1 2/2/1 1/1/1
f 2/2/1 3/3/1 4/4/1
f 4/4/1 3/3/1 5/5/1
f 5/5/1 3/3/1 6/6/1
f 5/5/1 6/6/1 7/7/1
f 7/7/1 6/6/1 8/8/1
f 1/1/2 2/2/2 3/3/2
f 4/4/2 3/3/2 2/2/2
f 5/5/2 3/3/2 4/4/2
f 6/6/2 3/3/2 5/5/2
f 7/7/2 6/6/2 5/5/2
f 8/8/2 6/6/2 7/7/2
f 11/11/1 10/10/1 9/9/1
f 10/10/1 11/11/1 12/12/1
f 12/12/1 11/11/1 13/13/1
f 12/12/1 13/13/1 14/14/1
f 14/14/1 13/13/1 15/15/1
f 14/14/1 15/15/1 16/16/1
f 9/9/2 10/10/2 11/11/2
f 12/12/2 11/11/2 10/10/2
f 13/13/2 11/11/2 12/12/2
f 14/14/2 13/13/2 12/12/2
f 15/15/2 13/13/2 14/14/2
f 16/16/2 15/15/2 14/14/2
f 5/19/1 11/18/1 4/17/1
f 11/18/1 5/19/1 13/20/1
f 4/17/2 11/18/2 5/19/2
f 13/20/2 5/19/2 11/18/2
f 17/21/3 6/20/3 3/18/3
f 6/20/3 17/21/3 18/22/3
f 3/18/4 6/20/4 17/21/4
f 18/22/4 17/21/4 6/20/4
f 19/25/3 18/24/3 17/23/3
f 18/24/3 19/25/3 20/26/3
f 21/27/3 18/24/3 20/26/3
f 18/24/3 21/27/3 22/28/3
f 17/23/4 18/24/4 19/25/4
f 20/26/4 19/25/4 18/24/4
f 20/26/4 18/24/4 21/27/4
f 22/28/4 21/27/4 18/24/4
f 23/21/3 14/20/3 12/18/3
f 14/20/3 23/21/3 24/22/3
f 12/18/4 14/20/4 23/21/4
f 24/22/4 23/21/4 14/20/4
f 25/25/3 24/24/3 23/23/3
f 24/24/3 25/25/3 26/26/3
f 24/24/3 26/26/3 27/28/3
f 27/28/3 26/26/3 28/27/3
f 23/23/4 24/24/4 25/25/4
f 26/26/4 25/25/4 24/24/4
f 27/28/4 26/26/4 24/24/4
f 28/27/4 26/26/4 27/28/4

