# Created by Kenney (www.kenney.nl)

mtllib overhang_round.mtl

g overhang_round

v 0.75 0.125 0
v 0.5303301 0.125 0.5303301
v 0.5303301 0.125 -0.5303301
v 7.219114E-16 0.125 -0.75
v 7.219114E-16 0.125 0.75
v -0.5303301 0.125 -0.5303301
v -0.5303301 0.125 0.5303301
v -0.75 0.125 0
v 0.5303301 0 -0.5303301
v 0.75 0 0
v 7.219114E-16 0 -0.75
v -0.5303301 0 -0.5303301
v -0.75 0 0
v -0.5303301 0 0.5303301
v 7.219114E-16 0 0.75
v 0.5303301 0 0.5303301

vn 0 1.25 0
vn 0.7071068 0 -0.7071068
vn 1 0 0
vn 0 0 -1
vn -0.7071068 0 -0.7071068
vn -1 0 0
vn -0.7071068 0 0.7071068
vn 0 0 1
vn 0.7071068 0 0.7071068
vn 0 -1.25 0

vt 2.607556 0.437413
vt 2.813303 0.9341298
vt 2.813303 -0.05930397
vt 3.31002 -0.2650509
vt 3.31002 1.139877
vt 3.806737 -0.05930407
vt 3.806737 0.9341297
vt 4.012484 0.4374128
vt 0.1259906 -1.998911
vt 0.01410989 -1.998911
vt 0.1259917 -1.33988
vt 0.014111 -1.33988
vt 0.1259895 -2.657942
vt 0.01410878 -2.657942
vt 0.1259883 -3.316973
vt 0.01410767 -3.316973
vt 0.01410656 -3.976004
vt 0.1259872 -3.976004
vt 0.01410545 -4.635036
vt 0.1259861 -4.635035
vt 0.125985 -5.294066
vt 0.01410434 -5.294066
vt 0.1259839 -5.953097
vt 0.01410323 -5.953097
vt 0.01410212 -6.612128
vt 0.1259828 -6.612128
vt -8.712731 0.4374148
vt -8.918479 -0.05930275
vt -8.918479 0.9341325
vt -9.415196 1.13988
vt -9.415196 -0.2650499
vt -9.911914 0.9341326
vt -9.911914 -0.05930264
vt -10.11766 0.437415

usemtl planks

f 3/3/1 2/2/1 1/1/1
f 2/2/1 3/3/1 4/4/1
f 2/2/1 4/4/1 5/5/1
f 5/5/1 4/4/1 6/6/1
f 5/5/1 6/6/1 7/7/1
f 7/7/1 6/6/1 8/8/1
f 1/11/3 9/10/2 3/9/2
f 9/10/2 1/11/3 10/12/3
f 9/10/2 4/13/4 3/9/2
f 4/13/4 9/10/2 11/14/4
f 11/14/4 6/15/5 4/13/4
f 6/15/5 11/14/4 12/16/5
f 13/17/6 6/15/5 12/16/5
f 6/15/5 13/17/6 8/18/6
f 14/19/7 8/18/6 13/17/6
f 8/18/6 14/19/7 7/20/7
f 14/19/7 5/21/8 7/20/7
f 5/21/8 14/19/7 15/22/8
f 15/22/8 2/23/9 5/21/8
f 2/23/9 15/22/8 16/24/9
f 10/25/3 2/23/9 16/24/9
f 2/23/9 10/25/3 1/26/3
f 16/29/10 9/28/10 10/27/10
f 9/28/10 16/29/10 15/30/10
f 9/28/10 15/30/10 11/31/10
f 11/31/10 15/30/10 14/32/10
f 11/31/10 14/32/10 12/33/10
f 12/33/10 14/32/10 13/34/10

