# Created by Kenney (www.kenney.nl)

mtllib roof_corner.mtl

g roof_corner

v -0.5 0.1 -0.5
v -0.5 1 -0.05
v -0.5 0.0763932 -0.4
v -0.5 0.8763932 7.219114E-16
v -0.5 1 7.219114E-16
v -0.5 0 0.4
v -0.5 0.0763932 0.4
v -0.5 0 0.5
v -0.5 0.1 0.5
v -0.5 0 -0.5
v -0.5 0 -0.4
v -0.5 1 0.05
v 0.5 0 0.5
v 0.5 0.1 0.5
v 0.5 0.1 -0.5
v 0.5 0 -0.5
v -0.4 0 -0.5
v -0.4 0.0763932 -0.5
v 0.4 0 -0.5
v 0.4 0.0763932 -0.5
v 5.775291E-15 0.8763932 -0.5
v 0.05 1 -0.5
v 5.775291E-15 1 -0.5
v -0.05 1 -0.5
v 0.05 1 0.05
v -0.05 1 -0.05

vn -1 0 0
vn 0 0 1
vn 1 0 0
vn 0 0 -1
vn 0 1 0
vn -0.8944272 0.4472136 0
vn 0 0.4472136 -0.8944272
vn 0.8944272 0.4472136 0
vn 0 0.4472136 0.8944272
vn 0 -1 0

vt 1.899898 -1.976838
vt 1.904353 -2.983058
vt 2.000002 -2.000002
vt 2.003962 -2.894419
vt 1.949173 -3.00522
vt 1.888115 -2.118808
vt 1.888115 -2.204277
vt 1.999996 -2.118808
vt 1.999996 -2.230689
vt 1.888119 -2.118811
vt 1.888118 -2.230692
vt 2 -2.118811
vt 2 -2.204281
vt 1.8837 -5.272884
vt 1.883701 -4.109917
vt 1.999996 -5.272883
vt 1.999997 -4.109916
vt 2.000002 1.26512
vt 1.883705 1.265119
vt 2.000003 2.428087
vt 1.883706 2.428087
vt -0.1 1
vt -0.1 1.076393
vt -0.9 1
vt -0.5 1.876393
vt -0.9 1.076393
vt 0.5894014 0.9809558
vt 0.8895035 0.9809557
vt 0.5894014 0.9536738
vt 0.8349395 0.9263917
vt 0.5894014 0.9263918
vt 1 -1.006231
vt 1 -4.807266E-14
vt 1.45 -4.818368E-14
vt -4 6
vt -4 4.99377
vt -4.45 6
vt -1 1.082467E-15
vt -2 1.082467E-15
vt -1 1.006231
vt -1.55 1.006231
vt 4 -7.00623
vt 3 -7.00623
vt 3.55 -6
vt 3 -6
vt -0.2563408 0.9809563
vt 0.04376129 0.9809561
vt -0.2017768 0.9263923
vt 0.04376129 0.9263921
vt 0.04376129 0.9536741
vt 1.5 3
vt 1.5 2
vt 0.5 3
vt 1.4 2
vt 0.6 2
vt 0.5 2
vt 0.5 2.9
vt 0.5 2.1

usemtl planks

f 3/3/1 2/2/1 1/1/1
f 2/2/1 3/3/1 4/4/1
f 2/2/1 4/4/1 5/5/1
f 8/8/1 7/7/1 6/6/1
f 7/7/1 8/8/1 9/9/1
f 11/12/1 1/11/1 10/10/1
f 1/11/1 11/12/1 3/13/1
f 7/3/1 5/5/1 4/4/1
f 5/5/1 7/3/1 12/2/1
f 12/2/1 7/3/1 9/1/1
f 14/16/2 8/15/2 13/14/2
f 8/15/2 14/16/2 9/17/2
f 14/20/3 16/19/3 15/18/3
f 16/19/3 14/20/3 13/21/3
f 1/11/4 17/12/4 10/10/4
f 17/12/4 1/11/4 18/13/4
f 20/7/4 16/8/4 19/6/4
f 16/8/4 20/7/4 15/9/4
f 21/4/4 15/1/4 20/3/4
f 15/1/4 21/4/4 22/2/4
f 22/2/4 21/4/4 23/5/4
f 1/1/4 21/4/4 18/3/4
f 21/4/4 1/1/4 24/2/4
f 21/4/4 24/2/4 23/5/4

usemtl stones

f 6/24/1 3/23/1 11/22/1
f 3/23/1 6/24/1 4/25/1
f 4/25/1 6/24/1 7/26/1
f 18/23/4 19/24/4 17/22/4
f 19/24/4 18/23/4 20/26/4
f 20/26/4 18/23/4 21/25/4

usemtl roof

f 23/29/5 25/28/5 22/27/5
f 25/28/5 23/29/5 26/30/5
f 26/30/5 23/29/5 24/31/5
f 26/34/6 24/33/6 1/32/6
f 26/37/7 1/36/7 2/35/7
f 22/40/8 14/39/8 15/38/8
f 14/39/8 22/40/8 25/41/8
f 25/44/9 9/43/9 14/42/9
f 9/43/9 25/44/9 12/45/9
f 26/48/5 12/47/5 25/46/5
f 12/47/5 26/48/5 2/49/5
f 12/47/5 2/49/5 5/50/5

usemtl bricks

f 8/53/10 16/52/10 13/51/10
f 16/52/10 8/53/10 19/54/10
f 19/54/10 8/53/10 17/55/10
f 17/55/10 8/53/10 10/56/10
f 10/56/10 8/53/10 6/57/10
f 10/56/10 6/57/10 11/58/10

