# Created by Kenney (www.kenney.nl)

mtllib roof.mtl

g roof

v 0.5 0.1 -0.5
v 0.5 0 -0.5
v 0.5 0.1 0.5
v 0.5 0 0.5
v -0.5 0 -0.5
v -0.5 0.1 -0.5
v -0.5 0 0.5
v -0.5 0.1 0.5
v 0.4 0 -0.5
v 0.4 0.0763932 -0.5
v -0.4 0 -0.5
v -0.4 0.0763932 -0.5
v 0 0.8763932 -0.5
v -0.05 1 -0.5
v 0 1 -0.5
v 0.05 1 -0.5
v -0.4 0.0763932 0.5
v 7.219114E-16 0.8763932 0.5
v -0.05 1 0.5
v 7.219114E-16 1 0.5
v 0.4 0 0.5
v 0.4 0.0763932 0.5
v 0.05 1 0.5
v -0.4 0 0.5

vn 1 0 0
vn -1 0 0
vn 0 0 -1
vn 0 0 1
vn 0 1 0
vn 0.8944272 0.4472136 0
vn -0.8944272 0.4472136 0
vn 0 -1 0

vt 2.000001 0.1021527
vt 1.883704 0.1021521
vt 2.000002 1.26512
vt 1.883705 1.265119
vt 1.883702 -2
vt 1.999999 -1.999999
vt 1.883701 -3.162967
vt 1.999998 -3.162966
vt 1.888115 -2.118808
vt 1.999996 -2.118808
vt 1.888115 -2.204277
vt 1.999996 -2.230689
vt 1.888119 -2.118811
vt 2 -2.118811
vt 1.888118 -2.230692
vt 2 -2.204281
vt 2.000002 -2.000002
vt 2.003962 -2.894419
vt 1.899898 -1.976838
vt 1.904353 -2.983058
vt 1.949173 -3.00522
vt 0.04376129 0.9809561
vt 0.5894014 0.9809558
vt 0.04376129 0.9536741
vt 0.5894014 0.9536738
vt 0.5894014 0.9263918
vt 0.04376129 0.9263921
vt 7.21645E-16 1.006231
vt 3.885781E-16 -1.196265E-14
vt -1 1.006231
vt -1 -1.196265E-14
vt 0 5.218048E-15
vt 1 5.218048E-15
vt 3.330669E-16 -1.006231
vt 1 -1.006231
vt 1.5 1.5
vt 1.5 0.5
vt 1.4 1.5
vt 1.4 0.5
vt 0.6 1.5
vt 0.6 0.5
vt 0.5 1.5
vt 0.5 0.5
vt -0.1 1
vt -0.9 1
vt -0.1 1.076393
vt -0.9 1.076393
vt -0.5 1.876393

usemtl planks

f 3/3/1 2/2/1 1/1/1
f 2/2/1 3/3/1 4/4/1
f 7/7/2 6/6/2 5/5/2
f 6/6/2 7/7/2 8/8/2
f 10/11/3 2/10/3 9/9/3
f 2/10/3 10/11/3 1/12/3
f 6/15/3 11/14/3 5/13/3
f 11/14/3 6/15/3 12/16/3
f 6/19/3 13/18/3 12/17/3
f 13/18/3 6/19/3 14/20/3
f 13/18/3 14/20/3 15/21/3
f 13/18/3 1/19/3 10/17/3
f 1/19/3 13/18/3 16/20/3
f 16/20/3 13/18/3 15/21/3
f 18/18/4 8/19/4 17/17/4
f 8/19/4 18/18/4 19/20/4
f 19/20/4 18/18/4 20/21/4
f 3/12/4 21/9/4 4/10/4
f 21/9/4 3/12/4 22/11/4
f 3/19/4 18/18/4 22/17/4
f 18/18/4 3/19/4 23/20/4
f 18/18/4 23/20/4 20/21/4
f 17/16/4 7/13/4 24/14/4
f 7/13/4 17/16/4 8/15/4

usemtl roof

f 15/24/5 23/23/5 16/22/5
f 23/23/5 15/24/5 20/25/5
f 20/25/5 15/24/5 19/26/5
f 19/26/5 15/24/5 14/27/5
f 23/30/6 1/29/6 16/28/6
f 1/29/6 23/30/6 3/31/6
f 6/34/7 19/33/7 14/32/7
f 19/33/7 6/34/7 8/35/7

usemtl bricks

f 21/38/8 2/37/8 4/36/8
f 2/37/8 21/38/8 9/39/8
f 9/39/8 21/38/8 24/40/8
f 9/39/8 24/40/8 11/41/8
f 11/41/8 24/40/8 7/42/8
f 11/41/8 7/42/8 5/43/8

usemtl stones

f 12/46/3 9/45/3 11/44/3
f 9/45/3 12/46/3 10/47/3
f 10/47/3 12/46/3 13/48/3
f 22/47/4 24/44/4 21/45/4
f 24/44/4 22/47/4 17/46/4
f 17/46/4 22/47/4 18/48/4

