# Created by Kenney (www.kenney.nl)

mtllib structure_wall.mtl

g structure_wall

v 0.5 1 0.4
v 0.5 1 0.5
v 0.4 1 0.4
v 0.4 1 0.5
v 0.5 0 -0.4
v 0.5 0 -0.5
v 0.4 0 -0.4
v 0.4 0 -0.5
v 0.4 0.75 -0.5
v 0.5 1 -0.5
v 0.4 1 -0.5
v -0.5 0 -0.5
v -0.4 0 -0.5
v -0.5 1 -0.5
v -0.4 0.75 -0.5
v -0.4 1 -0.5
v 0.5 1 -0.4
v 0.5 0.75 -0.4
v 0.5 0.75 0.4
v 0.5 0 0.4
v 0.5 0 0.5
v 0.4 0 0.5
v 0.4 0.75 0.5
v -0.4 0 0.5
v -0.5 0 0.5
v -0.4 0.75 0.5
v -0.5 1 0.5
v -0.4 1 0.5
v -0.5 0 0.4
v -0.5 0.75 0.4
v -0.5 1 0.4
v -0.5 0 -0.4
v -0.5 1 -0.4
v -0.5 0.75 -0.4
v 0.4 1 -0.4
v -0.4 1 -0.4
v -0.4 1 0.4
v 0.4 0 0.4
v -0.4 0 0.4
v -0.4 0 -0.4
v -0.4 0.75 0.4
v -0.4 0.75 -0.4
v 0.4 0.75 -0.4
v 0.4 0.75 0.4

vn 0 1 0
vn 0 -1 0
vn 0 0 -1
vn 1 0 0
vn 0 0 1
vn -1 0 0
vn -1 0 -2.682116E-07

vt 1.888117 -2.118809
vt 1.999998 -2.11881
vt 1.888117 -2.230691
vt 1.999998 -2.230691
vt 2 -0.8881186
vt 2 -1
vt 1.888119 -0.8881186
vt 1.888119 -1
vt 1.888117 -0.9999993
vt 1.999998 -0.999999
vt 1.888116 -1.839106
vt 1.999996 -2.118808
vt 1.888115 -2.118808
vt 1.88812 -1.000001
vt 2.000001 -1.000001
vt 1.888119 -2.118811
vt 2 -1.839109
vt 2 -2.118811
vt 1.999998 -0.999999
vt 1.999997 -2.118808
vt 1.888118 -0.9999993
vt 1.888116 -2.118808
vt 1.888116 -1.839106
vt 1.888116 -2.230691
vt 0.993069 -0.888119
vt 0.993069 -1
vt 0.881188 -0.888119
vt 0.881188 -1
vt 1.999997 -1.839105
vt 0.8811888 -1.000001
vt 0.9930698 -1.000001
vt 0.8811874 -1.839107
vt 0.9930683 -1.839107
vt 1.776238 -0.9999998
vt 1.888119 -1
vt 1.776237 -1.839107
vt 1.888118 -1.839107
vt 1.888119 -1.839109
vt 1.888117 -1.839107
vt 1.776238 -0.9999998
vt 1.776236 -1.839107
vt 2.111881 -1
vt 1.999999 -1.839107
vt 2.11188 -1.839107
vt -0.1 1
vt -0.1 0.75
vt -0.9 1
vt -0.9 0.75
vt 0.9 -0.9
vt 0.9 -0.1
vt 1 -0.9
vt 1 -0.1
vt 0.9 2.38698E-14
vt 0.9 -1
vt 0.1 2.88658E-15
vt 0.1 -0.1
vt 0.1 -0.9
vt 0.1 -1
vt -2.88658E-15 -0.9
vt -2.020606E-14 -0.1
vt -0.9 -0.1
vt -0.9 -0.9
vt -1 -0.1
vt -1 -0.9
vt -0.9 -1
vt -0.9 2.38698E-14
vt -0.1 -1
vt -0.1 -0.9
vt -0.1 -0.1
vt -0.1 2.88658E-15
vt 2.88658E-15 -0.9
vt 2.020606E-14 -0.1

usemtl planks

f 3/3/1 2/2/1 1/1/1
f 2/2/1 3/3/1 4/4/1
f 7/7/2 6/6/2 5/5/2
f 6/6/2 7/7/2 8/8/2
f 9/11/3 6/10/3 8/9/3
f 6/10/3 9/11/3 10/12/3
f 10/12/3 9/11/3 11/13/3
f 14/16/3 13/15/3 12/14/3
f 13/15/3 14/16/3 15/17/3
f 15/17/3 14/16/3 16/18/3
f 17/18/4 6/14/4 10/16/4
f 6/14/4 17/18/4 5/15/4
f 5/15/4 17/18/4 18/17/4
f 2/12/4 19/11/4 1/13/4
f 19/11/4 2/12/4 20/9/4
f 20/9/4 2/12/4 21/10/4
f 2/16/5 22/15/5 21/14/5
f 22/15/5 2/16/5 23/17/5
f 23/17/5 2/16/5 4/18/5
f 26/11/5 25/10/5 24/9/5
f 25/10/5 26/11/5 27/12/5
f 27/12/5 26/11/5 28/13/5
f 25/14/6 30/17/6 29/15/6
f 30/17/6 25/14/6 31/18/6
f 31/18/6 25/14/6 27/16/6
f 32/21/7 14/20/7 12/19/7
f 14/20/7 32/21/7 33/22/7
f 33/22/7 32/21/7 34/23/7
f 10/2/1 35/3/1 17/4/1
f 35/3/1 10/2/1 11/1/1
f 14/1/1 36/4/1 16/2/1
f 36/4/1 14/1/1 33/24/1
f 31/2/1 28/3/1 37/4/1
f 28/3/1 31/2/1 27/1/1
f 21/5/2 38/8/2 20/6/2
f 38/8/2 21/5/2 22/7/2
f 25/27/2 39/26/2 24/25/2
f 39/26/2 25/27/2 29/28/2
f 32/7/2 13/6/2 40/5/2
f 13/6/2 32/7/2 12/8/2
f 26/29/4 39/9/4 41/11/4
f 39/9/4 26/29/4 24/10/4
f 30/32/3 39/31/3 29/30/3
f 39/31/3 30/32/3 41/33/3
f 42/36/5 32/35/5 40/34/5
f 32/35/5 42/36/5 34/37/5
f 42/17/4 13/14/4 15/38/4
f 13/14/4 42/17/4 40/15/4
f 7/40/6 9/39/6 8/8/6
f 9/39/6 7/40/6 43/41/6
f 18/43/5 7/42/5 5/6/5
f 7/42/5 18/43/5 43/44/5
f 44/11/3 20/10/3 38/9/3
f 20/10/3 44/11/3 19/29/3
f 22/6/6 44/44/6 38/42/6
f 44/44/6 22/6/6 23/43/6

usemtl stones

f 1/47/4 18/46/4 17/45/4
f 18/46/4 1/47/4 19/48/4
f 4/45/5 26/48/5 23/46/5
f 26/48/5 4/45/5 28/47/5
f 30/46/6 33/47/6 34/48/6
f 33/47/6 30/46/6 31/45/6
f 16/45/3 9/48/3 15/46/3
f 9/48/3 16/45/3 11/47/3

usemtl bricks

f 33/51/1 37/50/1 36/49/1
f 37/50/1 33/51/1 31/52/1
f 28/53/1 36/49/1 37/50/1
f 28/53/1 16/54/1 36/49/1
f 4/55/1 16/54/1 28/53/1
f 3/56/1 16/54/1 4/55/1
f 35/57/1 16/54/1 3/56/1
f 16/54/1 35/57/1 11/58/1
f 3/56/1 17/59/1 35/57/1
f 17/59/1 3/56/1 1/60/1
f 30/63/2 42/62/2 41/61/2
f 42/62/2 30/63/2 34/64/2
f 15/65/2 41/61/2 42/62/2
f 15/65/2 26/66/2 41/61/2
f 9/67/2 26/66/2 15/65/2
f 43/68/2 26/66/2 9/67/2
f 44/69/2 26/66/2 43/68/2
f 26/66/2 44/69/2 23/70/2
f 18/71/2 44/69/2 43/68/2
f 44/69/2 18/71/2 19/72/2

