# Created by Kenney (www.kenney.nl)

mtllib structure_poles.mtl

g structure_poles

v 0.5 1 0.4
v 0.5 1 0.5
v 0.4 1 0.4
v 0.4 1 0.5
v 0.5 0 -0.4
v 0.5 0 -0.5
v 0.4 0 -0.4
v 0.4 0 -0.5
v 0.4 1 -0.5
v 0.5 1 -0.5
v -0.5 0 -0.5
v -0.4 0 -0.5
v -0.5 1 -0.5
v -0.4 1 -0.5
v 0.5 1 -0.4
v 0.5 0 0.4
v 0.5 0 0.5
v 0.4 0 0.5
v -0.4 0 0.5
v -0.5 0 0.5
v -0.4 1 0.5
v -0.5 1 0.5
v -0.5 0 0.4
v -0.5 1 0.4
v -0.5 0 -0.4
v -0.5 1 -0.4
v 0.4 1 -0.4
v -0.4 1 -0.4
v -0.4 1 0.4
v 0.4 0 0.4
v -0.4 0 0.4
v -0.4 0 -0.4

vn 0 1 0
vn 0 -1 0
vn 0 0 -1
vn 1 0 0
vn 0 0 1
vn -1 0 0
vn -1 0 -2.682116E-07

vt 1.888117 -2.118809
vt 1.999998 -2.11881
vt 1.888117 -2.230691
vt 1.999998 -2.230691
vt 2 -0.8881186
vt 2 -1
vt 1.888119 -0.8881186
vt 1.888119 -1
vt 1.888117 -0.9999993
vt 1.999998 -0.999999
vt 1.888115 -2.118808
vt 1.999996 -2.118808
vt 1.88812 -1.000001
vt 2.000001 -1.000001
vt 1.888119 -2.118811
vt 2 -2.118811
vt 1.999998 -0.999999
vt 1.999997 -2.118808
vt 1.888118 -0.9999993
vt 1.888116 -2.118808
vt 1.888116 -2.230691
vt 0.993069 -0.888119
vt 0.993069 -1
vt 0.881188 -0.888119
vt 0.881188 -1
vt 0.8811888 -1.000001
vt 0.9930698 -1.000001
vt 0.881187 -2.118809
vt 0.9930679 -2.118809
vt 1.776238 -0.9999998
vt 1.888119 -1
vt 1.776236 -2.118809
vt 1.888117 -2.118809
vt 1.776238 -0.9999998
vt 1.776236 -2.118809
vt 2.111881 -1
vt 2.111879 -2.11881

usemtl planks

f 3/3/1 2/2/1 1/1/1
f 2/2/1 3/3/1 4/4/1
f 7/7/2 6/6/2 5/5/2
f 6/6/2 7/7/2 8/8/2
f 9/11/3 6/10/3 8/9/3
f 6/10/3 9/11/3 10/12/3
f 13/15/3 12/14/3 11/13/3
f 12/14/3 13/15/3 14/16/3
f 15/16/4 6/13/4 10/15/4
f 6/13/4 15/16/4 5/14/4
f 2/12/4 16/9/4 1/11/4
f 16/9/4 2/12/4 17/10/4
f 2/15/5 18/14/5 17/13/5
f 18/14/5 2/15/5 4/16/5
f 21/11/5 20/10/5 19/9/5
f 20/10/5 21/11/5 22/12/5
f 20/13/6 24/16/6 23/14/6
f 24/16/6 20/13/6 22/15/6
f 25/19/7 13/18/7 11/17/7
f 13/18/7 25/19/7 26/20/7
f 10/2/1 27/3/1 15/4/1
f 27/3/1 10/2/1 9/1/1
f 13/1/1 28/4/1 14/2/1
f 28/4/1 13/1/1 26/21/1
f 24/2/1 21/3/1 29/4/1
f 21/3/1 24/2/1 22/1/1
f 17/5/2 30/8/2 16/6/2
f 30/8/2 17/5/2 18/7/2
f 20/24/2 31/23/2 19/22/2
f 31/23/2 20/24/2 23/25/2
f 25/7/2 12/6/2 32/5/2
f 12/6/2 25/7/2 11/8/2
f 21/12/4 31/9/4 29/11/4
f 31/9/4 21/12/4 19/10/4
f 24/28/3 31/27/3 23/26/3
f 31/27/3 24/28/3 29/29/3
f 28/32/5 25/31/5 32/30/5
f 25/31/5 28/32/5 26/33/5
f 28/16/4 12/13/4 14/15/4
f 12/13/4 28/16/4 32/14/4
f 7/34/6 9/1/6 8/8/6
f 9/1/6 7/34/6 27/35/6
f 15/2/5 7/36/5 5/6/5
f 7/36/5 15/2/5 27/37/5
f 3/11/3 16/10/3 30/9/3
f 16/10/3 3/11/3 1/12/3
f 18/6/6 3/37/6 30/36/6
f 3/37/6 18/6/6 4/2/6

