# Created by Kenney (www.kenney.nl)

mtllib tower_base.mtl

g tower_base

v 0.5 1 0
v 0.3535534 1 0.3535534
v 0.3535534 1 -0.3535534
v 0 1 -0.5
v 0 1 0.5
v -0.3535534 1 -0.3535534
v -0.3535534 1 0.3535534
v -0.5 1 0
v 0.55 0 0
v 0.3889087 0 -0.3889087
v 0.3889087 0 0.3889087
v 7.219114E-16 0 0.55
v 7.219114E-16 0 -0.55
v -0.3889087 0 0.3889087
v -0.3889087 0 -0.3889087
v -0.55 0 0
v 0 0.4 -0.5
v 0.3535534 0.4 -0.3535534
v 0.5 0.4 0
v 0.3535534 0.4 0.3535534
v 0 0.4 0.5
v -0.3535534 0.4 0.3535534
v -0.5 0.4 0
v -0.3535534 0.4 -0.3535534
v 0.55 0.15 0
v 0.3889087 0.15 0.3889087
v 0 0.15 0.55
v 0.3889087 0.15 -0.3889087
v 0 0.15 -0.55
v -0.3889087 0.15 0.3889087
v -0.55 0.15 0
v -0.3889087 0.15 -0.3889087

vn 0 1 0
vn 0 -1 0
vn 0 0 -1
vn 0.7071068 0 -0.7071068
vn 1 0 0
vn 0.7071068 0 0.7071068
vn 0 0 1
vn -0.7071068 0 0.7071068
vn -1 0 0
vn -0.7071068 0 -0.7071068
vn -0.6933753 0.1961161 -0.6933753
vn -0.9805807 0.1961161 0
vn -0.6933753 0.1961161 0.6933753
vn 0 0.1961161 -0.9805807
vn 0.6933753 0.1961161 0.6933753
vn 0 0.1961161 0.9805807
vn 0.9805807 0.1961161 0
vn 0.6933753 0.1961161 -0.6933753

vt 1.3 -0.5
vt 1.446447 -0.1464466
vt 1.446447 -0.8535534
vt 1.8 -1
vt 1.8 0
vt 2.153553 -0.8535534
vt 2.153553 -0.1464466
vt 2.3 -0.5
vt -1.3 -0.5
vt -1.446447 -0.8535534
vt -1.446447 -0.1464466
vt -1.8 0
vt -1.8 -1
vt -2.153553 -0.1464466
vt -2.153553 -0.8535534
vt -2.3 -0.5
vt 8.926351 0.4
vt 8.533651 0.4
vt 8.926351 1
vt 8.533651 1
vt 8.140952 1
vt 8.140952 0.4
vt 7.748253 1
vt 7.748253 0.4
vt 7.355554 0.4
vt 7.355554 1
vt 6.962855 0.4
vt 6.962855 1
vt 6.570156 1
vt 6.570156 0.4
vt 6.177457 1
vt 6.177457 0.4
vt 5.784758 0.4
vt 5.784758 1
vt 12.43363 0.15
vt 12.43363 9.315381E-18
vt 11.99036 0.15
vt 11.99036 9.315381E-18
vt 11.54708 -9.860761E-32
vt 11.54708 0.15
vt 12.87691 -1.183291E-30
vt 12.87691 0.15
vt 13.32018 0.15
vt 13.32018 -1.183291E-30
vt 11.10381 -3.944305E-31
vt 11.10381 0.15
vt 10.66053 0.15
vt 10.66053 -3.944305E-31
vt 10.21726 0.15
vt 10.21726 -1.084684E-30
vt 9.773983 -1.183291E-30
vt 9.773983 0.15
vt 6.157822 0.1391143
vt 6.589791 0.1391143
vt 6.550521 0.1391143
vt 6.98249 0.1391143
vt 6.197092 0.1391143
vt 5.765122 0.1391143
vt 7.767888 0.1391143
vt 7.335919 0.1391143
vt 8.160587 0.1391143
vt 7.728618 0.1391143
vt 8.945985 0.1391143
vt 8.514016 0.1391143
vt 8.553287 0.1391143
vt 8.121317 0.1391143
vt 7.375189 0.1391143
vt 6.94322 0.1391143

usemtl bricks

f 3/3/1 2/2/1 1/1/1
f 2/2/1 3/3/1 4/4/1
f 2/2/1 4/4/1 5/5/1
f 5/5/1 4/4/1 6/6/1
f 5/5/1 6/6/1 7/7/1
f 7/7/1 6/6/1 8/8/1
f 11/11/2 10/10/2 9/9/2
f 10/10/2 11/11/2 12/12/2
f 10/10/2 12/12/2 13/13/2
f 13/13/2 12/12/2 14/14/2
f 13/13/2 14/14/2 15/15/2
f 15/15/2 14/14/2 16/16/2

usemtl stones

f 4/19/3 18/18/4 17/17/3
f 18/18/4 4/19/3 3/20/4
f 1/21/5 18/18/4 3/20/4
f 18/18/4 1/21/5 19/22/5
f 2/23/6 19/22/5 1/21/5
f 19/22/5 2/23/6 20/24/6
f 2/23/6 21/25/7 20/24/6
f 21/25/7 2/23/6 5/26/7
f 5/26/7 22/27/8 21/25/7
f 22/27/8 5/26/7 7/28/8
f 8/29/9 22/27/8 7/28/8
f 22/27/8 8/29/9 23/30/9
f 6/31/10 23/30/9 8/29/9
f 23/30/9 6/31/10 24/32/10
f 6/31/10 17/33/3 24/32/10
f 17/33/3 6/31/10 4/34/3
f 26/37/6 9/36/5 25/35/5
f 9/36/5 26/37/6 11/38/6
f 26/37/6 12/39/7 11/38/6
f 12/39/7 26/37/6 27/40/7
f 10/41/4 25/35/5 9/36/5
f 25/35/5 10/41/4 28/42/4
f 10/41/4 29/43/3 28/42/4
f 29/43/3 10/41/4 13/44/3
f 27/40/7 14/45/8 12/39/7
f 14/45/8 27/40/7 30/46/8
f 31/47/9 14/45/8 30/46/8
f 14/45/8 31/47/9 16/48/9
f 32/49/10 16/48/9 31/47/9
f 16/48/9 32/49/10 15/50/10
f 32/49/10 13/51/3 15/50/10
f 13/51/3 32/49/10 29/52/3
f 31/54/12 24/32/11 32/53/11
f 24/32/11 31/54/12 23/30/12
f 30/56/13 23/30/12 31/55/12
f 23/30/12 30/56/13 22/27/13
f 24/32/11 29/58/14 32/57/11
f 29/58/14 24/32/11 17/33/14
f 20/24/15 27/60/16 26/59/15
f 27/60/16 20/24/15 21/25/16
f 20/24/15 25/61/17 19/22/17
f 25/61/17 20/24/15 26/62/15
f 17/17/14 28/64/18 29/63/14
f 28/64/18 17/17/14 18/18/18
f 18/18/18 25/66/17 28/65/18
f 25/66/17 18/18/18 19/22/17
f 21/25/16 30/68/13 27/67/16
f 30/68/13 21/25/16 22/27/13

