# Created by Kenney (www.kenney.nl)

mtllib tower.mtl

g tower

v 0.5 0 0
v 0.3535534 0 -0.3535534
v 0.3535534 0 0.3535534
v 0 0 0.5
v 0 0 -0.5
v -0.3535534 0 0.3535534
v -0.3535534 0 -0.3535534
v -0.5 0 0
v 0.5 1 0
v 0.3535534 1 0.3535534
v 0.3535534 1 -0.3535534
v 0 1 -0.5
v 0 1 0.5
v -0.3535534 1 -0.3535534
v -0.3535534 1 0.3535534
v -0.5 1 0

vn 0 -1 0
vn 0 1 0
vn 0 0 -1
vn 0.7071068 0 -0.7071068
vn 1 0 0
vn 0.7071068 0 0.7071068
vn 0 0 1
vn -0.7071068 0 0.7071068
vn -1 0 0
vn -0.7071068 0 -0.7071068

vt -1.3 -0.5
vt -1.446447 -0.8535534
vt -1.446447 -0.1464466
vt -1.8 0
vt -1.8 -1
vt -2.153553 -0.1464466
vt -2.153553 -0.8535534
vt -2.3 -0.5
vt 1.3 -0.5
vt 1.446447 -0.1464466
vt 1.446447 -0.8535534
vt 1.8 -1
vt 1.8 0
vt 2.153553 -0.8535534
vt 2.153553 -0.1464466
vt 2.3 -0.5
vt 8.926351 0
vt 8.533651 0
vt 8.926351 1
vt 8.533651 1
vt 8.140952 1
vt 8.140952 0
vt 7.748253 1
vt 7.748253 0
vt 7.355554 0
vt 7.355554 1
vt 6.962855 0
vt 6.962855 1
vt 6.570156 1
vt 6.570156 0
vt 6.177457 1
vt 6.177457 0
vt 5.784758 0
vt 5.784758 1

usemtl bricks

f 3/3/1 2/2/1 1/1/1
f 2/2/1 3/3/1 4/4/1
f 2/2/1 4/4/1 5/5/1
f 5/5/1 4/4/1 6/6/1
f 5/5/1 6/6/1 7/7/1
f 7/7/1 6/6/1 8/8/1
f 11/11/2 10/10/2 9/9/2
f 10/10/2 11/11/2 12/12/2
f 10/10/2 12/12/2 13/13/2
f 13/13/2 12/12/2 14/14/2
f 13/13/2 14/14/2 15/15/2
f 15/15/2 14/14/2 16/16/2

usemtl stones

f 12/19/3 2/18/4 5/17/3
f 2/18/4 12/19/3 11/20/4
f 9/21/5 2/18/4 11/20/4
f 2/18/4 9/21/5 1/22/5
f 10/23/6 1/22/5 9/21/5
f 1/22/5 10/23/6 3/24/6
f 10/23/6 4/25/7 3/24/6
f 4/25/7 10/23/6 13/26/7
f 13/26/7 6/27/8 4/25/7
f 6/27/8 13/26/7 15/28/8
f 16/29/9 6/27/8 15/28/8
f 6/27/8 16/29/9 8/30/9
f 14/31/10 8/30/9 16/29/9
f 8/30/9 14/31/10 7/32/10
f 14/31/10 5/33/3 7/32/10
f 5/33/3 14/31/10 12/34/3

