# Created by Kenney (www.kenney.nl)

mtllib wallFortified_gate.mtl

g wallFortified_gate

v 0.5 1 0.4
v 0.5 1 0.5
v 0.4 1 0.4
v 0.4 1 0.5
v 0.4 0 -0.5
v 0.5 0 -0.5
v 0.4 1 -0.5
v 0.5 1 -0.5
v -0.5 0 -0.5
v -0.4 0 -0.5
v -0.5 1 -0.5
v -0.4 1 -0.5
v 0.5 1 -0.4
v 0.5 0 -0.4
v 0.5 0 0.4
v 0.5 0 0.5
v 0.4 0 0.5
v -0.4 0 0.5
v -0.5 0 0.5
v -0.4 1 0.5
v -0.5 1 0.5
v -0.5 0 0.4
v -0.5 1 0.4
v -0.5 0 -0.4
v -0.5 1 -0.4
v 0.4 1 -0.4
v -0.4 1 -0.4
v -0.4 1 0.4
v -0.25 0 -0.5
v -0.25 0.5 -0.5
v -0.2165064 0.625 -0.5
v -0.125 0.7165064 -0.5
v 0 0.75 -0.5
v 0.125 0.7165064 -0.5
v 0.2165064 0.625 -0.5
v 0.25 0.5 -0.5
v 0.25 0 -0.5
v 0.25 0 0.5
v 0.25 0.5 0.5
v 0.2165064 0.625 0.5
v 0.125 0.7165064 0.5
v 0 0.75 0.5
v -0.125 0.7165064 0.5
v -0.2165064 0.625 0.5
v -0.25 0.5 0.5
v -0.25 0 0.5

vn 0 1 0
vn 0 0 -1
vn 1 0 0
vn 0 0 1
vn -1 0 0
vn -1 0 -2.682116E-07
vn 0 -1 0
vn 0.8660254 -0.5 0
vn 0.9659258 -0.258819 0
vn 0.5 -0.8660254 0
vn -0.5 -0.8660254 0
vn -0.8660254 -0.5 0
vn -0.9659258 -0.258819 0

vt 1.888117 -2.118809
vt 1.999998 -2.11881
vt 1.888117 -2.230691
vt 1.999998 -2.230691
vt 1.888117 -0.9999993
vt 1.999998 -0.999999
vt 1.888115 -2.118808
vt 1.999996 -2.118808
vt 1.88812 -1.000001
vt 2.000001 -1.000001
vt 1.888119 -2.118811
vt 2 -2.118811
vt 1.999998 -0.999999
vt 1.999997 -2.118808
vt 1.888118 -0.9999993
vt 1.888116 -2.118808
vt 1.888116 -2.230691
vt -0.1 0
vt -0.25 0
vt -0.1 1
vt -0.25 0.5
vt -0.2834936 0.625
vt -0.375 0.7165064
vt -0.5 0.75
vt -0.9 1
vt -0.625 0.7165064
vt -0.7165064 0.625
vt -0.75 0.5
vt -0.9 0
vt -0.75 0
vt -0.1 -4.7364E-14
vt -0.25 -4.7364E-14
vt -0.9 -4.7364E-14
vt -0.75 -4.7364E-14
vt -1.5 0.5
vt -1.5 0
vt -2.5 0.5
vt -2.5 0
vt -3.5 0
vt -3.5 0.5
vt 1.987299E-14 -0.1
vt 2.109424E-15 -0.9
vt 0 0
vt 0 -1
vt -0.1 2.88658E-15
vt -0.1 -1
vt -0.25 2.88658E-15
vt -0.25 -1
vt 0.9 -0.9
vt 0.9 -0.1
vt 1 -0.9
vt 1 -0.1
vt 0.9 2.309264E-14
vt 0.9 -1
vt 0.1 2.88658E-15
vt 0.1 -0.1
vt 0.1 -0.9
vt 0.1 -1
vt -2.109424E-15 -0.9
vt -1.987299E-14 -0.1
vt 1.242397 6.455133
vt 1.242397 6.324234
vt 0.2308822 6.455133
vt 0.2308822 6.324234
vt 1.242397 6.586033
vt 0.2308822 6.586033
vt 1.242397 6.716933
vt 0.2308822 6.716933
vt 1.242397 6.847833
vt 0.2308822 6.847833
vt 0.2308822 6.978732
vt 1.242397 6.978732
vt 0.2308822 7.109632
vt 1.242397 7.109632
vt -0.75 2.88658E-15
vt -0.75 -1
vt -0.9 2.309264E-14
vt -0.9 -1
vt -1 0
vt -1 -1
vt -1 -0.1
vt -1 -0.9

usemtl planks

f 3/3/1 2/2/1 1/1/1
f 2/2/1 3/3/1 4/4/1
f 7/7/2 6/6/2 5/5/2
f 6/6/2 7/7/2 8/8/2
f 11/11/2 10/10/2 9/9/2
f 10/10/2 11/11/2 12/12/2
f 13/12/3 6/9/3 8/11/3
f 6/9/3 13/12/3 14/10/3
f 2/8/3 15/5/3 1/7/3
f 15/5/3 2/8/3 16/6/3
f 2/11/4 17/10/4 16/9/4
f 17/10/4 2/11/4 4/12/4
f 20/7/4 19/6/4 18/5/4
f 19/6/4 20/7/4 21/8/4
f 19/9/5 23/12/5 22/10/5
f 23/12/5 19/9/5 21/11/5
f 24/15/6 11/14/6 9/13/6
f 11/14/6 24/15/6 25/16/6
f 8/2/1 26/3/1 13/4/1
f 26/3/1 8/2/1 7/1/1
f 11/1/1 27/4/1 12/2/1
f 27/4/1 11/1/1 25/17/1
f 23/2/1 20/3/1 28/4/1
f 20/3/1 23/2/1 21/1/1

usemtl stones

f 12/20/2 29/19/2 10/18/2
f 29/19/2 12/20/2 30/21/2
f 30/21/2 12/20/2 31/22/2
f 31/22/2 12/20/2 32/23/2
f 32/23/2 12/20/2 33/24/2
f 7/25/2 33/24/2 12/20/2
f 7/25/2 34/26/2 33/24/2
f 7/25/2 35/27/2 34/26/2
f 7/25/2 36/28/2 35/27/2
f 5/29/2 36/28/2 7/25/2
f 36/28/2 5/29/2 37/30/2
f 1/25/3 14/18/3 13/20/3
f 14/18/3 1/25/3 15/29/3
f 4/20/4 38/32/4 17/31/4
f 38/32/4 4/20/4 39/21/4
f 39/21/4 4/20/4 40/22/4
f 40/22/4 4/20/4 41/23/4
f 41/23/4 4/20/4 42/24/4
f 20/25/4 42/24/4 4/20/4
f 20/25/4 43/26/4 42/24/4
f 20/25/4 44/27/4 43/26/4
f 20/25/4 45/28/4 44/27/4
f 18/33/4 45/28/4 20/25/4
f 45/28/4 18/33/4 46/34/4
f 22/18/5 25/25/5 24/29/5
f 25/25/5 22/18/5 23/20/5
f 45/37/3 29/36/3 30/35/3
f 29/36/3 45/37/3 46/38/3
f 38/38/5 36/40/5 37/39/5
f 36/40/5 38/38/5 39/37/5

usemtl bricks

f 16/43/7 14/42/7 15/41/7
f 14/42/7 16/43/7 6/44/7
f 6/44/7 16/43/7 17/45/7
f 6/44/7 17/45/7 5/46/7
f 5/46/7 17/45/7 38/47/7
f 5/46/7 38/47/7 37/48/7
f 25/51/1 28/50/1 27/49/1
f 28/50/1 25/51/1 23/52/1
f 20/53/1 27/49/1 28/50/1
f 20/53/1 12/54/1 27/49/1
f 4/55/1 12/54/1 20/53/1
f 3/56/1 12/54/1 4/55/1
f 26/57/1 12/54/1 3/56/1
f 12/54/1 26/57/1 7/58/1
f 3/56/1 13/59/1 26/57/1
f 13/59/1 3/56/1 1/60/1
f 44/63/8 30/62/9 31/61/8
f 30/62/9 44/63/8 45/64/9
f 32/65/10 44/63/8 31/61/8
f 44/63/8 32/65/10 43/66/10
f 33/67/7 43/66/10 32/65/10
f 43/66/10 33/67/7 42/68/7
f 34/69/11 42/68/7 33/67/7
f 42/68/7 34/69/11 41/70/11
f 34/69/11 40/71/12 41/70/11
f 40/71/12 34/69/11 35/72/12
f 35/72/12 39/73/13 40/71/12
f 39/73/13 35/72/12 36/74/13
f 18/77/7 29/76/7 46/75/7
f 29/76/7 18/77/7 10/78/7
f 10/78/7 18/77/7 19/79/7
f 10/78/7 19/79/7 9/80/7
f 9/80/7 19/79/7 22/81/7
f 9/80/7 22/81/7 24/82/7

