# Created by Kenney (www.kenney.nl)

mtllib wallPaint.mtl

g wallPaint

v 0.5 0 0.5
v -0.5 0 0.5
v 0.5 1 0.5
v -0.5 1 0.5
v 0.5 1 -0.5
v 0.5 0 -0.5
v -0.5 0 -0.5
v -0.5 1 -0.5

vn 0 0 1
vn 1 0 0
vn -1 0 0
vn 0 0 -1
vn 0 1 0
vn 0 -1 0

vt 0.5 0
vt -0.5 0
vt 0.5 1
vt -0.5 1
vt 0 -1
vt 0 0
vt 1 -1
vt 1 0
vt -1 0
vt -1 -1

usemtl stonesPainted

f 3/3/1 2/2/1 1/1/1
f 2/2/1 3/3/1 4/4/1
f 3/4/2 6/1/2 5/3/2
f 6/1/2 3/4/2 1/2/2
f 2/1/3 8/4/3 7/2/3
f 8/4/3 2/1/3 4/3/3
f 8/3/4 6/2/4 7/1/4
f 6/2/4 8/3/4 5/4/4

usemtl bricks

f 8/7/5 3/6/5 5/5/5
f 3/6/5 8/7/5 4/8/5
f 2/9/6 6/5/6 1/6/6
f 6/5/6 2/9/6 7/10/6

