# Created by Kenney (www.kenney.nl)

mtllib wall_flatGate.mtl

g wall_flatGate

v -0.5 0 0
v -0.25 0 0
v -0.5 1 0
v -0.25 0.5 0
v -0.2165064 0.625 0
v -0.125 0.7165064 0
v 0 0.75 0
v 0.5 1 0
v 0.125 0.7165064 0
v 0.2165064 0.625 0
v 0.25 0.5 0
v 0.5 0 0
v 0.25 0 0

vn 0 0 -1
vn 0 0 1

vt 0 0
vt -0.25 0
vt 0 1
vt -0.25 0.5
vt -0.2834936 0.625
vt -0.375 0.7165064
vt -0.5 0.75
vt -1 1
vt -0.625 0.7165064
vt -0.7165064 0.625
vt -0.75 0.5
vt -1 0
vt -0.75 0

usemtl stones

f 3/3/1 2/2/1 1/1/1
f 2/2/1 3/3/1 4/4/1
f 4/4/1 3/3/1 5/5/1
f 5/5/1 3/3/1 6/6/1
f 6/6/1 3/3/1 7/7/1
f 8/8/1 7/7/1 3/3/1
f 8/8/1 9/9/1 7/7/1
f 8/8/1 10/10/1 9/9/1
f 8/8/1 11/11/1 10/10/1
f 12/12/1 11/11/1 8/8/1
f 11/11/1 12/12/1 13/13/1
f 1/1/2 2/2/2 3/3/2
f 4/4/2 3/3/2 2/2/2
f 5/5/2 3/3/2 4/4/2
f 6/6/2 3/3/2 5/5/2
f 7/7/2 3/3/2 6/6/2
f 3/3/2 7/7/2 8/8/2
f 7/7/2 9/9/2 8/8/2
f 9/9/2 10/10/2 8/8/2
f 10/10/2 11/11/2 8/8/2
f 8/8/2 11/11/2 12/12/2
f 13/13/2 12/12/2 11/11/2

