# Created by Kenney (www.kenney.nl)

mtllib wallPaint_gate.mtl

g wallPaint_gate

v 0.5 1 -0.5
v 0.5 0 -0.5
v 0.5 1 0.5
v 0.5 0 0.5
v -0.5 0 -0.5
v -0.5 1 -0.5
v -0.5 0 0.5
v -0.5 1 0.5
v -0.25 0 -0.5
v -0.25 0.5 -0.5
v -0.2165064 0.625 -0.5
v -0.125 0.7165064 -0.5
v 0 0.75 -0.5
v 0.125 0.7165064 -0.5
v 0.2165064 0.625 -0.5
v 0.25 0.5 -0.5
v 0.25 0 -0.5
v 0.25 -2.255973E-17 0.5
v 0.25 0.5 0.5
v 0.2165064 0.625 0.5
v 0.125 0.7165064 0.5
v -7.219114E-16 0.75 0.5
v -0.125 0.7165064 0.5
v -0.2165064 0.625 0.5
v -0.25 0.5 0.5
v -0.25 -2.255973E-17 0.5
v -0.125 0.7165064 -0.4
v -0.2165064 0.625 -0.4
v -0.25 0.5 -0.4
v 0 0.75 -0.4
v 0.125 0.7165064 -0.4
v 0.2165064 0.625 -0.4
v 0.25 0.5 -0.4
v -0.2165064 0.625 0.4
v -0.25 0.5 0.4
v -0.125 0.7165064 0.4
v -1.082867E-14 0.75 0.4
v 0.125 0.7165064 0.4
v 0.2165064 0.625 0.4
v 0.25 0.5 0.4
v 0.15 0.4868348 -0.4
v 0.1268488 0.5732362 -0.4
v 0.15 0.4868348 0.4
v 0.1268488 0.5732362 0.4
v 0.07323619 0.6268488 -0.4
v 0.07323619 0.6268488 0.4
v 0 0.6464723 -0.4
v -1.082867E-14 0.6464723 0.4
v -0.07323619 0.6268488 -0.4
v -0.07323619 0.6268488 0.4
v -0.1268488 0.5732362 -0.4
v -0.1268488 0.5732362 0.4
v -0.15 0.4868348 -0.4
v -0.15 0.4868348 0.4
v -0.25 -2.255973E-17 0.4
v -0.25 0 -0.4
v -0.15 -2.255973E-17 0.4
v -0.15 0 -0.4
v 0.25 0 -0.4
v 0.25 -2.255973E-17 0.4
v 0.15 0 -0.4
v 0.15 -2.255973E-17 0.4

vn 1 0 0
vn -1 0 0
vn 0 0 -1
vn 0 0 1
vn 0 1 0
vn 0.5 -0.8660254 0
vn 0.8660254 -0.5 0
vn 0.9659258 -0.258819 0
vn 0 -1 0
vn -0.5 -0.8660254 0
vn -0.8660254 -0.5 0
vn -0.9659258 -0.258819 0

vt 0.5 1
vt 0.5 0
vt -0.5 1
vt -0.5 0
vt 0.25 0
vt 0.25 0.5
vt 0.2165063 0.625
vt 0.125 0.7165064
vt 0 0.75
vt -0.125 0.7165064
vt -0.2165063 0.625
vt -0.25 0.5
vt -0.25 0
vt 0.25 -2.817531E-16
vt 0.5 -2.591933E-16
vt -1.402231E-14 0.75
vt -0.5 -2.591933E-16
vt -0.25 -2.817531E-16
vt 0 -1
vt 0 0
vt 1 -1
vt 1 0
vt 0.8771717 -1.738201
vt 0.9783232 -1.738201
vt 0.8771717 -1.8691
vt 0.9783232 -1.8691
vt 0.9783232 -2
vt 0.8771717 -2
vt 0.9783232 -1.607301
vt 0.8771717 -1.607301
vt 0.9783232 -1.476401
vt 0.8771717 -1.476401
vt 0.9783232 -1.345502
vt 0.8771717 -1.345502
vt 0.8771717 -1.214602
vt 0.9783232 -1.214602
vt -0.1343435 -4.909388
vt -0.1343435 -4.999867
vt -0.9435556 -4.909388
vt -0.9435556 -4.999867
vt 0.06795957 -0.4596605
vt 0.06795957 -0.3829677
vt 0.8771717 -0.4596605
vt 0.8771717 -0.3829677
vt 0.06795957 -0.306275
vt 0.8771717 -0.306275
vt 0.06795957 -0.2295822
vt 0.8771717 -0.2295822
vt 0.06795957 -1.449298
vt 0.06795957 -1.372605
vt 0.8771717 -1.449298
vt 0.8771717 -1.372605
vt 0.06795957 -3.167272
vt 0.06795957 -3.076792
vt 0.8771717 -3.167272
vt 0.8771717 -3.076792
vt -0.75 7.21645E-14
vt -0.75 -0.1
vt -1 0
vt -1 -1
vt -0.75 -1
vt -0.75 -0.9
vt -0.65 -0.1
vt -0.65 -0.9
vt -0.25 2.453593E-14
vt -0.25 -0.9
vt -0.25 -0.1
vt -0.35 -0.9
vt -0.35 -0.1
vt -0.25 -1
vt -0.35 0.5
vt -0.35 0
vt -0.75 0
vt -0.75 0.5
vt -0.65 0
vt -0.65 0.5
vt -0.15 0
vt -0.15 0.5
vt -0.25 0.4868348
vt -0.2731512 0.5732362
vt -0.1834936 0.625
vt -0.3267638 0.6268488
vt -0.275 0.7165064
vt -0.4 0.6464724
vt -0.525 0.7165064
vt -0.4 0.75
vt -0.4732362 0.6268488
vt -0.6165063 0.625
vt -0.5268488 0.5732362
vt -0.55 0.4868348
vt -0.55 0
vt -0.15 1.935876E-16
vt -0.25 1.935876E-16
vt -0.65 1.935876E-16
vt -0.55 1.935876E-16
vt -1.05 2.161474E-16
vt -1.05 0.4868348
vt 0.25 0.4868348
vt 0.25 3.199657E-16
vt -0.55 2.97406E-16

usemtl stonesPainted

f 3/3/1 2/2/1 1/1/1
f 2/2/1 3/3/1 4/4/1
f 7/2/2 6/3/2 5/4/2
f 6/3/2 7/2/2 8/1/2
f 6/1/3 9/5/3 5/2/3
f 9/5/3 6/1/3 10/6/3
f 10/6/3 6/1/3 11/7/3
f 11/7/3 6/1/3 12/8/3
f 12/8/3 6/1/3 13/9/3
f 1/3/3 13/9/3 6/1/3
f 1/3/3 14/10/3 13/9/3
f 1/3/3 15/11/3 14/10/3
f 1/3/3 16/12/3 15/11/3
f 2/4/3 16/12/3 1/3/3
f 16/12/3 2/4/3 17/13/3
f 4/15/4 19/6/4 18/14/4
f 19/6/4 4/15/4 3/1/4
f 19/6/4 3/1/4 20/7/4
f 20/7/4 3/1/4 21/8/4
f 21/8/4 3/1/4 22/16/4
f 8/3/4 22/16/4 3/1/4
f 8/3/4 23/10/4 22/16/4
f 8/3/4 24/11/4 23/10/4
f 8/3/4 25/12/4 24/11/4
f 7/17/4 25/12/4 8/3/4
f 25/12/4 7/17/4 26/18/4

usemtl bricks

f 6/21/5 3/20/5 1/19/5
f 3/20/5 6/21/5 8/22/5
f 28/25/7 12/24/6 27/23/6
f 12/24/6 28/25/7 11/26/7
f 28/25/7 10/27/8 11/26/7
f 10/27/8 28/25/7 29/28/8
f 13/29/9 27/23/6 12/24/6
f 27/23/6 13/29/9 30/30/9
f 14/31/10 30/30/9 13/29/9
f 30/30/9 14/31/10 31/32/10
f 15/33/11 31/32/10 14/31/10
f 31/32/10 15/33/11 32/34/11
f 15/33/11 33/35/12 32/34/11
f 33/35/12 15/33/11 16/36/12
f 24/33/7 35/35/8 34/34/7
f 35/35/8 24/33/7 25/36/8
f 36/32/6 24/33/7 34/34/7
f 24/33/7 36/32/6 23/31/6
f 37/30/9 23/31/6 36/32/6
f 23/31/6 37/30/9 22/29/9
f 38/23/10 22/29/9 37/30/9
f 22/29/9 38/23/10 21/24/10
f 39/25/11 21/24/10 38/23/10
f 21/24/10 39/25/11 20/26/11
f 39/25/11 19/27/12 20/26/11
f 19/27/12 39/25/11 40/28/12
f 43/39/12 42/38/11 41/37/12
f 42/38/11 43/39/12 44/40/11
f 44/43/11 45/42/10 42/41/11
f 45/42/10 44/43/11 46/44/10
f 46/44/10 47/45/9 45/42/10
f 47/45/9 46/44/10 48/46/9
f 48/46/9 49/47/6 47/45/9
f 49/47/6 48/46/9 50/48/6
f 50/51/6 51/50/7 49/49/6
f 51/50/7 50/51/6 52/52/7
f 52/55/7 53/54/8 51/53/7
f 53/54/8 52/55/7 54/56/8
f 7/59/9 55/58/9 26/57/9
f 5/60/9 55/58/9 7/59/9
f 9/61/9 55/58/9 5/60/9
f 56/62/9 55/58/9 9/61/9
f 56/62/9 57/63/9 55/58/9
f 57/63/9 56/62/9 58/64/9
f 60/67/9 59/66/9 18/65/9
f 59/66/9 60/67/9 61/68/9
f 61/68/9 60/67/9 62/69/9
f 17/70/9 18/65/9 59/66/9
f 2/19/9 18/65/9 17/70/9
f 18/65/9 2/19/9 4/20/9

usemtl stones

f 29/71/1 9/13/1 10/12/1
f 9/13/1 29/71/1 56/72/1
f 59/75/2 16/74/2 17/73/2
f 16/74/2 59/75/2 33/76/2
f 29/78/3 58/13/3 56/77/3
f 58/13/3 29/78/3 53/79/3
f 53/79/3 29/78/3 51/80/3
f 51/80/3 29/78/3 28/81/3
f 51/80/3 28/81/3 49/82/3
f 49/82/3 28/81/3 27/83/3
f 49/82/3 27/83/3 47/84/3
f 47/84/3 27/83/3 31/85/3
f 31/85/3 27/83/3 30/86/3
f 31/85/3 45/87/3 47/84/3
f 32/88/3 45/87/3 31/85/3
f 32/88/3 42/89/3 45/87/3
f 33/76/3 42/89/3 32/88/3
f 33/76/3 41/90/3 42/89/3
f 59/75/3 41/90/3 33/76/3
f 41/90/3 59/75/3 61/91/3
f 25/74/1 55/75/1 35/76/1
f 55/75/1 25/74/1 26/73/1
f 18/13/2 40/71/2 60/72/2
f 40/71/2 18/13/2 19/12/2
f 40/78/4 62/93/4 60/92/4
f 62/93/4 40/78/4 43/79/4
f 43/79/4 40/78/4 44/80/4
f 44/80/4 40/78/4 39/81/4
f 44/80/4 39/81/4 46/82/4
f 46/82/4 39/81/4 38/83/4
f 46/82/4 38/83/4 48/84/4
f 36/85/4 48/84/4 38/83/4
f 36/85/4 50/87/4 48/84/4
f 34/88/4 50/87/4 36/85/4
f 34/88/4 52/89/4 50/87/4
f 35/76/4 52/89/4 34/88/4
f 35/76/4 54/90/4 52/89/4
f 55/94/4 54/90/4 35/76/4
f 54/90/4 55/94/4 57/95/4
f 36/85/4 38/83/4 37/86/4
f 62/93/2 41/97/2 61/96/2
f 41/97/2 62/93/2 43/79/2
f 54/90/1 58/99/1 53/98/1
f 58/99/1 54/90/1 57/100/1

