# Created by Kenney (www.kenney.nl)

mtllib wallPaint_flat.mtl

g wallPaint_flat

v 0.25 3.609557E-16 0
v 0.25 0.5 0
v 0.25 3.609557E-16 0.1
v 0.25 0.5 0.1
v -0.125 0.7165064 0.1
v 0 0.75 0
v 0 0.75 0.1
v -0.125 0.7165064 0
v -0.2165064 0.625 0.1
v -0.2165064 0.625 0
v -0.25 0.5 0
v -0.25 0.5 0.1
v 0.125 0.7165064 0
v 0.125 0.7165064 0.1
v 0.2165064 0.625 0
v 0.2165064 0.625 0.1
v -0.25 3.609557E-16 0.1
v -0.15 3.609557E-16 0.1
v -0.15 0.4868348 0.1
v -0.1268488 0.5732362 0.1
v -0.07323619 0.6268488 0.1
v 0 0.6464723 0.1
v 0.07323619 0.6268488 0.1
v 0.1268488 0.5732362 0.1
v 0.15 0.4868348 0.1
v 0.15 3.609557E-16 0.1
v -0.25 3.609557E-16 0
v -0.5 3.609557E-16 0
v -0.5 1 0
v 0.5 1 0
v 0.5 3.609557E-16 0

vn -1 0 0
vn 1 0 0
vn -0.5 0.8660254 0
vn 0 1 0
vn -0.8660254 0.5 0
vn -0.9659258 0.258819 0
vn 0.5 0.8660254 0
vn 0.8660254 0.5 0
vn 0.9659258 0.258819 0
vn 0 0 -1
vn 0 0 1
vn 0 -1 0
vn 0.5 -0.8660254 0
vn 0.8660254 -0.5 0
vn 0.9659258 -0.258819 0
vn -0.5 -0.8660254 0
vn -0.8660254 -0.5 0
vn -0.9659258 -0.258819 0

vt -0.75 0
vt -0.75 0.5
vt -0.65 0
vt -0.65 0.5
vt -3.388201 -3.747003E-16
vt -3.257301 -0.1
vt -3.257301 -3.747003E-16
vt -3.388201 -0.1
vt -3.5191 -7.21645E-16
vt -3.5191 -0.1
vt -3.65 -0.1
vt -3.65 -7.21645E-16
vt -3.126401 -0.1
vt -3.126401 -7.21645E-16
vt -2.995502 -0.1
vt -2.995502 -3.747003E-16
vt -2.864602 -3.747003E-16
vt -2.864602 -0.1
vt -0.15 0
vt -0.25 0
vt -0.15 0.5
vt -0.25 0.4868348
vt -0.2731512 0.5732362
vt -0.1834936 0.625
vt -0.3267638 0.6268488
vt -0.275 0.7165064
vt -0.4 0.6464724
vt -0.525 0.7165064
vt -0.4 0.75
vt -0.4732362 0.6268488
vt -0.6165063 0.625
vt -0.5268488 0.5732362
vt -0.55 0.4868348
vt -0.55 0
vt -6.65 0.5
vt -6.75 0
vt -6.65 0
vt -6.75 0.4868348
vt -6.773151 0.5732362
vt -6.683494 0.625
vt -6.826764 0.6268488
vt -6.775 0.7165064
vt -6.9 0.6464724
vt -7.025 0.7165064
vt -6.9 0.75
vt -6.973236 0.6268488
vt -7.116507 0.625
vt -7.026849 0.5732362
vt -7.15 0.5
vt -7.05 0.4868348
vt -7.15 0
vt -7.05 0
vt -0.25 0.5
vt -0.35 0.5
vt -0.35 0
vt -6.55 0
vt -6.55 0.5
vt 0.8771717 -1.607301
vt 0.9783232 -1.607301
vt 0.8771717 -1.738201
vt 0.9783232 -1.738201
vt 0.8771717 -1.8691
vt 0.9783232 -1.8691
vt 0.9783232 -2
vt 0.8771717 -2
vt 0.9783232 -1.476401
vt 0.8771717 -1.476401
vt 0.9783232 -1.345502
vt 0.8771717 -1.345502
vt 0.8771717 -1.214602
vt 0.9783232 -1.214602
vt 4 2.46519E-31
vt 3.75 2.46519E-31
vt 4 1
vt 3.75 0.5
vt 3.716506 0.625
vt 3.625 0.7165064
vt 3.5 0.75
vt 3 1
vt 3.375 0.7165064
vt 3.283494 0.625
vt 3.25 0.5
vt 3 2.46519E-31
vt 3.25 2.46519E-31

usemtl stones

f 3/3/1 2/2/1 1/1/1
f 2/2/1 3/3/1 4/4/1
f 1/1/2 2/2/2 3/3/2
f 4/4/2 3/3/2 2/2/2
f 7/7/4 6/6/4 5/5/3
f 8/8/3 5/5/3 6/6/4
f 5/5/3 8/8/3 9/9/5
f 10/10/5 9/9/5 8/8/3
f 10/10/5 11/11/6 9/9/5
f 12/12/6 9/9/5 11/11/6
f 6/6/4 7/7/4 13/13/7
f 14/14/7 13/13/7 7/7/4
f 13/13/7 14/14/7 15/15/8
f 16/16/8 15/15/8 14/14/7
f 16/16/8 4/17/9 15/15/8
f 2/18/9 15/15/8 4/17/9
f 12/21/10 18/20/10 17/19/10
f 18/20/10 12/21/10 19/22/10
f 19/22/10 12/21/10 20/23/10
f 20/23/10 12/21/10 9/24/10
f 20/23/10 9/24/10 21/25/10
f 21/25/10 9/24/10 5/26/10
f 21/25/10 5/26/10 22/27/10
f 22/27/10 5/26/10 14/28/10
f 14/28/10 5/26/10 7/29/10
f 14/28/10 23/30/10 22/27/10
f 16/31/10 23/30/10 14/28/10
f 16/31/10 24/32/10 23/30/10
f 4/4/10 24/32/10 16/31/10
f 4/4/10 25/33/10 24/32/10
f 3/3/10 25/33/10 4/4/10
f 25/33/10 3/3/10 26/34/10
f 17/37/11 18/36/11 12/35/11
f 19/38/11 12/35/11 18/36/11
f 20/39/11 12/35/11 19/38/11
f 9/40/11 12/35/11 20/39/11
f 21/41/11 9/40/11 20/39/11
f 5/42/11 9/40/11 21/41/11
f 22/43/11 5/42/11 21/41/11
f 14/44/11 5/42/11 22/43/11
f 7/45/11 5/42/11 14/44/11
f 22/43/11 23/46/11 14/44/11
f 14/44/11 23/46/11 16/47/11
f 23/46/11 24/48/11 16/47/11
f 16/47/11 24/48/11 4/49/11
f 24/48/11 25/50/11 4/49/11
f 4/49/11 25/50/11 3/51/11
f 26/52/11 3/51/11 25/50/11
f 12/54/2 27/20/2 11/53/2
f 27/20/2 12/54/2 17/55/2
f 11/57/1 27/56/1 12/35/1
f 17/37/1 12/35/1 27/56/1

usemtl bricks

f 5/60/13 6/59/12 7/58/12
f 6/59/12 5/60/13 8/61/13
f 9/62/14 8/61/13 5/60/13
f 8/61/13 9/62/14 10/63/14
f 9/62/14 11/64/15 10/63/14
f 11/64/15 9/62/14 12/65/15
f 13/66/16 7/58/12 6/59/12
f 7/58/12 13/66/16 14/67/16
f 15/68/17 14/67/16 13/66/16
f 14/67/16 15/68/17 16/69/17
f 15/68/17 4/70/18 16/69/17
f 4/70/18 15/68/17 2/71/18

usemtl stonesPainted

f 29/74/10 27/73/10 28/72/10
f 27/73/10 29/74/10 11/75/10
f 11/75/10 29/74/10 10/76/10
f 10/76/10 29/74/10 8/77/10
f 8/77/10 29/74/10 6/78/10
f 30/79/10 6/78/10 29/74/10
f 30/79/10 13/80/10 6/78/10
f 30/79/10 15/81/10 13/80/10
f 30/79/10 2/82/10 15/81/10
f 31/83/10 2/82/10 30/79/10
f 2/82/10 31/83/10 1/84/10
f 28/72/11 27/73/11 29/74/11
f 11/75/11 29/74/11 27/73/11
f 10/76/11 29/74/11 11/75/11
f 8/77/11 29/74/11 10/76/11
f 6/78/11 29/74/11 8/77/11
f 29/74/11 6/78/11 30/79/11
f 6/78/11 13/80/11 30/79/11
f 13/80/11 15/81/11 30/79/11
f 15/81/11 2/82/11 30/79/11
f 30/79/11 2/82/11 31/83/11
f 1/84/11 31/83/11 2/82/11

