# Created by Kenney (www.kenney.nl)

mtllib light_curved.mtl

g light_curved

v 0.025 0.675 -0.15
v 0.025 0.6527778 -0.15
v 0.0125 0.675 -0.1
v 0.0125 0.6527778 -0.1
v 0.025 0 0.02499998
v -0.025 0 0.02499998
v 0.025 0.1 0.02499998
v -0.025 0.1 0.02499998
v 0.0125 0.6502059 -0.07886714
v 0.0125 0.6716933 -0.07282919
v 0.0125 0.6426402 -0.05896807
v 0.0125 0.661966 -0.04724467
v 0.0125 0.6305226 -0.04146445
v 0.0125 0.6463862 -0.02474004
v 0.0125 0.6145604 -0.02737826
v 0.0125 0.5956856 -0.01753181
v 0.0125 0.6258634 -0.006629229
v 0.0125 0.575 -0.01249999
v 0.0125 0.15 -0.01249999
v 0.0125 0.15 0.01249999
v 0.0125 0.6015958 0.0060305
v 0.0125 0.575 0.01249999
v -0.0125 0.6305226 -0.04146445
v -0.0125 0.6426402 -0.05896807
v -0.0125 0.6258634 -0.006629229
v -0.0125 0.6463862 -0.02474004
v 0.025 0.1 -0.02499998
v 0.025 0 -0.02499998
v -0.025 0.1 -0.02499998
v -0.0125 0.15 -0.01249999
v -0.0125 0.15 0.01249999
v -0.025 0.6527778 -0.2
v 0.025 0.6527778 -0.2
v -0.025 0.675 -0.2
v 0.025 0.675 -0.2
v -0.0125 0.575 -0.01249999
v -0.0125 0.6502059 -0.07886714
v -0.0125 0.6527778 -0.1
v -0.0125 0.575 0.01249999
v -0.0125 0.6716933 -0.07282919
v -0.0125 0.661966 -0.04724467
v -0.0125 0.6015958 0.0060305
v -0.025 0 -0.02499998
v -0.0125 0.5956856 -0.01753181
v -0.025 0.6527778 -0.15
v -0.025 0.675 -0.15
v -0.0125 0.675 -0.1
v -0.0125 0.6145604 -0.02737826

vn 0.9925076 0 0.1221833
vn 0.9701425 0 0.2425356
vn 0 0 1
vn 0 0.1121652 0.9936895
vn 1 0 0
vn 0 -0.7474093 -0.6643638
vn 0 -0.8849414 -0.4657024
vn 0 0.5662425 0.8242387
vn 0 0.7474093 0.6643638
vn 0.9936895 0.1121652 0
vn -0.9936895 0.1121652 0
vn -0.9701425 0.2425356 0
vn 0 0 -1
vn 0 -0.9708093 -0.2398527
vn 0 -0.9926755 -0.1208112
vn 0 0.2425356 0.9701425
vn 0 0.9708093 0.2398527
vn 0 0.8849414 0.4657024
vn 0 0.2363607 0.9716654
vn 0 0.3520176 0.9359934
vn 0 0.1121652 -0.9936895
vn 0 -0.2363607 -0.9716654
vn 0 -0.3520176 -0.9359934
vn -0.9925076 0 0.1221833
vn -0.9701425 0 0.2425356
vn 0 0.2425356 -0.9701425
vn -1 0 0
vn 0 1 0
vn 0 0.998423 0.05613833
vn 0 -0.5662425 -0.8242387
vn 0.9701425 0.2425356 0
vn 0 -1 0

vt 5.967904 26.5748
vt 5.967904 25.69991
vt 3.938817 26.5748
vt 3.938817 25.69991
vt 0.984252 0
vt -0.984252 0
vt 0.984252 3.937008
vt -0.984252 3.937008
vt 3.937008 25.69991
vt 3.105006 25.59866
vt 3.937008 26.5748
vt 2.867291 26.44462
vt 2.321577 25.3008
vt 1.860025 26.06166
vt 1.63246 24.82372
vt 0.9740171 25.44828
vt 1.077885 24.19529
vt 0.6902296 23.45219
vt 0.2609924 24.64029
vt 0.492126 22.63779
vt 0.492126 5.905512
vt -0.492126 5.905512
vt -0.2374213 23.68487
vt -0.492126 22.63779
vt -0.492126 15.47192
vt -0.492126 16.31007
vt 0.492126 15.47192
vt 0.492126 16.31007
vt 0.492126 18.64781
vt -0.492126 18.64781
vt 0.492126 19.72542
vt -0.492126 19.72542
vt -0.984252 3.580743
vt -0.492126 5.60983
vt 0.984252 3.580743
vt 0.492126 5.60983
vt 0.984252 25.69991
vt -0.984252 25.69991
vt 0.984252 26.5748
vt -0.984252 26.5748
vt -0.492126 6.174868
vt -0.492126 7.013009
vt 0.492126 6.174868
vt 0.492126 7.013009
vt 7.874016 26.5748
vt 7.874016 25.69991
vt 5.905512 26.5748
vt 5.905512 25.69991
vt 0.492126 12.07802
vt 0.492126 11.00041
vt -0.492126 12.07802
vt -0.492126 11.00041
vt 0.492126 21.88004
vt -0.492126 21.88004
vt 0.492126 22.95765
vt -0.492126 22.95765
vt 0.492126 22.11268
vt -0.492126 22.11268
vt 0.492126 22.95082
vt -0.492126 22.95082
vt -5.967904 25.69991
vt -5.967904 26.5748
vt -3.938817 25.69991
vt -3.938817 26.5748
vt 0.492126 16.36366
vt 0.492126 15.28605
vt -0.492126 16.36366
vt -0.492126 15.28605
vt -7.874016 25.69991
vt -7.874016 26.5748
vt -5.905512 25.69991
vt -5.905512 26.5748
vt -0.492126 11.16144
vt -0.492126 11.99958
vt 0.492126 11.16144
vt 0.492126 11.99958
vt -0.984252 -7.874016
vt -0.984252 -5.905512
vt 0.984252 -7.874016
vt -0.492126 -3.937008
vt 0.492126 -3.937008
vt 0.984252 -5.905512
vt 0.492126 21.11219
vt -0.492126 21.11219
vt 0.492126 21.95033
vt -0.492126 21.95033
vt 0.492126 20.88943
vt -0.492126 20.88943
vt 0.492126 21.96704
vt -0.492126 21.96704
vt 0.492126 18.85467
vt -0.492126 18.85467
vt 0.492126 19.69281
vt -0.492126 19.69281
vt 0.492126 6.041096
vt -0.492126 6.041096
vt 0.492126 7.118706
vt -0.492126 7.118706
vt -0.2609924 24.64029
vt 0.2374213 23.68487
vt -0.6902296 23.45219
vt -0.9740171 25.44828
vt -1.077885 24.19529
vt -1.63246 24.82372
vt -1.860025 26.06166
vt -2.321577 25.3008
vt -2.867291 26.44462
vt -3.105006 25.59866
vt -3.937008 26.5748
vt -3.937008 25.69991

usemtl pavement

f 3/3/2 2/2/1 1/1/1
f 2/2/1 3/3/2 4/4/2
f 7/7/4 6/6/3 5/5/3
f 6/6/3 7/7/4 8/8/4
f 3/11/5 9/10/5 4/9/5
f 9/10/5 3/11/5 10/12/5
f 9/10/5 10/12/5 11/13/5
f 11/13/5 10/12/5 12/14/5
f 11/13/5 12/14/5 13/15/5
f 13/15/5 12/14/5 14/16/5
f 13/15/5 14/16/5 15/17/5
f 15/17/5 14/16/5 16/18/5
f 16/18/5 14/16/5 17/19/5
f 16/18/5 17/19/5 18/20/5
f 18/20/5 17/19/5 19/21/5
f 19/21/5 17/19/5 20/22/5
f 20/22/5 17/19/5 21/23/5
f 20/22/5 21/23/5 22/24/5
f 23/27/6 11/26/7 13/25/6
f 11/26/7 23/27/6 24/28/7
f 14/31/9 25/30/8 17/29/8
f 25/30/8 14/31/9 26/32/9
f 7/8/10 28/5/5 27/7/10
f 28/5/5 7/8/10 5/6/5
f 8/35/11 30/34/12 29/33/11
f 30/34/12 8/35/11 31/36/12
f 34/39/13 33/38/13 32/37/13
f 33/38/13 34/39/13 35/40/13
f 36/20/13 19/22/13 30/21/13
f 19/22/13 36/20/13 18/24/13
f 37/43/14 4/42/15 9/41/14
f 4/42/15 37/43/14 38/44/15
f 1/47/1 33/46/5 35/45/5
f 33/46/5 1/47/1 2/48/1
f 20/36/16 8/33/4 7/35/4
f 8/33/4 20/36/16 31/34/16
f 22/20/3 31/22/3 20/21/3
f 31/22/3 22/20/3 39/24/3
f 40/51/17 12/50/18 10/49/17
f 12/50/18 40/51/17 41/52/18
f 21/55/20 39/54/19 22/53/19
f 39/54/19 21/55/20 42/56/20
f 29/7/21 28/6/13 43/5/13
f 28/6/13 29/7/21 27/8/21
f 44/59/23 18/58/22 36/57/22
f 18/58/22 44/59/23 16/60/23
f 38/63/25 46/62/24 45/61/24
f 46/62/24 38/63/25 47/64/25
f 41/67/18 14/66/9 12/65/18
f 14/66/9 41/67/18 26/68/9
f 30/36/26 27/33/21 29/35/21
f 27/33/21 30/36/26 19/34/26
f 6/5/27 29/8/11 43/6/27
f 29/8/11 6/5/27 8/7/11
f 45/71/24 34/70/27 32/69/27
f 34/70/27 45/71/24 46/72/24
f 24/75/7 9/74/14 11/73/7
f 9/74/14 24/75/7 37/76/14
f 34/79/28 1/78/28 35/77/28
f 1/78/28 34/79/28 3/80/29
f 3/80/29 34/79/28 47/81/29
f 47/81/29 34/79/28 46/82/28
f 48/85/30 16/84/23 44/83/23
f 16/84/23 48/85/30 15/86/30
f 17/89/8 42/88/20 21/87/20
f 42/88/20 17/89/8 25/90/8
f 19/36/31 7/33/10 27/35/10
f 7/33/10 19/36/31 20/34/31
f 23/93/6 15/92/30 48/91/30
f 15/92/30 23/93/6 13/94/6
f 3/97/29 40/96/17 10/95/17
f 40/96/17 3/97/29 47/98/29
f 31/21/27 36/24/27 30/22/27
f 36/24/27 31/21/27 25/99/27
f 25/99/27 31/21/27 42/100/27
f 42/100/27 31/21/27 39/20/27
f 25/99/27 44/101/27 36/24/27
f 26/102/27 44/101/27 25/99/27
f 26/102/27 48/103/27 44/101/27
f 26/102/27 23/104/27 48/103/27
f 41/105/27 23/104/27 26/102/27
f 41/105/27 24/106/27 23/104/27
f 40/107/27 24/106/27 41/105/27
f 40/107/27 37/108/27 24/106/27
f 47/109/27 37/108/27 40/107/27
f 37/108/27 47/109/27 38/110/27

usemtl light

f 4/81/32 33/79/32 2/82/32
f 33/79/32 4/81/32 32/77/32
f 32/77/32 4/81/32 38/80/32
f 32/77/32 38/80/32 45/78/32

usemtl _defaultMat

f 6/70/32 28/71/32 5/72/32
f 28/70/32 6/71/32 43/72/32

