# Created by Kenney (www.kenney.nl)

mtllib light_curvedDouble.mtl

g light_curvedDouble

v -0.0125 0.6258634 0.006629229
v 0.0125 0.6258634 0.006629229
v -0.0125 0.6463862 0.02474004
v 0.0125 0.6463862 0.02474004
v -0.0125 0.675 0.1
v -0.025 0.675 0.15
v -0.0125 0.6527778 0.1
v -0.025 0.6527778 0.15
v 0.0125 0.6527778 0.1
v 0.0125 0.6502059 0.07886714
v -0.0125 0.6502059 0.07886714
v -0.025 0.6527778 0.2
v -0.025 0.675 0.2
v 0.0125 0.15 0.01249999
v -0.0125 0.15 0.01249999
v 0.0125 0.575 0.01249999
v -0.0125 0.575 0.01249999
v -0.025 0 -0.02499998
v 0.025 0 -0.02499998
v -0.025 0.1 -0.02499998
v 0.025 0.1 -0.02499998
v 0.0125 0.5956856 0.01753181
v -0.0125 0.5956856 0.01753181
v 0.025 0.1 0.02499998
v 0.0125 0.15 -0.01249999
v 0.0125 0.675 0.1
v 0.025 0.675 0.15
v 0.025 0.6527778 0.15
v 0.0125 0.661966 0.04724467
v 0.0125 0.6716933 0.07282919
v -0.0125 0.661966 0.04724467
v -0.0125 0.6716933 0.07282919
v 0.025 0 0.02499998
v -0.025 0 0.02499998
v -0.025 0.1 0.02499998
v 0.025 0.6527778 0.2
v 0.025 0.675 0.2
v -0.0125 0.15 -0.01249999
v 0.0125 0.6145604 0.02737826
v -0.0125 0.6145604 0.02737826
v 0.0125 0.6305226 0.04146445
v -0.0125 0.6305226 0.04146445
v 0.0125 0.6426402 0.05896807
v -0.0125 0.6426402 0.05896807
v 0.0125 0.6502059 -0.07886714
v 0.0125 0.6527778 -0.1
v -0.0125 0.6502059 -0.07886714
v -0.0125 0.6527778 -0.1
v 0.0125 0.6131557 0
v 0.0125 0.6258634 -0.006629229
v 0.0125 0.575 -0.01249999
v 0.0125 0.5956856 -0.01753181
v 0.0125 0.6463862 -0.02474004
v 0.0125 0.6145604 -0.02737826
v 0.0125 0.6305226 -0.04146445
v 0.0125 0.661966 -0.04724467
v 0.0125 0.6426402 -0.05896807
v 0.0125 0.6716933 -0.07282919
v 0.0125 0.675 -0.1
v -0.0125 0.6258634 -0.006629229
v -0.0125 0.6463862 -0.02474004
v 0.025 0.675 -0.2
v 0.025 0.6527778 -0.2
v 0.025 0.675 -0.15
v 0.025 0.6527778 -0.15
v -0.025 0.6527778 -0.2
v -0.025 0.675 -0.2
v -0.0125 0.6131557 0
v -0.0125 0.575 -0.01249999
v -0.0125 0.5956856 -0.01753181
v -0.0125 0.6305226 -0.04146445
v -0.0125 0.6426402 -0.05896807
v -0.025 0.6527778 -0.15
v -0.025 0.675 -0.15
v -0.0125 0.6145604 -0.02737826
v -0.0125 0.675 -0.1
v -0.0125 0.6716933 -0.07282919
v -0.0125 0.661966 -0.04724467

vn 0 0.5662425 -0.8242387
vn 0 0.7474093 -0.6643638
vn -0.9701425 0 -0.2425356
vn -0.9925076 0 -0.1221833
vn 0 -0.9926755 0.1208112
vn 0 -0.9708093 0.2398527
vn -1 0 0
vn 0 0 1
vn 0 0 -1
vn 0 0.1121652 -0.9936895
vn 0 -0.2363607 0.9716654
vn 0 -0.3520176 0.9359934
vn 0.9936895 0.1121652 0
vn 0.9701425 0.2425356 0
vn 0.9701425 0 -0.2425356
vn 0.9925076 0 -0.1221833
vn 0 0.8849414 -0.4657024
vn 0 0.9708093 -0.2398527
vn 0 0.1121652 0.9936895
vn -0.9936895 0.1121652 0
vn -0.9701425 0.2425356 0
vn 0 0.998423 -0.05613833
vn 0 1 0
vn 0 0.2425356 -0.9701425
vn 0 -0.5662425 0.8242387
vn 0 -0.7474093 0.6643638
vn 0 -0.8849414 0.4657024
vn 0 -0.9708093 -0.2398527
vn 0 -0.9926755 -0.1208112
vn 1 0 0
vn 0 0.5662425 0.8242387
vn 0 0.7474093 0.6643638
vn 0.9925076 0 0.1221833
vn 0 0.4625177 -0.8866101
vn 0 -0.2363607 -0.9716654
vn 0 -0.3520176 -0.9359934
vn 0 -0.7474093 -0.6643638
vn 0 -0.8849414 -0.4657024
vn 0 0.2425356 0.9701425
vn 0.9701425 0 0.2425356
vn -0.9925076 0 0.1221833
vn 0 -0.5662425 -0.8242387
vn 0 0.998423 0.05613833
vn 0 0.8849414 0.4657024
vn -0.9701425 0 0.2425356
vn 0 0.9708093 0.2398527
vn 0 0.4625177 0.8866101
vn 0 -1 0

vt 0.492126 18.64781
vt -0.492126 18.64781
vt 0.492126 19.72542
vt -0.492126 19.72542
vt 3.938817 26.5748
vt 5.967904 26.5748
vt 3.938817 25.69991
vt 5.967904 25.69991
vt 0.492126 7.013009
vt 0.492126 6.174868
vt -0.492126 7.013009
vt -0.492126 6.174868
vt 5.905512 25.69991
vt 5.905512 26.5748
vt 7.874016 25.69991
vt 7.874016 26.5748
vt 0.492126 5.905512
vt -0.492126 5.905512
vt 0.492126 22.63779
vt -0.492126 22.63779
vt 0.984252 0
vt -0.984252 0
vt 0.984252 3.937008
vt -0.984252 3.937008
vt 0.492126 22.11268
vt -0.492126 22.11268
vt 0.492126 22.95082
vt -0.492126 22.95082
vt 0.984252 3.580743
vt -0.984252 3.580743
vt 0.492126 5.60983
vt -0.492126 5.60983
vt -3.938817 26.5748
vt -3.938817 25.69991
vt -5.967904 26.5748
vt -5.967904 25.69991
vt -0.492126 11.00041
vt -0.492126 12.07802
vt 0.492126 11.00041
vt 0.492126 12.07802
vt -0.492126 15.28605
vt -0.492126 16.36366
vt 0.492126 15.28605
vt 0.492126 16.36366
vt 0.984252 25.69991
vt -0.984252 25.69991
vt 0.984252 26.5748
vt -0.984252 26.5748
vt -0.492126 7.118706
vt 0.492126 7.118706
vt -0.492126 6.041096
vt 0.492126 6.041096
vt -0.984252 5.905512
vt -0.984252 7.874016
vt -0.492126 3.937008
vt 0.984252 7.874016
vt 0.492126 3.937008
vt 0.984252 5.905512
vt 0.492126 18.85467
vt -0.492126 18.85467
vt 0.492126 19.69281
vt -0.492126 19.69281
vt 0.492126 21.11219
vt -0.492126 21.11219
vt 0.492126 21.95033
vt -0.492126 21.95033
vt 0.492126 11.16144
vt -0.492126 11.16144
vt 0.492126 11.99958
vt -0.492126 11.99958
vt -0.2609924 24.64029
vt -0.9740171 25.44828
vt -0.6902296 23.45219
vt -1.077885 24.19529
vt -1.860025 26.06166
vt -1.63246 24.82372
vt -2.321577 25.3008
vt -2.867291 26.44462
vt -3.105006 25.59866
vt -3.937008 26.5748
vt -3.937008 25.69991
vt 6.407972E-15 24.13999
vt 0.2609924 24.64029
vt 0.6902296 23.45219
vt 0.9740171 25.44828
vt 1.077885 24.19529
vt 1.63246 24.82372
vt 1.860025 26.06166
vt 2.321577 25.3008
vt 2.867291 26.44462
vt 3.105006 25.59866
vt 3.937008 26.5748
vt 3.937008 25.69991
vt -0.492126 21.40276
vt -0.492126 21.96704
vt 0.492126 21.40276
vt 0.492126 21.96704
vt -5.905512 26.5748
vt -5.905512 25.69991
vt -7.874016 26.5748
vt -7.874016 25.69991
vt -0.492126 15.47192
vt -0.492126 16.31007
vt 0.492126 15.47192
vt 0.492126 16.31007
vt -0.984252 -7.874016
vt -0.984252 -5.905512
vt 0.984252 -7.874016
vt -0.492126 -3.937008
vt 0.492126 -3.937008
vt 0.984252 -5.905512

usemtl pavement

f 3/3/2 2/2/1 1/1/1
f 2/2/1 3/3/2 4/4/2
f 7/7/3 6/6/4 5/5/3
f 6/6/4 7/7/3 8/8/4
f 7/11/5 10/10/6 9/9/5
f 10/10/6 7/11/5 11/12/6
f 12/15/7 6/14/4 8/13/4
f 6/14/4 12/15/7 13/16/7
f 16/19/8 15/18/8 14/17/8
f 15/18/8 16/19/8 17/20/8
f 20/23/10 19/22/9 18/21/9
f 19/22/9 20/23/10 21/24/10
f 22/27/12 17/26/11 16/25/11
f 17/26/11 22/27/12 23/28/12
f 25/31/14 24/30/13 21/29/13
f 24/30/13 25/31/14 14/32/14
f 27/35/16 9/34/15 26/33/15
f 9/34/15 27/35/16 28/36/16
f 31/39/17 30/38/18 29/37/17
f 30/38/18 31/39/17 32/40/18
f 24/23/19 34/22/8 33/21/8
f 34/22/8 24/23/19 35/24/19
f 3/43/2 29/42/17 4/41/2
f 29/42/17 3/43/2 31/44/17
f 34/21/7 20/24/20 18/22/7
f 20/24/20 34/21/7 35/23/20
f 37/47/8 12/46/8 36/45/8
f 12/46/8 37/47/8 13/48/8
f 35/29/20 38/32/21 20/30/20
f 38/32/21 35/29/20 15/31/21
f 30/51/18 5/50/22 26/49/22
f 5/50/22 30/51/18 32/52/18
f 26/55/22 37/54/23 27/53/23
f 37/54/23 26/55/22 13/56/23
f 13/56/23 26/55/22 5/57/22
f 13/56/23 5/57/22 6/58/23
f 38/31/24 21/30/10 20/29/10
f 21/30/10 38/31/24 25/32/24
f 41/61/26 40/60/25 39/59/25
f 40/60/25 41/61/26 42/62/26
f 39/65/25 23/64/12 22/63/12
f 23/64/12 39/65/25 40/66/25
f 10/69/6 44/68/27 43/67/27
f 44/68/27 10/69/6 11/70/6
f 47/10/28 46/11/29 45/12/28
f 46/11/29 47/10/28 48/9/29
f 4/72/30 16/20/30 2/71/30
f 16/20/30 4/72/30 22/73/30
f 22/73/30 4/72/30 39/74/30
f 39/74/30 4/72/30 29/75/30
f 39/74/30 29/75/30 41/76/30
f 41/76/30 29/75/30 43/77/30
f 43/77/30 29/75/30 30/78/30
f 43/77/30 30/78/30 10/79/30
f 10/79/30 30/78/30 26/80/30
f 10/79/30 26/80/30 9/81/30
f 14/18/30 2/71/30 16/20/30
f 14/18/30 49/82/30 2/71/30
f 14/18/30 50/83/30 49/82/30
f 25/17/30 50/83/30 14/18/30
f 51/19/30 50/83/30 25/17/30
f 52/84/30 50/83/30 51/19/30
f 52/84/30 53/85/30 50/83/30
f 54/86/30 53/85/30 52/84/30
f 55/87/30 53/85/30 54/86/30
f 55/87/30 56/88/30 53/85/30
f 57/89/30 56/88/30 55/87/30
f 57/89/30 58/90/30 56/88/30
f 45/91/30 58/90/30 57/89/30
f 45/91/30 59/92/30 58/90/30
f 59/92/30 45/91/30 46/93/30
f 53/3/32 60/2/31 50/1/31
f 60/2/31 53/3/32 61/4/32
f 64/14/33 63/15/30 62/16/30
f 63/15/30 64/14/33 65/13/33
f 67/47/9 63/46/9 66/45/9
f 63/46/9 67/47/9 62/48/9
f 68/96/34 2/95/1 49/94/34
f 2/95/1 68/96/34 1/97/1
f 70/27/36 51/26/35 69/25/35
f 51/26/35 70/27/36 52/28/36
f 37/100/30 28/99/16 27/98/16
f 28/99/16 37/100/30 36/101/30
f 71/104/37 57/103/38 55/102/37
f 57/103/38 71/104/37 72/105/38
f 24/24/13 19/21/30 21/23/13
f 19/21/30 24/24/13 33/22/30
f 14/31/39 35/30/19 24/29/19
f 35/30/19 14/31/39 15/32/39
f 59/5/40 65/8/33 64/6/33
f 65/8/33 59/5/40 46/7/40
f 69/19/9 25/18/9 38/17/9
f 25/18/9 69/19/9 51/20/9
f 43/105/27 42/102/26 41/104/26
f 42/102/26 43/105/27 44/103/27
f 73/99/41 67/100/7 66/101/7
f 67/100/7 73/99/41 74/98/41
f 75/65/42 52/64/36 70/63/36
f 52/64/36 75/65/42 54/66/42
f 71/61/37 54/60/42 75/59/42
f 54/60/42 71/61/37 55/62/37
f 47/79/7 76/80/7 48/81/7
f 76/80/7 47/79/7 77/78/7
f 77/78/7 47/79/7 72/77/7
f 77/78/7 72/77/7 78/75/7
f 78/75/7 72/77/7 71/76/7
f 78/75/7 71/76/7 61/72/7
f 61/72/7 71/76/7 75/74/7
f 61/72/7 75/74/7 70/73/7
f 61/72/7 70/73/7 60/71/7
f 60/71/7 70/73/7 69/20/7
f 69/20/7 15/17/7 60/71/7
f 15/17/7 69/20/7 38/18/7
f 60/71/7 15/17/7 68/82/7
f 68/82/7 15/17/7 1/83/7
f 1/83/7 15/17/7 17/19/7
f 17/19/7 3/85/7 1/83/7
f 3/85/7 17/19/7 23/84/7
f 3/85/7 23/84/7 40/86/7
f 3/85/7 40/86/7 31/88/7
f 31/88/7 40/86/7 42/87/7
f 31/88/7 42/87/7 44/89/7
f 31/88/7 44/89/7 32/90/7
f 32/90/7 44/89/7 11/91/7
f 32/90/7 11/91/7 5/92/7
f 5/92/7 11/91/7 7/93/7
f 67/108/23 64/107/23 62/106/23
f 64/107/23 67/108/23 59/109/43
f 59/109/43 67/108/23 76/110/43
f 76/110/43 67/108/23 74/111/23
f 78/42/44 53/43/32 56/44/44
f 53/43/32 78/42/44 61/41/32
f 48/34/45 74/35/41 73/36/41
f 74/35/41 48/34/45 76/33/45
f 72/67/38 45/70/28 57/68/38
f 45/70/28 72/67/38 47/69/28
f 77/38/46 56/39/44 58/40/46
f 56/39/44 77/38/46 78/37/44
f 50/97/31 68/94/47 49/96/47
f 68/94/47 50/97/31 60/95/31
f 59/50/43 77/51/46 58/52/46
f 77/51/46 59/50/43 76/49/43

usemtl light

f 36/56/48 9/57/48 28/58/48
f 9/57/48 36/56/48 12/54/48
f 9/57/48 12/54/48 7/55/48
f 7/55/48 12/54/48 8/53/48
f 46/110/48 63/108/48 65/111/48
f 63/108/48 46/110/48 66/106/48
f 66/106/48 46/110/48 48/109/48
f 66/106/48 48/109/48 73/107/48

usemtl _defaultMat

f 34/15/48 19/14/48 33/13/48
f 19/15/48 34/14/48 18/13/48

