# Created by Kenney (www.kenney.nl)

mtllib light_squareDouble.mtl

g light_squareDouble

v -0.025 0.1 -0.02499998
v 0.025 0.1 -0.02499998
v -0.0125 0.15 -0.01249999
v 0.0125 0.15 -0.01249999
v 0.025 0 0.02499998
v 0.025 0 -0.02499998
v -0.025 0 0.02499998
v -0.025 0 -0.02499998
v -0.0125 0.575 -0.01249999
v 0.0125 0.575 -0.01249999
v 0.025 0.1 0.02499998
v -0.025 0.1 0.02499998
v 0.0125 0.15 0.01249999
v -0.0125 0.15 0.01249999
v 0.0125 0.5958334 0
v 0.0125 0.575 0.01249999
v 0.0125 0.6 0.01249999
v 0.0125 0.575 0.1125
v 0.0125 0.6 0.1125
v 0.0125 0.6 -0.01249999
v 0.0125 0.575 -0.1125
v 0.0125 0.6 -0.1125
v 0.025 0.6 -0.2125
v 0.025 0.575 -0.2125
v 0.025 0.6 -0.1625
v 0.025 0.575 -0.1625
v -0.025 0.575 -0.2125
v -0.025 0.6 -0.2125
v -0.025 0.575 -0.1625
v -0.025 0.6 -0.1625
v -0.0125 0.575 0.01249999
v -0.0125 0.6 -0.1125
v -0.0125 0.6 -0.01249999
v -0.0125 0.575 -0.1125
v -0.0125 0.5958334 0
v -0.0125 0.6 0.01249999
v -0.0125 0.575 0.1125
v -0.0125 0.6 0.1125
v -0.025 0.575 0.1625
v -0.025 0.6 0.1625
v -0.025 0.575 0.2125
v -0.025 0.6 0.2125
v 0.025 0.6 0.1625
v 0.025 0.575 0.1625
v 0.025 0.575 0.2125
v 0.025 0.6 0.2125

vn 0 0.1121652 -0.9936895
vn 0 0.2425356 -0.9701425
vn 0 -1 0
vn 0 0 -1
vn 0 0 1
vn 0 0.1121652 0.9936895
vn 0.9936895 0.1121652 0
vn 0.9701425 0.2425356 0
vn -0.9936895 0.1121652 0
vn -0.9701425 0.2425356 0
vn -1 0 0
vn 1 0 0
vn 0.9925076 0 -0.1221833
vn 0.9925076 0 0.1221833
vn 0.9925076 0 0.1221833
vn -0.9925076 0 0.1221833
vn 0 1 0
vn 0 0.2425356 0.9701425
vn -0.9925076 0 -0.1221833
vn 0 0.9486833 -0.3162278
vn 0 0.9486833 0.3162278

vt 0.984252 3.580743
vt -0.984252 3.580743
vt 0.492126 5.60983
vt -0.492126 5.60983
vt 0.984252 0.984252
vt 0.984252 -0.984252
vt -0.984252 0.984252
vt -0.984252 -0.984252
vt 0.492126 5.905512
vt -0.492126 5.905512
vt 0.492126 22.63779
vt -0.492126 22.63779
vt 0.984252 0
vt -0.984252 0
vt 0.984252 3.937008
vt -0.984252 3.937008
vt -3.288842E-09 23.45801
vt -0.492126 23.62205
vt -4.429134 22.63779
vt -4.429134 23.62205
vt 0.492126 23.62205
vt 4.429134 22.63779
vt 4.429134 23.62205
vt 8.366141 23.62205
vt 8.366141 22.63779
vt 6.397638 23.62205
vt 6.397638 22.63779
vt -8.366141 22.63779
vt -8.366141 23.62205
vt -6.397638 22.63779
vt -6.397638 23.62205
vt 0.984252 22.63779
vt -0.984252 22.63779
vt 0.984252 23.62205
vt -0.984252 23.62205
vt -0.984252 -8.366141
vt -0.984252 -6.397638
vt 0.984252 -8.366141
vt -0.492126 -4.429134
vt -0.492126 -0.492126
vt 0.492126 -4.429134
vt 0.984252 -6.397638
vt 0.492126 -0.492126
vt 6.445336 23.62205
vt 6.445336 22.63779
vt 4.416249 23.62205
vt 4.416249 22.63779
vt -6.445336 22.63779
vt -6.445336 23.62205
vt -4.416249 22.63779
vt -4.416249 23.62205
vt 4.044386E-09 23.45801
vt 0.492126 0.492126
vt -0.492126 0.492126
vt 0.4921259 4.429134
vt -0.492126 4.429134
vt -0.492126 7.418073
vt -0.492126 7.936819
vt 0.492126 7.418073
vt 0.492126 7.936819
vt -0.492126 0.492126
vt -0.4921259 4.429134
vt 0.492126 4.429134
vt 0.9842521 8.366141
vt -0.9842519 8.366141
vt -0.9842519 6.397638
vt 0.9842521 6.397638
vt 0.9842519 6.397638
vt 0.9842519 8.366141
vt -0.9842521 8.366141
vt -0.9842521 6.397638

usemtl pavement

f 3/3/2 2/2/1 1/1/1
f 2/2/1 3/3/2 4/4/2
f 7/7/3 6/6/3 5/5/3
f 6/6/3 7/7/3 8/8/3
f 9/11/4 4/10/4 3/9/4
f 4/10/4 9/11/4 10/12/4
f 11/15/6 7/14/5 5/13/5
f 7/14/5 11/15/6 12/16/6
f 4/3/8 11/2/7 2/1/7
f 11/2/7 4/3/8 13/4/8
f 12/1/9 3/4/10 1/2/9
f 3/4/10 12/1/9 14/3/10
f 7/13/11 1/16/9 8/14/11
f 1/16/9 7/13/11 12/15/9
f 17/18/12 16/12/12 15/17/12
f 16/12/12 17/18/12 18/19/13
f 18/19/13 17/18/12 19/20/13
f 13/10/12 15/17/12 16/12/12
f 4/9/12 15/17/12 13/10/12
f 10/11/12 15/17/12 4/9/12
f 10/11/12 20/21/12 15/17/12
f 21/22/14 20/21/12 10/11/12
f 20/21/12 21/22/14 22/23/14
f 25/26/15 24/25/12 23/24/12
f 24/25/12 25/26/15 26/27/15
f 11/16/7 6/13/12 2/15/7
f 6/13/12 11/16/7 5/14/12
f 29/30/16 28/29/11 27/28/11
f 28/29/11 29/30/16 30/31/16
f 28/34/4 24/33/4 27/32/4
f 24/33/4 28/34/4 23/35/4
f 16/11/5 14/10/5 13/9/5
f 14/10/5 16/11/5 31/12/5
f 28/38/17 25/37/17 23/36/17
f 25/37/17 28/38/17 22/39/17
f 22/39/17 28/38/17 20/40/17
f 20/40/17 28/38/17 32/41/17
f 32/41/17 28/38/17 30/42/17
f 33/43/17 20/40/17 32/41/17
f 22/46/14 26/45/15 25/44/15
f 26/45/15 22/46/14 21/47/14
f 1/15/1 6/14/4 8/13/4
f 6/14/4 1/15/1 2/16/1
f 13/3/18 12/2/6 11/1/6
f 12/2/6 13/3/18 14/4/18
f 34/50/16 30/49/16 29/48/16
f 30/49/16 34/50/16 32/51/16
f 14/9/11 9/12/11 3/10/11
f 9/12/11 14/9/11 33/18/11
f 33/18/11 14/9/11 35/52/11
f 35/52/11 14/9/11 36/21/11
f 36/21/11 14/9/11 31/11/11
f 36/21/11 31/11/11 37/22/19
f 36/21/11 37/22/19 38/23/19
f 32/20/16 9/12/11 33/18/11
f 9/12/11 32/20/16 34/19/16
f 18/55/3 31/54/3 16/53/3
f 31/54/3 18/55/3 37/56/3
f 41/25/11 40/26/19 39/27/19
f 40/26/19 41/25/11 42/24/11
f 43/49/13 18/50/13 19/51/13
f 18/50/13 43/49/13 44/48/13
f 35/59/20 17/58/20 15/57/20
f 17/58/20 35/59/20 36/60/20
f 46/34/5 41/33/5 45/32/5
f 41/33/5 46/34/5 42/35/5
f 46/29/12 44/30/13 43/31/13
f 44/30/13 46/29/12 45/28/12
f 36/53/17 19/62/17 17/61/17
f 38/63/17 19/62/17 36/53/17
f 42/64/17 19/62/17 38/63/17
f 46/65/17 19/62/17 42/64/17
f 19/62/17 46/65/17 43/66/17
f 42/64/17 38/63/17 40/67/17
f 39/45/19 38/46/19 37/47/19
f 38/46/19 39/45/19 40/44/19
f 33/58/21 15/59/21 20/60/21
f 15/59/21 33/58/21 35/57/21
f 9/40/3 21/41/3 10/43/3
f 21/41/3 9/40/3 34/39/3

usemtl light

f 21/41/3 24/38/3 26/42/3
f 24/38/3 21/41/3 27/36/3
f 27/36/3 21/41/3 34/39/3
f 27/36/3 34/39/3 29/37/3
f 45/69/3 18/55/3 44/68/3
f 18/55/3 45/69/3 41/70/3
f 18/55/3 41/70/3 37/56/3
f 37/56/3 41/70/3 39/71/3

