# Created by Kenney (www.kenney.nl)

mtllib road_crossroadPath.mtl

g road_crossroadPath

v 0.45 0.01 0.225
v 0.45 0.01 0.275
v 0.3 0.01 0.225
v 0.3 0.01 0.275
v 0.45 0.01 0.125
v 0.45 0.01 0.175
v 0.3 0.01 0.125
v 0.3 0.01 0.175
v 0.45 0.01 -0.175
v 0.45 0.01 -0.125
v 0.3 0.01 -0.175
v 0.3 0.01 -0.125
v -0.3 0.01 0.02500004
v -0.3 0.01 0.07499999
v -0.45 0.01 0.02500004
v -0.45 0.01 0.07499999
v 0.45 0.01 -0.275
v 0.45 0.01 -0.225
v 0.3 0.01 -0.275
v 0.3 0.01 -0.225
v -0.3 0.01 0.225
v -0.3 0.01 0.275
v -0.45 0.01 0.225
v -0.45 0.01 0.275
v 0.45 0.01 -0.07499999
v 0.45 0.01 -0.02499998
v 0.3 0.01 -0.07499999
v 0.3 0.01 -0.02499998
v -0.3 0.01 -0.275
v -0.3 0.01 -0.225
v -0.45 0.01 -0.275
v -0.45 0.01 -0.225
v -0.3 0.01 -0.07499999
v -0.3 0.01 -0.02499998
v -0.45 0.01 -0.07499999
v -0.45 0.01 -0.02499998
v -0.3 0.01 -0.175
v -0.3 0.01 -0.125
v -0.45 0.01 -0.175
v -0.45 0.01 -0.125
v 0.45 0.01 0.02500004
v 0.45 0.01 0.07499999
v 0.3 0.01 0.02500004
v 0.3 0.01 0.07499999
v -0.3 0.01 0.125
v -0.3 0.01 0.175
v -0.45 0.01 0.125
v -0.45 0.01 0.175
v 0.275 0.01 -0.3
v 0.225 0.01 -0.3
v 0.275 0.01 -0.45
v 0.225 0.01 -0.45
v -0.025 0.01 -0.3
v -0.075 0.01 -0.3
v -0.025 0.01 -0.45
v -0.075 0.01 -0.45
v -0.225 0.01 -0.3
v -0.275 0.01 -0.3
v -0.225 0.01 -0.45
v -0.275 0.01 -0.45
v -0.125 0.01 -0.3
v -0.175 0.01 -0.3
v -0.125 0.01 -0.45
v -0.175 0.01 -0.45
v 0.075 0.01 -0.3
v 0.025 0.01 -0.3
v 0.075 0.01 -0.45
v 0.025 0.01 -0.45
v 0.175 0.01 -0.3
v 0.125 0.01 -0.3
v 0.175 0.01 -0.45
v 0.125 0.01 -0.45
v -0.025 0.01 0.45
v -0.075 0.01 0.45
v -0.025 0.01 0.3
v -0.075 0.01 0.3
v -0.225 0.01 0.45
v -0.275 0.01 0.45
v -0.225 0.01 0.3
v -0.275 0.01 0.3
v -0.125 0.01 0.45
v -0.175 0.01 0.45
v -0.125 0.01 0.3
v -0.175 0.01 0.3
v 0.275 0.01 0.45
v 0.225 0.01 0.45
v 0.275 0.01 0.3
v 0.225 0.01 0.3
v 0.075 0.01 0.45
v 0.025 0.01 0.45
v 0.075 0.01 0.3
v 0.025 0.01 0.3
v 0.175 0.01 0.45
v 0.125 0.01 0.45
v 0.175 0.01 0.3
v 0.125 0.01 0.3
v -0.3 0.01 -0.5
v 0.3 0.01 -0.5
v 0.3 0.01 -0.3
v 0.3 0.01 0.5
v -0.3 0.01 0.5
v -0.3 0.01 -0.3
v -0.5 0.01 -0.3
v -0.5 0.01 0.3
v -0.3 0.01 0.3
v 0.3 0.01 0.3
v 0.5 0.01 0.3
v 0.5 0.01 -0.3
v -0.5 0 0.5
v 0.4 0.01 0.5
v 0.5 0 0.5
v 0.5 0.02 0.5
v 0.4 0.02 0.5
v -0.4 0.01 0.5
v -0.5 0.02 0.5
v -0.4 0.02 0.5
v -0.5 0.02 -0.5
v -0.5 0.01 -0.4
v -0.5 0 -0.5
v -0.5 0.01 0.4
v -0.5 0.02 0.4
v -0.5 0.02 -0.4
v 0.5 0.02 0.4
v 0.5 0.01 0.4
v 0.5 0.01 -0.4
v 0.5 0 -0.5
v 0.5 0.02 -0.4
v 0.5 0.02 -0.5
v -0.4 0.01 -0.5
v -0.4 0.02 -0.5
v 0.4 0.01 -0.5
v 0.4 0.02 -0.5
v -0.4 0.01 0.4
v -0.4 0.01 -0.4
v 0.4 0.01 0.4
v 0.4 0.01 -0.4
v -0.4 0.02 0.4
v 0.4 0.02 0.4
v -0.4 0.02 -0.4
v 0.4 0.02 -0.4

vn 0 1 0
vn 0 0 1
vn -1 0 0
vn 1 0 0
vn 0 0 -1
vn 0 -1 0

vt -17.71654 8.858269
vt -17.71654 10.82677
vt -11.81102 8.858269
vt -11.81102 10.82677
vt -17.71654 4.92126
vt -17.71654 6.889764
vt -11.81102 4.92126
vt -11.81102 6.889764
vt -17.71654 -6.889764
vt -17.71654 -4.92126
vt -11.81102 -6.889764
vt -11.81102 -4.92126
vt 11.81102 0.9842523
vt 11.81102 2.952756
vt 17.71654 0.9842523
vt 17.71654 2.952756
vt -17.71654 -10.82677
vt -17.71654 -8.858268
vt -11.81102 -10.82677
vt -11.81102 -8.858268
vt 11.81102 8.858269
vt 11.81102 10.82677
vt 17.71654 8.858269
vt 17.71654 10.82677
vt -17.71654 -2.952756
vt -17.71654 -0.9842517
vt -11.81102 -2.952756
vt -11.81102 -0.9842517
vt 11.81102 -10.82677
vt 11.81102 -8.858268
vt 17.71654 -10.82677
vt 17.71654 -8.858268
vt 11.81102 -2.952756
vt 11.81102 -0.9842517
vt 17.71654 -2.952756
vt 17.71654 -0.9842517
vt 11.81102 -6.889764
vt 11.81102 -4.92126
vt 17.71654 -6.889764
vt 17.71654 -4.92126
vt -17.71654 0.9842523
vt -17.71654 2.952756
vt -11.81102 0.9842523
vt -11.81102 2.952756
vt 11.81102 4.92126
vt 11.81102 6.889764
vt 17.71654 4.92126
vt 17.71654 6.889764
vt -10.82677 -11.81102
vt -8.858268 -11.81102
vt -10.82677 -17.71654
vt -8.858268 -17.71654
vt 0.9842522 -11.81102
vt 2.952756 -11.81102
vt 0.9842522 -17.71654
vt 2.952756 -17.71654
vt 8.858268 -11.81102
vt 10.82677 -11.81102
vt 8.858268 -17.71654
vt 10.82677 -17.71654
vt 4.92126 -11.81102
vt 6.889764 -11.81102
vt 4.92126 -17.71654
vt 6.889764 -17.71654
vt -2.952756 -11.81102
vt -0.9842519 -11.81102
vt -2.952756 -17.71654
vt -0.9842519 -17.71654
vt -6.889764 -11.81102
vt -4.92126 -11.81102
vt -6.889764 -17.71654
vt -4.92126 -17.71654
vt 0.9842522 17.71654
vt 2.952756 17.71654
vt 0.9842522 11.81102
vt 2.952756 11.81102
vt 8.858268 17.71654
vt 10.82677 17.71654
vt 8.858268 11.81102
vt 10.82677 11.81102
vt 4.92126 17.71654
vt 6.889764 17.71654
vt 4.92126 11.81102
vt 6.889764 11.81102
vt -10.82677 17.71654
vt -8.858268 17.71654
vt -10.82677 11.81102
vt -8.858268 11.81102
vt -2.952756 17.71654
vt -0.9842519 17.71654
vt -2.952756 11.81102
vt -0.9842519 11.81102
vt -6.889764 17.71654
vt -4.92126 17.71654
vt -6.889764 11.81102
vt -4.92126 11.81102
vt 11.81102 -19.68504
vt -11.81102 -19.68504
vt -11.81102 -11.81102
vt -11.81102 19.68504
vt 11.81102 19.68504
vt 11.81102 -11.81102
vt 19.68504 -11.81102
vt 19.68504 11.81102
vt 11.81102 11.81102
vt -11.81102 11.81102
vt -19.68504 11.81102
vt -19.68504 -11.81102
vt -19.68504 -4.173215E-07
vt 15.74803 0.3937004
vt 19.68504 -4.173215E-07
vt 19.68504 0.7874011
vt 11.81102 0.3937004
vt 15.74803 0.7874011
vt -11.81102 0.3937004
vt -15.74803 0.3937004
vt -19.68504 0.7874011
vt -15.74803 0.7874011
vt -19.68504 0.7874016
vt -15.74803 0.3937008
vt -19.68504 -2.181691E-14
vt 19.68504 -2.181691E-14
vt -11.81102 0.3937008
vt 11.81102 0.3937008
vt 15.74803 0.3937008
vt 15.74803 0.7874016
vt 19.68504 0.7874016
vt -15.74803 0.7874016
vt -15.74803 0.7874021
vt -15.74803 0.3937013
vt -19.68504 0.7874021
vt -19.68504 5.089292E-07
vt -11.81102 0.3937013
vt 11.81102 0.3937013
vt 15.74803 0.3937013
vt 19.68504 5.089292E-07
vt 15.74803 0.7874021
vt 19.68504 0.7874021
vt -19.68504 5.396407E-14
vt 19.68504 5.396407E-14
vt -11.81102 0.3937008
vt -15.74803 0.3937008
vt -15.74803 0.7874016
vt 15.74803 15.74803
vt 19.68504 15.74803
vt 15.74803 19.68504
vt 15.74803 -19.68504
vt 15.74803 -15.74803
vt 19.68504 -15.74803
vt -19.68504 15.74803
vt -15.74803 15.74803
vt -15.74803 19.68504
vt -15.74803 -19.68504
vt -15.74803 -15.74803
vt -19.68504 -15.74803
vt -19.68504 0.3937008
vt -19.68504 19.68504
vt 19.68504 0.3937008
vt 19.68504 -19.68504
vt 19.68504 19.68504
vt -19.68504 -19.68504
vt 15.74803 0.3937008
vt 15.74803 0.7874016

usemtl line

f 3/3/1 2/2/1 1/1/1
f 2/2/1 3/3/1 4/4/1
f 7/7/1 6/6/1 5/5/1
f 6/6/1 7/7/1 8/8/1
f 11/11/1 10/10/1 9/9/1
f 10/10/1 11/11/1 12/12/1
f 15/15/1 14/14/1 13/13/1
f 14/14/1 15/15/1 16/16/1
f 19/19/1 18/18/1 17/17/1
f 18/18/1 19/19/1 20/20/1
f 23/23/1 22/22/1 21/21/1
f 22/22/1 23/23/1 24/24/1
f 27/27/1 26/26/1 25/25/1
f 26/26/1 27/27/1 28/28/1
f 31/31/1 30/30/1 29/29/1
f 30/30/1 31/31/1 32/32/1
f 35/35/1 34/34/1 33/33/1
f 34/34/1 35/35/1 36/36/1
f 39/39/1 38/38/1 37/37/1
f 38/38/1 39/39/1 40/40/1
f 43/43/1 42/42/1 41/41/1
f 42/42/1 43/43/1 44/44/1
f 47/47/1 46/46/1 45/45/1
f 46/46/1 47/47/1 48/48/1
f 51/51/1 50/50/1 49/49/1
f 50/50/1 51/51/1 52/52/1
f 55/55/1 54/54/1 53/53/1
f 54/54/1 55/55/1 56/56/1
f 59/59/1 58/58/1 57/57/1
f 58/58/1 59/59/1 60/60/1
f 63/63/1 62/62/1 61/61/1
f 62/62/1 63/63/1 64/64/1
f 67/67/1 66/66/1 65/65/1
f 66/66/1 67/67/1 68/68/1
f 71/71/1 70/70/1 69/69/1
f 70/70/1 71/71/1 72/72/1
f 75/75/1 74/74/1 73/73/1
f 74/74/1 75/75/1 76/76/1
f 79/79/1 78/78/1 77/77/1
f 78/78/1 79/79/1 80/80/1
f 83/83/1 82/82/1 81/81/1
f 82/82/1 83/83/1 84/84/1
f 87/87/1 86/86/1 85/85/1
f 86/86/1 87/87/1 88/88/1
f 91/91/1 90/90/1 89/89/1
f 90/90/1 91/91/1 92/92/1
f 95/95/1 94/94/1 93/93/1
f 94/94/1 95/95/1 96/96/1

usemtl asphalt

f 69/69/1 96/96/1 95/95/1
f 96/96/1 69/69/1 70/70/1
f 93/93/1 69/69/1 95/95/1
f 52/52/1 69/69/1 93/93/1
f 52/52/1 71/71/1 69/69/1
f 52/52/1 97/97/1 71/71/1
f 51/51/1 97/97/1 52/52/1
f 51/51/1 98/98/1 97/97/1
f 98/98/1 51/51/1 99/99/1
f 99/99/1 51/51/1 19/19/1
f 19/19/1 51/51/1 20/20/1
f 20/20/1 51/51/1 11/11/1
f 11/11/1 51/51/1 12/12/1
f 12/12/1 51/51/1 27/27/1
f 27/27/1 51/51/1 28/28/1
f 28/28/1 51/51/1 43/43/1
f 43/43/1 51/51/1 44/44/1
f 44/44/1 51/51/1 7/7/1
f 7/7/1 51/51/1 8/8/1
f 8/8/1 51/51/1 3/3/1
f 3/3/1 51/51/1 4/4/1
f 4/4/1 51/51/1 100/100/1
f 100/100/1 51/51/1 49/49/1
f 100/100/1 49/49/1 85/85/1
f 85/85/1 49/49/1 87/87/1
f 85/85/1 101/101/1 100/100/1
f 101/101/1 85/85/1 86/86/1
f 101/101/1 86/86/1 93/93/1
f 93/93/1 86/86/1 88/88/1
f 49/49/1 88/88/1 87/87/1
f 93/93/1 88/88/1 50/50/1
f 88/88/1 49/49/1 50/50/1
f 93/93/1 50/50/1 52/52/1
f 101/101/1 93/93/1 94/94/1
f 101/101/1 94/94/1 89/89/1
f 89/89/1 94/94/1 96/96/1
f 89/89/1 96/96/1 70/70/1
f 89/89/1 70/70/1 72/72/1
f 72/72/1 91/91/1 89/89/1
f 72/72/1 67/67/1 91/91/1
f 72/72/1 97/97/1 67/67/1
f 71/71/1 97/97/1 72/72/1
f 91/91/1 67/67/1 65/65/1
f 65/65/1 92/92/1 91/91/1
f 92/92/1 65/65/1 66/66/1
f 67/67/1 97/97/1 68/68/1
f 68/68/1 97/97/1 55/55/1
f 68/68/1 55/55/1 53/53/1
f 68/68/1 53/53/1 73/73/1
f 73/73/1 92/92/1 66/66/1
f 73/73/1 66/66/1 68/68/1
f 73/73/1 53/53/1 75/75/1
f 55/55/1 97/97/1 56/56/1
f 56/56/1 97/97/1 63/63/1
f 56/56/1 63/63/1 61/61/1
f 56/56/1 61/61/1 81/81/1
f 81/81/1 61/61/1 83/83/1
f 61/61/1 84/84/1 83/83/1
f 84/84/1 61/61/1 62/62/1
f 73/73/1 90/90/1 92/92/1
f 101/101/1 90/90/1 73/73/1
f 101/101/1 89/89/1 90/90/1
f 101/101/1 73/73/1 74/74/1
f 101/101/1 74/74/1 81/81/1
f 81/81/1 74/74/1 76/76/1
f 53/53/1 76/76/1 75/75/1
f 81/81/1 76/76/1 54/54/1
f 81/81/1 54/54/1 56/56/1
f 76/76/1 53/53/1 54/54/1
f 101/101/1 81/81/1 82/82/1
f 101/101/1 82/82/1 77/77/1
f 77/77/1 82/82/1 84/84/1
f 77/77/1 84/84/1 62/62/1
f 77/77/1 62/62/1 64/64/1
f 63/63/1 97/97/1 64/64/1
f 64/64/1 97/97/1 59/59/1
f 64/64/1 59/59/1 79/79/1
f 64/64/1 79/79/1 77/77/1
f 79/79/1 59/59/1 57/57/1
f 57/57/1 80/80/1 79/79/1
f 80/80/1 57/57/1 58/58/1
f 101/101/1 80/80/1 58/58/1
f 59/59/1 97/97/1 60/60/1
f 101/101/1 58/58/1 60/60/1
f 60/60/1 97/97/1 29/29/1
f 29/29/1 97/97/1 102/102/1
f 29/29/1 102/102/1 31/31/1
f 31/31/1 102/102/1 103/103/1
f 31/31/1 103/103/1 32/32/1
f 32/32/1 103/103/1 39/39/1
f 39/39/1 103/103/1 40/40/1
f 40/40/1 103/103/1 35/35/1
f 35/35/1 103/103/1 36/36/1
f 36/36/1 103/103/1 15/15/1
f 15/15/1 103/103/1 16/16/1
f 16/16/1 103/103/1 47/47/1
f 47/47/1 103/103/1 48/48/1
f 48/48/1 103/103/1 23/23/1
f 23/23/1 103/103/1 24/24/1
f 104/104/1 24/24/1 103/103/1
f 105/105/1 24/24/1 104/104/1
f 24/24/1 105/105/1 22/22/1
f 21/21/1 48/48/1 23/23/1
f 48/48/1 21/21/1 46/46/1
f 22/22/1 46/46/1 21/21/1
f 45/45/1 16/16/1 47/47/1
f 22/22/1 45/45/1 46/46/1
f 16/16/1 45/45/1 14/14/1
f 22/22/1 14/14/1 45/45/1
f 13/13/1 36/36/1 15/15/1
f 22/22/1 13/13/1 14/14/1
f 36/36/1 13/13/1 34/34/1
f 22/22/1 34/34/1 13/13/1
f 105/105/1 60/60/1 22/22/1
f 101/101/1 60/60/1 105/105/1
f 22/22/1 60/60/1 29/29/1
f 22/22/1 29/29/1 30/30/1
f 22/22/1 30/30/1 37/37/1
f 32/32/1 37/37/1 30/30/1
f 37/37/1 32/32/1 39/39/1
f 22/22/1 37/37/1 38/38/1
f 22/22/1 38/38/1 33/33/1
f 22/22/1 33/33/1 34/34/1
f 40/40/1 33/33/1 38/38/1
f 33/33/1 40/40/1 35/35/1
f 101/101/1 77/77/1 78/78/1
f 101/101/1 78/78/1 80/80/1
f 107/107/1 2/2/1 106/106/1
f 2/2/1 107/107/1 17/17/1
f 2/2/1 17/17/1 18/18/1
f 2/2/1 18/18/1 9/9/1
f 2/2/1 9/9/1 10/10/1
f 2/2/1 10/10/1 25/25/1
f 2/2/1 25/25/1 26/26/1
f 2/2/1 26/26/1 41/41/1
f 2/2/1 41/41/1 42/42/1
f 2/2/1 42/42/1 5/5/1
f 2/2/1 5/5/1 6/6/1
f 2/2/1 6/6/1 1/1/1
f 106/106/1 2/2/1 4/4/1
f 106/106/1 4/4/1 100/100/1
f 8/8/1 1/1/1 6/6/1
f 1/1/1 8/8/1 3/3/1
f 44/44/1 5/5/1 42/42/1
f 5/5/1 44/44/1 7/7/1
f 28/28/1 41/41/1 26/26/1
f 41/41/1 28/28/1 43/43/1
f 12/12/1 25/25/1 10/10/1
f 25/25/1 12/12/1 27/27/1
f 20/20/1 9/9/1 18/18/1
f 9/9/1 20/20/1 11/11/1
f 108/108/1 17/17/1 107/107/1
f 17/17/1 108/108/1 99/99/1
f 17/17/1 99/99/1 19/19/1
f 111/111/2 110/110/2 109/109/2
f 110/110/2 111/111/2 112/112/2
f 109/109/2 110/110/2 100/113/2
f 110/110/2 112/112/2 113/114/2
f 101/115/2 109/109/2 100/113/2
f 114/116/2 109/109/2 101/115/2
f 109/109/2 114/116/2 115/117/2
f 115/117/2 114/116/2 116/118/2
f 119/121/3 118/120/3 117/119/3
f 118/120/3 119/121/3 109/122/3
f 118/120/3 109/122/3 103/123/3
f 103/123/3 109/122/3 104/124/3
f 104/124/3 109/122/3 120/125/3
f 120/125/3 109/122/3 121/126/3
f 121/126/3 109/122/3 115/127/3
f 122/128/3 117/119/3 118/120/3
f 112/131/4 124/130/4 123/129/4
f 124/130/4 112/131/4 111/132/4
f 111/132/4 107/133/4 124/130/4
f 111/132/4 108/134/4 107/133/4
f 111/132/4 125/135/4 108/134/4
f 126/136/4 125/135/4 111/132/4
f 126/136/4 127/137/4 125/135/4
f 127/137/4 126/136/4 128/138/4
f 119/140/5 129/125/5 126/139/5
f 129/125/5 119/140/5 117/127/5
f 126/139/5 129/125/5 97/124/5
f 129/125/5 117/127/5 130/126/5
f 98/141/5 126/139/5 97/124/5
f 131/142/5 126/139/5 98/141/5
f 126/139/5 131/142/5 128/119/5
f 128/119/5 131/142/5 132/143/5

usemtl asphaltEdge

f 104/104/1 101/101/1 105/105/1
f 101/101/1 104/104/1 133/144/1
f 133/144/1 104/104/1 120/145/1
f 114/146/1 101/101/1 133/144/1
f 129/147/1 102/102/1 97/97/1
f 102/102/1 129/147/1 134/148/1
f 102/102/1 134/148/1 103/103/1
f 103/103/1 134/148/1 118/149/1
f 106/106/1 124/150/1 107/107/1
f 124/150/1 106/106/1 135/151/1
f 135/151/1 106/106/1 110/152/1
f 110/152/1 106/106/1 100/100/1
f 98/98/1 136/154/1 131/153/1
f 99/99/1 136/154/1 98/98/1
f 108/108/1 136/154/1 99/99/1
f 136/154/1 108/108/1 125/155/1

usemtl pavement

f 116/119/4 133/120/4 137/128/4
f 133/120/4 116/119/4 114/156/4
f 138/151/1 112/157/1 123/150/1
f 112/157/1 138/151/1 113/152/1
f 134/120/2 122/119/2 118/156/2
f 122/119/2 134/120/2 139/128/2
f 139/126/4 129/158/4 130/127/4
f 129/158/4 139/126/4 134/125/4
f 136/120/3 132/119/3 131/156/3
f 132/119/3 136/120/3 140/128/3
f 117/159/1 139/148/1 130/147/1
f 139/148/1 117/159/1 122/149/1
f 121/127/5 133/125/5 120/158/5
f 133/125/5 121/127/5 137/126/5
f 121/145/1 116/146/1 137/144/1
f 116/146/1 121/145/1 115/160/1
f 110/158/3 138/126/3 135/125/3
f 138/126/3 110/158/3 113/127/3
f 132/153/1 127/155/1 128/161/1
f 127/155/1 132/153/1 140/154/1
f 127/127/2 136/162/2 125/158/2
f 136/162/2 127/127/2 140/163/2
f 111/160/6 119/161/6 126/159/6
f 119/161/6 111/160/6 109/157/6
f 138/128/5 124/156/5 135/120/5
f 124/156/5 138/128/5 123/119/5

