# Created by Kenney (www.kenney.nl)

mtllib road_side.mtl

g road_side

v 0.5 0.01 -0.71
v -0.5 0.01 -0.71
v 0.5 0.02 -0.71
v -0.5 0.02 -0.71
v -0.5 -2.650768E-16 -0.8099999
v 0.5 -2.650768E-16 -0.8099999
v -0.5 0.02 -0.8099999
v 0.5 0.02 -0.8099999
v 0.5 1.409983E-18 0.5
v -0.5 1.409983E-18 0.5
v 0.5 0.02 0.5
v -0.5 0.02 0.5
v -0.5 0.01 0.4
v 0.5 0.01 0.4
v -0.5 0.02 0.4
v 0.5 0.02 0.4
v 0.5 0.01 0.3
v 0.5 0.01 0.00999999
v 0.5 0.01 -0.00999999
v 0.5 0.01 -0.61
v -0.5 0.01 -0.61
v -0.5 0.01 -0.00999999
v -0.5 0.01 0.00999999
v -0.5 0.01 0.3

vn 0 0 1
vn 0 0 -1
vn 0 -1 0
vn 0 1 0
vn 1 0 0
vn -1 0 0

vt 19.68504 0.3937008
vt -19.68504 0.3937008
vt 19.68504 0.7874016
vt -19.68504 0.7874016
vt 19.68504 -1.04361E-14
vt -19.68504 -1.04361E-14
vt 19.68504 5.551115E-17
vt -19.68504 5.551115E-17
vt 19.68504 -31.88976
vt -19.68504 -31.88976
vt 19.68504 19.68504
vt -19.68504 19.68504
vt -19.68504 -27.95275
vt 19.68504 -27.95275
vt -19.68504 15.74803
vt 19.68504 15.74803
vt -15.74803 0.7874016
vt -15.74803 0.3937008
vt -19.68504 4.519822E-13
vt -11.81102 0.3937008
vt -0.3937008 0.3937008
vt 0.3937008 0.3937008
vt 24.01575 0.3937008
vt 27.95275 0.3937008
vt 31.88976 4.414906E-13
vt 27.95275 0.7874016
vt 31.88976 0.7874016
vt -31.88976 0.7874016
vt -27.95275 0.3937008
vt -31.88976 -6.276047E-13
vt 19.68504 -6.171131E-13
vt -24.01575 0.3937008
vt 11.81102 0.3937008
vt 15.74803 0.3937008
vt 15.74803 0.7874016
vt -27.95275 0.7874016
vt -19.68504 -24.01575
vt -19.68504 -0.3937008
vt 19.68504 -24.01575
vt 19.68504 -0.3937008
vt -19.68504 11.81102
vt 19.68504 11.81102

usemtl pavement

f 3/3/1 2/2/1 1/1/1
f 2/2/1 3/3/1 4/4/1
f 7/3/2 6/6/2 5/5/2
f 6/6/2 7/3/2 8/4/2
f 11/3/1 10/8/1 9/7/1
f 10/8/1 11/3/1 12/4/1
f 15/3/2 14/2/2 13/1/2
f 14/2/2 15/3/2 16/4/2
f 9/11/3 5/10/3 6/9/3
f 5/10/3 9/11/3 10/12/3
f 7/9/4 3/13/4 8/10/4
f 3/13/4 7/9/4 4/14/4
f 15/16/4 11/12/4 16/15/4
f 11/12/4 15/16/4 12/11/4

usemtl asphalt

f 11/4/5 14/18/5 16/17/5
f 9/19/5 14/18/5 11/4/5
f 9/19/5 17/20/5 14/18/5
f 9/19/5 18/21/5 17/20/5
f 9/19/5 19/22/5 18/21/5
f 9/19/5 20/23/5 19/22/5
f 9/19/5 1/24/5 20/23/5
f 6/25/5 1/24/5 9/19/5
f 6/25/5 3/26/5 1/24/5
f 3/26/5 6/25/5 8/27/5
f 5/30/6 2/29/6 7/28/6
f 2/29/6 5/30/6 10/31/6
f 2/29/6 10/31/6 21/32/6
f 21/32/6 10/31/6 22/21/6
f 22/21/6 10/31/6 23/22/6
f 23/22/6 10/31/6 24/33/6
f 24/33/6 10/31/6 13/34/6
f 13/34/6 10/31/6 15/35/6
f 15/35/6 10/31/6 12/3/6
f 4/36/6 7/28/6 2/29/6
f 21/39/4 19/38/4 20/37/4
f 19/38/4 21/39/4 22/40/4
f 18/2/4 24/42/4 17/41/4
f 24/42/4 18/2/4 23/1/4

usemtl asphaltEdge

f 2/14/4 20/37/4 1/13/4
f 20/37/4 2/14/4 21/39/4
f 24/42/4 14/15/4 17/41/4
f 14/15/4 24/42/4 13/16/4

usemtl line

f 22/40/4 18/2/4 19/38/4
f 18/2/4 22/40/4 23/1/4

