# Created by Kenney (www.kenney.nl)

mtllib road_crossing.mtl

g road_crossing

v 0.5 0.01 -0.00999999
v 0.5 0.01 0.00999999
v 0.2248551 0.01 -0.00999999
v 0.2248551 0.01 0.00999999
v -0.2248551 0.01 -0.00999999
v -0.2248551 0.01 0.00999999
v -0.5 0.01 -0.00999999
v -0.5 0.01 0.00999999
v 0.1648551 0.01 -0.3
v 0.1648551 0.01 -0.25
v 0.1448551 0.01 -0.3
v 0.1648551 0.01 -0.15
v 0.1648551 0.01 -0.05000001
v 0.1648551 0.01 0.05000001
v 0.1648551 0.01 0.15
v 0.1648551 0.01 0.25
v 0.1648551 0.01 0.3
v 0.1448551 0.01 0.3
v -0.1448551 0.01 -0.3
v -0.1448551 0.01 0.3
v -0.1648551 0.01 -0.3
v -0.1648551 0.01 0.3
v 0.1248551 0.01 -0.25
v 0.1248551 0.01 -0.15
v -0.1248551 0.01 -0.25
v -0.1248551 0.01 -0.15
v 0.1248551 0.01 -0.05000001
v 0.1248551 0.01 0.05000001
v -0.1248551 0.01 -0.05000001
v -0.1248551 0.01 0.05000001
v 0.1248551 0.01 0.15
v 0.1248551 0.01 0.25
v -0.1248551 0.01 0.15
v -0.1248551 0.01 0.25
v 0.5 0 0.5
v -0.5 0 0.5
v 0.5 0.02 0.5
v -0.5 0.02 0.5
v -0.5 0.01 0.4
v 0.5 0.01 0.4
v -0.5 0.02 0.4
v 0.5 0.02 0.4
v 0.5 0.01 -0.4
v -0.5 0.01 -0.4
v 0.5 0.02 -0.4
v -0.5 0.02 -0.4
v 0.5 0 -0.5
v -0.5 0 -0.5
v 0.5 0.02 -0.5
v -0.5 0.02 -0.5
v 0.5 0.01 0.3
v 0.5 0.01 -0.3
v -0.5 0.01 -0.3
v -0.5 0.01 0.3

vn 0 1 0
vn 0 0 1
vn 0 0 -1
vn 0 -1 0
vn 1 0 0
vn -1 0 0

vt -19.68504 -0.3937008
vt -19.68504 0.3937008
vt -8.852563 -0.3937008
vt -8.852563 0.3937008
vt 8.852563 -0.3937008
vt 8.852563 0.3937008
vt 19.68504 -0.3937008
vt 19.68504 0.3937008
vt -6.490358 -11.81102
vt -6.490358 -9.84252
vt -5.702957 -11.81102
vt -6.490358 -5.905512
vt -6.490358 -1.968504
vt -6.490358 1.968504
vt -6.490358 5.905512
vt -6.490358 9.84252
vt -6.490358 11.81102
vt -5.702957 11.81102
vt 5.702957 -11.81102
vt 5.702957 11.81102
vt 6.490358 -11.81102
vt 6.490358 11.81102
vt -4.915555 -9.84252
vt -4.915555 -5.905512
vt 4.915555 -9.84252
vt 4.915555 -5.905512
vt -4.915555 -1.968504
vt -4.915555 1.968504
vt 4.915555 -1.968504
vt 4.915555 1.968504
vt -4.915555 5.905512
vt -4.915555 9.84252
vt 4.915555 5.905512
vt 4.915555 9.84252
vt 19.68504 0
vt -19.68504 0
vt 19.68504 0.7874016
vt -19.68504 0.7874016
vt -19.68504 15.74803
vt -19.68504 19.68504
vt 19.68504 15.74803
vt 19.68504 19.68504
vt 19.68504 -19.68504
vt -19.68504 -19.68504
vt -19.68504 -15.74803
vt 19.68504 -15.74803
vt -15.74803 0.7874016
vt -15.74803 0.3937008
vt -19.68504 1.725924E-13
vt -11.81102 0.3937008
vt -0.3937008 0.3937008
vt 0.3937008 0.3937008
vt 11.81102 0.3937008
vt 15.74803 0.3937008
vt 19.68504 1.725924E-13
vt 15.74803 0.7874016
vt -19.68504 -2.342326E-13
vt 19.68504 -2.342326E-13
vt 19.68504 -11.81102
vt 19.68504 11.81102
vt -19.68504 -11.81102
vt -19.68504 11.81102

usemtl line

f 3/3/1 2/2/1 1/1/1
f 2/2/1 3/3/1 4/4/1
f 7/7/1 6/6/1 5/5/1
f 6/6/1 7/7/1 8/8/1
f 11/11/1 10/10/1 9/9/1
f 10/10/1 11/11/1 12/12/1
f 12/12/1 11/11/1 13/13/1
f 13/13/1 11/11/1 14/14/1
f 14/14/1 11/11/1 15/15/1
f 15/15/1 11/11/1 16/16/1
f 16/16/1 11/11/1 17/17/1
f 17/17/1 11/11/1 18/18/1
f 21/21/1 20/20/1 19/19/1
f 20/20/1 21/21/1 22/22/1
f 25/25/1 24/24/1 23/23/1
f 24/24/1 25/25/1 26/26/1
f 29/29/1 28/28/1 27/27/1
f 28/28/1 29/29/1 30/30/1
f 33/33/1 32/32/1 31/31/1
f 32/32/1 33/33/1 34/34/1

usemtl pavement

f 37/37/2 36/36/2 35/35/2
f 36/36/2 37/37/2 38/38/2
f 41/37/3 40/2/3 39/8/3
f 40/2/3 41/37/3 42/38/3
f 41/41/1 37/40/1 42/39/1
f 37/40/1 41/41/1 38/42/1
f 45/37/2 44/2/2 43/8/2
f 44/2/2 45/37/2 46/38/2
f 36/40/4 47/43/4 35/42/4
f 47/43/4 36/40/4 48/44/4
f 50/43/1 45/45/1 49/44/1
f 45/45/1 50/43/1 46/46/1
f 50/37/3 47/36/3 48/35/3
f 47/36/3 50/37/3 49/38/3

usemtl asphalt

f 37/38/5 40/48/5 42/47/5
f 35/49/5 40/48/5 37/38/5
f 35/49/5 51/50/5 40/48/5
f 35/49/5 2/51/5 51/50/5
f 35/49/5 1/52/5 2/51/5
f 35/49/5 52/53/5 1/52/5
f 35/49/5 43/54/5 52/53/5
f 47/55/5 43/54/5 35/49/5
f 47/55/5 45/56/5 43/54/5
f 45/56/5 47/55/5 49/37/5
f 48/57/6 44/48/6 50/38/6
f 44/48/6 48/57/6 36/58/6
f 44/48/6 36/58/6 53/50/6
f 53/50/6 36/58/6 7/51/6
f 7/51/6 36/58/6 8/52/6
f 8/52/6 36/58/6 54/53/6
f 54/53/6 36/58/6 39/54/6
f 39/54/6 36/58/6 41/56/6
f 41/56/6 36/58/6 38/37/6
f 46/47/6 50/38/6 44/48/6
f 21/21/1 5/5/1 22/22/1
f 5/5/1 21/21/1 53/59/1
f 5/5/1 53/59/1 7/7/1
f 6/6/1 22/22/1 5/5/1
f 22/22/1 6/6/1 54/60/1
f 54/60/1 6/6/1 8/8/1
f 11/11/1 23/23/1 18/18/1
f 23/23/1 11/11/1 19/19/1
f 23/23/1 19/19/1 25/25/1
f 25/25/1 19/19/1 26/26/1
f 26/26/1 19/19/1 29/29/1
f 29/29/1 19/19/1 30/30/1
f 30/30/1 19/19/1 33/33/1
f 33/33/1 19/19/1 34/34/1
f 32/32/1 18/18/1 23/23/1
f 18/18/1 32/32/1 20/20/1
f 20/20/1 32/32/1 34/34/1
f 20/20/1 34/34/1 19/19/1
f 32/32/1 23/23/1 24/24/1
f 32/32/1 24/24/1 27/27/1
f 26/26/1 27/27/1 24/24/1
f 27/27/1 26/26/1 29/29/1
f 32/32/1 27/27/1 28/28/1
f 32/32/1 28/28/1 31/31/1
f 30/30/1 31/31/1 28/28/1
f 31/31/1 30/30/1 33/33/1
f 9/9/1 1/1/1 52/61/1
f 1/1/1 9/9/1 3/3/1
f 3/3/1 9/9/1 4/4/1
f 16/16/1 4/4/1 9/9/1
f 17/17/1 4/4/1 16/16/1
f 17/17/1 2/2/1 4/4/1
f 2/2/1 17/17/1 51/62/1
f 16/16/1 9/9/1 10/10/1
f 16/16/1 10/10/1 12/12/1
f 16/16/1 12/12/1 13/13/1
f 16/16/1 13/13/1 14/14/1
f 16/16/1 14/14/1 15/15/1

usemtl asphaltEdge

f 17/17/1 40/39/1 51/62/1
f 40/39/1 17/17/1 39/41/1
f 39/41/1 17/17/1 18/18/1
f 39/41/1 18/18/1 20/20/1
f 39/41/1 20/20/1 22/22/1
f 39/41/1 22/22/1 54/60/1
f 44/46/1 52/61/1 43/45/1
f 52/61/1 44/46/1 9/9/1
f 9/9/1 44/46/1 11/11/1
f 11/11/1 44/46/1 19/19/1
f 19/19/1 44/46/1 21/21/1
f 21/21/1 44/46/1 53/59/1

