# Created by Kenney (www.kenney.nl)

mtllib road_bendSquareBarrier.mtl

g road_bendSquareBarrier

v -0.5 0 -0.5
v -0.5 0.08 -0.5
v -0.5 0 -0.45
v -0.5 0.08 -0.47
v 0.5 0.08 -0.5
v 0.5 0 -0.5
v 0.5 0.08 0.5
v 0.5 5.639933E-18 0.5
v 0.45 2.819966E-18 -0.45
v 0.45 5.639933E-18 0.5
v 0.47 0.08 -0.47
v 0.47 0.08 0.5
v -0.475 4.511946E-17 0.4566987
v -0.4646446 4.511946E-17 0.4646446
v -0.485 0.08 0.4740192
v -0.4787868 0.08 0.4787868
v -0.4740192 0.08 0.485
v -0.4566987 4.511946E-17 0.475
v -0.4710222 0.08 0.4922354
v -0.4517037 4.511946E-17 0.487059
v -0.5 4.511946E-17 0.45
v -0.487059 4.511946E-17 0.4517037
v -0.5 0.08 0.47
v -0.4922354 0.08 0.4710222
v -0.5 4.511946E-17 0.5
v -0.5 0.08 0.5
v -0.47 0.08 0.5
v -0.45 4.511946E-17 0.5

vn -1 0 0
vn 1 0 0
vn 0 -1 0
vn 0 0 -1
vn 0 1 0
vn -0.9701425 0.2425356 0
vn 0 0 1
vn 0 0.2425356 0.9701425
vn 0.4850713 0.2425356 -0.8401681
vn 0.6859944 0.2425356 -0.6859944
vn 0.8401681 0.2425356 -0.4850713
vn 0.9370857 0.2425356 -0.2510914
vn 0.1266925 0.2405813 -0.9623252
vn 0.2510914 0.2425356 -0.9370857
vn 0.9623252 0.2405813 -0.1266925

vt -19.68504 -2.089832E-14
vt -19.68504 3.149606
vt -17.71654 -2.089832E-14
vt -18.50394 3.149606
vt 19.68504 3.149606
vt 19.68504 -4.979704E-11
vt -19.68504 -4.979682E-11
vt 19.68504 19.68504
vt 17.71654 -17.71654
vt 17.71654 19.68504
vt 19.68504 -19.68504
vt -19.68504 -19.68504
vt -19.68504 -17.71654
vt 19.68504 1.497864E-12
vt -19.68504 1.497864E-12
vt -19.68504 19.68504
vt -18.50394 -18.50394
vt 19.68504 -18.50394
vt -18.50394 19.68504
vt -18.50394 7.543431
vt 19.68504 7.543431
vt -17.71654 4.296891
vt 19.68504 4.296891
vt 19.68504 1.047136E-13
vt 17.71654 1.047136E-13
vt 18.50394 3.149606
vt -19.68504 4.296891
vt -19.68504 7.543431
vt 17.71654 4.296891
vt 18.50394 7.543431
vt 3.89064 6.170674
vt 3.376758 6.170674
vt 3.787864 9.415587
vt 3.479534 9.415587
vt -10.4993 8.963068
vt -10.39653 5.718155
vt -10.80763 8.963068
vt -10.91041 5.718155
vt 17.20416 4.843955
vt 16.69028 4.843955
vt 17.10138 8.088868
vt 16.79305 8.088868
vt 17.71654 -3.53495E-13
vt 19.68504 -3.53495E-13
vt 18.50394 19.68504
vt 18.54418 19.37935
vt 18.66217 19.09449
vt 18.84987 18.84987
vt 19.09449 18.66217
vt 19.37935 18.54418
vt 19.68504 18.50394
vt -17.10138 8.088868
vt -16.69028 4.843955
vt -17.20416 4.843955
vt -16.79305 8.088868
vt 10.91041 5.718155
vt 10.39653 5.718155
vt 10.80763 8.963068
vt 10.4993 8.963068
vt -17.71654 1.776357E-15
vt -19.68504 1.776357E-15
vt -17.71654 19.68504
vt -17.78361 19.17555
vt -17.98026 18.70079
vt -18.2931 18.2931
vt -18.70079 17.98026
vt -19.17555 17.78361
vt -19.68504 17.71654
vt -3.376758 6.170674
vt -3.89064 6.170674
vt -3.787864 9.415587
vt -3.479534 9.415587

usemtl pavement

f 3/3/1 2/2/1 1/1/1
f 2/2/1 3/3/1 4/4/1
f 7/2/2 6/6/2 5/5/2
f 6/6/2 7/2/2 8/7/2
f 10/10/3 9/9/3 8/8/3
f 9/9/3 6/11/3 8/8/3
f 6/11/3 9/9/3 1/12/3
f 1/12/3 9/9/3 3/13/3
f 2/5/4 6/15/4 1/14/4
f 6/15/4 2/5/4 5/2/4
f 5/12/5 11/17/5 7/16/5
f 11/17/5 5/12/5 2/11/5
f 11/17/5 2/11/5 4/18/5
f 12/19/5 7/16/5 11/17/5
f 9/22/6 12/21/6 11/20/6
f 12/21/6 9/22/6 10/23/6
f 7/5/7 10/25/7 8/24/7
f 10/25/7 7/5/7 12/26/7
f 9/29/8 4/28/8 3/27/8
f 4/28/8 9/29/8 11/30/8
f 15/33/9 14/32/10 13/31/9
f 16/34/10 14/32/10 15/33/9
f 19/37/12 18/36/11 17/35/11
f 19/37/12 20/38/12 18/36/11
f 23/41/13 22/40/14 21/39/13
f 24/42/14 22/40/14 23/41/13
f 25/44/1 23/26/1 21/43/1
f 23/26/1 25/44/1 26/5/1
f 19/46/5 26/8/5 27/45/5
f 26/8/5 19/46/5 17/47/5
f 26/8/5 17/47/5 16/48/5
f 26/8/5 16/48/5 15/49/5
f 26/8/5 15/49/5 24/50/5
f 26/8/5 24/50/5 23/51/5
f 28/54/15 20/53/12 27/52/15
f 27/52/15 20/53/12 19/55/12
f 24/58/14 13/57/9 22/56/14
f 15/59/9 13/57/9 24/58/14
f 27/4/7 25/61/7 28/60/7
f 25/61/7 27/4/7 26/2/7
f 25/16/3 20/63/3 28/62/3
f 20/63/3 25/16/3 18/64/3
f 18/64/3 25/16/3 14/65/3
f 14/65/3 25/16/3 13/66/3
f 13/66/3 25/16/3 22/67/3
f 22/67/3 25/16/3 21/68/3
f 17/71/11 18/70/11 14/69/10
f 17/71/11 14/69/10 16/72/10

