# Created by Kenney (www.kenney.nl)

mtllib road_drivewayDouble.mtl

g road_drivewayDouble

v 0.13 0.01 0.4
v 0.18 0.01 0.4
v 0.13 0.02 0.4
v 0.5 0.01 0.4
v 0.5 0.02 0.4
v 0.5 0 0.5
v 0.5 0 -0.5
v -0.5 0 0.5
v -0.5 0 -0.5
v -0.13 0.02 0.4
v -0.13 0.02 0.5
v -0.5 0.02 0.4
v -0.5 0.02 0.5
v -0.18 0.01 0.4
v -0.13 0.01 0.4
v -0.5 0.01 0.4
v -0.13 0.02 -0.4
v -0.5 0.02 -0.4
v -0.13 0.02 -0.5
v -0.5 0.02 -0.5
v 0.13 0.01 -0.4
v 0.13 0.02 -0.5
v 0.13 0.02 -0.4
v -0.5 0.01 -0.4
v -0.13 0.01 -0.4
v 0.5 0.02 -0.5
v 0.13 0.02 0.5
v 0.5 0.02 0.5
v 0.5 0.01 -0.4
v 0.5 0.02 -0.4
v 0.5 0.01 0.3
v -0.5 0.01 0.3
v 0.5 0.01 -0.3
v -0.5 0.01 -0.3
v 0.5 0.01 -0.00999999
v -0.5 0.01 -0.00999999
v -0.5 0.01 0.00999999
v 0.5 0.01 0.00999999

vn 0 0 -1
vn 0 -1 0
vn 0 1 0
vn -1 0 0
vn 0 0 1
vn 1 0 0
vn 0 0.9950371 0.09950371
vn 0 0.9950371 -0.09950371

vt -5.11811 0.3937008
vt -7.086614 0.3937008
vt -5.11811 0.7874016
vt -19.68504 0.3937008
vt -19.68504 0.7874016
vt 19.68504 19.68504
vt 19.68504 -19.68504
vt -19.68504 19.68504
vt -19.68504 -19.68504
vt 5.11811 15.74803
vt 5.11811 19.68504
vt 19.68504 15.74803
vt 7.086614 0.3937008
vt 5.11811 0.3937008
vt 19.68504 0.3937008
vt 5.11811 0.7874016
vt 19.68504 0.7874016
vt 5.11811 -15.74803
vt 19.68504 -15.74803
vt 5.11811 -19.68504
vt -15.74803 0.3937008
vt -15.74803 0.7874016
vt 19.68504 2.010836E-10
vt -19.68504 2.010836E-10
vt 15.74803 0.3937008
vt 15.74803 0.7874016
vt -19.68504 3.552714E-13
vt 19.68504 3.552714E-13
vt -19.68504 15.74803
vt -5.11811 15.74803
vt -5.11811 19.68504
vt -19.68504 -15.74803
vt -5.11811 -19.68504
vt -5.11811 -15.74803
vt -19.68504 11.81102
vt 19.68504 11.81102
vt -7.086614 15.74803
vt 7.086614 15.74803
vt 5.11811 15.70905
vt -5.11811 15.70905
vt 5.11811 19.6657
vt -5.11811 19.6657
vt -19.68504 -11.81102
vt 19.68504 -11.81102
vt -19.68504 -0.3937008
vt 19.68504 -0.3937008
vt -19.68504 -1.457524E-13
vt 19.68504 -1.457524E-13
vt -11.81102 0.3937008
vt -0.3937008 0.3937008
vt 0.3937008 0.3937008
vt 11.81102 0.3937008
vt -19.68504 1.821904E-13
vt 19.68504 1.821904E-13

usemtl pavement

f 3/3/1 2/2/1 1/1/1
f 2/2/1 3/3/1 4/4/1
f 4/4/1 3/3/1 5/5/1
f 8/8/2 7/7/2 6/6/2
f 7/7/2 8/8/2 9/9/2
f 12/12/3 11/11/3 10/10/3
f 11/11/3 12/12/3 13/6/3
f 16/15/1 15/14/1 14/13/1
f 15/14/1 16/15/1 10/16/1
f 10/16/1 16/15/1 12/17/1
f 19/20/3 18/19/3 17/18/3
f 18/19/3 19/20/3 20/7/3
f 23/22/4 22/5/4 21/21/4
f 25/1/5 18/5/5 24/4/5
f 18/5/5 25/1/5 17/3/5
f 11/5/6 15/21/6 10/22/6
f 20/17/1 7/24/1 9/23/1
f 7/24/1 20/17/1 19/16/1
f 22/3/1 7/24/1 19/16/1
f 7/24/1 22/3/1 26/5/1
f 27/17/4 3/26/4 1/25/4
f 25/25/6 19/17/6 17/26/6
f 8/27/5 11/3/5 13/5/5
f 11/3/5 8/27/5 27/16/5
f 8/27/5 28/17/5 27/16/5
f 28/17/5 8/27/5 6/28/5
f 3/30/3 28/8/3 5/29/3
f 28/8/3 3/30/3 27/31/3
f 30/17/5 21/14/5 29/15/5
f 21/14/5 30/17/5 23/16/5
f 22/33/3 30/32/3 26/9/3
f 30/32/3 22/33/3 23/34/3

usemtl asphaltEdge

f 32/36/3 4/29/3 31/35/3
f 4/29/3 32/36/3 2/37/3
f 2/37/3 32/36/3 1/30/3
f 1/30/3 32/36/3 15/10/3
f 15/10/3 32/36/3 14/38/3
f 14/38/3 32/36/3 16/12/3
f 22/41/7 25/40/7 21/39/7
f 25/40/7 22/41/7 19/42/7
f 21/34/3 33/43/3 29/32/3
f 33/43/3 21/34/3 34/44/3
f 34/44/3 21/34/3 25/18/3
f 34/44/3 25/18/3 24/19/3
f 15/39/8 27/42/8 1/40/8
f 27/42/8 15/39/8 11/41/8

usemtl asphalt

f 33/43/3 36/46/3 35/45/3
f 36/46/3 33/43/3 34/44/3
f 18/22/4 20/5/4 24/21/4
f 9/47/4 24/21/4 20/5/4
f 24/21/4 9/47/4 8/48/4
f 24/21/4 8/48/4 34/49/4
f 34/49/4 8/48/4 36/50/4
f 36/50/4 8/48/4 37/51/4
f 37/51/4 8/48/4 32/52/4
f 32/52/4 8/48/4 16/25/4
f 16/25/4 8/48/4 12/26/4
f 12/26/4 8/48/4 13/17/4
f 28/5/6 4/21/6 5/22/6
f 6/53/6 4/21/6 28/5/6
f 6/53/6 31/49/6 4/21/6
f 6/53/6 38/50/6 31/49/6
f 6/53/6 35/51/6 38/50/6
f 6/53/6 33/52/6 35/51/6
f 6/53/6 29/25/6 33/52/6
f 7/54/6 29/25/6 6/53/6
f 7/54/6 30/26/6 29/25/6
f 30/26/6 7/54/6 26/17/6
f 37/15/3 31/35/3 38/4/3
f 31/35/3 37/15/3 32/36/3

usemtl line

f 36/46/3 38/4/3 35/45/3
f 38/4/3 36/46/3 37/15/3

