# Created by Kenney (www.kenney.nl)

mtllib road_straightBarrier.mtl

g road_straightBarrier

v -0.47 0.08 0.5
v -0.5 0.08 0.5
v -0.47 0.08 -0.5
v -0.5 0.08 -0.5
v 0.5 0 -0.5
v 0.45 0 -0.5
v 0.5 0 0.5
v 0.45 0 0.5
v 0.47 0.08 -0.5
v 0.47 0.08 0.5
v -0.45 0 0.5
v -0.45 0 -0.5
v -0.5 0 0.5
v -0.5 0 -0.5
v 0.5 0.08 0.5
v 0.5 0.08 -0.5

vn 0 1 0
vn 0 -1 0
vn -0.9701425 0.2425356 0
vn 0 0 1
vn 1 0 0
vn 0 0 -1
vn 0.9701425 0.2425356 0
vn -1 0 0

vt 18.50394 19.68504
vt 19.68504 19.68504
vt 18.50394 -19.68504
vt 19.68504 -19.68504
vt 17.71654 -19.68504
vt 17.71654 19.68504
vt -19.68504 4.296891
vt -19.68504 7.543431
vt 19.68504 4.296891
vt 19.68504 7.543431
vt -17.71654 19.68504
vt -17.71654 -19.68504
vt -19.68504 19.68504
vt -19.68504 -19.68504
vt 19.68504 1.828603E-13
vt 17.71654 1.828603E-13
vt 19.68504 3.149606
vt 18.50394 3.149606
vt 19.68504 1.317955E-25
vt -19.68504 3.149606
vt -19.68504 1.317955E-25
vt -17.71654 -5.224579E-15
vt -19.68504 -5.224579E-15
vt -18.50394 3.149606
vt 19.68504 1.776357E-13
vt 17.71654 1.776357E-13
vt -18.50394 -19.68504
vt -18.50394 19.68504
vt -19.68504 0
vt 19.68504 0
vt -17.71654 0

usemtl pavement

f 3/3/1 2/2/1 1/1/1
f 2/2/1 3/3/1 4/4/1
f 7/2/2 6/5/2 5/4/2
f 6/5/2 7/2/2 8/6/2
f 8/9/3 9/8/3 6/7/3
f 9/8/3 8/9/3 10/10/3
f 13/13/2 12/12/2 11/11/2
f 12/12/2 13/13/2 14/14/2
f 15/17/4 8/16/4 7/15/4
f 8/16/4 15/17/4 10/18/4
f 15/20/5 5/19/5 16/17/5
f 5/19/5 15/20/5 7/21/5
f 9/24/6 5/23/6 6/22/6
f 5/23/6 9/24/6 16/20/6
f 3/10/7 11/7/7 12/9/7
f 11/7/7 3/10/7 1/8/7
f 4/17/6 12/26/6 14/25/6
f 12/26/6 4/17/6 3/18/6
f 9/27/1 15/13/1 16/14/1
f 15/13/1 9/27/1 10/28/1
f 13/30/8 4/20/8 14/29/8
f 4/20/8 13/30/8 2/17/8
f 1/24/4 13/29/4 11/31/4
f 13/29/4 1/24/4 2/20/4

