# Created by Kenney (www.kenney.nl)

mtllib road_drivewaySingleBarrier.mtl

g road_drivewaySingleBarrier

v 0.5 0 -0.45
v 0.5 0 -0.5
v -0.5 0 -0.45
v -0.5 0 -0.5
v -0.5 0.08 -0.5
v -0.5 0.08 -0.47
v -0.13 4.511946E-17 0.45
v -0.13 4.511946E-17 0.5
v -0.13 0.08 0.47
v -0.13 0.08 0.5
v 0.5 0.08 -0.47
v 0.5 0.08 -0.5
v -0.5 5.89091E-15 0.5
v -0.5 0.08 0.5
v 0.5 0.08 0.47
v 0.5 0.08 0.5
v 0.13 0.08 0.47
v 0.13 0.08 0.5
v -0.5 5.89091E-15 0.45
v -0.5 0.08 0.47
v 0.5 0 0.45
v 0.13 5.84579E-15 0.45
v 0.5 0 0.5
v 0.13 5.84579E-15 0.5

vn 0 -1 0
vn -1 0 0
vn 1 0 0
vn 0 0.2425356 0.9701425
vn 0 1 0
vn 0 0 1
vn 0 0.2425356 -0.9701425
vn 0 0 -1

vt 19.68504 -17.71654
vt 19.68504 -19.68504
vt -19.68504 -17.71654
vt -19.68504 -19.68504
vt -19.68504 0
vt -19.68504 3.149606
vt -17.71654 0
vt -18.50394 3.149606
vt -17.71654 3.134747E-15
vt -19.68504 3.134747E-15
vt 19.68504 4.296891
vt -19.68504 4.296891
vt 19.68504 7.543431
vt -19.68504 7.543431
vt -19.68504 -18.50394
vt 19.68504 -18.50394
vt -5.11811 1.776357E-15
vt -19.68504 2.319256E-13
vt -5.11811 3.149606
vt -19.68504 18.50394
vt -19.68504 19.68504
vt -5.11811 18.50394
vt -5.11811 19.68504
vt 5.11811 4.296891
vt 5.11811 7.543431
vt 19.68504 17.71654
vt 5.11811 17.71654
vt 19.68504 19.68504
vt 5.11811 19.68504
vt -17.71654 -5.224579E-15
vt -19.68504 -5.224579E-15
vt 19.68504 3.149606
vt 19.68504 1.776357E-13
vt 18.50394 3.149606
vt 17.71654 1.776357E-13
vt -5.11811 17.71654
vt -19.68504 17.71654
vt 5.11811 18.50394
vt 19.68504 18.50394
vt 17.71654 4.147859E-13
vt 19.68504 4.147859E-13
vt -5.11811 4.296891
vt -5.11811 7.543431
vt 17.71654 1.826056E-13
vt 19.68504 1.826056E-13
vt 19.68504 1.317955E-25
vt 5.11811 2.301492E-13
vt 5.11811 3.149606
vt 19.68504 0

usemtl pavement

f 3/3/1 2/2/1 1/1/1
f 2/2/1 3/3/1 4/4/1
f 3/7/2 5/6/2 4/5/2
f 5/6/2 3/7/2 6/8/2
f 9/8/3 8/10/3 7/9/3
f 8/10/3 9/8/3 10/6/3
f 11/13/4 3/12/4 1/11/4
f 3/12/4 11/13/4 6/14/4
f 12/4/5 6/16/5 11/15/5
f 6/16/5 12/4/5 5/2/5
f 10/19/6 13/18/6 8/17/6
f 13/18/6 10/19/6 14/6/6
f 17/22/5 16/21/5 15/20/5
f 16/21/5 17/22/5 18/23/5
f 19/11/7 9/25/7 7/24/7
f 9/25/7 19/11/7 20/13/7
f 23/28/1 22/27/1 21/26/1
f 22/27/1 23/28/1 24/29/1
f 15/8/3 23/31/3 21/30/3
f 23/31/3 15/8/3 16/6/3
f 11/34/3 2/33/3 12/32/3
f 2/33/3 11/34/3 1/35/3
f 8/23/1 19/37/1 7/36/1
f 19/37/1 8/23/1 13/21/1
f 20/39/5 10/29/5 9/38/5
f 10/29/5 20/39/5 14/28/5
f 13/41/2 20/34/2 19/40/2
f 20/34/2 13/41/2 14/32/2
f 22/42/7 15/14/7 21/12/7
f 15/14/7 22/42/7 17/43/7
f 24/45/2 17/34/2 22/44/2
f 17/34/2 24/45/2 18/32/2
f 16/32/6 24/47/6 23/46/6
f 24/47/6 16/32/6 18/48/6
f 5/32/8 2/5/8 4/49/8
f 2/5/8 5/32/8 12/6/8

