# Created by Kenney (www.kenney.nl)

mtllib road_crossroadBarrier.mtl

g road_crossroadBarrier

v 0.5 1.015188E-15 0.5
v 0.45 1.015188E-15 0.5
v 0.5 0.08 0.5
v 0.47 0.08 0.5
v 0.5 0.08 0.47
v 0.4922354 0.08 0.4710222
v 0.485 0.08 0.4740192
v 0.4787868 0.08 0.4787868
v 0.4740192 0.08 0.485
v 0.4710222 0.08 0.4922355
v 0.5 1.015188E-15 0.45
v 0.487059 1.015188E-15 0.4517037
v 0.475 1.015188E-15 0.4566987
v 0.4646446 1.015188E-15 0.4646446
v 0.4566987 1.015188E-15 0.475
v 0.4517037 1.015188E-15 0.4870591
v -0.487059 2.312372E-15 -0.4517038
v -0.5 2.312372E-15 -0.45
v -0.5 0.08 -0.47
v -0.4922354 0.08 -0.4710222
v -0.47 0.08 -0.5
v -0.45 2.312372E-15 -0.5
v -0.4517037 2.312372E-15 -0.4870591
v -0.4710222 0.08 -0.4922354
v -0.5 2.312372E-15 -0.5
v -0.5 0.08 -0.5
v -0.4787868 0.08 -0.4787868
v -0.4740192 0.08 -0.485
v -0.4646446 2.312372E-15 -0.4646447
v -0.4566987 2.312372E-15 -0.475
v -0.485 0.08 -0.4740193
v -0.475 2.312372E-15 -0.4566987
v 0.47 0.08 -0.5
v 0.4710222 0.08 -0.4922354
v 0.4517037 1.297185E-15 -0.487059
v 0.45 1.297185E-15 -0.5
v 0.4740192 0.08 -0.485
v 0.4566987 1.297185E-15 -0.4749999
v 0.5 0.08 -0.5
v 0.5 1.297185E-15 -0.5
v 0.5 0.08 -0.47
v 0.5 1.297185E-15 -0.45
v 0.4922355 0.08 -0.4710222
v 0.485 0.08 -0.4740193
v 0.4787868 0.08 -0.4787868
v 0.4646446 1.297185E-15 -0.4646447
v 0.475 1.297185E-15 -0.4566987
v 0.4870591 1.297185E-15 -0.4517037
v -0.5 0 0.45
v -0.4870591 0 0.4517037
v -0.5 0.08 0.47
v -0.4922355 0.08 0.4710222
v -0.47 0.08 0.5
v -0.5 0.08 0.5
v -0.4710222 0.08 0.4922354
v -0.4740192 0.08 0.485
v -0.4787868 0.08 0.4787868
v -0.485 0.08 0.4740192
v -0.475 0 0.4566987
v -0.4646446 0 0.4646446
v -0.4566987 0 0.475
v -0.45 0 0.5
v -0.5 0 0.5
v -0.4517037 0 0.487059

vn 0 0 1
vn 0 1 0
vn 0 -1 0
vn -0.4850713 0.2425356 -0.8401681
vn -0.2510914 0.2425356 -0.9370857
vn -0.8401681 0.2425356 -0.4850713
vn -0.9370857 0.2425356 -0.2510914
vn -0.1266925 0.2405813 -0.9623252
vn -0.6859944 0.2425356 -0.6859944
vn -0.9623252 0.2405813 -0.1266925
vn 1 0 0
vn 0.2510914 0.2425356 0.9370857
vn 0.1266925 0.2405813 0.9623252
vn 0.9623252 0.2405813 0.1266925
vn 0.9370857 0.2425356 0.2510914
vn -1 0 0
vn 0.6859944 0.2425356 0.6859944
vn 0.8401681 0.2425356 0.4850713
vn 0.4850713 0.2425356 0.8401681
vn 0 0 -1
vn -0.9623252 0.2405813 0.1266925
vn -0.9370857 0.2425356 0.2510914
vn -0.8401681 0.2425356 0.4850713
vn -0.4850713 0.2425356 0.8401681
vn -0.6859944 0.2425356 0.6859944
vn -0.2510914 0.2425356 0.9370857
vn -0.1266925 0.2405813 0.9623252
vn 0.1266925 0.2405813 -0.9623252
vn 0.2510914 0.2425356 -0.9370857
vn 0.4850713 0.2425356 -0.8401681
vn 0.6859944 0.2425356 -0.6859944
vn 0.8401681 0.2425356 -0.4850713
vn 0.9370857 0.2425356 -0.2510914
vn 0.9623252 0.2405813 -0.1266925

vt 19.68504 -3.153033E-13
vt 17.71654 -3.153033E-13
vt 19.68504 3.149606
vt 18.50394 3.149606
vt -19.68504 18.50394
vt -19.68504 19.68504
vt -19.37935 18.54418
vt -18.50394 19.68504
vt -19.09449 18.66217
vt -18.84987 18.84987
vt -18.66217 19.09449
vt -18.54418 19.37935
vt 19.68504 17.71654
vt 19.17555 17.78361
vt 19.68504 19.68504
vt 17.71654 19.68504
vt 18.70079 17.98026
vt 18.2931 18.2931
vt 17.98026 18.70079
vt 17.78361 19.17555
vt -10.39652 5.718155
vt -10.91041 5.718155
vt -10.80763 8.963068
vt -10.4993 8.963068
vt 10.39653 5.718155
vt 10.4993 8.963068
vt 10.80763 8.963068
vt 10.91041 5.718155
vt -16.79305 8.088868
vt -16.69028 4.843956
vt -17.10138 8.088868
vt -17.20416 4.843956
vt 3.376758 6.170674
vt 3.479535 9.415587
vt 3.787864 9.415587
vt 3.890641 6.170674
vt 16.69028 4.843955
vt 17.10138 8.088868
vt 17.20416 4.843955
vt 16.79305 8.088868
vt -3.376757 6.170674
vt -3.89064 6.170674
vt -3.787863 9.415587
vt -3.479534 9.415587
vt -17.71654 2.176037E-13
vt -19.68504 2.176037E-13
vt -18.50394 3.149606
vt -19.68504 3.149606
vt -19.68504 2.68674E-13
vt -17.71654 2.68674E-13
vt 18.50394 -19.68504
vt 18.54418 -19.37935
vt 19.68504 -19.68504
vt 18.66217 -19.09449
vt 18.84987 -18.84987
vt 19.09449 -18.66217
vt 19.37935 -18.54418
vt 19.68504 -18.50394
vt -17.71654 -19.68504
vt -19.68504 -19.68504
vt -17.78361 -19.17555
vt -17.98026 -18.70079
vt -18.2931 -18.2931
vt -18.70079 -17.98026
vt -19.17555 -17.78361
vt -19.68504 -17.71654
vt 19.68504 -2.642331E-13
vt 17.71654 -2.642331E-13
vt 19.68504 -3.042011E-13
vt 17.71654 -3.042011E-13
vt -19.68504 -18.50394
vt -18.50394 -19.68504
vt -19.37935 -18.54418
vt -19.09449 -18.66217
vt -18.84987 -18.84987
vt -18.66217 -19.09449
vt -18.54418 -19.37935
vt 17.71654 -19.68504
vt 19.68504 -17.71654
vt 19.17555 -17.78361
vt 18.70079 -17.98026
vt 18.2931 -18.2931
vt 17.98026 -18.70079
vt 17.78361 -19.17555
vt -17.71654 2.287059E-13
vt -19.68504 2.287059E-13
vt 18.50394 19.68504
vt 18.54418 19.37935
vt 18.66217 19.09449
vt 18.84987 18.84987
vt 19.09449 18.66217
vt 19.37935 18.54418
vt 19.68504 18.50394
vt -17.71654 1.776357E-13
vt -19.68504 1.776357E-13
vt -17.71654 19.68504
vt -17.78361 19.17555
vt -17.98026 18.70079
vt -18.2931 18.2931
vt -18.70079 17.98026
vt -19.17555 17.78361
vt -19.68504 17.71654
vt 17.71654 -3.552714E-13
vt 19.68504 -3.552714E-13

usemtl pavement

f 3/3/1 2/2/1 1/1/1
f 2/2/1 3/3/1 4/4/1
f 6/7/2 3/6/2 5/5/2
f 3/6/2 6/7/2 4/8/2
f 4/8/2 6/7/2 7/9/2
f 4/8/2 7/9/2 8/10/2
f 4/8/2 8/10/2 9/11/2
f 4/8/2 9/11/2 10/12/2
f 1/15/3 12/14/3 11/13/3
f 12/14/3 1/15/3 2/16/3
f 12/14/3 2/16/3 13/17/3
f 13/17/3 2/16/3 14/18/3
f 14/18/3 2/16/3 15/19/3
f 15/19/3 2/16/3 16/20/3
f 6/23/5 12/22/5 13/21/4
f 6/23/5 13/21/4 7/24/4
f 10/27/7 9/26/6 15/25/6
f 10/27/7 15/25/6 16/28/7
f 5/31/8 12/30/5 6/29/5
f 5/31/8 11/32/8 12/30/5
f 9/35/6 8/34/9 14/33/9
f 9/35/6 14/33/9 15/36/6
f 2/39/10 4/38/10 16/37/7
f 4/38/10 10/40/7 16/37/7
f 7/43/4 13/42/4 14/41/9
f 7/43/4 14/41/9 8/44/9
f 5/47/11 1/46/11 11/45/11
f 1/46/11 5/47/11 3/48/11
f 19/31/13 18/32/13 17/30/12
f 19/31/13 17/30/12 20/29/12
f 23/37/15 22/39/14 21/38/14
f 23/37/15 21/38/14 24/40/15
f 18/50/16 26/48/16 25/49/16
f 26/48/16 18/50/16 19/47/16
f 29/33/17 28/35/18 27/34/17
f 29/33/17 30/36/18 28/35/18
f 30/25/18 23/28/15 24/27/15
f 30/25/18 24/27/15 28/26/18
f 26/53/2 24/52/2 21/51/2
f 24/52/2 26/53/2 28/54/2
f 28/54/2 26/53/2 27/55/2
f 27/55/2 26/53/2 31/56/2
f 31/56/2 26/53/2 20/57/2
f 20/57/2 26/53/2 19/58/2
f 23/61/3 25/60/3 22/59/3
f 25/60/3 23/61/3 30/62/3
f 25/60/3 30/62/3 29/63/3
f 25/60/3 29/63/3 32/64/3
f 25/60/3 32/64/3 17/65/3
f 25/60/3 17/65/3 18/66/3
f 31/43/19 32/42/19 29/41/17
f 31/43/19 29/41/17 27/44/17
f 20/23/12 32/21/19 31/24/19
f 20/23/12 17/22/12 32/21/19
f 26/3/20 22/68/20 25/67/20
f 22/68/20 26/3/20 21/4/20
f 35/30/22 34/29/22 33/31/21
f 35/30/22 33/31/21 36/32/21
f 38/21/23 37/24/23 34/23/22
f 38/21/23 34/23/22 35/22/22
f 41/4/11 40/69/11 39/3/11
f 40/69/11 41/4/11 42/70/11
f 33/72/2 41/71/2 39/60/2
f 41/71/2 33/72/2 43/73/2
f 43/73/2 33/72/2 44/74/2
f 44/74/2 33/72/2 45/75/2
f 45/75/2 33/72/2 37/76/2
f 37/76/2 33/72/2 34/77/2
f 45/34/25 46/33/25 44/35/24
f 44/35/24 46/33/25 47/36/24
f 42/79/3 36/78/3 40/53/3
f 36/78/3 42/79/3 48/80/3
f 36/78/3 48/80/3 47/81/3
f 36/78/3 47/81/3 46/82/3
f 36/78/3 46/82/3 38/83/3
f 36/78/3 38/83/3 35/84/3
f 44/26/24 47/25/24 43/27/26
f 43/27/26 47/25/24 48/28/26
f 46/41/25 37/43/23 38/42/23
f 46/41/25 45/44/25 37/43/23
f 41/38/27 48/37/26 42/39/27
f 43/40/26 48/37/26 41/38/27
f 33/47/20 40/86/20 36/85/20
f 40/86/20 33/47/20 39/48/20
f 51/38/28 50/37/29 49/39/28
f 52/40/29 50/37/29 51/38/28
f 55/88/2 54/15/2 53/87/2
f 54/15/2 55/88/2 56/89/2
f 54/15/2 56/89/2 57/90/2
f 54/15/2 57/90/2 58/91/2
f 54/15/2 58/91/2 52/92/2
f 54/15/2 52/92/2 51/93/2
f 52/27/29 59/25/30 50/28/29
f 58/26/30 59/25/30 52/27/29
f 56/43/32 60/41/31 57/44/31
f 56/43/32 61/42/32 60/41/31
f 53/47/1 63/95/1 62/94/1
f 63/95/1 53/47/1 54/48/1
f 55/23/33 64/22/33 61/21/32
f 55/23/33 61/21/32 56/24/32
f 62/32/34 64/30/33 53/31/34
f 53/31/34 64/30/33 55/29/33
f 57/34/31 60/33/31 58/35/30
f 58/35/30 60/33/31 59/36/30
f 63/6/3 64/97/3 62/96/3
f 64/97/3 63/6/3 61/98/3
f 61/98/3 63/6/3 60/99/3
f 60/99/3 63/6/3 59/100/3
f 59/100/3 63/6/3 50/101/3
f 50/101/3 63/6/3 49/102/3
f 63/104/16 51/4/16 49/103/16
f 51/4/16 63/104/16 54/3/16

