# Created by Kenney (www.kenney.nl)

mtllib road_square.mtl

g road_square

v -0.4 0.01 -0.4
v -0.4 0.02 -0.4
v 0.4 0.01 -0.4
v 0.4 0.02 -0.4
v -0.5 0 -0.5
v 0.5 0 -0.5
v -0.5 0.02 -0.5
v 0.5 0.02 -0.5
v 0.5 0 0.5
v -0.5 0 0.5
v 0.5 0.02 0.5
v -0.4 0.02 0.4
v 0.4 0.02 0.4
v -0.5 0.02 0.5
v -0.4 0.01 0.4
v 0.4 0.01 0.4
v 0.3 0.01 -0.3
v 0.3 0.01 0.3
v -0.3 0.01 -0.3
v -0.3 0.01 0.3

vn 0 0 1
vn 0 0 -1
vn 0 -1 0
vn 0 1 0
vn -1 0 0
vn 1 0 0

vt -15.74803 0.3937008
vt -15.74803 0.7874016
vt 15.74803 0.3937008
vt 15.74803 0.7874016
vt 19.68504 0
vt -19.68504 0
vt 19.68504 0.7874016
vt -19.68504 0.7874016
vt 19.68504 19.68504
vt 19.68504 -19.68504
vt -19.68504 19.68504
vt -19.68504 -19.68504
vt -15.74803 -15.74803
vt 15.74803 -15.74803
vt 15.74803 15.74803
vt -15.74803 15.74803
vt -11.81102 -11.81102
vt -11.81102 11.81102
vt 11.81102 -11.81102
vt 11.81102 11.81102

usemtl pavement

f 3/3/1 2/2/1 1/1/1
f 2/2/1 3/3/1 4/4/1
f 7/7/2 6/6/2 5/5/2
f 6/6/2 7/7/2 8/8/2
f 10/11/3 6/10/3 9/9/3
f 6/10/3 10/11/3 5/12/3
f 8/12/4 4/13/4 11/11/4
f 4/13/4 8/12/4 7/10/4
f 4/13/4 7/10/4 2/14/4
f 2/14/4 7/10/4 12/15/4
f 13/16/4 11/11/4 4/13/4
f 11/11/4 13/16/4 14/9/4
f 14/9/4 13/16/4 12/15/4
f 14/9/4 12/15/4 7/10/4
f 11/7/1 10/6/1 9/5/1
f 10/6/1 11/7/1 14/8/1
f 10/5/5 7/8/5 5/6/5
f 7/8/5 10/5/5 14/7/5
f 12/2/6 1/3/6 2/4/6
f 1/3/6 12/2/6 15/1/6
f 11/8/6 6/5/6 8/7/6
f 6/5/6 11/8/6 9/6/6
f 12/4/2 16/1/2 15/3/2
f 16/1/2 12/4/2 13/2/2
f 16/3/5 4/2/5 3/1/5
f 4/2/5 16/3/5 13/4/5

usemtl asphalt

f 19/19/4 18/18/4 17/17/4
f 18/18/4 19/19/4 20/20/4

usemtl asphaltEdge

f 3/13/4 17/17/4 16/16/4
f 17/17/4 3/13/4 1/14/4
f 17/17/4 1/14/4 19/19/4
f 19/19/4 1/14/4 20/20/4
f 18/18/4 16/16/4 17/17/4
f 16/16/4 18/18/4 15/15/4
f 15/15/4 18/18/4 20/20/4
f 15/15/4 20/20/4 1/14/4

