# Created by Kenney (www.kenney.nl)

mtllib road_curveBarrier.mtl

g road_curveBarrier

v -0.005096399 0.08 0.7334164
v 0.0410171 5.89373E-16 0.8629475
v 0.02118821 0.08 0.865558
v 0.01422212 5.442535E-16 0.72824
v -0.475 3.186562E-16 0.09067333
v -0.485 0.08 0.1079938
v -0.6058361 0.08 0.0484041
v -0.5981824 3.186562E-16 0.02992648
v 0.05 6.796119E-16 1
v 0.03 0.08 1
v -0.27168 0.08 0.27168
v -0.2575379 3.186562E-16 0.2575379
v -0.166979 3.637757E-16 0.3608005
v -0.1828461 0.08 0.3729757
v -0.3608005 3.186562E-16 0.166979
v -0.3729757 0.08 0.1828461
v -0.1079938 0.08 0.485
v -0.09067332 4.088951E-16 0.475
v -0.02992649 4.540146E-16 0.5981824
v -0.04840408 0.08 0.6058361
v -1 4.088951E-16 -0.05000001
v -0.8629475 3.637757E-16 -0.04101712
v -1 0.08 -0.02999997
v -0.865558 0.08 -0.0211882
v -0.7334164 0.08 0.005096376
v -0.72824 3.186562E-16 -0.01422215
v 7.666699E-13 0.08 1
v -0.008555138 0.08 0.8694738
v -0.03407417 0.08 0.741181
v -0.07612047 0.08 0.6173166
v -0.1339746 0.08 0.5
v -0.2066467 0.08 0.3912386
v -0.2928932 0.08 0.2928932
v -0.3912386 0.08 0.2066467
v -0.5 0.08 0.1339746
v -0.6173166 0.08 0.0761205
v -0.741181 0.08 0.03407419
v -0.8694738 0.08 0.008555114
v -1 0.08 0
v 7.666699E-13 7.698508E-16 1
v -1 1.130807E-15 0
v -0.8694738 1.085687E-15 0.008555114
v -0.741181 1.040568E-15 0.03407419
v -0.008555138 7.698508E-16 0.8694738
v -0.03407417 7.698508E-16 0.741181
v -0.07612047 7.698508E-16 0.6173166
v -0.1339746 7.698508E-16 0.5
v -0.2066467 8.149703E-16 0.3912386
v -0.2928932 8.600897E-16 0.2928932
v -0.3912386 9.052092E-16 0.2066467
v -0.5 9.503287E-16 0.1339746
v -0.6173166 9.954482E-16 0.0761205
v 1 7.670309E-16 1
v 0.9828897 0 0.7389476
v 0.9499999 4.511946E-17 1
v 0.9318516 0 0.4823619
v 0.9333174 4.511946E-17 0.7454739
v 0.8835554 4.511946E-17 0.4953029
v 0.8477591 4.511946E-17 0.2346331
v 0.8015651 9.023893E-17 0.2537673
v 0.7320508 9.023893E-17 0
v 0.6887495 1.353584E-16 0.02499998
v 0.5867067 1.353584E-16 -0.2175229
v 0.547039 1.804779E-16 -0.1870848
v 0.4142136 2.255973E-16 -0.4142135
v 0.3788582 2.255973E-16 -0.3788582
v 0.2175229 3.158362E-16 -0.5867066
v 0.1870848 3.158362E-16 -0.547039
v 2.093543E-14 4.060752E-16 -0.7320508
v -0.025 4.060752E-16 -0.6887496
v -0.2346331 4.963141E-16 -0.847759
v -0.2537673 4.963141E-16 -0.8015651
v -0.4823619 5.86553E-16 -0.9318516
v -0.4953029 5.86553E-16 -0.8835554
v -0.7389476 6.767919E-16 -0.9828897
v -0.7454739 6.767919E-16 -0.9333174
v -1 7.670309E-16 -1
v -1 7.670309E-16 -0.9499999
v 0.9828897 0.08 0.7389476
v 1 0.08 1
v -0.2346331 0.08 -0.847759
v -0.4823619 0.08 -0.9318516
v 0.2175229 0.08 -0.5867066
v 2.093543E-14 0.08 -0.7320508
v 0.9318516 0.08 0.4823619
v 0.7320508 0.08 0
v 0.8477591 0.08 0.2346331
v 0.4142136 0.08 -0.4142135
v 0.5867067 0.08 -0.2175229
v -0.7389476 0.08 -0.9828897
v -1 0.08 -1
v -0.2461136 0.08 -0.8200426
v -0.4901265 0.08 -0.9028739
v -0.7428634 0.08 -0.9531463
v -1 0.08 -0.97
v -0.015 0.08 -0.7060699
v 0.3930004 0.08 -0.3930004
v 0.19926 0.08 -0.562906
v 0.5629061 0.08 -0.19926
v 0.70607 0.08 0.01499999
v 0.8200427 0.08 0.2461137
v 0.9028739 0.08 0.4901265
v 0.9531463 0.08 0.7428634
v 0.97 0.08 1

vn 0.9370857 0.2425356 -0.2510914
vn 0.9618428 0.2425356 -0.126629
vn 0.4850713 0.2425356 -0.8401681
vn 0.3712575 0.2425356 -0.8962947
vn 0.9681872 0.2420468 -0.06345834
vn 0.6859944 0.2425356 -0.6859944
vn 0.7696658 0.2425357 -0.5905854
vn 0.5905854 0.2425357 -0.7696658
vn 0.8401681 0.2425356 -0.4850713
vn 0.8962947 0.2425356 -0.3712575
vn 0.06345834 0.2420468 -0.9681872
vn 0.126629 0.2425356 -0.9618428
vn 0.2510914 0.2425356 -0.9370857
vn 0 1 0
vn 0 0 1
vn -1 0 0
vn -0.1305262 0 0.9914449
vn -0.06540313 0 0.9978589
vn -0.258819 0 0.9659258
vn 0 -1 0
vn -0.3826834 0 0.9238795
vn -0.5 0 0.8660254
vn -0.7071068 0 0.7071068
vn -0.6087614 0 0.7933533
vn -0.7933533 0 0.6087614
vn -0.8660254 0 0.5
vn -0.9238795 0 0.3826834
vn -0.9659258 0 0.258819
vn -0.9914449 0 0.1305262
vn -0.9978589 0 0.06540313
vn 0.9914449 0 -0.1305262
vn 0.9978589 0 -0.06540313
vn 0.3826834 0 -0.9238795
vn 0.258819 0 -0.9659258
vn 0.6087614 0 -0.7933533
vn 0.5 0 -0.8660254
vn 0.9659258 0 -0.258819
vn 0.8660254 0 -0.5
vn 0.9238795 0 -0.3826834
vn 0.7071068 0 -0.7071068
vn 0.7933533 0 -0.6087614
vn 0.1305262 0 -0.9914449
vn 0.06540313 0 -0.9978589
vn -0.3712575 0.2425356 0.8962947
vn -0.2510914 0.2425356 0.9370857
vn -0.126629 0.2425356 0.9618428
vn -0.06345834 0.2420468 0.9681872
vn -0.4850713 0.2425356 0.8401681
vn -0.6859944 0.2425356 0.6859944
vn -0.5905854 0.2425357 0.7696658
vn -0.7696658 0.2425357 0.5905854
vn -0.8401681 0.2425356 0.4850713
vn -0.8962947 0.2425356 0.3712575
vn -0.9370857 0.2425356 0.2510914
vn -0.9618428 0.2425356 0.126629
vn -0.9681872 0.2420468 0.06345834

vt -28.2807 4.467074
vt -33.63654 1.220942
vt -33.58504 4.467074
vt -28.2292 1.220942
vt 15.19334 2.776959
vt 15.24484 6.02309
vt 20.54918 6.02309
vt 20.60068 2.776959
vt -34.05869 3.393934
vt -39.41453 0.1478028
vt -39.36303 3.393934
vt -34.00719 0.1478028
vt -0.9893216 6.709437
vt -0.9378231 3.463306
vt -6.345169 3.463306
vt -6.29367 6.709437
vt 8.158507 3.233211
vt 8.210006 6.479342
vt 13.51435 6.479342
vt 13.56585 3.233211
vt -15.24484 6.02309
vt -15.19334 2.776959
vt -20.60068 2.776959
vt -20.54918 6.02309
vt -8.210006 6.479342
vt -13.56585 3.233211
vt -13.51435 6.479342
vt -8.158507 3.233211
vt 0.9378231 3.463306
vt 0.9893216 6.709437
vt 6.29367 6.709437
vt 6.345169 3.463306
vt 39.41453 0.1478028
vt 34.00719 0.1478028
vt 39.36303 3.393934
vt 34.05869 3.393934
vt 21.92194 2.102355
vt 21.97344 5.348486
vt 27.27779 5.348486
vt 27.32929 2.102355
vt -21.97344 5.348486
vt -27.32929 2.102355
vt -27.27779 5.348486
vt -21.92194 2.102355
vt 28.2292 1.220942
vt 28.2807 4.467074
vt 33.58504 4.467074
vt 33.63654 1.220942
vt -1.181102 39.37008
vt -3.018224E-11 39.37008
vt -0.8341814 34.07709
vt 0.2006456 28.87466
vt 0.3368165 34.23125
vt 1.905673 23.85181
vt 1.341503 29.18035
vt 2.996869 24.3038
vt 4.251726 19.09449
vt 5.27459 19.68504
vt 7.198664 14.68408
vt 8.135695 15.40309
vt 10.69606 10.69606
vt 11.53123 11.53123
vt 14.68408 7.198664
vt 15.40309 8.135695
vt 19.09449 4.251726
vt 19.68504 5.27459
vt 23.85181 1.905673
vt 24.3038 2.996869
vt 28.87466 0.2006456
vt 29.18035 1.341503
vt 34.07709 -0.8341814
vt 34.23125 0.3368165
vt 39.37008 -1.181102
vt 39.37008 1.606861E-12
vt 1.968504 1.498995E-11
vt 5.041342E-11 1.49935E-11
vt 1.181102 3.149606
vt 5.041342E-11 3.149606
vt -1.968504 2.517767E-11
vt -1.181102 3.149606
vt -3.199866E-11 2.520609E-11
vt -3.199866E-11 3.149606
vt -34.13593 4.092876E-14
vt -39.28579 4.270512E-14
vt -34.13593 3.149606
vt -39.28579 3.149606
vt -28.35795 3.546608E-14
vt -33.5078 3.724244E-14
vt -28.35795 3.149606
vt -33.5078 3.149606
vt 1.968504 39.37008
vt 1.614847 33.97431
vt 3.018386E-11 39.37008
vt 0.5599259 28.67087
vt -0.3368165 34.23125
vt -1.178208 23.55049
vt -1.341503 29.18035
vt -3.569816 18.70079
vt -2.996869 24.3038
vt -5.27459 19.68504
vt -6.573976 14.20474
vt -8.135695 15.40309
vt -10.13929 10.13929
vt -11.53123 11.53123
vt -14.20474 6.573976
vt -15.40309 8.135695
vt -18.70079 3.569816
vt -19.68504 5.27459
vt -23.55049 1.178208
vt -24.3038 2.996869
vt -28.67087 -0.5599259
vt -29.18035 1.341503
vt -33.97431 -1.614847
vt -34.23125 0.3368165
vt -39.37008 -1.968504
vt -39.37008 1.605827E-12
vt -22.05069 3.012122E-14
vt -27.20054 3.189758E-14
vt -22.05069 3.149606
vt -27.20054 3.149606
vt -15.32208 2.527109E-14
vt -20.47194 2.704744E-14
vt -15.32208 3.149606
vt -20.47194 3.149606
vt -1.066569 1.822474E-14
vt -6.216422 2.00011E-14
vt -1.066569 3.149606
vt -6.216422 3.149606
vt 1.066569 1.81577E-14
vt 1.066569 3.149606
vt 6.216422 1.638134E-14
vt 6.216422 3.149606
vt -8.287254 2.122964E-14
vt -13.43711 2.3006E-14
vt -8.287254 3.149606
vt -13.43711 3.149606
vt 15.32208 1.789356E-14
vt 15.32208 3.149606
vt 20.47194 1.789356E-14
vt 20.47194 3.149606
vt 22.05069 2.094269E-14
vt 22.05069 3.149606
vt 27.20054 2.094269E-14
vt 27.20054 3.149606
vt 8.287254 1.748862E-14
vt 8.287254 3.149606
vt 13.43711 1.571226E-14
vt 13.43711 3.149606
vt 28.35795 2.456264E-14
vt 28.35795 3.149606
vt 33.5078 2.456264E-14
vt 33.5078 3.149606
vt 34.13593 2.838731E-14
vt 34.13593 3.149606
vt 39.28579 2.838731E-14
vt 39.28579 3.149606
vt 39.37008 39.37008
vt 38.69645 29.09243
vt 37.40157 39.37008
vt 36.68707 18.99063
vt 36.74478 29.34937
vt 34.78564 19.50011
vt 33.37634 9.237525
vt 31.55768 9.990839
vt 28.8209 -3.737455E-12
vt 27.11612 0.984252
vt 23.09869 -8.563892
vt 21.53697 -7.365543
vt 16.30762 -16.30762
vt 14.91568 -14.91568
vt 8.563892 -23.09869
vt 7.365543 -21.53697
vt 8.242296E-13 -28.8209
vt -0.984252 -27.11612
vt -9.237525 -33.37634
vt -9.990839 -31.55768
vt -18.99063 -36.68707
vt -19.50011 -34.78564
vt -29.09243 -38.69645
vt -29.34937 -36.74478
vt -39.37008 -39.37008
vt -39.37008 -37.40157
vt -31.561 3.149606
vt -31.561 1.985739E-14
vt -41.86071 3.149606
vt -41.86071 5.005546E-14
vt 19.47576 3.015003E-14
vt 19.47576 3.149606
vt 29.77547 3.370275E-14
vt 29.77547 3.149606
vt 5.712327 2.369039E-14
vt 5.712327 3.149606
vt 16.01203 2.72431E-14
vt 16.01203 3.149606
vt -25.78302 3.149606
vt -25.78302 1.805551E-14
vt -36.08273 3.149606
vt -36.08273 1.805551E-14
vt -12.74716 3.149606
vt -12.74716 1.82211E-14
vt -23.04686 3.149606
vt -23.04686 1.644474E-14
vt 12.74716 2.694027E-14
vt 12.74716 3.149606
vt 23.04686 3.049299E-14
vt 23.04686 3.149606
vt -1.508357 2.056407E-14
vt -1.508357 3.149606
vt 8.791348 2.411679E-14
vt 8.791348 3.149606
vt -5.712327 3.149606
vt -5.712327 1.867545E-14
vt -16.01203 3.149606
vt -16.01203 1.68991E-14
vt 25.78302 3.312962E-14
vt 25.78302 3.149606
vt 36.08273 3.668234E-14
vt 36.08273 3.149606
vt 31.561 3.567927E-14
vt 31.561 3.149606
vt 41.86071 3.923198E-14
vt 41.86071 3.149606
vt -19.47576 3.149606
vt -19.47576 1.804981E-14
vt -29.77547 3.149606
vt -29.77547 1.627346E-14
vt 1.508357 3.149606
vt 1.508357 2.12371E-14
vt -8.791348 3.149606
vt -8.791348 1.768439E-14
vt -19.60451 6.455743
vt -29.64672 6.455743
vt -19.55301 9.701875
vt -29.69822 9.701875
vt -25.86027 10.58329
vt -35.95398 7.337156
vt -36.00548 10.58329
vt -25.91177 7.337156
vt -31.68975 8.410295
vt -41.73196 8.410295
vt -31.63825 11.65643
vt -41.78346 11.65643
vt -12.8244 9.027271
vt -22.91812 5.78114
vt -22.96961 9.027271
vt -12.8759 5.78114
vt 1.379611 5.094792
vt -8.662602 5.094792
vt 1.431109 8.340923
vt -8.714101 8.340923
vt -1.379611 5.094792
vt 8.714101 8.340923
vt 8.662602 5.094792
vt -1.431109 8.340923
vt 5.841074 5.324887
vt 15.93478 8.571018
vt 15.88329 5.324887
vt 5.789576 8.571018
vt 19.60451 6.455743
vt 19.55301 9.701875
vt 29.69822 9.701875
vt 29.64672 6.455743
vt 25.91177 7.337156
vt 25.86027 10.58329
vt 36.00548 10.58329
vt 35.95398 7.337156
vt 12.8759 5.78114
vt 22.96961 9.027271
vt 22.91812 5.78114
vt 12.8244 9.027271
vt 41.73196 8.410295
vt 31.68975 8.410295
vt 41.78346 11.65643
vt 31.63825 11.65643
vt -5.841074 5.324887
vt -15.88329 5.324887
vt -5.789576 8.571018
vt -15.93478 8.571018
vt -39.37008 39.37008
vt -38.18898 39.37008
vt -38.69645 29.09243
vt -37.52545 29.24659
vt -36.68707 18.99063
vt -35.54622 19.29632
vt -33.37634 9.237525
vt -32.28514 9.689513
vt -28.8209 -3.736565E-12
vt -27.79803 0.5905512
vt -23.09869 -8.563892
vt -22.16166 -7.844882
vt -16.30762 -16.30762
vt -15.47246 -15.47246
vt -8.563892 -23.09869
vt -7.844882 -22.16166
vt -8.22928E-13 -28.8209
vt 0.5905512 -27.79803
vt 9.237525 -33.37634
vt 9.689513 -32.28514
vt 18.99063 -36.68707
vt 19.29632 -35.54622
vt 29.09243 -38.69645
vt 29.24659 -37.52545
vt 39.37008 -39.37008
vt 39.37008 -38.18898
vt -39.37008 1.131529E-11
vt -39.37008 3.149606
vt -37.40157 1.131529E-11
vt -38.18898 3.149606
vt 37.40157 8.37709E-13
vt 38.18898 3.149606
vt 39.37008 8.661307E-13
vt 39.37008 3.149606

usemtl pavement

f 3/3/2 2/2/2 1/1/1
f 2/2/2 4/4/1 1/1/1
f 7/7/4 6/6/3 5/5/3
f 7/7/4 5/5/3 8/8/4
f 10/11/5 9/10/5 3/9/2
f 9/10/5 2/12/2 3/9/2
f 13/15/7 12/14/6 11/13/6
f 14/16/7 13/15/7 11/13/6
f 6/19/3 16/18/8 15/17/8
f 6/19/3 15/17/8 5/20/3
f 19/23/10 18/22/9 17/21/9
f 20/24/10 19/23/10 17/21/9
f 17/27/9 18/26/9 14/25/7
f 18/26/9 13/28/7 14/25/7
f 16/31/8 11/30/6 12/29/6
f 16/31/8 12/29/6 15/32/8
f 23/35/11 22/34/12 21/33/11
f 23/35/11 24/36/12 22/34/12
f 25/39/13 7/38/4 8/37/4
f 25/39/13 8/37/4 26/40/13
f 1/43/1 4/42/1 20/41/10
f 4/42/1 19/44/10 20/41/10
f 24/47/12 25/46/13 26/45/13
f 24/47/12 26/45/13 22/48/12
f 3/51/14 27/50/14 10/49/14
f 27/50/14 3/51/14 1/52/14
f 27/50/14 1/52/14 28/53/14
f 28/53/14 1/52/14 20/54/14
f 28/53/14 20/54/14 29/55/14
f 29/55/14 20/54/14 30/56/14
f 30/56/14 20/54/14 17/57/14
f 30/56/14 17/57/14 31/58/14
f 31/58/14 17/57/14 14/59/14
f 31/58/14 14/59/14 32/60/14
f 32/60/14 14/59/14 11/61/14
f 32/60/14 11/61/14 33/62/14
f 33/62/14 11/61/14 16/63/14
f 33/62/14 16/63/14 34/64/14
f 34/64/14 16/63/14 6/65/14
f 34/64/14 6/65/14 35/66/14
f 35/66/14 6/65/14 7/67/14
f 35/66/14 7/67/14 36/68/14
f 36/68/14 7/67/14 25/69/14
f 36/68/14 25/69/14 37/70/14
f 37/70/14 25/69/14 24/71/14
f 37/70/14 24/71/14 38/72/14
f 38/72/14 24/71/14 23/73/14
f 38/72/14 23/73/14 39/74/14
f 10/77/15 40/76/15 9/75/15
f 40/76/15 10/77/15 27/78/15
f 41/81/16 23/80/16 21/79/16
f 23/80/16 41/81/16 39/82/16
f 38/85/17 41/84/18 42/83/17
f 41/84/18 38/85/17 39/86/18
f 37/89/19 42/88/17 43/87/19
f 42/88/17 37/89/19 38/90/17
f 40/93/20 2/92/20 9/91/20
f 2/92/20 40/93/20 4/94/20
f 4/94/20 40/93/20 44/95/20
f 4/94/20 44/95/20 19/96/20
f 19/96/20 44/95/20 45/97/20
f 19/96/20 45/97/20 18/98/20
f 18/98/20 45/97/20 46/99/20
f 18/98/20 46/99/20 47/100/20
f 18/98/20 47/100/20 13/101/20
f 13/101/20 47/100/20 48/102/20
f 13/101/20 48/102/20 12/103/20
f 12/103/20 48/102/20 49/104/20
f 12/103/20 49/104/20 15/105/20
f 15/105/20 49/104/20 50/106/20
f 15/105/20 50/106/20 5/107/20
f 5/107/20 50/106/20 51/108/20
f 5/107/20 51/108/20 8/109/20
f 8/109/20 51/108/20 52/110/20
f 8/109/20 52/110/20 26/111/20
f 26/111/20 52/110/20 43/112/20
f 26/111/20 43/112/20 22/113/20
f 22/113/20 43/112/20 42/114/20
f 22/113/20 42/114/20 21/115/20
f 21/115/20 42/114/20 41/116/20
f 36/119/21 43/118/19 52/117/21
f 43/118/19 36/119/21 37/120/19
f 35/123/22 52/122/21 51/121/22
f 52/122/21 35/123/22 36/124/21
f 33/127/23 50/126/24 49/125/23
f 50/126/24 33/127/23 34/128/24
f 48/131/25 33/130/23 49/129/23
f 33/130/23 48/131/25 32/132/25
f 34/135/24 51/134/22 50/133/24
f 51/134/22 34/135/24 35/136/22
f 46/139/27 31/138/26 47/137/26
f 31/138/26 46/139/27 30/140/27
f 45/143/28 30/142/27 46/141/27
f 30/142/27 45/143/28 29/144/28
f 47/147/26 32/146/25 48/145/25
f 32/146/25 47/147/26 31/148/26
f 44/151/29 29/150/28 45/149/28
f 29/150/28 44/151/29 28/152/29
f 40/155/30 28/154/29 44/153/29
f 28/154/29 40/155/30 27/156/30
f 55/159/20 54/158/20 53/157/20
f 54/158/20 55/159/20 56/160/20
f 56/160/20 55/159/20 57/161/20
f 56/160/20 57/161/20 58/162/20
f 56/160/20 58/162/20 59/163/20
f 59/163/20 58/162/20 60/164/20
f 59/163/20 60/164/20 61/165/20
f 61/165/20 60/164/20 62/166/20
f 61/165/20 62/166/20 63/167/20
f 63/167/20 62/166/20 64/168/20
f 63/167/20 64/168/20 65/169/20
f 65/169/20 64/168/20 66/170/20
f 65/169/20 66/170/20 67/171/20
f 67/171/20 66/170/20 68/172/20
f 67/171/20 68/172/20 69/173/20
f 69/173/20 68/172/20 70/174/20
f 69/173/20 70/174/20 71/175/20
f 71/175/20 70/174/20 72/176/20
f 71/175/20 72/176/20 73/177/20
f 73/177/20 72/176/20 74/178/20
f 73/177/20 74/178/20 75/179/20
f 75/179/20 74/178/20 76/180/20
f 75/179/20 76/180/20 77/181/20
f 77/181/20 76/180/20 78/182/20
f 80/185/32 54/184/31 79/183/31
f 54/184/31 80/185/32 53/186/32
f 73/189/34 81/188/33 71/187/33
f 81/188/33 73/189/34 82/190/34
f 69/193/36 83/192/35 67/191/35
f 83/192/35 69/193/36 84/194/36
f 79/197/31 56/196/37 85/195/37
f 56/196/37 79/197/31 54/198/31
f 87/201/39 61/200/38 86/199/38
f 61/200/38 87/201/39 59/202/39
f 71/205/33 84/204/36 69/203/36
f 84/204/36 71/205/33 81/206/33
f 67/209/35 88/208/40 65/207/40
f 88/208/40 67/209/35 83/210/35
f 86/213/38 63/212/41 89/211/41
f 63/212/41 86/213/38 61/214/38
f 75/217/42 82/216/34 73/215/34
f 82/216/34 75/217/42 90/218/42
f 77/221/43 90/220/42 75/219/42
f 90/220/42 77/221/43 91/222/43
f 85/225/37 59/224/39 87/223/39
f 59/224/39 85/225/37 56/226/37
f 89/229/41 65/228/40 88/227/40
f 65/228/40 89/229/41 63/230/41
f 92/233/44 74/232/45 72/231/44
f 93/234/45 74/232/45 92/233/44
f 94/237/46 76/236/46 93/235/45
f 93/235/45 76/236/46 74/238/45
f 94/241/46 78/240/47 76/239/46
f 95/242/47 78/240/47 94/241/46
f 92/245/44 72/244/44 96/243/48
f 96/243/48 72/244/44 70/246/48
f 97/249/49 68/248/50 66/247/49
f 98/250/50 68/248/50 97/249/49
f 64/253/51 99/252/51 66/251/49
f 99/252/51 97/254/49 66/251/49
f 62/257/52 100/256/52 64/255/51
f 100/256/52 99/258/51 64/255/51
f 102/261/54 101/260/53 60/259/53
f 58/262/54 102/261/54 60/259/53
f 103/265/55 102/264/54 58/263/54
f 57/266/55 103/265/55 58/263/54
f 60/269/53 101/268/53 62/267/52
f 101/268/53 100/270/52 62/267/52
f 104/273/56 57/272/55 55/271/56
f 104/273/56 103/274/55 57/272/55
f 98/277/50 70/276/48 68/275/50
f 96/278/48 70/276/48 98/277/50
f 79/281/14 104/280/14 80/279/14
f 104/280/14 79/281/14 103/282/14
f 103/282/14 79/281/14 85/283/14
f 103/282/14 85/283/14 102/284/14
f 102/284/14 85/283/14 87/285/14
f 102/284/14 87/285/14 101/286/14
f 101/286/14 87/285/14 86/287/14
f 101/286/14 86/287/14 100/288/14
f 100/288/14 86/287/14 89/289/14
f 100/288/14 89/289/14 99/290/14
f 99/290/14 89/289/14 88/291/14
f 99/290/14 88/291/14 97/292/14
f 97/292/14 88/291/14 83/293/14
f 97/292/14 83/293/14 98/294/14
f 98/294/14 83/293/14 84/295/14
f 98/294/14 84/295/14 96/296/14
f 96/296/14 84/295/14 81/297/14
f 96/296/14 81/297/14 92/298/14
f 92/298/14 81/297/14 82/299/14
f 92/298/14 82/299/14 93/300/14
f 93/300/14 82/299/14 90/301/14
f 93/300/14 90/301/14 94/302/14
f 94/302/14 90/301/14 91/303/14
f 94/302/14 91/303/14 95/304/14
f 78/307/16 91/306/16 77/305/16
f 91/306/16 78/307/16 95/308/16
f 53/311/15 104/310/15 55/309/15
f 104/310/15 53/311/15 80/312/15

