# Created by Kenney (www.kenney.nl)

mtllib road_endRound.mtl

g road_endRound

v 0 0.01 -0.4
v 0 0.02 -0.4
v 0.5 0.01 -0.4
v 0.5 0.02 -0.4
v 7.219114E-16 0 -0.5
v 0.5 0 -0.5
v 7.219114E-16 0.02 -0.5
v 0.5 0.02 -0.5
v 0.5 0 0.5
v 0 0 0.5
v -0.09754516 0 -0.4903927
v -0.09754516 8.4599E-18 0.4903926
v -0.1913417 8.4599E-18 0.4619398
v -0.1913417 0 -0.4619398
v -0.2777851 5.639933E-18 0.4157348
v -0.2777851 2.819966E-18 -0.4157348
v -0.296958 5.639933E-18 0.4
v -0.296958 1.127987E-17 -0.4
v -0.3535534 9.869883E-18 0.3535534
v -0.3535534 4.370948E-17 -0.3535534
v -0.4 5.639933E-18 0.296958
v -0.4 1.409983E-17 -0.296958
v -0.4157348 2.819966E-18 0.2777851
v -0.4157348 5.639933E-18 -0.2777851
v -0.4619398 2.819966E-18 0.1913417
v -0.4619398 5.639933E-18 -0.1913417
v -0.4903926 0 0.09754515
v -0.4903926 8.4599E-18 -0.09754515
v -0.5 -2.819966E-18 0
v 0.5 0.02 0.5
v 0 0.02 0.5
v -0.09754516 0.02 -0.4903927
v -0.07803613 0.02 -0.3923141
v -0.1530734 0.02 -0.3695518
v -0.1913417 0.02 -0.4619398
v -0.2222281 0.02 -0.3325878
v -0.2777851 0.02 -0.4157348
v -0.2828427 0.02 -0.2828428
v -0.296958 0.02 -0.4
v -0.3325878 0.02 -0.2222281
v -0.3535534 0.02 -0.3535534
v -0.3695518 0.02 -0.1530734
v -0.4 0.02 -0.296958
v -0.3923141 0.02 -0.07803613
v -0.4 0.02 0
v -0.4157348 0.02 -0.2777851
v -0.4 0.02 0.296958
v -0.4157348 0.02 0.2777851
v -0.4619398 0.02 -0.1913417
v -0.4619398 0.02 0.1913417
v -0.4903926 0.02 -0.09754515
v -0.4903926 0.02 0.09754515
v -0.5 0.02 0
v -0.3923141 0.02 0.07803613
v -0.3695518 0.02 0.1530734
v -0.3535534 0.02 0.3535534
v -0.3325878 0.02 0.2222281
v -0.296958 0.02 0.4
v -0.2828427 0.02 0.2828427
v -0.2777851 0.02 0.4157348
v -0.2222281 0.02 0.3325878
v -0.1913417 0.02 0.4619398
v -0.1530734 0.02 0.3695518
v -0.09754516 0.02 0.4903926
v -0.07803613 0.02 0.3923141
v 0 0.02 0.4
v 0.5 0.02 0.4
v -0.4 0.01 0
v -0.3923141 0.01 0.07803613
v -0.07803613 0.01 0.3923141
v 0 0.01 0.4
v -0.1530734 0.01 0.3695518
v -0.2222281 0.01 0.3325878
v -0.2828427 0.01 0.2828427
v -0.2619365 0.01 0.3
v -0.3325878 0.01 0.2222281
v -0.3 0.01 0.2619365
v -0.3695518 0.01 0.1530734
v 0.5 0.01 0.4
v -0.07803613 0.01 -0.3923141
v -0.3923141 0.01 -0.07803613
v -0.3695518 0.01 -0.1530734
v -0.3325878 0.01 -0.2222281
v -0.2828427 0.01 -0.2828428
v -0.3 0.01 -0.2619365
v -0.2619365 0.01 -0.3
v -0.2222281 0.01 -0.3325878
v -0.1530734 0.01 -0.3695518
v 0.5 0.01 -0.00999999
v 0.5 0.01 0.00999999
v -0.01 0.01 -0.00999999
v -0.01 0.01 0.00999999
v 0.5 0.01 0.3
v 0.5 0.01 -0.3
v 0 0.01 -0.3
v -0.05852709 0.01 -0.2942356
v -0.0585271 0.01 0.2942356
v 0 0.01 0.3
v -0.114805 0.01 -0.2771639
v -0.114805 0.01 0.2771638
v -0.1666711 0.01 -0.2494409
v -0.1666711 0.01 0.2494409
v -0.212132 0.01 -0.212132
v -0.212132 0.01 0.212132
v -0.2494409 0.01 -0.166671
v -0.2494409 0.01 0.166671
v -0.2771638 0.01 -0.114805
v -0.2771639 0.01 0.114805
v -0.2942356 0.01 -0.05852711
v -0.2942356 0.01 0.05852711
v -0.3 0.01 0

vn 0 0 1
vn 0 0 -1
vn 0 -1 0
vn 0 1 0
vn 0.9951847 0 -0.09801714
vn 0.9807853 0 -0.1950903
vn -0.8314696 0 0.5555702
vn -0.7730104 0 0.6343933
vn -0.7071068 0 0.7071068
vn -0.5555702 0 0.8314696
vn -0.6343933 0 0.7730104
vn 0.1950903 0 -0.9807853
vn 0.09801714 0 -0.9951847
vn 0.3826834 0 -0.9238795
vn 0.5555702 0 -0.8314696
vn 0.7071068 0 -0.7071068
vn 0.6343933 0 -0.7730104
vn 0.8314696 0 -0.5555702
vn 0.7730104 0 -0.6343933
vn 0.9238795 0 -0.3826834
vn 0.09801714 0 0.9951847
vn 0.1950903 0 0.9807853
vn -0.5555702 0 -0.8314696
vn -0.6343933 0 -0.7730104
vn -0.7071068 0 -0.7071068
vn 0.9807853 0 0.1950903
vn 0.9951847 0 0.09801714
vn 0.9238795 0 0.3826834
vn 0.8314696 0 0.5555702
vn 0.7071068 0 0.7071068
vn 0.7730104 0 0.6343933
vn 0.6343933 0 0.7730104
vn 0.5555702 0 0.8314696
vn 0.3826834 0 0.9238795
vn -0.09801714 0 0.9951847
vn -0.1950903 0 0.9807853
vn -0.3826834 0 0.9238795
vn -0.9238795 0 0.3826834
vn -0.9807853 0 0.1950903
vn -0.9951847 0 0.09801714
vn -0.9807853 0 -0.1950903
vn -0.9951847 0 -0.09801714
vn -0.9238795 0 -0.3826834
vn -0.8314696 0 -0.5555702
vn -0.7730104 0 -0.6343933
vn -0.3826834 0 -0.9238795
vn -0.1950903 0 -0.9807853
vn -0.09801714 0 -0.9951847
vn 1 0 0

vt 0 0.3937008
vt 0 0.7874016
vt 19.68504 0.3937008
vt 19.68504 0.7874016
vt -2.842171E-14 0
vt -19.68504 0
vt -2.842171E-14 0.7874016
vt -19.68504 0.7874016
vt 19.68504 19.68504
vt 19.68504 -19.68504
vt 0 19.68504
vt 2.842171E-14 -19.68504
vt -3.840361 -19.3068
vt -3.840361 19.3068
vt -7.533138 18.18661
vt -7.533138 -18.18661
vt -10.93642 16.36751
vt -10.93642 -16.36751
vt -11.69126 15.74803
vt -11.69126 -15.74803
vt -13.91943 13.91943
vt -13.91943 -13.91943
vt -15.74803 11.69126
vt -15.74803 -11.69126
vt -16.36751 10.93642
vt -16.36751 -10.93642
vt -18.18661 7.533138
vt -18.18661 -7.533138
vt -19.3068 3.840361
vt -19.3068 -3.840361
vt -19.68504 8.484704E-34
vt 19.68504 0
vt 0 0
vt -19.68504 -19.68504
vt -19.68504 -15.74803
vt -2.84196E-14 -19.68504
vt 2.110474E-18 -15.74803
vt 3.840361 -19.3068
vt 3.072289 -15.44544
vt 6.026511 -14.54928
vt 7.533138 -18.18661
vt 8.749138 -13.09401
vt 10.93642 -16.36751
vt 11.13554 -11.13554
vt 11.69126 -15.74803
vt 13.09401 -8.749138
vt 13.91943 -13.91943
vt 14.54928 -6.026511
vt 15.74803 -11.69126
vt 15.44544 -3.072289
vt 15.74803 1.515731E-17
vt 16.36751 -10.93642
vt 15.74803 11.69126
vt 16.36751 10.93642
vt 18.18661 -7.533138
vt 18.18661 7.533138
vt 19.3068 -3.840361
vt 19.3068 3.840361
vt 19.68504 1.515731E-17
vt 15.44544 3.072289
vt 14.54928 6.026511
vt 13.91943 13.91943
vt 13.09401 8.749138
vt 11.69126 15.74803
vt 11.13554 11.13554
vt 10.93642 16.36751
vt 8.749138 13.09401
vt 7.533138 18.18661
vt 6.026511 14.54928
vt 3.840361 19.3068
vt 3.072289 15.44544
vt 2.110474E-18 19.68504
vt 2.110474E-18 15.74803
vt -19.68504 19.68504
vt -19.68504 15.74803
vt 1.543577 0.7874016
vt 1.543577 0.3937008
vt -1.543577 0.7874016
vt -1.543577 0.3937008
vt -1.929471 3.589372E-15
vt -1.929471 0.7874016
vt -0.9529783 3.700394E-15
vt -0.9529783 0.7874016
vt 1.929471 3.866928E-15
vt 1.929471 0.7874016
vt 1.929471 -4.263112E-16
vt 0.9529783 -4.263112E-16
vt -1.929471 -2.597778E-16
vt 0.9529783 0.7874016
vt 0.4788057 0.3937008
vt -0.4788057 0.3937008
vt -19.68504 0.3937008
vt -1.929471 -1.138467E-16
vt -0.9529783 2.192202E-16
vt 1.929471 1.495977E-15
vt 1.929471 -1.188772E-16
vt -1.929471 2.141897E-16
vt 1.929471 -1.038968E-16
vt -1.929471 -1.038968E-16
vt -1.929471 -1.863649E-16
vt 1.929471 -7.53426E-17
vt -1.929471 -1.248945E-16
vt 1.929471 -1.248945E-16
vt -1.929471 -1.568508E-16
vt 1.929471 -4.582848E-17
vt -1.929471 -4.811981E-16
vt 1.929471 -3.701759E-16
vt 1.929471 -2.298995E-16
vt -1.929471 -3.777727E-17
vt 1.929471 7.324504E-17
vt -1.929471 7.600765E-18
vt 1.929471 7.600765E-18
vt -1.929471 1.309061E-15
vt 0.9529783 1.433263E-16
vt 1.929471 -1.897406E-16
vt -1.929471 -3.734371E-17
vt 1.929471 7.367859E-17
vt 1.929471 2.777314E-17
vt -1.929471 2.777314E-17
vt 1.929471 0
vt -1.929471 0
vt -19.68504 -0.3937008
vt 0.3937008 -0.3937008
vt 0.3937008 0.3937008
vt -15.74803 0.7874016
vt -15.74803 0.3937008
vt -19.68504 1.725924E-13
vt -11.81102 0.3937008
vt -0.3937008 0.3937008
vt 11.81102 0.3937008
vt 15.74803 0.3937008
vt 19.68504 1.725924E-13
vt 15.74803 0.7874016
vt -19.68504 -11.81102
vt -4.212554E-17 -11.81102
vt 2.304216 -11.58408
vt 2.304216 11.58408
vt -4.212554E-17 11.81102
vt -19.68504 11.81102
vt 4.519883 -10.91196
vt 4.519883 10.91196
vt 6.561853 -9.820507
vt 6.561853 9.820507
vt 8.351655 -8.351655
vt 8.351655 8.351655
vt 9.820507 -6.561853
vt 9.820507 6.561853
vt 10.91196 -4.519883
vt 10.91196 4.519883
vt 11.58408 -2.304216
vt 11.58408 2.304216
vt 11.81102 -8.799898E-08
vt -4.212554E-17 -15.74803
vt 10.31246 -11.81102
vt 11.81102 -10.31246
vt 11.81102 10.31246
vt 15.74803 -8.178388E-17
vt 10.31246 11.81102
vt -4.212554E-17 15.74803

usemtl pavement

f 3/3/1 2/2/1 1/1/1
f 2/2/1 3/3/1 4/4/1
f 7/7/2 6/6/2 5/5/2
f 6/6/2 7/7/2 8/8/2
f 10/11/3 6/10/3 9/9/3
f 6/10/3 10/11/3 5/12/3
f 5/12/3 10/11/3 11/13/3
f 11/13/3 10/11/3 12/14/3
f 11/13/3 12/14/3 13/15/3
f 11/13/3 13/15/3 14/16/3
f 14/16/3 13/15/3 15/17/3
f 14/16/3 15/17/3 16/18/3
f 16/18/3 15/17/3 17/19/3
f 16/18/3 17/19/3 18/20/3
f 18/20/3 17/19/3 19/21/3
f 18/20/3 19/21/3 20/22/3
f 20/22/3 19/21/3 21/23/3
f 20/22/3 21/23/3 22/24/3
f 22/24/3 21/23/3 23/25/3
f 22/24/3 23/25/3 24/26/3
f 24/26/3 23/25/3 25/27/3
f 24/26/3 25/27/3 26/28/3
f 26/28/3 25/27/3 27/29/3
f 26/28/3 27/29/3 28/30/3
f 28/30/3 27/29/3 29/31/3
f 30/4/1 10/33/1 9/32/1
f 10/33/1 30/4/1 31/2/1
f 7/36/4 4/35/4 8/34/4
f 4/35/4 7/36/4 2/37/4
f 2/37/4 7/36/4 32/38/4
f 2/37/4 32/38/4 33/39/4
f 33/39/4 32/38/4 34/40/4
f 34/40/4 32/38/4 35/41/4
f 34/40/4 35/41/4 36/42/4
f 36/42/4 35/41/4 37/43/4
f 36/42/4 37/43/4 38/44/4
f 38/44/4 37/43/4 39/45/4
f 38/44/4 39/45/4 40/46/4
f 40/46/4 39/45/4 41/47/4
f 40/46/4 41/47/4 42/48/4
f 42/48/4 41/47/4 43/49/4
f 42/48/4 43/49/4 44/50/4
f 44/50/4 43/49/4 45/51/4
f 45/51/4 43/49/4 46/52/4
f 45/51/4 46/52/4 47/53/4
f 47/53/4 46/52/4 48/54/4
f 48/54/4 46/52/4 49/55/4
f 48/54/4 49/55/4 50/56/4
f 50/56/4 49/55/4 51/57/4
f 50/56/4 51/57/4 52/58/4
f 52/58/4 51/57/4 53/59/4
f 47/53/4 54/60/4 45/51/4
f 47/53/4 55/61/4 54/60/4
f 56/62/4 55/61/4 47/53/4
f 56/62/4 57/63/4 55/61/4
f 58/64/4 57/63/4 56/62/4
f 58/64/4 59/65/4 57/63/4
f 60/66/4 59/65/4 58/64/4
f 60/66/4 61/67/4 59/65/4
f 62/68/4 61/67/4 60/66/4
f 62/68/4 63/69/4 61/67/4
f 64/70/4 63/69/4 62/68/4
f 64/70/4 65/71/4 63/69/4
f 31/72/4 65/71/4 64/70/4
f 31/72/4 66/73/4 65/71/4
f 30/74/4 66/73/4 31/72/4
f 66/73/4 30/74/4 67/75/4
f 54/78/6 68/77/5 45/76/5
f 68/77/5 54/78/6 69/79/6
f 21/82/8 48/81/7 23/80/7
f 48/81/7 21/82/8 47/83/8
f 47/83/8 21/82/8 19/84/9
f 47/83/8 19/84/9 56/85/9
f 60/85/10 17/87/11 15/86/10
f 17/87/11 60/85/10 19/88/9
f 19/88/9 60/85/10 56/81/9
f 56/81/9 60/85/10 58/89/11
f 65/76/12 71/79/13 70/77/12
f 71/79/13 65/76/12 66/78/13
f 63/76/14 70/79/12 72/77/14
f 70/79/12 63/76/14 65/78/12
f 61/76/15 72/79/14 73/77/15
f 72/79/14 61/76/15 63/78/14
f 59/76/16 75/90/17 74/77/16
f 61/78/15 75/90/17 59/76/16
f 75/90/17 61/78/15 73/79/15
f 59/78/16 76/77/18 57/76/18
f 76/77/18 59/78/16 77/91/19
f 77/91/19 59/78/16 74/79/16
f 57/78/18 78/77/20 55/76/20
f 78/77/20 57/78/18 76/79/18
f 55/78/20 69/77/6 54/76/6
f 69/77/6 55/78/20 78/79/20
f 66/2/2 79/92/2 71/1/2
f 79/92/2 66/2/2 67/8/2
f 2/76/21 80/79/22 1/77/21
f 80/79/22 2/76/21 33/78/22
f 18/94/24 37/81/23 16/93/23
f 37/81/23 18/94/24 20/95/25
f 37/81/23 20/95/25 41/85/25
f 37/81/23 41/85/25 39/83/24
f 45/78/27 81/77/26 44/76/26
f 81/77/26 45/78/27 68/79/27
f 44/78/26 82/77/28 42/76/28
f 82/77/28 44/78/26 81/79/26
f 42/78/28 83/77/29 40/76/29
f 83/77/29 42/78/28 82/79/28
f 40/78/29 84/77/30 38/76/30
f 84/77/30 40/78/29 85/90/31
f 85/90/31 40/78/29 83/79/29
f 87/77/33 84/79/30 86/91/32
f 84/79/30 87/77/33 36/76/33
f 84/79/30 36/76/33 38/78/30
f 34/76/34 87/79/33 88/77/34
f 87/79/33 34/76/34 36/78/33
f 33/76/22 88/79/34 80/77/22
f 88/79/34 33/76/22 34/78/34
f 31/85/35 12/97/36 10/96/35
f 12/97/36 31/85/35 64/81/36
f 64/85/36 13/99/37 12/98/36
f 13/99/37 64/85/36 62/81/37
f 13/101/37 60/81/10 15/100/10
f 60/81/10 13/101/37 62/85/37
f 23/103/7 50/81/38 25/102/38
f 50/81/38 23/103/7 48/85/7
f 25/105/38 52/81/39 27/104/39
f 52/81/39 25/105/38 50/85/38
f 27/107/39 53/81/40 29/106/40
f 53/81/40 27/107/39 52/85/39
f 29/108/42 51/81/41 28/97/41
f 51/81/41 29/108/42 53/85/42
f 28/110/41 49/81/43 26/109/43
f 49/81/43 28/110/41 51/85/41
f 26/112/43 46/81/44 24/111/44
f 46/81/44 26/112/43 49/85/43
f 22/114/45 41/81/25 20/113/25
f 41/81/25 22/114/45 43/89/45
f 43/89/45 22/114/45 24/115/44
f 43/89/45 24/115/44 46/85/44
f 16/117/23 35/81/46 14/116/46
f 35/81/46 16/117/23 37/85/23
f 35/85/46 11/119/47 14/118/46
f 11/119/47 35/85/46 32/81/47
f 32/85/47 5/121/48 11/120/47
f 5/121/48 32/85/47 7/81/48

usemtl line

f 91/123/4 90/92/4 89/122/4
f 90/92/4 91/123/4 92/124/4

usemtl asphalt

f 30/8/49 79/126/49 67/125/49
f 9/127/49 79/126/49 30/8/49
f 9/127/49 93/128/49 79/126/49
f 9/127/49 90/129/49 93/128/49
f 9/127/49 89/124/49 90/129/49
f 9/127/49 94/130/49 89/124/49
f 9/127/49 3/131/49 94/130/49
f 6/132/49 3/131/49 9/127/49
f 6/132/49 4/133/49 3/131/49
f 4/133/49 6/132/49 8/4/49
f 95/135/4 89/122/4 94/134/4
f 89/122/4 95/135/4 91/123/4
f 91/123/4 95/135/4 96/136/4
f 91/123/4 96/136/4 92/124/4
f 97/137/4 92/124/4 96/136/4
f 98/138/4 92/124/4 97/137/4
f 98/138/4 90/92/4 92/124/4
f 90/92/4 98/138/4 93/139/4
f 97/137/4 96/136/4 99/140/4
f 97/137/4 99/140/4 100/141/4
f 100/141/4 99/140/4 101/142/4
f 100/141/4 101/142/4 102/143/4
f 102/143/4 101/142/4 103/144/4
f 102/143/4 103/144/4 104/145/4
f 104/145/4 103/144/4 105/146/4
f 104/145/4 105/146/4 106/147/4
f 106/147/4 105/146/4 107/148/4
f 106/147/4 107/148/4 108/149/4
f 108/149/4 107/148/4 109/150/4
f 108/149/4 109/150/4 110/151/4
f 110/151/4 109/150/4 111/152/4

usemtl asphaltEdge

f 1/153/4 94/134/4 3/35/4
f 94/134/4 1/153/4 95/135/4
f 95/135/4 1/153/4 80/39/4
f 95/135/4 80/39/4 96/136/4
f 96/136/4 80/39/4 99/140/4
f 99/140/4 80/39/4 88/40/4
f 99/140/4 88/40/4 101/142/4
f 101/142/4 88/40/4 87/42/4
f 101/142/4 87/42/4 103/144/4
f 103/144/4 87/42/4 105/146/4
f 105/146/4 87/42/4 86/154/4
f 105/146/4 86/154/4 107/148/4
f 107/148/4 86/154/4 84/44/4
f 107/148/4 84/44/4 109/150/4
f 109/150/4 84/44/4 85/155/4
f 109/150/4 85/155/4 111/152/4
f 111/152/4 85/155/4 83/46/4
f 111/152/4 83/46/4 77/156/4
f 77/156/4 83/46/4 76/63/4
f 76/63/4 83/46/4 82/48/4
f 76/63/4 82/48/4 78/61/4
f 78/61/4 82/48/4 81/50/4
f 78/61/4 81/50/4 69/60/4
f 69/60/4 81/50/4 68/157/4
f 77/156/4 110/151/4 111/152/4
f 74/65/4 110/151/4 77/156/4
f 74/65/4 108/149/4 110/151/4
f 75/158/4 108/149/4 74/65/4
f 75/158/4 106/147/4 108/149/4
f 73/67/4 106/147/4 75/158/4
f 73/67/4 104/145/4 106/147/4
f 73/67/4 102/143/4 104/145/4
f 72/69/4 102/143/4 73/67/4
f 72/69/4 100/141/4 102/143/4
f 70/71/4 100/141/4 72/69/4
f 70/71/4 97/137/4 100/141/4
f 71/159/4 97/137/4 70/71/4
f 71/159/4 98/138/4 97/137/4
f 79/75/4 98/138/4 71/159/4
f 98/138/4 79/75/4 93/139/4

