# Created by Kenney (www.kenney.nl)

mtllib road_intersectionLine.mtl

g road_intersectionLine

v -0.5 0 0.5
v 0.4 0.01 0.5
v 0.5 0 0.5
v 0.5 0.02 0.5
v 0.3 0.01 0.5
v 0.4 0.02 0.5
v -0.3 0.01 0.5
v -0.4 0.01 0.5
v -0.5 0.02 0.5
v 0.01000001 0.01 0.5
v -0.009999992 0.01 0.5
v -0.4 0.02 0.5
v -0.5 0.02 -0.5
v -0.5 0.01 -0.4
v -0.5 0 -0.5
v -0.5 0.01 -0.3
v -0.5 0.01 -0.00999999
v -0.5 0.01 0.00999999
v -0.5 0.01 0.3
v -0.5 0.01 0.4
v -0.5 0.02 0.4
v -0.5 0.02 -0.4
v 0.5 0.02 0.4
v 0.5 0.01 0.4
v 0.5 0.01 0.3
v 0.5 0.01 0.00999999
v 0.5 0.01 -0.00999999
v 0.5 0.01 -0.3
v 0.5 0.01 -0.4
v 0.5 0 -0.5
v 0.5 0.02 -0.4
v 0.5 0.02 -0.5
v 0.3 0.01 0.3
v 0.01000001 0.01 0.00999999
v -0.009999992 0.01 0.00999999
v -0.3 0.01 0.3
v -0.4 0.01 0.4
v -0.4 0.02 0.4
v 0.4 0.02 0.4
v 0.4 0.01 0.4

vn 0 0 1
vn -1 0 0
vn 1 0 0
vn 0 1 0
vn 0 0 -1
vn 0 -1 0

vt -19.68504 -4.173215E-07
vt 15.74803 0.3937004
vt 19.68504 -4.173215E-07
vt 19.68504 0.7874011
vt 11.81102 0.3937004
vt 15.74803 0.7874011
vt -11.81102 0.3937004
vt -15.74803 0.3937004
vt -19.68504 0.7874011
vt 0.3937014 0.3937004
vt -0.3937002 0.3937004
vt -15.74803 0.7874011
vt -19.68504 0.7874016
vt -15.74803 0.3937008
vt -19.68504 -9.488882E-15
vt 19.68504 -9.488882E-15
vt -11.81102 0.3937008
vt -0.3937002 0.3937008
vt 0.3937014 0.3937008
vt 11.81102 0.3937008
vt 15.74803 0.3937008
vt 15.74803 0.7874016
vt 19.68504 0.7874016
vt -15.74803 0.7874016
vt -15.74803 0.7874021
vt -15.74803 0.3937013
vt -19.68504 0.7874021
vt -19.68504 5.089292E-07
vt -11.81102 0.3937013
vt -0.3937008 0.3937013
vt 0.3937008 0.3937013
vt 11.81102 0.3937013
vt 15.74803 0.3937013
vt 19.68504 5.089292E-07
vt 15.74803 0.7874021
vt 19.68504 0.7874021
vt -19.68504 -11.81102
vt -19.68504 -0.3937005
vt 19.68504 -11.81102
vt 19.68504 -0.3937005
vt -19.68504 11.81102
vt -11.81102 11.81102
vt -19.68504 0.3937011
vt -0.3937011 0.3937011
vt -11.81102 19.68504
vt -0.3937011 19.68504
vt 0.3937005 0.3937011
vt 0.3937005 19.68504
vt 19.68504 0.3937011
vt 11.81102 11.81102
vt 19.68504 11.81102
vt 11.81102 19.68504
vt 19.68504 0
vt -19.68504 0
vt -19.68504 -19.68504
vt -19.68504 -15.74803
vt 19.68504 -19.68504
vt 19.68504 -15.74803
vt 19.68504 19.68504
vt -19.68504 19.68504
vt 19.68504 0.3937008
vt -19.68504 0.3937008
vt 15.74803 15.74803
vt 15.74803 19.68504
vt 19.68504 15.74803
vt -19.68504 15.74803
vt -15.74803 15.74803
vt -15.74803 19.68504

usemtl asphalt

f 3/3/1 2/2/1 1/1/1
f 2/2/1 3/3/1 4/4/1
f 1/1/1 2/2/1 5/5/1
f 2/2/1 4/4/1 6/6/1
f 7/7/1 1/1/1 5/5/1
f 8/8/1 1/1/1 7/7/1
f 1/1/1 8/8/1 9/9/1
f 7/7/1 5/5/1 10/10/1
f 7/7/1 10/10/1 11/11/1
f 9/9/1 8/8/1 12/12/1
f 15/15/2 14/14/2 13/13/2
f 14/14/2 15/15/2 1/16/2
f 14/14/2 1/16/2 16/17/2
f 16/17/2 1/16/2 17/18/2
f 17/18/2 1/16/2 18/19/2
f 18/19/2 1/16/2 19/20/2
f 19/20/2 1/16/2 20/21/2
f 20/21/2 1/16/2 21/22/2
f 21/22/2 1/16/2 9/23/2
f 22/24/2 13/13/2 14/14/2
f 4/27/3 24/26/3 23/25/3
f 24/26/3 4/27/3 3/28/3
f 3/28/3 25/29/3 24/26/3
f 3/28/3 26/30/3 25/29/3
f 3/28/3 27/31/3 26/30/3
f 3/28/3 28/32/3 27/31/3
f 3/28/3 29/33/3 28/32/3
f 30/34/3 29/33/3 3/28/3
f 30/34/3 31/35/3 29/33/3
f 31/35/3 30/34/3 32/36/3
f 16/39/4 27/38/4 28/37/4
f 27/38/4 16/39/4 17/40/4
f 26/43/4 33/42/4 25/41/4
f 33/42/4 26/43/4 34/44/4
f 33/42/4 34/44/4 5/45/4
f 5/45/4 34/44/4 10/46/4
f 18/49/4 11/48/4 35/47/4
f 11/48/4 18/49/4 36/50/4
f 36/50/4 18/49/4 19/51/4
f 7/52/4 11/48/4 36/50/4

usemtl pavement

f 13/23/5 30/54/5 15/53/5
f 30/54/5 13/23/5 32/13/5
f 13/57/4 31/56/4 32/55/4
f 31/56/4 13/57/4 22/58/4
f 3/59/6 15/55/6 30/57/6
f 15/55/6 3/59/6 1/60/6
f 21/23/5 37/21/5 20/61/5
f 37/21/5 21/23/5 38/22/5
f 31/23/1 14/62/1 29/61/1
f 14/62/1 31/23/1 22/13/1
f 12/13/3 37/14/3 38/24/3
f 37/14/3 12/13/3 8/62/3
f 21/65/4 12/64/4 38/63/4
f 12/64/4 21/65/4 9/59/4
f 39/67/4 4/60/4 23/66/4
f 4/60/4 39/67/4 6/68/4
f 39/24/5 24/62/5 40/14/5
f 24/62/5 39/24/5 23/13/5
f 2/61/2 39/22/2 40/21/2
f 39/22/2 2/61/2 6/23/2

usemtl asphaltEdge

f 19/51/4 7/52/4 36/50/4
f 7/52/4 19/51/4 37/63/4
f 37/63/4 19/51/4 20/65/4
f 8/64/4 7/52/4 37/63/4
f 14/58/4 28/37/4 29/56/4
f 28/37/4 14/58/4 16/39/4
f 33/42/4 24/66/4 25/41/4
f 24/66/4 33/42/4 40/67/4
f 40/67/4 33/42/4 2/68/4
f 2/68/4 33/42/4 5/45/4

usemtl line

f 17/40/4 26/43/4 27/38/4
f 26/43/4 17/40/4 34/44/4
f 34/44/4 17/40/4 35/47/4
f 34/44/4 35/47/4 10/46/4
f 35/47/4 17/40/4 18/49/4
f 11/48/4 10/46/4 35/47/4

