# Created by Kenney (www.kenney.nl)

mtllib road_bendSquare.mtl

g road_bendSquare

v 0.5 0 0.5
v 0.5 0 -0.5
v -0.5 0 0.5
v -0.5 0 -0.5
v 0.5 0.02 -0.5
v 0.5 0.02 0.5
v -0.5 0.02 -0.5
v -0.4 0.02 0.4
v -0.4 0.02 0.5
v -0.5 0.02 0.4
v -0.5 0.02 0.5
v -0.4 0.01 0.4
v -0.4 0.01 0.5
v -0.5 0.01 0.4
v 0.4 0.02 -0.4
v -0.5 0.02 -0.4
v 0.4 0.02 0.5
v 0.4 0.01 -0.4
v -0.5 0.01 -0.4
v 0.4 0.01 0.5
v -0.5 0.01 -0.3
v -0.5 0.01 -0.00999999
v -0.5 0.01 0.00999999
v -0.5 0.01 0.3
v 0.3 0.01 0.5
v 0.01 0.01 0.5
v -0.01 0.01 0.5
v -0.3 0.01 0.5
v -0.01 0.01 0.00999999
v -0.3 0.01 0.3
v 0.01 0.01 -0.00999999
v 0.3 0.01 -0.3

vn 0 -1 0
vn 1 0 0
vn 0 0 -1
vn 0 1 0
vn 0 0 1
vn -1 0 0

vt 19.68504 19.68504
vt 19.68504 -19.68504
vt -19.68504 19.68504
vt -19.68504 -19.68504
vt 19.68504 0.7874016
vt 19.68504 0
vt -19.68504 0.7874016
vt -19.68504 0
vt 15.74803 15.74803
vt 15.74803 19.68504
vt 19.68504 15.74803
vt -15.74803 0.7874016
vt -15.74803 0.3937008
vt -19.68504 0.3937008
vt 19.68504 0.3937008
vt 15.74803 0.3937008
vt 15.74803 0.7874016
vt -15.74803 -15.74803
vt 19.68504 -15.74803
vt -15.74803 19.68504
vt -19.68504 -1.972485E-13
vt 19.68504 -1.972485E-13
vt -11.81102 0.3937008
vt -0.3937008 0.3937008
vt 0.3937008 0.3937008
vt 11.81102 0.3937008
vt -19.68504 -2.725615E-11
vt 19.68504 -2.725615E-11
vt 0.3937008 19.68504
vt 11.81102 11.81102
vt 19.68504 11.81102
vt 11.81102 19.68504
vt -11.81102 19.68504
vt -0.3937008 -0.3937008
vt -11.81102 -11.81102
vt 19.68504 -11.81102
vt 19.68504 -0.3937008
vt -0.3937008 19.68504

usemtl pavement

f 3/3/1 2/2/1 1/1/1
f 2/2/1 3/3/1 4/4/1
f 6/7/2 2/6/2 5/5/2
f 2/6/2 6/7/2 1/8/2
f 7/5/3 2/8/3 4/6/3
f 2/8/3 7/5/3 5/7/3
f 10/11/4 9/10/4 8/9/4
f 9/10/4 10/11/4 11/1/4
f 9/7/2 12/13/2 8/12/2
f 12/13/2 9/7/2 13/14/2
f 10/5/3 12/16/3 14/15/3
f 12/16/3 10/5/3 8/17/3
f 5/4/4 15/18/4 6/3/4
f 15/18/4 5/4/4 7/2/4
f 15/18/4 7/2/4 16/19/4
f 17/20/4 6/3/4 15/18/4
f 15/17/5 19/14/5 18/16/5
f 19/14/5 15/17/5 16/7/5
f 20/15/6 15/12/6 18/13/6
f 15/12/6 20/15/6 17/5/6

usemtl asphalt

f 4/21/6 19/13/6 7/7/6
f 19/13/6 4/21/6 3/22/6
f 19/13/6 3/22/6 21/23/6
f 21/23/6 3/22/6 22/24/6
f 22/24/6 3/22/6 23/25/6
f 23/25/6 3/22/6 24/26/6
f 24/26/6 3/22/6 14/16/6
f 14/16/6 3/22/6 10/17/6
f 10/17/6 3/22/6 11/5/6
f 16/12/6 7/7/6 19/13/6
f 1/28/5 20/16/5 3/27/5
f 20/16/5 1/28/5 6/5/5
f 20/16/5 6/5/5 17/17/5
f 13/13/5 3/27/5 20/16/5
f 3/27/5 13/13/5 11/7/5
f 13/13/5 20/16/5 25/26/5
f 13/13/5 25/26/5 26/25/5
f 13/13/5 26/25/5 27/24/5
f 13/13/5 27/24/5 28/23/5
f 11/7/5 13/13/5 9/12/5
f 23/15/4 27/29/4 29/25/4
f 27/29/4 23/15/4 30/30/4
f 30/30/4 23/15/4 24/31/4
f 28/32/4 27/29/4 30/30/4
f 32/35/4 31/34/4 25/33/4
f 31/34/4 32/35/4 21/36/4
f 31/34/4 21/36/4 22/37/4
f 26/38/4 25/33/4 31/34/4

usemtl asphaltEdge

f 24/31/4 28/32/4 30/30/4
f 28/32/4 24/31/4 12/9/4
f 12/9/4 24/31/4 14/11/4
f 13/10/4 28/32/4 12/9/4
f 18/18/4 32/35/4 20/20/4
f 32/35/4 18/18/4 19/19/4
f 32/35/4 19/19/4 21/36/4
f 25/33/4 20/20/4 32/35/4

usemtl line

f 31/34/4 29/25/4 26/38/4
f 29/25/4 31/34/4 22/37/4
f 29/25/4 22/37/4 23/15/4
f 27/29/4 26/38/4 29/25/4

