# Created by Kenney (www.kenney.nl)

mtllib road_slant.mtl

g road_slant

v -0.5 0.02 -0.5
v -0.5 0.01 -0.4
v -0.5 0 -0.5
v -0.5 0 0.5
v -0.5 0.01 -0.3
v -0.5 0.01 -0.00999999
v -0.5 0.01 0.00999999
v -0.5 0.01 0.3
v -0.5 0.01 0.4
v -0.5 0.02 0.4
v -0.5 0.02 0.5
v -0.5 0.02 -0.4
v 0.5 0.27 0.4
v 0.5 0.27 0.5
v 0.5 0 0.5
v 0.5 0 -0.5
v 0.5 0.27 -0.5
v 0.5 0.26 0.4
v 0.5 0.27 -0.4
v 0.5 0.26 -0.4
v 0.5 0.26 0.3
v 0.5 0.26 0.00999999
v 0.5 0.26 -0.00999999
v 0.5 0.26 -0.3

vn -1 0 0
vn -0.2425356 0.9701425 0
vn 0 0 1
vn 0 0 -1
vn 0 -1 0
vn 1 0 0

vt -19.68504 0.7874016
vt -15.74803 0.3937008
vt -19.68504 -4.179663E-13
vt 19.68504 -4.179663E-13
vt -11.81102 0.3937008
vt -0.3937008 0.3937008
vt 0.3937008 0.3937008
vt 11.81102 0.3937008
vt 15.74803 0.3937008
vt 15.74803 0.7874016
vt 19.68504 0.7874016
vt -15.74803 0.7874016
vt 15.74803 21.67543
vt 19.68504 21.67543
vt 15.74803 -18.90632
vt 19.68504 -18.90632
vt 19.68504 0
vt -19.68504 0
vt 19.68504 10.62992
vt -19.68504 10.62992
vt 19.68504 0.3937008
vt -19.68504 10.23622
vt 19.68504 19.68504
vt 19.68504 -19.68504
vt -19.68504 19.68504
vt -19.68504 -19.68504
vt -19.68504 21.67543
vt -15.74803 21.67543
vt -19.68504 -18.90632
vt -15.74803 -18.90632
vt -19.68504 0.3937008
vt 19.68504 10.23622
vt -15.74803 10.62992
vt -15.74803 10.23622
vt -19.68504 -2.930073E-14
vt -11.81102 10.23622
vt -0.3937008 10.23622
vt 0.3937008 10.23622
vt 11.81102 10.23622
vt 15.74803 10.23622
vt 19.68504 -2.930073E-14
vt 15.74803 10.62992
vt -15.74803 21.57994
vt -11.81102 21.57994
vt -15.74803 -19.00181
vt -11.81102 -19.00181
vt 11.81102 21.57994
vt 15.74803 21.57994
vt 11.81102 -19.00181
vt 15.74803 -19.00181
vt -0.3937008 21.57994
vt 0.3937008 21.57994
vt -0.3937008 -19.00181
vt 0.3937008 -19.00181

usemtl pavement

f 3/3/1 2/2/1 1/1/1
f 2/2/1 3/3/1 4/4/1
f 2/2/1 4/4/1 5/5/1
f 5/5/1 4/4/1 6/6/1
f 6/6/1 4/4/1 7/7/1
f 7/7/1 4/4/1 8/8/1
f 8/8/1 4/4/1 9/9/1
f 9/9/1 4/4/1 10/10/1
f 10/10/1 4/4/1 11/11/1
f 12/12/1 1/1/1 2/2/1
f 10/15/2 14/14/2 13/13/2
f 14/14/2 10/15/2 11/16/2
f 14/19/3 4/18/3 15/17/3
f 4/18/3 14/19/3 11/1/3
f 1/11/4 16/18/4 3/17/4
f 16/18/4 1/11/4 17/20/4
f 10/11/4 18/22/4 9/21/4
f 18/22/4 10/11/4 13/20/4
f 4/25/5 16/24/5 15/23/5
f 16/24/5 4/25/5 3/26/5
f 1/29/2 19/28/2 17/27/2
f 19/28/2 1/29/2 12/30/2
f 20/32/3 12/1/3 2/31/3
f 12/1/3 20/32/3 19/19/3
f 14/20/6 18/34/6 13/33/6
f 15/35/6 18/34/6 14/20/6
f 15/35/6 21/36/6 18/34/6
f 15/35/6 22/37/6 21/36/6
f 15/35/6 23/38/6 22/37/6
f 15/35/6 24/39/6 23/38/6
f 15/35/6 20/40/6 24/39/6
f 16/41/6 20/40/6 15/35/6
f 16/41/6 19/42/6 20/40/6
f 19/42/6 16/41/6 17/19/6

usemtl asphaltEdge

f 2/45/2 24/44/2 20/43/2
f 24/44/2 2/45/2 5/46/2
f 8/49/2 18/48/2 21/47/2
f 18/48/2 8/49/2 9/50/2

usemtl line

f 6/53/2 22/52/2 23/51/2
f 22/52/2 6/53/2 7/54/2

usemtl asphalt

f 5/46/2 23/51/2 24/44/2
f 23/51/2 5/46/2 6/53/2
f 22/52/2 8/49/2 21/47/2
f 8/49/2 22/52/2 7/54/2

