# Created by Kenney (www.kenney.nl)

mtllib road_intersectionPath.mtl

g road_intersectionPath

v -0.5 0 0.5
v 0.4 0.01 0.5
v 0.5 0 0.5
v 0.5 0.02 0.5
v 0.3 0.01 0.5
v 0.4 0.02 0.5
v -0.3 0.01 0.5
v -0.4 0.01 0.5
v -0.5 0.02 0.5
v -0.4 0.02 0.5
v -0.5 0.02 -0.5
v -0.5 0.01 -0.4
v -0.5 0 -0.5
v -0.5 0.01 -0.3
v -0.5 0.01 0.3
v -0.5 0.01 0.4
v -0.5 0.02 0.4
v -0.5 0.02 -0.4
v 0.5 0.02 0.4
v 0.5 0.01 0.4
v 0.5 0.01 0.3
v 0.5 0.01 -0.3
v 0.5 0.01 -0.4
v 0.5 0 -0.5
v 0.5 0.02 -0.4
v 0.5 0.02 -0.5
v 0.3 0.01 0.3
v 0.45 0.01 0.275
v 0.45 0.01 -0.275
v 0.45 0.01 -0.225
v 0.45 0.01 -0.175
v 0.45 0.01 -0.125
v 0.45 0.01 -0.07499999
v 0.45 0.01 -0.02499998
v 0.45 0.01 0.02500004
v 0.45 0.01 0.07499999
v 0.45 0.01 0.125
v 0.45 0.01 0.175
v 0.45 0.01 0.225
v 0.3 0.01 0.275
v 0.3 0.01 0.175
v 0.3 0.01 0.225
v 0.3 0.01 0.07499999
v 0.3 0.01 0.125
v 0.3 0.01 -0.02499998
v 0.3 0.01 0.02500004
v 0.3 0.01 -0.125
v 0.3 0.01 -0.07499999
v -0.3 0.01 -0.275
v 0.3 0.01 -0.175
v 0.3 0.01 -0.225
v 0.3 0.01 -0.275
v -0.45 0.01 -0.275
v -0.45 0.01 -0.225
v -0.45 0.01 -0.175
v -0.45 0.01 -0.125
v -0.45 0.01 -0.07499999
v -0.45 0.01 -0.02499998
v -0.45 0.01 0.02500004
v -0.45 0.01 0.07499999
v -0.45 0.01 0.125
v -0.45 0.01 0.175
v -0.45 0.01 0.225
v -0.45 0.01 0.275
v -0.3 0.01 0.3
v -0.3 0.01 0.275
v -0.3 0.01 0.225
v -0.3 0.01 0.175
v -0.3 0.01 0.125
v -0.3 0.01 0.07499999
v -0.3 0.01 0.02500004
v -0.3 0.01 -0.02499998
v -0.275 0.01 0.3
v -0.275 0.01 0.45
v -0.225 0.01 0.45
v -0.175 0.01 0.45
v -0.125 0.01 0.45
v -0.075 0.01 0.45
v -0.025 0.01 0.45
v 0.025 0.01 0.45
v 0.075 0.01 0.45
v 0.125 0.01 0.45
v 0.175 0.01 0.45
v 0.225 0.01 0.45
v 0.275 0.01 0.45
v 0.275 0.01 0.3
v 0.225 0.01 0.3
v 0.175 0.01 0.3
v 0.125 0.01 0.3
v 0.075 0.01 0.3
v 0.025 0.01 0.3
v -0.025 0.01 0.3
v -0.075 0.01 0.3
v -0.125 0.01 0.3
v -0.175 0.01 0.3
v -0.225 0.01 0.3
v -0.3 0.01 -0.225
v -0.3 0.01 -0.175
v -0.3 0.01 -0.125
v -0.3 0.01 -0.07499999
v -0.4 0.01 0.4
v -0.4 0.02 0.4
v 0.4 0.02 0.4
v 0.4 0.01 0.4

vn 0 0 1
vn -1 0 0
vn 1 0 0
vn 0 1 0
vn 0 0 -1
vn 0 -1 0

vt -19.68504 4.060244E-13
vt 15.74803 0.3937008
vt 19.68504 4.060244E-13
vt 19.68504 0.7874016
vt 11.81102 0.3937008
vt 15.74803 0.7874016
vt -11.81102 0.3937008
vt -15.74803 0.3937008
vt -19.68504 0.7874016
vt -15.74803 0.7874016
vt -19.68504 -9.488882E-15
vt 19.68504 -9.488882E-15
vt -15.74803 0.7874021
vt -15.74803 0.3937013
vt -19.68504 0.7874021
vt -19.68504 5.089292E-07
vt -11.81102 0.3937013
vt 11.81102 0.3937013
vt 15.74803 0.3937013
vt 19.68504 5.089292E-07
vt 15.74803 0.7874021
vt 19.68504 0.7874021
vt -11.81102 11.81102
vt -17.71654 10.82677
vt -19.68504 11.81102
vt -17.71654 -10.82677
vt -17.71654 -8.858268
vt -17.71654 -6.889764
vt -17.71654 -4.92126
vt -17.71654 -2.952756
vt -17.71654 -0.9842517
vt -17.71654 0.9842523
vt -17.71654 2.952756
vt -17.71654 4.92126
vt -17.71654 6.889764
vt -17.71654 8.858269
vt -11.81102 10.82677
vt -11.81102 19.68504
vt -11.81102 6.889764
vt -11.81102 8.858269
vt -11.81102 2.952756
vt -11.81102 4.92126
vt -11.81102 -0.9842517
vt -11.81102 0.9842523
vt -11.81102 -4.92126
vt -11.81102 -2.952756
vt 11.81102 -10.82677
vt -11.81102 -6.889764
vt -11.81102 -8.858268
vt 19.68504 -11.81102
vt -11.81102 -10.82677
vt -19.68504 -11.81102
vt 17.71654 -10.82677
vt 17.71654 -8.858268
vt 17.71654 -6.889764
vt 17.71654 -4.92126
vt 17.71654 -2.952756
vt 17.71654 -0.9842517
vt 17.71654 0.9842523
vt 17.71654 2.952756
vt 17.71654 4.92126
vt 17.71654 6.889764
vt 17.71654 8.858269
vt 17.71654 10.82677
vt 19.68504 11.81102
vt 11.81102 11.81102
vt 11.81102 10.82677
vt 11.81102 8.858269
vt 11.81102 6.889764
vt 11.81102 4.92126
vt 11.81102 2.952756
vt 11.81102 0.9842523
vt 11.81102 -0.9842517
vt 10.82677 11.81102
vt 11.81102 19.68504
vt 10.82677 17.71654
vt 8.858268 17.71654
vt 6.889764 17.71654
vt 4.92126 17.71654
vt 2.952756 17.71654
vt 0.9842522 17.71654
vt -0.9842519 17.71654
vt -2.952756 17.71654
vt -4.92126 17.71654
vt -6.889764 17.71654
vt -8.858268 17.71654
vt -10.82677 17.71654
vt -10.82677 11.81102
vt -8.858268 11.81102
vt -6.889764 11.81102
vt -4.92126 11.81102
vt -2.952756 11.81102
vt -0.9842519 11.81102
vt 0.9842522 11.81102
vt 2.952756 11.81102
vt 4.92126 11.81102
vt 6.889764 11.81102
vt 8.858268 11.81102
vt 11.81102 -8.858268
vt 11.81102 -6.889764
vt 11.81102 -4.92126
vt 11.81102 -2.952756
vt 19.68504 0
vt -19.68504 0
vt -19.68504 -19.68504
vt -19.68504 -15.74803
vt 19.68504 -19.68504
vt 19.68504 -15.74803
vt 19.68504 19.68504
vt -19.68504 19.68504
vt 19.68504 0.3937008
vt -19.68504 0.3937008
vt 15.74803 15.74803
vt 15.74803 19.68504
vt 19.68504 15.74803
vt -19.68504 15.74803
vt -15.74803 15.74803
vt -15.74803 19.68504

usemtl asphalt

f 3/3/1 2/2/1 1/1/1
f 2/2/1 3/3/1 4/4/1
f 1/1/1 2/2/1 5/5/1
f 2/2/1 4/4/1 6/6/1
f 7/7/1 1/1/1 5/5/1
f 8/8/1 1/1/1 7/7/1
f 1/1/1 8/8/1 9/9/1
f 9/9/1 8/8/1 10/10/1
f 13/11/2 12/8/2 11/9/2
f 12/8/2 13/11/2 1/12/2
f 12/8/2 1/12/2 14/7/2
f 14/7/2 1/12/2 15/5/2
f 15/5/2 1/12/2 16/2/2
f 16/2/2 1/12/2 17/6/2
f 17/6/2 1/12/2 9/4/2
f 18/10/2 11/9/2 12/8/2
f 4/15/3 20/14/3 19/13/3
f 20/14/3 4/15/3 3/16/3
f 3/16/3 21/17/3 20/14/3
f 3/16/3 22/18/3 21/17/3
f 3/16/3 23/19/3 22/18/3
f 24/20/3 23/19/3 3/16/3
f 24/20/3 25/21/3 23/19/3
f 25/21/3 24/20/3 26/22/3
f 21/25/4 28/24/4 27/23/4
f 28/24/4 21/25/4 29/26/4
f 28/24/4 29/26/4 30/27/4
f 28/24/4 30/27/4 31/28/4
f 28/24/4 31/28/4 32/29/4
f 28/24/4 32/29/4 33/30/4
f 28/24/4 33/30/4 34/31/4
f 28/24/4 34/31/4 35/32/4
f 28/24/4 35/32/4 36/33/4
f 28/24/4 36/33/4 37/34/4
f 28/24/4 37/34/4 38/35/4
f 28/24/4 38/35/4 39/36/4
f 27/23/4 28/24/4 40/37/4
f 27/23/4 40/37/4 5/38/4
f 41/39/4 39/36/4 38/35/4
f 39/36/4 41/39/4 42/40/4
f 43/41/4 37/34/4 36/33/4
f 37/34/4 43/41/4 44/42/4
f 45/43/4 35/32/4 34/31/4
f 35/32/4 45/43/4 46/44/4
f 47/45/4 33/30/4 32/29/4
f 33/30/4 47/45/4 48/46/4
f 47/45/4 49/47/4 48/46/4
f 48/46/4 49/47/4 45/43/4
f 45/43/4 49/47/4 46/44/4
f 46/44/4 49/47/4 43/41/4
f 43/41/4 49/47/4 44/42/4
f 44/42/4 49/47/4 41/39/4
f 41/39/4 49/47/4 42/40/4
f 42/40/4 49/47/4 40/37/4
f 50/48/4 49/47/4 47/45/4
f 51/49/4 49/47/4 50/48/4
f 31/28/4 51/49/4 50/48/4
f 51/49/4 31/28/4 30/27/4
f 51/49/4 14/50/4 49/47/4
f 52/51/4 14/50/4 51/49/4
f 29/26/4 14/50/4 52/51/4
f 29/26/4 22/52/4 14/50/4
f 22/52/4 29/26/4 21/25/4
f 49/47/4 14/50/4 53/53/4
f 53/53/4 14/50/4 54/54/4
f 54/54/4 14/50/4 55/55/4
f 55/55/4 14/50/4 56/56/4
f 56/56/4 14/50/4 57/57/4
f 57/57/4 14/50/4 58/58/4
f 58/58/4 14/50/4 59/59/4
f 59/59/4 14/50/4 60/60/4
f 60/60/4 14/50/4 61/61/4
f 61/61/4 14/50/4 62/62/4
f 62/62/4 14/50/4 63/63/4
f 63/63/4 14/50/4 64/64/4
f 15/65/4 64/64/4 14/50/4
f 65/66/4 64/64/4 15/65/4
f 64/64/4 65/66/4 66/67/4
f 67/68/4 62/62/4 63/63/4
f 62/62/4 67/68/4 68/69/4
f 66/67/4 68/69/4 67/68/4
f 69/70/4 60/60/4 61/61/4
f 66/67/4 69/70/4 68/69/4
f 60/60/4 69/70/4 70/71/4
f 66/67/4 70/71/4 69/70/4
f 71/72/4 58/58/4 59/59/4
f 66/67/4 71/72/4 70/71/4
f 58/58/4 71/72/4 72/73/4
f 66/67/4 72/73/4 71/72/4
f 65/66/4 73/74/4 66/67/4
f 7/75/4 73/74/4 65/66/4
f 7/75/4 74/76/4 73/74/4
f 7/75/4 75/77/4 74/76/4
f 7/75/4 76/78/4 75/77/4
f 7/75/4 77/79/4 76/78/4
f 7/75/4 78/80/4 77/79/4
f 7/75/4 79/81/4 78/80/4
f 7/75/4 80/82/4 79/81/4
f 7/75/4 81/83/4 80/82/4
f 7/75/4 82/84/4 81/83/4
f 7/75/4 83/85/4 82/84/4
f 7/75/4 84/86/4 83/85/4
f 7/75/4 85/87/4 84/86/4
f 85/87/4 7/75/4 5/38/4
f 5/38/4 86/88/4 85/87/4
f 40/37/4 86/88/4 5/38/4
f 40/37/4 49/47/4 86/88/4
f 86/88/4 49/47/4 87/89/4
f 83/85/4 84/86/4 87/89/4
f 87/89/4 49/47/4 88/90/4
f 87/89/4 88/90/4 83/85/4
f 88/90/4 49/47/4 89/91/4
f 81/83/4 82/84/4 89/91/4
f 89/91/4 49/47/4 90/92/4
f 89/91/4 90/92/4 81/83/4
f 90/92/4 49/47/4 91/93/4
f 79/81/4 80/82/4 91/93/4
f 91/93/4 49/47/4 92/94/4
f 91/93/4 92/94/4 79/81/4
f 92/94/4 49/47/4 93/95/4
f 93/95/4 49/47/4 94/96/4
f 93/95/4 94/96/4 77/79/4
f 94/96/4 49/47/4 95/97/4
f 95/97/4 49/47/4 96/98/4
f 95/97/4 96/98/4 75/77/4
f 96/98/4 49/47/4 73/74/4
f 77/79/4 78/80/4 93/95/4
f 75/77/4 76/78/4 95/97/4
f 66/67/4 73/74/4 49/47/4
f 66/67/4 49/47/4 97/99/4
f 66/67/4 97/99/4 98/100/4
f 54/54/4 98/100/4 97/99/4
f 98/100/4 54/54/4 55/55/4
f 66/67/4 98/100/4 99/101/4
f 66/67/4 99/101/4 100/102/4
f 56/56/4 100/102/4 99/101/4
f 100/102/4 56/56/4 57/57/4
f 66/67/4 100/102/4 72/73/4

usemtl pavement

f 11/4/5 24/104/5 13/103/5
f 24/104/5 11/4/5 26/9/5
f 11/107/4 25/106/4 26/105/4
f 25/106/4 11/107/4 18/108/4
f 3/109/6 13/105/6 24/107/6
f 13/105/6 3/109/6 1/110/6
f 17/4/5 101/2/5 16/111/5
f 101/2/5 17/4/5 102/6/5
f 25/4/1 12/112/1 23/111/1
f 12/112/1 25/4/1 18/9/1
f 10/9/3 101/8/3 102/10/3
f 101/8/3 10/9/3 8/112/3
f 17/115/4 10/114/4 102/113/4
f 10/114/4 17/115/4 9/109/4
f 103/117/4 4/110/4 19/116/4
f 4/110/4 103/117/4 6/118/4
f 103/10/5 20/112/5 104/8/5
f 20/112/5 103/10/5 19/9/5
f 2/111/2 103/6/2 104/2/2
f 103/6/2 2/111/2 6/4/2

usemtl asphaltEdge

f 15/65/4 7/75/4 65/66/4
f 7/75/4 15/65/4 101/113/4
f 101/113/4 15/65/4 16/115/4
f 8/114/4 7/75/4 101/113/4
f 12/108/4 22/52/4 23/106/4
f 22/52/4 12/108/4 14/50/4
f 27/23/4 20/116/4 21/25/4
f 20/116/4 27/23/4 104/117/4
f 104/117/4 27/23/4 2/118/4
f 2/118/4 27/23/4 5/38/4

usemtl line

f 48/46/4 34/31/4 33/30/4
f 34/31/4 48/46/4 45/43/4
f 90/92/4 80/82/4 81/83/4
f 80/82/4 90/92/4 91/93/4
f 50/48/4 32/29/4 31/28/4
f 32/29/4 50/48/4 47/45/4
f 59/59/4 70/71/4 71/72/4
f 70/71/4 59/59/4 60/60/4
f 63/63/4 66/67/4 67/68/4
f 66/67/4 63/63/4 64/64/4
f 42/40/4 28/24/4 39/36/4
f 28/24/4 42/40/4 40/37/4
f 53/53/4 97/99/4 49/47/4
f 97/99/4 53/53/4 54/54/4
f 44/42/4 38/35/4 37/34/4
f 38/35/4 44/42/4 41/39/4
f 55/55/4 99/101/4 98/100/4
f 99/101/4 55/55/4 56/56/4
f 92/94/4 78/80/4 79/81/4
f 78/80/4 92/94/4 93/95/4
f 46/44/4 36/33/4 35/32/4
f 36/33/4 46/44/4 43/41/4
f 61/61/4 68/69/4 69/70/4
f 68/69/4 61/61/4 62/62/4
f 57/57/4 72/73/4 100/102/4
f 72/73/4 57/57/4 58/58/4
f 96/98/4 74/76/4 75/77/4
f 74/76/4 96/98/4 73/74/4
f 86/88/4 84/86/4 85/87/4
f 84/86/4 86/88/4 87/89/4
f 94/96/4 76/78/4 77/79/4
f 76/78/4 94/96/4 95/97/4
f 88/90/4 82/84/4 83/85/4
f 82/84/4 88/90/4 89/91/4
f 52/51/4 30/27/4 29/26/4
f 30/27/4 52/51/4 51/49/4

