# Created by Kenney (www.kenney.nl)

mtllib road_crossroad.mtl

g road_crossroad

v -0.5 0 0.5
v 0.4 0.01 0.5
v 0.5 0 0.5
v 0.5 0.02 0.5
v 0.3 0.01 0.5
v 0.4 0.02 0.5
v -0.3 0.01 0.5
v -0.4 0.01 0.5
v -0.5 0.02 0.5
v 0.01000001 0.01 0.5
v -0.009999992 0.01 0.5
v -0.4 0.02 0.5
v 0.5 0 -0.5
v -0.4 0.01 -0.5
v -0.5 0 -0.5
v -0.5 0.02 -0.5
v -0.3 0.01 -0.5
v -0.4 0.02 -0.5
v 0.3 0.01 -0.5
v 0.4 0.01 -0.5
v 0.5 0.02 -0.5
v -0.01 0.01 -0.5
v 0.009999995 0.01 -0.5
v 0.4 0.02 -0.5
v -0.5 0.01 -0.4
v -0.5 0.01 -0.3
v -0.5 0.01 -0.00999999
v -0.5 0.01 0.00999999
v -0.5 0.01 0.3
v -0.5 0.01 0.4
v -0.5 0.02 0.4
v -0.5 0.02 -0.4
v 0.5 0.02 -0.4
v 0.5 0.01 -0.4
v 0.5 0.01 -0.3
v 0.5 0.01 -0.00999999
v 0.5 0.01 0.00999999
v 0.5 0.01 0.3
v 0.5 0.01 0.4
v 0.5 0.02 0.4
v 0.3 0.01 0.3
v 0.3 0.01 0.00999999
v 0.3 0.01 -0.00999999
v 0.3 0.01 -0.3
v 0.01000001 0.01 0.3
v 0.009999995 0.01 -0.3
v -0.009999992 0.01 0.3
v -0.01 0.01 -0.3
v -0.3 0.01 0.3
v -0.3 0.01 -0.3
v -0.3 0.01 -0.00999999
v -0.3 0.01 0.00999999
v -0.4 0.01 0.4
v -0.4 0.01 -0.4
v 0.4 0.01 0.4
v 0.4 0.01 -0.4
v -0.4 0.02 0.4
v 0.4 0.02 0.4
v -0.4 0.02 -0.4
v 0.4 0.02 -0.4

vn 0 0 1
vn 0 0 -1
vn -1 0 0
vn 1 0 0
vn 0 1 0
vn 0 -1 0

vt -19.68504 -4.173216E-07
vt 15.74803 0.3937004
vt 19.68504 -4.173216E-07
vt 19.68504 0.7874011
vt 11.81102 0.3937004
vt 15.74803 0.7874011
vt -11.81102 0.3937004
vt -15.74803 0.3937004
vt -19.68504 0.7874011
vt 0.3937014 0.3937004
vt -0.3937002 0.3937004
vt -15.74803 0.7874011
vt -19.68504 3.210984E-14
vt 15.74803 0.3937008
vt 19.68504 3.210984E-14
vt 19.68504 0.7874016
vt 11.81102 0.3937008
vt 15.74803 0.7874016
vt -11.81102 0.3937008
vt -15.74803 0.3937008
vt -19.68504 0.7874016
vt 0.3937013 0.3937008
vt -0.3937003 0.3937008
vt -15.74803 0.7874016
vt -15.74803 0.3937008
vt -19.68504 -3.324868E-15
vt 19.68504 -3.324868E-15
vt -11.81102 0.3937008
vt -0.3937002 0.3937008
vt 0.3937014 0.3937008
vt -15.74803 0.7874016
vt 19.68504 0.7874021
vt 19.68504 5.089292E-07
vt 15.74803 0.7874021
vt 15.74803 0.3937013
vt -19.68504 5.089292E-07
vt 11.81102 0.3937013
vt 0.3937008 0.3937013
vt -0.3937008 0.3937013
vt -11.81102 0.3937013
vt -15.74803 0.3937013
vt -15.74803 0.7874021
vt -19.68504 0.7874021
vt -19.68504 11.81102
vt -11.81102 11.81102
vt -19.68504 0.3937011
vt -11.81102 0.3937011
vt -11.81102 19.68504
vt -0.3937006 -19.68504
vt -11.81102 -0.3937005
vt -11.81102 -11.81102
vt -19.68504 -0.3937005
vt -19.68504 -11.81102
vt -11.81102 -19.68504
vt -0.3937011 11.81102
vt -0.3937006 -11.81102
vt 0.3937005 11.81102
vt 0.393701 -11.81102
vt 0.3937005 19.68504
vt 11.81102 19.68504
vt 11.81102 11.81102
vt 11.81102 -19.68504
vt 0.393701 -19.68504
vt 11.81102 -11.81102
vt 11.81102 -0.3937005
vt 19.68504 -11.81102
vt 19.68504 -0.3937005
vt 11.81102 0.3937011
vt 19.68504 0.3937011
vt 19.68504 11.81102
vt -0.3937011 19.68504
vt 15.74803 15.74803
vt 19.68504 15.74803
vt 15.74803 19.68504
vt 15.74803 -19.68504
vt 15.74803 -15.74803
vt 19.68504 -15.74803
vt -19.68504 15.74803
vt -15.74803 15.74803
vt -15.74803 19.68504
vt -15.74803 -19.68504
vt -15.74803 -15.74803
vt -19.68504 -15.74803
vt 19.68504 -19.68504
vt -19.68504 -19.68504
vt 19.68504 19.68504
vt -19.68504 19.68504
vt 19.68504 0.3937008
vt -19.68504 0.3937008
vt 15.74803 0.3937008
vt 15.74803 0.7874016

usemtl asphalt

f 3/3/1 2/2/1 1/1/1
f 2/2/1 3/3/1 4/4/1
f 1/1/1 2/2/1 5/5/1
f 2/2/1 4/4/1 6/6/1
f 7/7/1 1/1/1 5/5/1
f 8/8/1 1/1/1 7/7/1
f 1/1/1 8/8/1 9/9/1
f 7/7/1 5/5/1 10/10/1
f 7/7/1 10/10/1 11/11/1
f 9/9/1 8/8/1 12/12/1
f 15/15/2 14/14/2 13/13/2
f 14/14/2 15/15/2 16/16/2
f 13/13/2 14/14/2 17/17/2
f 14/14/2 16/16/2 18/18/2
f 19/19/2 13/13/2 17/17/2
f 20/20/2 13/13/2 19/19/2
f 13/13/2 20/20/2 21/21/2
f 19/19/2 17/17/2 22/22/2
f 19/19/2 22/22/2 23/23/2
f 21/21/2 20/20/2 24/24/2
f 15/26/3 25/25/3 16/21/3
f 25/25/3 15/26/3 1/27/3
f 25/25/3 1/27/3 26/28/3
f 26/28/3 1/27/3 27/29/3
f 27/29/3 1/27/3 28/30/3
f 28/30/3 1/27/3 29/17/3
f 29/17/3 1/27/3 30/14/3
f 30/14/3 1/27/3 31/18/3
f 31/18/3 1/27/3 9/16/3
f 32/31/3 16/21/3 25/25/3
f 33/34/4 13/33/4 21/32/4
f 13/33/4 33/34/4 34/35/4
f 13/33/4 34/35/4 3/36/4
f 3/36/4 34/35/4 35/37/4
f 3/36/4 35/37/4 36/38/4
f 3/36/4 36/38/4 37/39/4
f 3/36/4 37/39/4 38/40/4
f 3/36/4 38/40/4 39/41/4
f 3/36/4 39/41/4 40/42/4
f 3/36/4 40/42/4 4/43/4
f 37/46/5 41/45/5 38/44/5
f 41/45/5 37/46/5 42/47/5
f 41/45/5 42/47/5 5/48/5
f 42/47/5 23/49/5 5/48/5
f 43/50/5 23/49/5 42/47/5
f 44/51/5 23/49/5 43/50/5
f 36/52/5 44/51/5 43/50/5
f 44/51/5 36/52/5 35/53/5
f 23/49/5 44/51/5 19/54/5
f 5/48/5 23/49/5 45/55/5
f 45/55/5 23/49/5 46/56/5
f 45/55/5 46/56/5 47/57/5
f 47/57/5 46/56/5 48/58/5
f 47/57/5 48/58/5 11/59/5
f 11/59/5 48/58/5 7/60/5
f 7/60/5 48/58/5 49/61/5
f 49/61/5 48/58/5 17/62/5
f 17/62/5 48/58/5 22/63/5
f 49/61/5 17/62/5 50/64/5
f 49/61/5 50/64/5 51/65/5
f 26/66/5 51/65/5 50/64/5
f 51/65/5 26/66/5 27/67/5
f 49/61/5 51/65/5 52/68/5
f 28/69/5 49/61/5 52/68/5
f 49/61/5 28/69/5 29/70/5
f 10/71/5 5/48/5 45/55/5

usemtl asphaltEdge

f 29/70/5 7/60/5 49/61/5
f 7/60/5 29/70/5 53/72/5
f 53/72/5 29/70/5 30/73/5
f 8/74/5 7/60/5 53/72/5
f 14/75/5 50/64/5 17/62/5
f 50/64/5 14/75/5 54/76/5
f 50/64/5 54/76/5 26/66/5
f 26/66/5 54/76/5 25/77/5
f 41/45/5 39/78/5 38/44/5
f 39/78/5 41/45/5 55/79/5
f 55/79/5 41/45/5 2/80/5
f 2/80/5 41/45/5 5/48/5
f 19/54/5 56/82/5 20/81/5
f 44/51/5 56/82/5 19/54/5
f 35/53/5 56/82/5 44/51/5
f 56/82/5 35/53/5 34/83/5

usemtl pavement

f 3/86/6 15/85/6 13/84/6
f 15/85/6 3/86/6 1/87/6
f 31/16/2 53/14/2 30/88/2
f 53/14/2 31/16/2 57/18/2
f 12/21/4 53/25/4 57/31/4
f 53/25/4 12/21/4 8/89/4
f 31/73/5 12/74/5 57/72/5
f 12/74/5 31/73/5 9/86/5
f 58/79/5 4/87/5 40/78/5
f 4/87/5 58/79/5 6/80/5
f 58/31/2 39/89/2 55/25/2
f 39/89/2 58/31/2 40/21/2
f 2/88/3 58/18/3 55/14/3
f 58/18/3 2/88/3 6/16/3
f 16/84/5 59/76/5 18/75/5
f 59/76/5 16/84/5 32/77/5
f 54/25/1 32/21/1 25/89/1
f 32/21/1 54/25/1 59/31/1
f 59/18/4 14/88/4 18/16/4
f 14/88/4 59/18/4 54/14/4
f 24/81/5 33/83/5 21/85/5
f 33/83/5 24/81/5 60/82/5
f 20/89/3 60/31/3 24/21/3
f 60/31/3 20/89/3 56/25/3
f 33/16/1 56/90/1 34/88/1
f 56/90/1 33/16/1 60/91/1

usemtl line

f 47/57/5 10/71/5 45/55/5
f 10/71/5 47/57/5 11/59/5
f 27/67/5 52/68/5 51/65/5
f 52/68/5 27/67/5 28/69/5
f 22/63/5 46/56/5 23/49/5
f 46/56/5 22/63/5 48/58/5
f 43/50/5 37/46/5 36/52/5
f 37/46/5 43/50/5 42/47/5

