# Created by Kenney (www.kenney.nl)

mtllib road_bend.mtl

g road_bend

v -0.4206647 0.02 0.4391239
v -0.4206647 0.01 0.4391239
v -0.4133974 0.02 0.45
v -0.4133974 0.01 0.45
v -0.4292893 0.02 0.4292893
v -0.4292893 0.01 0.4292893
v -0.4391239 0.01 0.4206647
v -0.4391239 0.02 0.4206647
v -0.4617316 0.01 0.407612
v -0.45 0.01 0.4133974
v -0.4617316 0.02 0.407612
v -0.45 0.02 0.4133974
v -0.4741181 0.01 0.4034074
v -0.4741181 0.02 0.4034074
v -0.5 0.01 0.4
v -0.4869474 0.01 0.4008555
v -0.5 0.02 0.4
v -0.4869474 0.02 0.4008555
v -0.3825264 0.01 -0.3923004
v -0.3825264 0.02 -0.3923004
v -0.2670629 0.01 -0.3693333
v -0.2670629 0.02 -0.3693333
v -0.1555849 0.01 -0.3314916
v -0.1555849 0.02 -0.3314916
v 0.2794228 0.01 0.05000001
v 0.2794228 0.02 0.05000001
v 0.3314916 0.01 0.1555849
v 0.3314916 0.02 0.1555849
v 0.5 0 0.5
v 0.4914449 0 0.3694738
v -0.5 0 0.5
v 0.4659258 0 0.241181
v 0.4238795 0 0.1173165
v 0.3660254 1.127987E-17 0
v 0.2933533 2.255973E-17 -0.1087614
v 0.2071068 4.511946E-17 -0.2071068
v 0.1087614 6.76792E-17 -0.2933533
v 3.609557E-16 9.023893E-17 -0.3660254
v -0.1173166 1.240785E-16 -0.4238795
v -0.241181 1.579181E-16 -0.4659258
v -0.3694738 2.030376E-16 -0.4914448
v -0.5 0 -0.5
v -0.05 0.01 -0.2794229
v -0.05 0.02 -0.2794229
v 0.04788528 0.01 -0.214018
v 0.04788528 0.02 -0.214018
v -0.5 0.01 -0.4
v -0.5 0.02 -0.4
v 0.1363961 0.01 -0.1363961
v 0.1363961 0.02 -0.1363961
v 0.214018 0.01 -0.0478853
v 0.214018 0.02 -0.0478853
v 0.3693332 0.01 0.2670629
v 0.3693332 0.02 0.2670629
v 0.3923004 0.01 0.3825264
v 0.3923004 0.02 0.3825264
v 0.4 0.01 0.5
v 0.4 0.02 0.5
v -0.4 0.02 0.5
v -0.5 0.02 0.5
v -0.4008555 0.02 0.4869474
v -0.4034074 0.02 0.4741181
v -0.407612 0.02 0.4617316
v -0.4034074 0.01 0.4741181
v -0.4008555 0.01 0.4869474
v -0.407612 0.01 0.4617316
v -0.4 0.01 0.5
v 0.5 0.02 0.5
v 0.4914449 0.02 0.3694738
v 0.4659258 0.02 0.241181
v 0.4238795 0.02 0.1173165
v 0.3660254 0.02 0
v 0.2933533 0.02 -0.1087614
v 0.2071068 0.02 -0.2071068
v 0.1087614 0.02 -0.2933533
v 3.609557E-16 0.02 -0.3660254
v -0.1173166 0.02 -0.4238795
v -0.241181 0.02 -0.4659258
v -0.3694738 0.02 -0.4914448
v -0.5 0.02 -0.5
v -0.5 0.01 -0.3
v -0.5 0.01 -0.00999999
v -0.5 0.01 0.00999999
v -0.5 0.01 0.3
v 0.3 0.01 0.5
v 0.01 0.01 0.5
v -0.3 0.01 0.5
v -0.01 0.01 0.5
v -0.01419202 0.01 0.4360422
v -0.02669634 0.01 0.3731787
v -0.04729903 0.01 0.3124851
v -0.07564755 0.01 0.255
v -0.1112569 0.01 0.2017069
v -0.1535177 0.01 0.1535177
v -0.2017069 0.01 0.1112568
v -0.255 0.01 0.07564753
v -0.3124851 0.01 0.04729903
v -0.301711 0.01 0.4738948
v -0.3068148 0.01 0.4482362
v -0.3152241 0.01 0.4234633
v -0.3731787 0.01 0.02669632
v -0.3267949 0.01 0.4
v -0.3413293 0.01 0.3782477
v -0.3585787 0.01 0.3585787
v -0.3782477 0.01 0.3413293
v -0.4360422 0.01 0.01419204
v -0.4 0.01 0.3267949
v -0.4234633 0.01 0.3152241
v -0.4482362 0.01 0.3068148
v -0.4738948 0.01 0.301711
v 0.2931559 0.01 0.395579
v 0.2727407 0.01 0.2929448
v 0.2391036 0.01 0.1938533
v 0.1928203 0.01 0.1
v 0.1346827 0.01 0.01299083
v 0.06568542 0.01 -0.06568539
v -0.01299086 0.01 -0.1346827
v 0.005636879 0.01 0.4334316
v -0.007377828 0.01 0.3680023
v -0.02882144 0.01 0.3048314
v -0.1 0.01 -0.1928203
v -0.05832704 0.01 0.245
v -0.0953898 0.01 0.1895317
v -0.1393755 0.01 0.1393756
v -0.1938533 0.01 -0.2391036
v -0.1895317 0.01 0.09538978
v -0.245 0.01 0.05832702
v -0.2929448 0.01 -0.2727406
v -0.3048314 0.01 0.02882147
v -0.395579 0.01 -0.2931559
v -0.3680023 0.01 0.007377803
v -0.4334316 0.01 -0.005636871

vn 0.7933533 0 -0.6087614
vn 0.8660254 0 -0.5
vn 0.7071068 0 -0.7071068
vn 0.6087614 0 -0.7933533
vn 0.3826834 0 -0.9238795
vn 0.5 0 -0.8660254
vn 0.258819 0 -0.9659258
vn 0.06540313 0 -0.9978589
vn 0.1305262 0 -0.9914449
vn -0.1305262 0 0.9914449
vn -0.258819 0 0.9659258
vn -0.3826834 0 0.9238795
vn -0.8660254 0 0.5
vn -0.9238795 0 0.3826834
vn 0 -1 0
vn -0.5 0 0.8660254
vn -0.6087614 0 0.7933533
vn -0.06540313 0 0.9978589
vn -0.7071068 0 0.7071068
vn -0.7933533 0 0.6087614
vn -0.9659258 0 0.258819
vn -0.9914449 0 0.1305262
vn -0.9978589 0 0.06540313
vn 0 1 0
vn 0.9659258 0 -0.258819
vn 0.9914449 0 -0.1305262
vn 0.9238795 0 -0.3826834
vn 0.9978589 0 -0.06540313
vn -1 0 0
vn 0 0 1

vt -5.173597 0.7874016
vt -5.173597 0.3937008
vt -5.688583 0.7874016
vt -5.688583 0.3937008
vt -1.563255 0.7874016
vt -1.563255 0.3937008
vt -2.078241 0.7874016
vt -2.078241 0.3937008
vt 2.078241 0.3937008
vt 1.563255 0.3937008
vt 2.078241 0.7874016
vt 1.563255 0.7874016
vt 9.205997 0.3937008
vt 8.691012 0.3937008
vt 9.205997 0.7874016
vt 8.691012 0.7874016
vt 12.5703 0.3937008
vt 12.05532 0.3937008
vt 12.5703 0.7874016
vt 12.05532 0.7874016
vt 18.61292 0.3937008
vt 18.09794 0.3937008
vt 18.61292 0.7874016
vt 18.09794 0.7874016
vt -17.78387 0.3937008
vt -17.78387 0.7874016
vt -13.149 0.3937008
vt -13.149 0.7874016
vt -14.63024 0.3937008
vt -14.63024 0.7874016
vt -9.995375 0.3937008
vt -9.995375 0.7874016
vt 5.688583 0.3937008
vt 5.173597 0.3937008
vt 5.688583 0.7874016
vt 5.173597 0.7874016
vt 15.72393 0.3937008
vt 15.20894 0.3937008
vt 15.72393 0.7874016
vt 15.20894 0.7874016
vt 6.631071 0.3937008
vt 6.631071 0.7874016
vt 11.26594 0.3937008
vt 11.26594 0.7874016
vt 19.68504 19.68504
vt 19.34822 14.54621
vt -19.68504 19.68504
vt 18.34354 9.495314
vt 16.68817 4.618762
vt 14.41045 -6.181722E-13
vt 11.54934 -4.281946
vt 8.153811 -8.153811
vt 4.281946 -11.54934
vt 1.421085E-14 -14.41045
vt -4.618762 -16.68817
vt -9.495314 -18.34354
vt -14.54621 -19.34822
vt -19.68504 -19.68504
vt -7.748524 0.3937008
vt -7.748524 0.7874016
vt -3.113657 0.3937008
vt -3.113657 0.7874016
vt -20.67286 0.3937008
vt -20.67286 0.7874016
vt -16.03799 0.3937008
vt -16.03799 0.7874016
vt -4.138182 0.3937008
vt -4.138182 0.7874016
vt 0.4966858 0.3937008
vt 0.4966858 0.7874016
vt 3.113657 0.3937008
vt 3.113657 0.7874016
vt 7.748524 0.3937008
vt 7.748524 0.7874016
vt 13.149 0.3937008
vt 13.149 0.7874016
vt 17.78387 0.3937008
vt 17.78387 0.7874016
vt 16.03799 0.3937008
vt 16.03799 0.7874016
vt 20.67286 0.3937008
vt 20.67286 0.7874016
vt 15.74803 19.68504
vt 15.78171 19.17116
vt 15.88218 18.66607
vt 16.04772 18.17841
vt 16.27549 17.71654
vt 16.5616 17.28834
vt 16.90115 16.90115
vt 17.28834 16.5616
vt 17.71654 16.27549
vt 18.17841 16.04772
vt 18.66607 15.88218
vt 19.17116 15.78171
vt 19.68504 15.74803
vt -15.20894 0.7874016
vt -15.20894 0.3937008
vt -15.72393 0.7874016
vt -15.72393 0.3937008
vt -12.05532 0.7874016
vt -12.05532 0.3937008
vt -12.5703 0.7874016
vt -12.5703 0.3937008
vt -11.26594 0.3937008
vt -11.26594 0.7874016
vt -6.631071 0.3937008
vt -6.631071 0.7874016
vt -8.691012 0.7874016
vt -8.691012 0.3937008
vt -9.205997 0.7874016
vt -9.205997 0.3937008
vt 9.995375 0.3937008
vt 9.995375 0.7874016
vt 14.63024 0.3937008
vt 14.63024 0.7874016
vt -18.09794 0.7874016
vt -18.09794 0.3937008
vt -18.61292 0.7874016
vt -18.61292 0.3937008
vt -0.4966858 0.3937008
vt -0.4966858 0.7874016
vt 4.138182 0.3937008
vt 4.138182 0.7874016
vt -15.74803 19.68504
vt -19.34822 14.54621
vt -18.34354 9.495314
vt -16.68817 4.618762
vt -15.4449 15.0601
vt -14.41045 -6.177671E-13
vt -14.54068 10.51429
vt -13.05085 6.12539
vt -11.54934 -4.281946
vt -11.0009 1.968504
vt -8.153811 -8.153811
vt -8.425906 -1.885247
vt -5.369925 -5.369925
vt -4.281946 -11.54934
vt -1.885247 -8.425906
vt -1.381269E-14 -14.41045
vt 1.968504 -11.0009
vt 4.618762 -16.68817
vt 6.12539 -13.05085
vt 9.495314 -18.34354
vt 10.51429 -14.54068
vt 14.54621 -19.34822
vt 15.0601 -15.4449
vt 19.68504 -19.68504
vt 19.68504 -15.74803
vt 20.93036 -1.8842E-15
vt 15.7805 6.109405E-15
vt 20.93036 0.7874016
vt 15.7805 0.7874016
vt 12.89151 2.850813E-15
vt 12.89151 0.7874016
vt 18.04136 4.62717E-15
vt 18.04136 0.7874016
vt 9.737882 1.893303E-15
vt 9.737882 0.7874016
vt 14.88773 3.225571E-15
vt 14.88773 0.7874016
vt 6.373579 8.938674E-16
vt 6.373579 0.7874016
vt 11.52343 2.226135E-15
vt 11.52343 0.7874016
vt 2.856164 2.803756E-16
vt 2.856164 0.7874016
vt 8.006017 1.168554E-15
vt 8.006017 0.7874016
vt -0.7541785 -3.964607E-16
vt -0.7541785 0.7874016
vt 4.395674 4.917177E-16
vt 4.395674 0.7874016
vt 0.7541785 0.7874016
vt 0.7541785 -2.425187E-16
vt -4.395674 0.7874016
vt -4.395674 -1.130697E-15
vt -2.856164 0.7874016
vt -2.856164 -1.017821E-15
vt -8.006017 0.7874016
vt -8.006017 -1.46191E-15
vt -6.373579 0.7874016
vt -6.373579 -1.364948E-15
vt -11.52343 0.7874016
vt -11.52343 -1.809037E-15
vt -9.737882 0.7874016
vt -9.737882 -1.696295E-15
vt -14.88773 0.7874016
vt -14.88773 -1.696295E-15
vt -12.89151 0.7874016
vt -12.89151 -1.532351E-15
vt -18.04136 0.7874016
vt -18.04136 -1.532351E-15
vt -15.7805 0.7874016
vt -15.7805 2.479606E-17
vt -20.93036 0.7874016
vt -20.93036 2.479606E-17
vt -19.68504 0.7874016
vt -15.74803 0.3937008
vt -19.68504 2.460002E-13
vt 19.68504 2.460002E-13
vt -11.81102 0.3937008
vt -0.3937008 0.3937008
vt 0.3937008 0.3937008
vt 11.81102 0.3937008
vt 15.74803 0.3937008
vt 15.74803 0.7874016
vt 19.68504 0.7874016
vt -15.74803 0.7874016
vt -19.68504 -2.974417E-12
vt 19.68504 -2.974417E-12
vt 0.3937008 19.68504
vt 11.81102 19.68504
vt 0.5587409 17.16702
vt 1.051037 14.69207
vt 1.862167 12.30256
vt 2.97825 10.03937
vt 4.380191 7.941216
vt 6.044003 6.044003
vt 7.941216 4.380191
vt 10.03937 2.97825
vt 12.30256 1.862167
vt 11.87839 18.65727
vt 12.07932 17.64709
vt 12.4104 16.67178
vt 14.69207 1.051037
vt 12.86594 15.74803
vt 13.43816 14.89164
vt 14.11727 14.11727
vt 14.89164 13.43816
vt 17.16702 0.5587409
vt 15.74803 12.86594
vt 16.67178 12.4104
vt 17.64709 12.07932
vt 19.68504 0.3937008
vt 18.65727 11.87839
vt 19.68504 11.81102
vt -11.81102 19.68504
vt -0.3937008 19.68504
vt -11.54157 15.57398
vt -10.73782 11.53326
vt -9.413528 7.632018
vt -7.591352 3.937008
vt -5.302467 0.5114511
vt -2.58604 -2.58604
vt 0.5114511 -5.302467
vt -0.2219244 17.06424
vt 0.2904657 14.48828
vt 1.134702 12.00124
vt 3.937008 -7.591352
vt 2.29634 9.645669
vt 3.755504 7.461877
vt 5.487226 5.487226
vt 7.632018 -9.413528
vt 7.461877 3.755504
vt 9.645669 2.29634
vt 11.53326 -10.73782
vt 12.00124 1.134702
vt 15.57398 -11.54157
vt 14.48828 0.2904657
vt 17.06424 -0.2219244
vt 19.68504 -11.81102
vt 19.68504 -0.3937008

usemtl pavement

f 3/3/2 2/2/1 1/1/1
f 2/2/1 3/3/2 4/4/2
f 1/7/1 6/6/3 5/5/3
f 6/6/3 1/7/1 2/8/1
f 8/11/4 6/10/3 7/9/4
f 6/10/3 8/11/4 5/12/3
f 11/15/5 10/14/6 9/13/5
f 10/14/6 11/15/5 12/16/6
f 14/19/7 9/18/5 13/17/7
f 9/18/5 14/19/7 11/20/5
f 17/23/8 16/22/9 15/21/8
f 16/22/9 17/23/8 18/24/9
f 21/27/11 20/26/10 19/25/10
f 20/26/10 21/27/11 22/28/11
f 23/31/12 22/30/11 21/29/11
f 22/30/11 23/31/12 24/32/12
f 12/35/6 7/34/4 10/33/6
f 7/34/4 12/35/6 8/36/4
f 18/39/9 13/38/7 16/37/9
f 13/38/7 18/39/9 14/40/7
f 27/43/14 26/42/13 25/41/13
f 26/42/13 27/43/14 28/44/14
f 31/47/15 30/46/15 29/45/15
f 30/46/15 31/47/15 32/48/15
f 32/48/15 31/47/15 33/49/15
f 33/49/15 31/47/15 34/50/15
f 34/50/15 31/47/15 35/51/15
f 35/51/15 31/47/15 36/52/15
f 36/52/15 31/47/15 37/53/15
f 37/53/15 31/47/15 38/54/15
f 38/54/15 31/47/15 39/55/15
f 39/55/15 31/47/15 40/56/15
f 40/56/15 31/47/15 41/57/15
f 41/57/15 31/47/15 42/58/15
f 45/61/17 44/60/16 43/59/16
f 44/60/16 45/61/17 46/62/17
f 19/65/10 48/64/18 47/63/18
f 48/64/18 19/65/10 20/66/10
f 49/69/19 46/68/17 45/67/17
f 46/68/17 49/69/19 50/70/19
f 25/73/13 52/72/20 51/71/20
f 52/72/20 25/73/13 26/74/13
f 55/77/22 54/76/21 53/75/21
f 54/76/21 55/77/22 56/78/22
f 57/81/23 56/80/22 55/79/22
f 56/80/22 57/81/23 58/82/23
f 61/84/24 60/45/24 59/83/24
f 60/45/24 61/84/24 62/85/24
f 60/45/24 62/85/24 63/86/24
f 60/45/24 63/86/24 3/87/24
f 60/45/24 3/87/24 1/88/24
f 60/45/24 1/88/24 5/89/24
f 60/45/24 5/89/24 8/90/24
f 60/45/24 8/90/24 12/91/24
f 60/45/24 12/91/24 11/92/24
f 60/45/24 11/92/24 14/93/24
f 60/45/24 14/93/24 18/94/24
f 60/45/24 18/94/24 17/95/24
f 61/98/26 64/97/25 62/96/25
f 64/97/25 61/98/26 65/99/26
f 62/102/25 66/101/27 63/100/27
f 66/101/27 62/102/25 64/103/25
f 43/106/16 24/105/12 23/104/12
f 24/105/12 43/106/16 44/107/16
f 63/110/27 4/109/2 3/108/2
f 4/109/2 63/110/27 66/111/27
f 53/114/21 28/113/14 27/112/14
f 28/113/14 53/114/21 54/115/21
f 59/118/28 65/117/26 61/116/26
f 65/117/26 59/118/28 67/119/28
f 51/122/20 50/121/19 49/120/19
f 50/121/19 51/122/20 52/123/20
f 69/125/24 58/124/24 68/47/24
f 58/124/24 69/125/24 70/126/24
f 58/124/24 70/126/24 71/127/24
f 58/124/24 71/127/24 56/128/24
f 56/128/24 71/127/24 72/129/24
f 56/128/24 72/129/24 54/130/24
f 54/130/24 72/129/24 28/131/24
f 28/131/24 72/129/24 73/132/24
f 28/131/24 73/132/24 26/133/24
f 26/133/24 73/132/24 74/134/24
f 26/133/24 74/134/24 52/135/24
f 52/135/24 74/134/24 50/136/24
f 50/136/24 74/134/24 75/137/24
f 50/136/24 75/137/24 46/138/24
f 46/138/24 75/137/24 76/139/24
f 46/138/24 76/139/24 44/140/24
f 44/140/24 76/139/24 77/141/24
f 44/140/24 77/141/24 24/142/24
f 24/142/24 77/141/24 78/143/24
f 24/142/24 78/143/24 22/144/24
f 22/144/24 78/143/24 79/145/24
f 22/144/24 79/145/24 20/146/24
f 20/146/24 79/145/24 80/147/24
f 20/146/24 80/147/24 48/148/24
f 80/151/8 41/150/9 42/149/8
f 41/150/9 80/151/8 79/152/9
f 41/155/9 78/154/7 40/153/7
f 78/154/7 41/155/9 79/156/9
f 40/159/7 77/158/5 39/157/5
f 77/158/5 40/159/7 78/160/7
f 39/163/5 76/162/6 38/161/6
f 76/162/6 39/163/5 77/164/5
f 38/167/6 75/166/4 37/165/4
f 75/166/4 38/167/6 76/168/6
f 37/171/4 74/170/3 36/169/3
f 74/170/3 37/171/4 75/172/4
f 73/175/1 36/174/3 74/173/3
f 36/174/3 73/175/1 35/176/1
f 72/179/2 35/178/1 73/177/1
f 35/178/1 72/179/2 34/180/2
f 71/183/27 34/182/2 72/181/2
f 34/182/2 71/183/27 33/184/27
f 70/187/25 33/186/27 71/185/27
f 33/186/27 70/187/25 32/188/25
f 69/191/26 32/190/25 70/189/25
f 32/190/25 69/191/26 30/192/26
f 68/195/28 30/194/26 69/193/26
f 30/194/26 68/195/28 29/196/28

usemtl asphalt

f 42/199/29 47/198/29 80/197/29
f 47/198/29 42/199/29 31/200/29
f 47/198/29 31/200/29 81/201/29
f 81/201/29 31/200/29 82/202/29
f 82/202/29 31/200/29 83/203/29
f 83/203/29 31/200/29 84/204/29
f 84/204/29 31/200/29 15/205/29
f 15/205/29 31/200/29 17/206/29
f 17/206/29 31/200/29 60/207/29
f 48/208/29 80/197/29 47/198/29
f 29/210/30 57/205/30 31/209/30
f 57/205/30 29/210/30 68/207/30
f 31/209/30 57/205/30 85/204/30
f 57/205/30 68/207/30 58/206/30
f 67/198/30 31/209/30 85/204/30
f 86/203/30 67/198/30 85/204/30
f 67/198/30 86/203/30 87/201/30
f 87/201/30 86/203/30 88/202/30
f 31/209/30 67/198/30 60/197/30
f 60/197/30 67/198/30 59/208/30
f 89/213/24 87/212/24 88/211/24
f 87/212/24 89/213/24 90/214/24
f 87/212/24 90/214/24 91/215/24
f 87/212/24 91/215/24 92/216/24
f 87/212/24 92/216/24 93/217/24
f 87/212/24 93/217/24 94/218/24
f 87/212/24 94/218/24 95/219/24
f 87/212/24 95/219/24 96/220/24
f 87/212/24 96/220/24 97/221/24
f 87/212/24 97/221/24 98/222/24
f 98/222/24 97/221/24 99/223/24
f 99/223/24 97/221/24 100/224/24
f 100/224/24 97/221/24 101/225/24
f 100/224/24 101/225/24 102/226/24
f 102/226/24 101/225/24 103/227/24
f 103/227/24 101/225/24 104/228/24
f 104/228/24 101/225/24 105/229/24
f 105/229/24 101/225/24 106/230/24
f 105/229/24 106/230/24 107/231/24
f 107/231/24 106/230/24 108/232/24
f 108/232/24 106/230/24 109/233/24
f 109/233/24 106/230/24 83/234/24
f 109/233/24 83/234/24 110/235/24
f 110/235/24 83/234/24 84/236/24
f 111/239/24 86/238/24 85/237/24
f 86/238/24 111/239/24 112/240/24
f 86/238/24 112/240/24 113/241/24
f 86/238/24 113/241/24 114/242/24
f 86/238/24 114/242/24 115/243/24
f 86/238/24 115/243/24 116/244/24
f 86/238/24 116/244/24 117/245/24
f 86/238/24 117/245/24 118/246/24
f 118/246/24 117/245/24 119/247/24
f 119/247/24 117/245/24 120/248/24
f 120/248/24 117/245/24 121/249/24
f 120/248/24 121/249/24 122/250/24
f 122/250/24 121/249/24 123/251/24
f 123/251/24 121/249/24 124/252/24
f 124/252/24 121/249/24 125/253/24
f 124/252/24 125/253/24 126/254/24
f 126/254/24 125/253/24 127/255/24
f 127/255/24 125/253/24 128/256/24
f 127/255/24 128/256/24 129/257/24
f 129/257/24 128/256/24 130/258/24
f 129/257/24 130/258/24 131/259/24
f 131/259/24 130/258/24 132/260/24
f 132/260/24 130/258/24 81/261/24
f 132/260/24 81/261/24 82/262/24

usemtl asphaltEdge

f 55/128/24 85/237/24 57/124/24
f 85/237/24 55/128/24 53/130/24
f 85/237/24 53/130/24 27/131/24
f 85/237/24 27/131/24 25/133/24
f 85/237/24 25/133/24 111/239/24
f 111/239/24 25/133/24 112/240/24
f 112/240/24 25/133/24 51/135/24
f 112/240/24 51/135/24 113/241/24
f 113/241/24 51/135/24 114/242/24
f 114/242/24 51/135/24 49/136/24
f 114/242/24 49/136/24 115/243/24
f 115/243/24 49/136/24 45/138/24
f 115/243/24 45/138/24 116/244/24
f 116/244/24 45/138/24 117/245/24
f 117/245/24 45/138/24 43/140/24
f 117/245/24 43/140/24 121/249/24
f 121/249/24 43/140/24 23/142/24
f 121/249/24 23/142/24 125/253/24
f 125/253/24 23/142/24 21/144/24
f 125/253/24 21/144/24 128/256/24
f 128/256/24 21/144/24 19/146/24
f 128/256/24 19/146/24 130/258/24
f 130/258/24 19/146/24 47/148/24
f 130/258/24 47/148/24 81/261/24
f 98/222/24 67/83/24 87/212/24
f 67/83/24 98/222/24 99/223/24
f 67/83/24 99/223/24 100/224/24
f 67/83/24 100/224/24 102/226/24
f 67/83/24 102/226/24 103/227/24
f 67/83/24 103/227/24 104/228/24
f 67/83/24 104/228/24 105/229/24
f 67/83/24 105/229/24 107/231/24
f 67/83/24 107/231/24 65/84/24
f 65/84/24 107/231/24 108/232/24
f 65/84/24 108/232/24 64/85/24
f 64/85/24 108/232/24 66/86/24
f 66/86/24 108/232/24 4/87/24
f 4/87/24 108/232/24 2/88/24
f 2/88/24 108/232/24 6/89/24
f 6/89/24 108/232/24 109/233/24
f 6/89/24 109/233/24 7/90/24
f 7/90/24 109/233/24 10/91/24
f 10/91/24 109/233/24 110/235/24
f 10/91/24 110/235/24 9/92/24
f 9/92/24 110/235/24 13/93/24
f 13/93/24 110/235/24 84/236/24
f 13/93/24 84/236/24 16/94/24
f 16/94/24 84/236/24 15/95/24

usemtl line

f 118/246/24 88/211/24 86/238/24
f 88/211/24 118/246/24 119/247/24
f 88/211/24 119/247/24 89/213/24
f 89/213/24 119/247/24 120/248/24
f 89/213/24 120/248/24 90/214/24
f 90/214/24 120/248/24 91/215/24
f 91/215/24 120/248/24 122/250/24
f 91/215/24 122/250/24 92/216/24
f 92/216/24 122/250/24 123/251/24
f 92/216/24 123/251/24 93/217/24
f 93/217/24 123/251/24 124/252/24
f 93/217/24 124/252/24 94/218/24
f 94/218/24 124/252/24 126/254/24
f 94/218/24 126/254/24 95/219/24
f 95/219/24 126/254/24 127/255/24
f 95/219/24 127/255/24 96/220/24
f 96/220/24 127/255/24 129/257/24
f 96/220/24 129/257/24 97/221/24
f 97/221/24 129/257/24 131/259/24
f 97/221/24 131/259/24 101/225/24
f 101/225/24 131/259/24 132/260/24
f 101/225/24 132/260/24 106/230/24
f 106/230/24 132/260/24 82/262/24
f 106/230/24 82/262/24 83/234/24

