# Created by Kenney (www.kenney.nl)

mtllib road_slantHighBarrier.mtl

g road_slantHighBarrier

v 0.5 0.5 0.5
v 0.5 0.5 0.45
v -0.5 0 0.5
v -0.5 0 0.45
v 0.5 0.58 0.5
v -0.5 0.08 0.5
v 0.5 0.58 0.47
v -0.5 0.08 0.47
v -0.5 0 -0.5
v -0.5 0.08 -0.5
v -0.5 0 -0.45
v -0.5 0.08 -0.47
v 0.5 0.58 -0.5
v 0.5 0.5 -0.5
v 0.5 0.58 -0.47
v 0.5 0.5 -0.45

vn 0.4472136 -0.8944272 0
vn -0.4472136 0.8944272 0
vn 0 0 1
vn 1 0 0
vn -1 0 0
vn -0.1203859 0.2407717 0.9630868
vn 0 0 -1
vn -0.1203859 0.2407717 -0.9630868

vt -19.68504 26.41025
vt -17.71654 26.41025
vt -19.68504 -17.60683
vt -17.71654 -17.60683
vt 19.68504 27.8188
vt 19.68504 -16.19829
vt 18.50394 27.8188
vt 18.50394 -16.19829
vt -19.68504 0
vt -19.68504 3.149606
vt 19.68504 19.68504
vt 19.68504 22.83465
vt -17.71654 19.68504
vt -19.68504 19.68504
vt -18.50394 22.83465
vt -19.68504 22.83465
vt -19.68504 -5.224579E-15
vt -17.71654 -5.224579E-15
vt -18.50394 3.149606
vt 18.50394 22.83465
vt 17.71654 19.68504
vt 19.68504 26.41025
vt 19.68504 -17.60683
vt 17.71654 26.41025
vt 17.71654 -17.60683
vt -19.68504 27.8188
vt -18.50394 27.8188
vt -19.68504 -16.19829
vt -18.50394 -16.19829
vt -21.7305 3.644825
vt -21.82816 6.889896
vt 17.33556 23.92652
vt 17.2379 27.17159
vt 19.68504 1.323736E-28
vt 19.68504 3.149606
vt 17.71654 1.776357E-13
vt 18.50394 3.149606
vt 19.68504 1.776357E-13
vt 21.7305 3.644825
vt -17.33556 23.92652
vt 21.82816 6.889896
vt -17.2379 27.17159

usemtl pavement

f 3/3/1 2/2/1 1/1/1
f 2/2/1 3/3/1 4/4/1
f 7/7/2 6/6/2 5/5/2
f 6/6/2 7/7/2 8/8/2
f 1/11/3 6/10/3 3/9/3
f 6/10/3 1/11/3 5/12/3
f 7/15/4 1/14/4 2/13/4
f 1/14/4 7/15/4 5/16/4
f 11/18/5 10/10/5 9/17/5
f 10/10/5 11/18/5 12/19/5
f 15/20/4 14/11/4 13/12/4
f 14/11/4 15/20/4 16/21/4
f 16/24/1 9/23/1 14/22/1
f 9/23/1 16/24/1 11/25/1
f 10/28/2 15/27/2 13/26/2
f 15/27/2 10/28/2 12/29/2
f 16/32/6 12/31/6 11/30/6
f 12/31/6 16/32/6 15/33/6
f 10/35/7 14/14/7 9/34/7
f 14/14/7 10/35/7 13/16/7
f 3/38/5 8/37/5 4/36/5
f 8/37/5 3/38/5 6/35/5
f 8/41/8 2/40/8 4/39/8
f 2/40/8 8/41/8 7/42/8

