# Created by Kenney (www.kenney.nl)

mtllib road_sideEntryBarrier.mtl

g road_sideEntryBarrier

v -0.7131538 0.08 -0.2100773
v -0.6931538 -6.51088E-13 -0.2100773
v -0.731644 0.08 -0.1788229
v -0.711644 -6.409953E-13 -0.1788229
v -0.6692871 0.08 -0.2684114
v -0.6492872 2.1224E-12 -0.2684114
v -0.6923022 0.08 -0.2399268
v -0.6723022 -6.575626E-13 -0.2399268
v -0.5434477 1.97894E-12 -0.3660921
v -0.5686706 1.980087E-12 -0.3463891
v -0.5634478 0.08 -0.3660921
v -0.5886707 0.08 -0.3463891
v -0.6667907 0.08 -0.271124
v -0.6467906 1.997388E-12 -0.271124
v -0.6242666 1.9878E-12 -0.2955981
v -0.6442666 0.08 -0.2955981
v -0.5016164 0.08 -0.4936028
v -0.5035448 0.08 -0.4881401
v -0.5016164 -4.654749E-13 -0.4936028
v -0.5035448 -6.235002E-13 -0.4881401
v -0.7605631 0.08 -0.1121937
v -0.7405631 -6.150742E-13 -0.1121937
v -0.7704512 0.08 -0.07705963
v -0.7504512 -5.986479E-13 -0.07705963
v 0.45 -2.819966E-18 -0.5
v 0.47 0.08 -0.5
v 0.45 -2.819966E-18 0.5
v 0.47 0.08 0.5
v -0.4880431 0.08 -0.4481587
v -0.468043 -7.217366E-13 -0.4481587
v -0.4958089 0.08 -0.4361153
v -0.4758089 -4.814782E-13 -0.4361153
v -0.806349 0.08 -0.04744464
v -0.8089059 0.08 -0.0154565
v -0.806349 -3.36955E-13 -0.04744464
v -0.8089059 -3.183573E-13 -0.0154565
v 0.5 -2.819966E-18 -0.5
v 0.5 -2.819966E-18 0.5
v -0.7411965 0.08 -0.2265822
v -0.7554944 0.08 -0.2024142
v -0.7411965 -3.819588E-13 -0.2265822
v -0.7554944 -3.755575E-13 -0.2024142
v -0.7350168 -3.856642E-13 -0.2370279
v -0.7350168 0.08 -0.2370279
v -0.473983 0.08 -0.4790759
v -0.453983 -7.291221E-13 -0.4790759
v -0.4773137 0.08 -0.469641
v -0.4573137 -7.287216E-13 -0.469641
v -0.5338328 0.08 -0.4430759
v -0.5453391 0.08 -0.4310194
v -0.5338328 -4.457634E-13 -0.4430759
v -0.5453391 -4.42182E-13 -0.4310194
v -0.8099999 0.08 -5.507469E-05
v -0.8099999 -5.711137E-13 -5.507469E-05
v -0.5102744 1.963309E-12 -0.3956982
v -0.5257203 1.970584E-12 -0.3811709
v -0.5302744 0.08 -0.3956982
v -0.5457203 0.08 -0.3811709
v -0.5589016 -4.393903E-13 -0.4182634
v -0.5589016 0.08 -0.4182634
v -0.7475359 0.08 -0.1461697
v -0.7275358 -6.29126E-13 -0.1461697
v -0.5748928 -4.353802E-13 -0.4046615
v -0.5748928 0.08 -0.4046615
v -0.5243219 0.08 -0.4542834
v -0.5243219 -4.484226E-13 -0.4542834
v -0.5004771 0.08 -0.4980154
v -0.5004771 -4.693834E-13 -0.4980154
v -0.78 0.08 -0.001773715
v -0.76 -7.228363E-13 -0.001773715
v -0.78 0.08 0.5
v -0.76 1.944922E-12 0.5
v -0.5167062 0.08 -0.464498
v -0.5167062 -4.519194E-13 -0.464498
v -0.470124 0.08 -0.5
v -0.4704181 0.08 -0.4958282
v -0.5001515 0.08 -0.5
v -0.4717441 0.08 -0.4877474
v -0.4819354 0.08 -0.4593444
v -0.5053727 0.08 -0.4232876
v -0.5065314 0.08 -0.4814864
v -0.5168382 0.08 -0.4097769
v -0.5108401 0.08 -0.4735953
v -0.6002805 0.08 -0.3848296
v -0.6173632 0.08 -0.3215647
v -0.6309401 0.08 -0.3583035
v -0.6598778 0.08 -0.3303735
v -0.6833992 0.08 -0.3048156
v -0.68698 0.08 -0.3009249
v -0.7120935 0.08 -0.2698431
v -0.7732171 0.08 -0.1659991
v -0.7769505 0.08 -0.04103076
v -0.787836 0.08 -0.127872
v -0.779294 0.08 -0.0117116
v -0.8099999 0.08 0.5
v -0.7989898 0.08 -0.08824086
v -0.6002805 -4.296162E-13 -0.3848296
v -0.6309401 -4.203216E-13 -0.3583035
v -0.5065314 -4.614368E-13 -0.4814864
v -0.5108401 -4.557686E-13 -0.4735953
v -0.7569505 -5.798415E-13 -0.04103076
v -0.759294 -5.652679E-13 -0.0117116
v 0.5 0.08 -0.5
v -0.6598778 -4.129446E-13 -0.3303735
v -0.4619354 -7.285609E-13 -0.4593444
v -0.68698 -4.032157E-13 -0.3009249
v -0.7120935 -3.934473E-13 -0.2698431
v -0.7732171 -3.657158E-13 -0.1659991
v -0.6833992 -4.029309E-13 -0.3048156
v -0.5973631 1.98458E-12 -0.3215647
v -0.7989898 -3.463426E-13 -0.08824086
v -0.4853728 1.949158E-12 -0.4232876
v 0.5 0.08 0.5
v -0.4517441 -7.286201E-13 -0.4877474
v -0.787836 -3.559531E-13 -0.127872
v -0.4968382 1.955449E-12 -0.4097769
v -0.8099999 -5.303877E-13 0.5
v -0.450124 -6.198202E-13 -0.5
v -0.5001515 -5.012716E-13 -0.5
v -0.4504181 -7.263162E-13 -0.4958282

vn 0.8244325 0.2061081 0.5270962
vn 0.8212209 0.2053052 0.5323964
vn 0.8613452 0.2153363 0.4601246
vn 0.8587158 0.214679 0.4653172
vn 0.7460037 0.1865009 0.6392933
vn 0.7419669 0.1854917 0.6442654
vn 0.7856269 0.1964067 0.5866982
vn 0.7819427 0.1954857 0.5919045
vn 0.626017 0.1565042 0.7639431
vn 0.625038 0.1562595 0.7647943
vn 0.6222684 0.1555671 0.7671903
vn 0.6295099 0.1573775 0.7608873
vn 0.723671 0.1809178 0.6660097
vn 0.7021245 0.1755311 0.6900797
vn 0.7063997 0.1765999 0.6854281
vn -0.9565074 0 -0.2917081
vn -0.9284302 0 -0.371507
vn 0.9241548 0.2310387 0.3042351
vn 0.9228602 0.2307151 0.3083825
vn 0.9471251 0.2367813 0.2165379
vn 0.9464408 0.2366102 0.2196941
vn -0.9701425 0.2425356 0
vn 0.8390483 0.2097621 0.5019937
vn 0.8418023 0.2104506 0.4970708
vn 0.8031203 0.2007801 0.560968
vn 0.8063349 0.2015837 0.5560466
vn -0.991676 0 -0.1287584
vn -0.9971632 0 -0.0752694
vn 0 -1 0
vn -0.8606653 0 -0.5091712
vn -0.8806419 0 -0.4737825
vn -0.8408254 0 -0.5413064
vn 0.9297488 0.2324372 0.2855524
vn 0.9307972 0.2326993 0.2818997
vn 0.9035647 0.2258912 0.3640659
vn 0.9051927 0.2262982 0.3597434
vn -0.7432558 0 -0.6690073
vn -0.7045254 0 -0.7096789
vn -0.9993715 0 -0.03545193
vn 0.6958478 0.173962 0.6968021
vn 0.6597028 0.1649257 0.7332064
vn 0.6918185 0.1729546 0.701052
vn 0.6555707 0.1638927 0.7371339
vn -0.6667204 0 -0.7453079
vn 0.8950691 0.2237673 0.3857195
vn 0.8930986 0.2232746 0.3905425
vn -0.6318905 0 -0.7750577
vn -0.7824696 0 -0.6226888
vn -0.9785162 0 -0.20617
vn 0.9695747 0.2423937 0.03420803
vn 0.9695621 0.2423905 0.03458439
vn 0.9701425 0.2425356 0
vn -0.8215395 0 -0.5701517
vn 0 1 0
vn -0.6351438 0 -0.7723939
vn -0.6746288 0 -0.7381572
vn -0.8956758 0 -0.4447075
vn -0.8596274 0 -0.5109214
vn 0.9626503 0.2406626 0.1240401
vn 0.9624193 0.2406048 0.1259306
vn 0.9675552 0.2418888 0.07298452
vn 0.9675481 0.241887 0.07308401
vn 0 0 -1
vn -0.7154533 0 -0.6986606
vn 0.8729131 0.2182283 0.4363473
vn 0.875127 0.2187818 0.4316101
vn -0.7572142 0 -0.6531666
vn -0.799296 0 -0.6009374
vn -0.9173051 0 -0.3981851
vn -0.7358133 0 -0.6771845
vn 0.6630139 0.1657535 0.7300262
vn 0.6674282 0.166857 0.72574
vn -0.974479 0 -0.2244784
vn 0.766111 0.1915277 0.6135072
vn 0.7696914 0.1924229 0.608727
vn 1 0 0
vn 0.9502147 0.2375537 0.2016438
vn 0.9507564 0.2376891 0.1989128
vn -0.94916 0 -0.3147939
vn 0.7288099 0.1822025 0.6600291
vn 0.7326594 0.1831648 0.6554853
vn -1 0 0
vn -0.9868015 0 -0.1619343
vn 0 0 1
vn 0.9678825 0.2419706 0.06821869
vn 0.9638595 0.2409649 0.1136261
vn 0.9640354 0.2410088 0.1120283

vt -7.177605 9.0481
vt -6.776683 5.826412
vt -8.607304 9.0481
vt -8.206382 5.826412
vt -8.340546 8.271686
vt -7.845685 5.063083
vt -9.782302 8.271686
vt -9.287441 5.063083
vt -7.988351 3.731142
vt -9.248441 3.731142
vt -8.608871 6.91783
vt -9.86896 6.91783
vt -9.922976 7.900033
vt -9.38976 4.697581
vt -10.06812 7.900033
vt -9.534902 4.697581
vt -8.080261 4.697581
vt -8.613477 7.900033
vt -11.75095 3.149606
vt -11.52288 3.149606
vt -11.75095 9.098155E-11
vt -11.52288 8.476008E-11
vt -3.860264 10.08607
vt -3.646944 6.846542
vt -5.297232 10.08607
vt -5.083912 6.846542
vt -19.68504 4.296891
vt -19.68504 7.543431
vt 19.68504 4.296891
vt 19.68504 7.543431
vt 4.415864 8.368722
vt 4.842576 5.150346
vt 3.851682 8.368722
vt 4.278394 5.150346
vt 0.6675001 3.149606
vt 1.930894 3.149606
vt 0.6675001 1.157054E-10
vt 1.930894 1.164376E-10
vt 19.68504 -19.68504
vt 17.71654 -19.68504
vt 19.68504 19.68504
vt 17.71654 19.68504
vt 7.180493 3.149606
vt 8.286031 3.149606
vt 7.180493 1.151588E-10
vt 8.286031 1.154108E-10
vt 6.702668 1.150129E-10
vt 6.702668 3.149606
vt 11.57379 8.543767
vt 11.8359 5.307825
vt 11.17987 8.543767
vt 11.44198 5.307825
vt 1.891031 3.149606
vt 2.547173 3.149606
vt 1.891031 9.740716E-11
vt 2.547173 9.754816E-11
vt 1.649641 3.149606
vt 2.257524 3.149606
vt 1.649641 1.160192E-10
vt 2.257524 1.060681E-10
vt -3.960676 4.239379
vt -4.795488 4.239379
vt -4.534246 7.434851
vt -5.369058 7.434851
vt 4.013556 9.482328E-11
vt 4.013556 3.149606
vt 4.746579 9.493319E-11
vt 4.746579 3.149606
vt -6.274987 9.429032
vt -5.930411 6.20083
vt -7.704712 9.429032
vt -7.360136 6.20083
vt 6.091701 9.171195E-11
vt 6.091701 3.149606
vt 6.918215 9.186982E-11
vt 6.918215 3.149606
vt -0.2801757 3.149606
vt 0.2985286 3.149606
vt -0.2801757 9.935149E-11
vt 0.2985286 9.945619E-11
vt -14.05864 3.149606
vt -13.87922 3.149606
vt -14.05864 8.43477E-11
vt -13.87922 8.450157E-11
vt 0.06983117 10.50351
vt 0.06983117 7.256971
vt -19.68504 10.50351
vt -19.68504 7.256971
vt -2.501696 3.149606
vt -2.000071 3.149606
vt -2.501696 1.003762E-10
vt -2.000071 1.005138E-10
vt 18.50882 -19.68504
vt 18.5204 -19.52079
vt 19.691 -19.68504
vt 18.5726 -19.20266
vt 18.66075 -18.86126
vt 18.79188 -18.4898
vt 18.97383 -18.08442
vt 19.21429 -17.64404
vt 19.52004 -17.16989
vt 19.89656 -16.66487
vt 19.70382 -19.6069
vt 19.74868 -19.43318
vt 19.8246 -19.21811
vt 19.94218 -18.95616
vt 20.34796 -16.13295
vt 20.11182 -18.64548
vt 20.34276 -18.28733
vt 20.6426 -17.88517
vt 20.87695 -15.57867
vt 21.01704 -17.44393
vt 21.48505 -15.00673
vt 21.47004 -16.96927
vt 22.004 -16.46706
vt 22.18298 -14.41307
vt 22.63357 -15.93156
vt 23.17601 -13.63737
vt 23.63309 -15.15077
vt 24.30564 -12.66003
vt 24.84016 -14.10644
vt 25.36483 -11.63772
vt 25.97944 -13.00683
vt 26.2516 -10.67418
vt 26.90548 -12.00062
vt 26.34989 -10.56738
vt 27.25599 -9.445935
vt 27.04646 -11.84744
vt 28.03518 -10.62375
vt 28.07692 -8.270761
vt 28.93767 -9.331808
vt 28.80488 -7.040269
vt 29.43055 -5.754712
vt 29.18097 -8.920561
vt 29.74387 -7.969063
vt 29.94343 -4.417074
vt 30.44162 -6.535397
vt 30.33273 -3.033844
vt 30.5886 -1.615385
vt 31.01716 -5.03433
vt 30.68087 -0.4610863
vt 30.70866 -0.06983117
vt 30.70866 19.68504
vt 31.88976 19.68504
vt 31.45629 -3.47405
vt 31.74603 -1.8679
vt 31.84669 -0.6085226
vt 31.88976 -0.002167427
vt 7.959337 9.296234E-11
vt 7.959337 3.149606
vt 9.555474 9.332827E-11
vt 9.555474 3.149606
vt -7.080433 3.149606
vt -6.726462 3.149606
vt -7.080433 9.871814E-11
vt -6.726462 9.894129E-11
vt -0.8269904 10.46036
vt -0.7642518 7.214431
vt -1.984971 10.46036
vt -1.922232 7.214431
vt -17.71654 -2.100934E-14
vt -19.68504 -2.100934E-14
vt -18.50394 3.149606
vt -19.68504 3.149606
vt 8.076661 9.756187E-11
vt 8.076661 3.149606
vt 9.660042 9.78523E-11
vt 9.660042 3.149606
vt 6.779393 8.503018
vt 7.156747 5.278484
vt 6.277644 8.503018
vt 6.654998 5.278484
vt 7.78265 3.149606
vt 9.355859 3.149606
vt 7.78265 1.067973E-10
vt 9.355859 1.071819E-10
vt 5.850762 3.149606
vt 7.445205 3.149606
vt 5.850762 1.181226E-10
vt 7.445205 1.185101E-10
vt -4.771112 3.149606
vt -4.344951 3.149606
vt -4.771112 1.002653E-10
vt -4.344951 1.004168E-10
vt 8.022276 3.149606
vt 9.38976 3.149606
vt 8.022276 1.021614E-10
vt 9.38976 1.025557E-10
vt 9.597938 3.149606
vt 9.597938 1.025445E-10
vt -8.129986 4.352023
vt -9.602057 4.352023
vt -8.69654 7.548746
vt -10.16861 7.548746
vt 2.165414 3.149606
vt 3.797487 3.149606
vt 2.165414 1.191006E-10
vt 3.797487 1.194702E-10
vt -9.414674 3.149606
vt -9.127542 3.149606
vt -9.414674 8.942553E-11
vt -9.127542 9.580598E-11
vt 2.097606 8.180374
vt 2.568253 4.968131
vt 1.467668 8.180374
vt 1.938315 4.968131
vt 19.68504 3.149606
vt 19.68504 -1.110223E-16
vt -19.68504 -1.110223E-16
vt 13.95002 8.421382
vt 14.14686 5.180815
vt 13.59742 8.421382
vt 13.79426 5.180815
vt 8.029188 8.866378E-11
vt 8.029188 3.149606
vt 9.297518 8.889071E-11
vt 9.297518 3.149606
vt -2.399166 10.3186
vt -2.259382 7.075074
vt -3.840519 10.3186
vt -3.700736 7.075074
vt 3.556984 3.149606
vt 5.177881 3.149606
vt 3.556984 1.204934E-10
vt 5.177881 1.208717E-10
vt -7.865032 8.657635
vt -7.414111 5.442562
vt -9.298544 8.657635
vt -8.847623 5.442562
vt -2.377486 7.701302
vt -1.833858 4.5006
vt -3.14368 7.701302
vt -2.600052 4.5006
vt 4.796149 3.149606
vt 6.403772 3.149606
vt 4.796149 1.200658E-10
vt 6.403772 1.204501E-10
vt -0.002167427 3.149606
vt -0.002167427 1.0215E-10
vt 19.68504 1.037534E-10
vt -17.72142 -19.68504
vt -19.691 -19.68504
vt -17.733 -19.52079
vt -17.7852 -19.20266
vt -17.87335 -18.86126
vt -18.00447 -18.4898
vt -18.18643 -18.08442
vt -18.42689 -17.64404
vt -18.73264 -17.16989
vt -19.10916 -16.66487
vt -19.56056 -16.13295
vt -20.08954 -15.57867
vt -19.70382 -19.6069
vt -19.74868 -19.43318
vt -19.8246 -19.21811
vt -19.94218 -18.95616
vt -20.11182 -18.64548
vt -20.69765 -15.00673
vt -20.34276 -18.28733
vt -20.6426 -17.88517
vt -21.01704 -17.44393
vt -21.39558 -14.41307
vt -21.47004 -16.96927
vt -22.38861 -13.63737
vt -22.004 -16.46706
vt -22.63357 -15.93156
vt -23.51823 -12.66003
vt -23.63309 -15.15077
vt -24.57743 -11.63772
vt -24.84016 -14.10644
vt -25.4642 -10.67418
vt -25.97944 -13.00683
vt -25.56249 -10.56738
vt -26.46859 -9.445935
vt -26.90548 -12.00062
vt -27.28952 -8.270761
vt -27.04646 -11.84744
vt -28.03518 -10.62375
vt -28.01748 -7.040269
vt -28.64314 -5.754712
vt -28.93767 -9.331808
vt -29.15603 -4.417074
vt -29.18097 -8.920561
vt -29.54532 -3.033844
vt -29.74387 -7.969063
vt -29.8012 -1.615385
vt -30.44162 -6.535397
vt -29.89347 -0.4610863
vt -29.92126 -0.06983117
vt -29.92126 19.68504
vt -31.88976 19.68504
vt -31.01716 -5.03433
vt -31.45629 -3.47405
vt -31.74603 -1.8679
vt -31.84669 -0.6085226
vt -31.88976 -0.002167427
vt -16.23658 3.149606
vt -16.1574 3.149606
vt -16.23658 7.488208E-11
vt -16.1574 7.613752E-11
vt -31.88976 -4.159947E-11
vt -31.88976 3.149606
vt -29.92126 5.585368E-11
vt -30.70866 3.149606
vt -5.163115 9.782156
vt -4.881218 6.547878
vt -6.595708 9.782156
vt -6.313812 6.547878
vt 7.345693 3.149606
vt 8.921638 3.149606
vt 7.345693 1.11191E-10
vt 8.921638 1.114975E-10
vt 17.72142 -3.781178E-12
vt 18.50882 3.149606
vt 19.691 8.860887E-13
vt 19.691 3.149606
vt -1.714097 10.46886
vt -1.658303 7.222798
vt -2.106339 10.46886
vt -2.050544 7.222798
vt 9.173127 8.566685
vt 9.495568 5.336197
vt 8.728786 8.566685
vt 9.051228 5.336197
vt -0.1675463 7.953444
vt 0.3419318 4.74713
vt -0.8651801 7.953444
vt -0.355702 4.74713
vt -6.042792 3.971919
vt -6.959052 3.971919
vt -6.64257 7.162575
vt -7.55883 7.162575
vt 18.33501 7.85841
vt 18.39037 4.612342
vt 18.17035 7.85841
vt 18.22572 4.612342
vt 16.26406 8.192513
vt 16.39157 4.948477
vt 15.94167 8.192513
vt 16.06918 4.948477
vt 19.68504 2.193213E-13
vt 17.71654 2.193213E-13
vt 18.50394 3.149606
vt -8.008414 4.029524
vt -9.502151 4.029524
vt -8.603881 7.220988
vt -10.09762 7.220988
vt -19.68504 -19.68504
vt -19.68504 19.68504
vt -18.50394 -19.68504
vt -18.50394 19.68504

usemtl pavement

f 3/3/3 2/2/2 1/1/1
f 2/2/2 3/3/3 4/4/4
f 7/7/7 6/6/6 5/5/5
f 6/6/6 7/7/7 8/8/8
f 11/11/11 10/10/10 9/9/9
f 10/10/10 11/11/11 12/12/12
f 5/15/5 14/14/13 13/13/13
f 14/14/13 5/15/5 6/16/6
f 15/17/14 13/13/13 14/14/13
f 13/13/13 15/17/14 16/18/15
f 19/21/16 18/20/17 17/19/16
f 18/20/17 19/21/16 20/22/17
f 23/25/20 22/24/19 21/23/18
f 22/24/19 23/25/20 24/26/21
f 27/29/22 26/28/22 25/27/22
f 26/28/22 27/29/22 28/30/22
f 31/33/25 30/32/24 29/31/23
f 30/32/24 31/33/25 32/34/26
f 35/37/27 34/36/28 33/35/27
f 34/36/28 35/37/27 36/38/28
f 38/41/29 25/40/29 37/39/29
f 25/40/29 38/41/29 27/42/29
f 41/45/30 40/44/31 39/43/30
f 40/44/31 41/45/30 42/46/31
f 39/43/30 43/47/32 41/45/30
f 43/47/32 39/43/30 44/48/32
f 47/51/35 46/50/34 45/49/33
f 46/50/34 47/51/35 48/52/36
f 51/55/37 50/54/38 49/53/37
f 50/54/38 51/55/37 52/56/38
f 36/59/28 53/58/39 34/57/28
f 53/58/39 36/59/28 54/60/39
f 57/63/42 56/62/41 55/61/40
f 56/62/41 57/63/42 58/64/43
f 59/67/44 50/66/38 52/65/38
f 50/66/38 59/67/44 60/68/44
f 61/71/45 4/70/4 3/69/3
f 4/70/4 61/71/45 62/72/46
f 63/75/47 60/74/44 59/73/44
f 60/74/44 63/75/47 64/76/47
f 66/79/48 49/78/37 65/77/48
f 49/78/37 66/79/48 51/80/37
f 68/83/49 17/82/16 67/81/49
f 17/82/16 68/83/49 19/84/16
f 71/87/52 70/86/51 69/85/50
f 70/86/51 71/87/52 72/88/52
f 74/91/53 65/90/48 73/89/53
f 65/90/48 74/91/53 66/92/48
f 77/95/54 76/94/54 75/93/54
f 76/94/54 77/95/54 78/96/54
f 78/96/54 77/95/54 45/97/54
f 45/97/54 77/95/54 47/98/54
f 47/98/54 77/95/54 79/99/54
f 79/99/54 77/95/54 29/100/54
f 29/100/54 77/95/54 31/101/54
f 31/101/54 77/95/54 80/102/54
f 80/102/54 77/95/54 67/103/54
f 80/102/54 67/103/54 17/104/54
f 80/102/54 17/104/54 18/105/54
f 80/102/54 18/105/54 81/106/54
f 80/102/54 81/106/54 82/107/54
f 82/107/54 81/106/54 83/108/54
f 82/107/54 83/108/54 73/109/54
f 82/107/54 73/109/54 65/110/54
f 82/107/54 65/110/54 57/111/54
f 57/111/54 65/110/54 49/112/54
f 57/111/54 49/112/54 58/113/54
f 58/113/54 49/112/54 50/114/54
f 58/113/54 50/114/54 60/115/54
f 58/113/54 60/115/54 11/116/54
f 11/116/54 60/115/54 64/117/54
f 11/116/54 64/117/54 12/118/54
f 12/118/54 64/117/54 84/119/54
f 12/118/54 84/119/54 85/120/54
f 85/120/54 84/119/54 86/121/54
f 85/120/54 86/121/54 16/122/54
f 16/122/54 86/121/54 87/123/54
f 16/122/54 87/123/54 13/124/54
f 13/124/54 87/123/54 88/125/54
f 13/124/54 88/125/54 5/126/54
f 5/126/54 88/125/54 7/127/54
f 7/127/54 88/125/54 89/128/54
f 7/127/54 89/128/54 90/129/54
f 7/127/54 90/129/54 1/130/54
f 1/130/54 90/129/54 44/131/54
f 1/130/54 44/131/54 3/132/54
f 3/132/54 44/131/54 61/133/54
f 61/133/54 44/131/54 39/134/54
f 61/133/54 39/134/54 40/135/54
f 61/133/54 40/135/54 21/136/54
f 21/136/54 40/135/54 91/137/54
f 21/136/54 91/137/54 23/138/54
f 23/138/54 91/137/54 92/139/54
f 92/139/54 91/137/54 93/140/54
f 92/139/54 93/140/54 94/141/54
f 94/141/54 93/140/54 69/142/54
f 69/142/54 93/140/54 71/143/54
f 71/143/54 93/140/54 95/144/54
f 95/144/54 93/140/54 96/145/54
f 95/144/54 96/145/54 33/146/54
f 95/144/54 33/146/54 34/147/54
f 95/144/54 34/147/54 53/148/54
f 98/151/56 84/150/55 97/149/55
f 84/150/55 98/151/56 86/152/56
f 99/155/57 83/154/58 81/153/57
f 83/154/58 99/155/57 100/156/58
f 94/159/61 101/158/60 92/157/59
f 101/158/60 94/159/61 102/160/62
f 26/163/63 37/162/63 25/161/63
f 37/162/63 26/163/63 103/164/63
f 104/167/64 86/166/56 98/165/56
f 86/166/56 104/167/64 87/168/64
f 29/171/23 105/170/66 79/169/65
f 105/170/66 29/171/23 30/172/24
f 106/175/67 90/174/68 89/173/67
f 90/174/68 106/175/67 107/176/68
f 42/179/31 91/178/69 40/177/31
f 91/178/69 42/179/31 108/180/69
f 100/183/58 73/182/53 83/181/58
f 73/182/53 100/183/58 74/184/53
f 104/187/64 88/186/70 87/185/64
f 88/186/70 104/187/64 109/188/70
f 109/188/70 89/189/67 88/186/70
f 89/189/67 109/188/70 106/190/67
f 85/193/72 15/192/14 110/191/71
f 15/192/14 85/193/72 16/194/15
f 111/197/73 33/196/27 96/195/73
f 33/196/27 111/197/73 35/198/27
f 20/201/17 81/200/57 18/199/17
f 81/200/57 20/201/17 99/202/57
f 80/205/74 32/204/26 31/203/25
f 32/204/26 80/205/74 112/206/75
f 113/164/76 37/208/76 103/207/76
f 37/208/76 113/164/76 38/209/76
f 45/212/33 114/211/78 78/210/77
f 114/211/78 45/212/33 46/213/34
f 97/216/55 64/215/47 63/214/47
f 64/215/47 97/216/55 84/217/55
f 92/220/59 24/219/21 23/218/20
f 24/219/21 92/220/59 101/221/60
f 115/224/79 96/223/73 93/222/79
f 96/223/73 115/224/79 111/225/73
f 1/228/1 8/227/8 7/226/7
f 8/227/8 1/228/1 2/229/2
f 57/232/42 116/231/81 82/230/80
f 116/231/81 57/232/42 55/233/40
f 108/236/69 93/235/79 91/234/69
f 93/235/79 108/236/69 115/237/79
f 54/239/39 95/207/82 53/238/39
f 95/207/82 54/239/39 117/240/82
f 120/243/29 119/242/29 118/241/29
f 119/242/29 120/243/29 114/244/29
f 119/242/29 114/244/29 46/245/29
f 119/242/29 46/245/29 48/246/29
f 119/242/29 48/246/29 105/247/29
f 119/242/29 105/247/29 30/248/29
f 119/242/29 30/248/29 32/249/29
f 119/242/29 32/249/29 112/250/29
f 119/242/29 112/250/29 116/251/29
f 119/242/29 116/251/29 55/252/29
f 119/242/29 55/252/29 68/253/29
f 68/253/29 55/252/29 19/254/29
f 19/254/29 55/252/29 20/255/29
f 20/255/29 55/252/29 99/256/29
f 99/256/29 55/252/29 100/257/29
f 100/257/29 55/252/29 56/258/29
f 100/257/29 56/258/29 74/259/29
f 74/259/29 56/258/29 66/260/29
f 66/260/29 56/258/29 51/261/29
f 51/261/29 56/258/29 9/262/29
f 51/261/29 9/262/29 52/263/29
f 52/263/29 9/262/29 10/264/29
f 52/263/29 10/264/29 59/265/29
f 59/265/29 10/264/29 63/266/29
f 63/266/29 10/264/29 110/267/29
f 63/266/29 110/267/29 97/268/29
f 97/268/29 110/267/29 15/269/29
f 97/268/29 15/269/29 98/270/29
f 98/270/29 15/269/29 14/271/29
f 98/270/29 14/271/29 104/272/29
f 104/272/29 14/271/29 6/273/29
f 104/272/29 6/273/29 8/274/29
f 104/272/29 8/274/29 109/275/29
f 109/275/29 8/274/29 2/276/29
f 109/275/29 2/276/29 106/277/29
f 106/277/29 2/276/29 107/278/29
f 107/278/29 2/276/29 4/279/29
f 107/278/29 4/279/29 62/280/29
f 107/278/29 62/280/29 43/281/29
f 43/281/29 62/280/29 22/282/29
f 43/281/29 22/282/29 41/283/29
f 41/283/29 22/282/29 24/284/29
f 41/283/29 24/284/29 42/285/29
f 42/285/29 24/284/29 101/286/29
f 42/285/29 101/286/29 108/287/29
f 108/287/29 101/286/29 102/288/29
f 108/287/29 102/288/29 70/289/29
f 108/287/29 70/289/29 72/290/29
f 108/287/29 72/290/29 117/291/29
f 108/287/29 117/291/29 115/292/29
f 115/292/29 117/291/29 111/293/29
f 111/293/29 117/291/29 35/294/29
f 35/294/29 117/291/29 36/295/29
f 36/295/29 117/291/29 54/296/29
f 119/299/83 67/298/49 77/297/83
f 67/298/49 119/299/83 68/300/49
f 72/303/84 95/302/84 117/301/84
f 95/302/84 72/303/84 71/304/84
f 21/307/18 62/306/46 61/305/45
f 62/306/46 21/307/18 22/308/19
f 107/311/68 44/310/32 90/309/68
f 44/310/32 107/311/68 43/312/32
f 119/315/63 75/314/63 118/313/63
f 75/314/63 119/315/63 77/316/63
f 69/319/50 102/318/62 94/317/61
f 102/318/62 69/319/50 70/320/51
f 79/323/65 48/322/36 47/321/35
f 48/322/36 79/323/65 105/324/66
f 82/327/80 112/326/75 80/325/74
f 112/326/75 82/327/80 116/328/81
f 58/331/43 9/330/9 56/329/41
f 9/330/9 58/331/43 11/332/11
f 76/335/86 118/334/85 75/333/85
f 118/334/85 76/335/86 120/336/87
f 78/339/77 120/338/87 76/337/86
f 120/338/87 78/339/77 114/340/78
f 113/207/84 27/342/84 38/341/84
f 27/342/84 113/207/84 28/343/84
f 12/346/12 110/345/71 10/344/10
f 110/345/71 12/346/12 85/347/72
f 26/350/54 113/349/54 103/348/54
f 113/349/54 26/350/54 28/351/54

