# Created by Kenney (www.kenney.nl)

mtllib road_straight.mtl

g road_straight

v 0.5 0.01 -0.4
v -0.5 0.01 -0.4
v 0.5 0.02 -0.4
v -0.5 0.02 -0.4
v -0.5 0 -0.5
v 0.5 0 -0.5
v -0.5 0.02 -0.5
v 0.5 0.02 -0.5
v -0.5 0.01 0.4
v 0.5 0.01 0.4
v -0.5 0.02 0.4
v 0.5 0.02 0.4
v 0.5 0 0.5
v -0.5 0 0.5
v 0.5 0.02 0.5
v -0.5 0.02 0.5
v 0.5 0.01 0.3
v 0.5 0.01 0.00999999
v 0.5 0.01 -0.00999999
v 0.5 0.01 -0.3
v -0.5 0.01 -0.3
v -0.5 0.01 -0.00999999
v -0.5 0.01 0.00999999
v -0.5 0.01 0.3

vn 0 0 1
vn 0 0 -1
vn 0 -1 0
vn 0 1 0
vn 1 0 0
vn -1 0 0

vt 19.68504 0.3937008
vt -19.68504 0.3937008
vt 19.68504 0.7874016
vt -19.68504 0.7874016
vt 19.68504 0
vt -19.68504 0
vt 19.68504 19.68504
vt 19.68504 -19.68504
vt -19.68504 19.68504
vt -19.68504 -19.68504
vt -19.68504 -15.74803
vt 19.68504 -15.74803
vt -19.68504 15.74803
vt 19.68504 15.74803
vt -15.74803 0.7874016
vt -15.74803 0.3937008
vt -19.68504 1.725924E-13
vt -11.81102 0.3937008
vt -0.3937008 0.3937008
vt 0.3937008 0.3937008
vt 11.81102 0.3937008
vt 15.74803 0.3937008
vt 19.68504 1.725924E-13
vt 15.74803 0.7874016
vt -19.68504 -2.465606E-13
vt 19.68504 -2.465606E-13
vt -19.68504 11.81102
vt 19.68504 11.81102
vt -19.68504 -11.81102
vt -19.68504 -0.3937008
vt 19.68504 -11.81102
vt 19.68504 -0.3937008

usemtl pavement

f 3/3/1 2/2/1 1/1/1
f 2/2/1 3/3/1 4/4/1
f 7/3/2 6/6/2 5/5/2
f 6/6/2 7/3/2 8/4/2
f 11/3/2 10/2/2 9/1/2
f 10/2/2 11/3/2 12/4/2
f 14/9/3 6/8/3 13/7/3
f 6/8/3 14/9/3 5/10/3
f 7/8/4 3/11/4 8/10/4
f 3/11/4 7/8/4 4/12/4
f 15/3/1 14/6/1 13/5/1
f 14/6/1 15/3/1 16/4/1
f 11/14/4 15/9/4 12/13/4
f 15/9/4 11/14/4 16/7/4

usemtl asphalt

f 15/4/5 10/16/5 12/15/5
f 13/17/5 10/16/5 15/4/5
f 13/17/5 17/18/5 10/16/5
f 13/17/5 18/19/5 17/18/5
f 13/17/5 19/20/5 18/19/5
f 13/17/5 20/21/5 19/20/5
f 13/17/5 1/22/5 20/21/5
f 6/23/5 1/22/5 13/17/5
f 6/23/5 3/24/5 1/22/5
f 3/24/5 6/23/5 8/3/5
f 5/25/6 2/16/6 7/4/6
f 2/16/6 5/25/6 14/26/6
f 2/16/6 14/26/6 21/18/6
f 21/18/6 14/26/6 22/19/6
f 22/19/6 14/26/6 23/20/6
f 23/20/6 14/26/6 24/21/6
f 24/21/6 14/26/6 9/22/6
f 9/22/6 14/26/6 11/24/6
f 11/24/6 14/26/6 16/3/6
f 4/15/6 7/4/6 2/16/6
f 18/2/4 24/28/4 17/27/4
f 24/28/4 18/2/4 23/1/4
f 21/31/4 19/30/4 20/29/4
f 19/30/4 21/31/4 22/32/4

usemtl asphaltEdge

f 2/12/4 20/29/4 1/11/4
f 20/29/4 2/12/4 21/31/4
f 24/28/4 10/13/4 17/27/4
f 10/13/4 24/28/4 9/14/4

usemtl line

f 22/32/4 18/2/4 19/30/4
f 18/2/4 22/32/4 23/1/4

