# Created by Kenney (www.kenney.nl)

mtllib road_curveIntersectionBarrier.mtl

g road_curveIntersectionBarrier

v 0.6386362 6.495202E-16 -0.05000001
v 0.6667675 0.06022899 -0.03494275
v 0.6720451 6.442016E-16 0
v 0.70607 0.08 0.01499999
v 0.6887495 1.353584E-16 0.02499998
v 0.676002 0.08 -0.02999997
v 0.6960474 0.08 0
v 1 1.147726E-15 -0.05000001
v 1 0.08 -0.02999997
v -0.03407417 7.698508E-16 0.741181
v -0.03407417 0.08 0.741181
v -0.008555138 7.698508E-16 0.8694738
v -0.008555138 0.08 0.8694738
v 0.8477591 0.08 0.2346331
v 0.8477591 4.511946E-17 0.2346331
v 0.9318516 0.08 0.4823619
v 0.9318516 0 0.4823619
v -0.2928932 8.600897E-16 0.2928932
v -0.2928932 0.08 0.2928932
v -0.2066467 8.149703E-16 0.3912386
v -0.2066467 0.08 0.3912386
v -0.07612047 7.698508E-16 0.6173166
v -0.07612047 0.08 0.6173166
v 0.8015651 9.023893E-17 0.2537673
v 0.9028739 0.08 0.4901265
v 0.8835554 4.511946E-17 0.4953029
v 0.8200427 0.08 0.2461137
v -0.741181 1.040568E-15 0.03407419
v -0.8694738 1.085687E-15 0.008555114
v -0.741181 0.08 0.03407419
v -0.8694738 0.08 0.008555114
v -0.6173166 9.954482E-16 0.0761205
v -0.6173166 0.08 0.0761205
v -0.5 9.503287E-16 0.1339746
v -0.5 0.08 0.1339746
v -1 4.088951E-16 -0.05000001
v -1 0.08 -0.02999997
v -1 1.130807E-15 0
v -1 0.08 0
v 0.05 6.796119E-16 1
v 0.0410171 5.89373E-16 0.8629475
v 3.936222E-13 7.698508E-16 1
v 0.01422212 5.442535E-16 0.72824
v -0.02992649 4.540146E-16 0.5981824
v -0.09067332 4.088951E-16 0.475
v -0.1339746 7.698508E-16 0.5
v -0.166979 3.637757E-16 0.3608005
v -0.2575379 3.186562E-16 0.2575379
v -0.3608005 3.186562E-16 0.166979
v -0.3912386 9.052092E-16 0.2066467
v -0.475 3.186562E-16 0.09067333
v -0.5981824 3.186562E-16 0.02992648
v -0.72824 3.186562E-16 -0.01422215
v -0.8629475 3.637757E-16 -0.04101712
v -0.3912386 0.08 0.2066467
v 0.9531463 0.08 0.7428634
v 0.9333174 4.511946E-17 0.7454739
v 1 0.08 -0.97
v -1 0.08 -0.97
v 1 0.08 -1
v -1 0.08 -1
v 3.936222E-13 0.08 1
v 0.97 0.08 1
v 0.9499999 4.511946E-17 1
v -0.1339746 0.08 0.5
v 0.9828897 0.08 0.7389476
v 0.9828897 0 0.7389476
v 1 0.08 1
v 1 7.670309E-16 1
v 0.7320508 0.08 0
v 0.7320508 9.023893E-17 0
v 1 1.147726E-15 0
v 1 0.08 0
v -1 7.670309E-16 -1
v 1 1.147726E-15 -1
v 1 1.147726E-15 -0.9499999
v -1 7.670309E-16 -0.9499999
v -0.27168 0.08 0.27168
v -0.1828461 0.08 0.3729757
v -0.865558 0.08 -0.0211882
v -0.7334164 0.08 0.005096376
v -0.6058361 0.08 0.0484041
v -0.04840408 0.08 0.6058361
v -0.005096399 0.08 0.7334164
v -0.1079938 0.08 0.485
v -0.3729757 0.08 0.1828461
v 0.02118821 0.08 0.865558
v 0.03 0.08 1
v -0.485 0.08 0.1079938

vn -0.8067455 0.2420468 0.5390501
vn -0.8401681 0.2425356 0.4850713
vn 0 0.2425356 -0.9701425
vn -0.9659258 0 0.258819
vn -0.9914449 0 0.1305262
vn 0.9238795 0 -0.3826834
vn 0.9659258 0 -0.258819
vn -0.7071068 0 0.7071068
vn -0.7933533 0 0.6087614
vn -0.9238795 0 0.3826834
vn -0.8962947 0.2425356 0.3712575
vn -0.9370857 0.2425356 0.2510914
vn -0.258819 0 0.9659258
vn -0.1305262 0 0.9914449
vn -0.3826834 0 0.9238795
vn -0.5 0 0.8660254
vn -1 0 0
vn 0 -1 0
vn -0.6087614 0 0.7933533
vn -0.9618428 0.2425356 0.126629
vn 0 1 0
vn -0.9978589 0 0.06540313
vn -0.9681872 0.2420468 0.06345834
vn -0.8660254 0 0.5
vn 0.9914449 0 -0.1305262
vn 0.9978589 0 -0.06540313
vn -0.06540313 0 0.9978589
vn 0.8968728 0 -0.4422887
vn 0 0 1
vn 1 0 0
vn 0 0 -1
vn 0 0.2425356 0.9701425
vn 0.6859944 0.2425356 -0.6859944
vn 0.7696658 0.2425357 -0.5905854
vn 0.06345834 0.2420468 -0.9681872
vn 0.126629 0.2425356 -0.9618428
vn 0.2510914 0.2425356 -0.9370857
vn 0.3712575 0.2425356 -0.8962947
vn 0.8962947 0.2425356 -0.3712575
vn 0.9370857 0.2425356 -0.2510914
vn 0.8401681 0.2425356 -0.4850713
vn 0.5905854 0.2425357 -0.7696658
vn 0.9618428 0.2425356 -0.126629
vn 0.9681872 0.2420468 -0.06345834
vn 0.4850713 0.2425356 -0.8401681

vt 12.33204 5.324887
vt 13.44025 7.768777
vt 14.69954 5.324887
vt 15.93478 8.571018
vt 15.88329 5.324887
vt 13.80404 8.571018
vt 15.22453 8.571018
vt -25.14316 -0.4774323
vt -39.37008 -0.4774323
vt -26.25069 1.966765
vt -39.37008 2.769108
vt -26.61425 2.769108
vt 28.35795 2.456264E-14
vt 28.35795 3.149606
vt 33.5078 2.456264E-14
vt 33.5078 3.149606
vt -19.47576 3.149606
vt -19.47576 1.804981E-14
vt -29.77547 3.149606
vt -29.77547 1.627346E-14
vt 1.066569 1.81577E-14
vt 1.066569 3.149606
vt 6.216422 1.638134E-14
vt 6.216422 3.149606
vt 22.05069 2.094269E-14
vt 22.05069 3.149606
vt 27.20054 2.094269E-14
vt 27.20054 3.149606
vt 19.60451 6.455743
vt 29.69822 9.701875
vt 29.64672 6.455743
vt 19.55301 9.701875
vt -28.35795 3.546608E-14
vt -33.5078 3.724244E-14
vt -28.35795 3.149606
vt -33.5078 3.149606
vt -22.05069 3.012122E-14
vt -27.20054 3.189758E-14
vt -22.05069 3.149606
vt -27.20054 3.149606
vt -15.32208 2.527109E-14
vt -20.47194 2.704744E-14
vt -15.32208 3.149606
vt -20.47194 3.149606
vt 12.8759 5.78114
vt 22.96961 9.027271
vt 22.91812 5.78114
vt 12.8244 9.027271
vt -1.968504 2.517767E-11
vt -1.181102 3.149606
vt -3.201287E-11 2.520609E-11
vt -3.201287E-11 3.149606
vt 1.968504 39.37008
vt 1.614847 33.97431
vt 1.549694E-11 39.37008
vt 0.5599259 28.67087
vt -0.3368165 34.23125
vt -1.178208 23.55049
vt -1.341503 29.18035
vt -3.569816 18.70079
vt -2.996869 24.3038
vt -5.27459 19.68504
vt -6.573976 14.20474
vt -8.135695 15.40309
vt -10.13929 10.13929
vt -11.53123 11.53123
vt -14.20474 6.573976
vt -15.40309 8.135695
vt -18.70079 3.569816
vt -19.68504 5.27459
vt -23.55049 1.178208
vt -24.3038 2.996869
vt -28.67087 -0.5599259
vt -29.18035 1.341503
vt -33.97431 -1.614847
vt -34.23125 0.3368165
vt -39.37008 -1.968504
vt -39.37008 1.591616E-12
vt -8.287254 2.122964E-14
vt -13.43711 2.3006E-14
vt -8.287254 3.149606
vt -13.43711 3.149606
vt 25.91177 7.337156
vt 25.86027 10.58329
vt 36.00548 10.58329
vt 35.95398 7.337156
vt -39.37008 -38.18898
vt 39.37008 -38.18898
vt -39.37008 -39.37008
vt 39.37008 -39.37008
vt 34.13593 2.838731E-14
vt 34.13593 3.149606
vt 39.28579 2.838731E-14
vt 39.28579 3.149606
vt 31.68975 8.410295
vt 31.63825 11.65643
vt 41.78346 11.65643
vt 41.73196 8.410295
vt 8.287254 1.748862E-14
vt 8.287254 3.149606
vt 13.43711 1.571226E-14
vt 13.43711 3.149606
vt -1.066569 1.822474E-14
vt -6.216422 2.00011E-14
vt -1.066569 3.149606
vt -6.216422 3.149606
vt -31.561 3.149606
vt -31.561 1.985739E-14
vt -41.86071 3.149606
vt -41.86071 5.005546E-14
vt -34.13593 4.092876E-14
vt -39.28579 4.270512E-14
vt -34.13593 3.149606
vt -39.28579 3.149606
vt -25.78302 3.149606
vt -25.78302 1.805551E-14
vt -36.08273 3.149606
vt -36.08273 1.805551E-14
vt -12.74716 3.149606
vt -12.74716 3.296613E-15
vt -23.04686 3.149606
vt -23.04686 1.520257E-15
vt 37.40157 8.37709E-13
vt 38.18898 3.149606
vt 39.37008 8.661307E-13
vt 39.37008 3.149606
vt 15.32208 1.789356E-14
vt 15.32208 3.149606
vt 20.47194 1.789356E-14
vt 20.47194 3.149606
vt 1.968504 3.473692E-14
vt -3.396418E-11 3.473692E-14
vt 1.181102 3.149606
vt -3.396418E-11 3.149606
vt 39.37008 3.019807E-14
vt -39.37008 4.518608E-14
vt -39.37008 3.149606
vt 39.37008 -37.40157
vt -39.37008 -37.40157
vt -39.37008 3.336632E-11
vt -28.8209 -3.752433E-12
vt -39.37008 -1.181102
vt -26.61425 -1.181102
vt -27.79803 0.5905512
vt -32.28514 9.689513
vt -33.37634 9.237525
vt -35.54622 19.29632
vt -36.68707 18.99063
vt -37.52545 29.24659
vt -38.69645 29.09243
vt -38.18898 39.37008
vt -39.37008 39.37008
vt -27.40344 3.359369E-11
vt -39.37008 9.071215
vt -39.37008 12.31775
vt 39.37008 9.071215
vt 39.37008 12.31775
vt 39.37008 7.557288E-13
vt 37.40157 7.557288E-13
vt -39.37008 1.131529E-11
vt -37.40157 1.131529E-11
vt -38.18898 3.149606
vt 28.8209 3.552714E-15
vt 28.8209 3.149606
vt 39.37008 4.518608E-14
vt 39.37008 39.37008
vt 38.69645 29.09243
vt 37.40157 39.37008
vt 36.68707 18.99063
vt 36.74478 29.34937
vt 34.78564 19.50011
vt 33.37634 9.237525
vt 31.55768 9.990839
vt 28.8209 -3.751666E-12
vt 27.11612 0.984252
vt 25.14316 -1.968504
vt 39.37008 -1.968504
vt 39.37008 3.336709E-11
vt 26.45847 3.359446E-11
vt -0.9893216 6.709437
vt -6.345169 3.463306
vt -6.29367 6.709437
vt -0.9378231 3.463306
vt 39.41453 0.1478028
vt 34.00719 0.1478028
vt 39.36303 3.393934
vt 34.05869 3.393934
vt 27.32929 2.102355
vt 21.92194 2.102355
vt 27.27779 5.348486
vt 21.97344 5.348486
vt -21.97344 5.348486
vt -27.32929 2.102355
vt -27.27779 5.348486
vt -21.92194 2.102355
vt -15.24484 6.02309
vt -20.60068 2.776959
vt -20.54918 6.02309
vt -15.19334 2.776959
vt -8.210006 6.479342
vt -8.158507 3.233211
vt -13.56585 3.233211
vt -13.51435 6.479342
vt 28.2292 1.220942
vt 28.2807 4.467074
vt 33.58504 4.467074
vt 33.63654 1.220942
vt 0.9378231 3.463306
vt 0.9893216 6.709437
vt 6.29367 6.709437
vt 6.345169 3.463306
vt -34.05869 3.393934
vt -34.00719 0.1478028
vt -39.41453 0.1478028
vt -39.36303 3.393934
vt -28.2807 4.467074
vt -28.2292 1.220942
vt -33.63654 1.220942
vt -33.58504 4.467074
vt 13.56585 3.233211
vt 8.158507 3.233211
vt 13.51435 6.479342
vt 8.210006 6.479342
vt -1.181102 39.37008
vt -1.549532E-11 39.37008
vt -0.8341814 34.07709
vt 0.2006456 28.87466
vt 0.3368165 34.23125
vt 1.905673 23.85181
vt 1.341503 29.18035
vt 2.996869 24.3038
vt 4.251726 19.09449
vt 5.27459 19.68504
vt 7.198664 14.68408
vt 8.135695 15.40309
vt 10.69606 10.69606
vt 11.53123 11.53123
vt 14.68408 7.198664
vt 15.40309 8.135695
vt 19.09449 4.251726
vt 19.68504 5.27459
vt 23.85181 1.905673
vt 24.3038 2.996869
vt 28.87466 0.2006456
vt 29.18035 1.341503
vt 34.07709 -0.8341814
vt 34.23125 0.3368165
vt 39.37008 -1.181102
vt 39.37008 1.59265E-12
vt 1.968504 1.498995E-11
vt 3.572651E-11 1.49935E-11
vt 3.572651E-11 3.149606
vt 15.19334 2.776959
vt 15.24484 6.02309
vt 20.54918 6.02309
vt 20.60068 2.776959

usemtl pavement

f 3/3/1 2/2/1 1/1/1
f 2/2/1 3/3/1 4/4/2
f 4/4/2 3/3/1 5/5/2
f 4/4/2 6/6/1 2/2/1
f 6/6/1 4/4/2 7/7/1
f 2/10/3 8/9/3 1/8/3
f 8/9/3 2/10/3 9/11/3
f 9/11/3 2/10/3 6/12/3
f 12/15/5 11/14/4 10/13/4
f 11/14/4 12/15/5 13/16/5
f 16/19/7 15/18/6 14/17/6
f 15/18/6 16/19/7 17/20/7
f 20/23/9 19/22/8 18/21/8
f 19/22/8 20/23/9 21/24/9
f 10/27/4 23/26/10 22/25/10
f 23/26/10 10/27/4 11/28/4
f 26/31/12 25/30/12 24/29/11
f 25/30/12 27/32/11 24/29/11
f 30/35/13 29/34/14 28/33/13
f 29/34/14 30/35/13 31/36/14
f 33/39/15 28/38/13 32/37/15
f 28/38/13 33/39/15 30/40/13
f 35/43/16 32/42/15 34/41/16
f 32/42/15 35/43/16 33/44/15
f 24/47/11 27/46/11 5/45/2
f 27/46/11 4/48/2 5/45/2
f 38/51/17 37/50/17 36/49/17
f 37/50/17 38/51/17 39/52/17
f 42/55/18 41/54/18 40/53/18
f 41/54/18 42/55/18 43/56/18
f 43/56/18 42/55/18 12/57/18
f 43/56/18 12/57/18 44/58/18
f 44/58/18 12/57/18 10/59/18
f 44/58/18 10/59/18 45/60/18
f 45/60/18 10/59/18 22/61/18
f 45/60/18 22/61/18 46/62/18
f 45/60/18 46/62/18 47/63/18
f 47/63/18 46/62/18 20/64/18
f 47/63/18 20/64/18 48/65/18
f 48/65/18 20/64/18 18/66/18
f 48/65/18 18/66/18 49/67/18
f 49/67/18 18/66/18 50/68/18
f 49/67/18 50/68/18 51/69/18
f 51/69/18 50/68/18 34/70/18
f 51/69/18 34/70/18 52/71/18
f 52/71/18 34/70/18 32/72/18
f 52/71/18 32/72/18 53/73/18
f 53/73/18 32/72/18 28/74/18
f 53/73/18 28/74/18 54/75/18
f 54/75/18 28/74/18 29/76/18
f 54/75/18 29/76/18 36/77/18
f 36/77/18 29/76/18 38/78/18
f 55/81/19 34/80/16 50/79/19
f 34/80/16 55/81/19 35/82/16
f 56/85/20 25/84/12 26/83/12
f 57/86/20 56/85/20 26/83/12
f 60/89/21 59/88/21 58/87/21
f 59/88/21 60/89/21 61/90/21
f 42/93/22 13/92/5 12/91/5
f 13/92/5 42/93/22 62/94/22
f 63/97/23 56/96/20 57/95/20
f 63/97/23 57/95/20 64/98/23
f 46/101/24 21/100/9 20/99/9
f 21/100/9 46/101/24 65/102/24
f 19/105/8 50/104/19 18/103/8
f 50/104/19 19/105/8 55/106/19
f 68/109/26 67/108/25 66/107/25
f 67/108/25 68/109/26 69/110/26
f 31/113/14 38/112/27 29/111/14
f 38/112/27 31/113/14 39/114/27
f 66/117/25 17/116/7 16/115/7
f 17/116/7 66/117/25 67/118/25
f 14/121/6 71/120/28 70/119/28
f 71/120/28 14/121/6 15/122/6
f 69/125/29 63/124/29 64/123/29
f 63/124/29 69/125/29 68/126/29
f 22/129/10 65/128/24 46/127/24
f 65/128/24 22/129/10 23/130/10
f 9/133/30 72/132/30 8/131/30
f 72/132/30 9/133/30 73/134/30
f 61/126/31 75/136/31 74/135/31
f 75/136/31 61/126/31 60/137/31
f 77/139/18 75/90/18 76/138/18
f 75/90/18 77/139/18 74/89/18
f 9/142/21 70/141/21 73/140/21
f 70/141/21 9/142/21 6/143/21
f 70/141/21 6/143/21 4/144/21
f 27/145/21 70/141/21 4/144/21
f 27/145/21 14/146/21 70/141/21
f 25/147/21 14/146/21 27/145/21
f 25/147/21 16/148/21 14/146/21
f 56/149/21 16/148/21 25/147/21
f 56/149/21 66/150/21 16/148/21
f 63/151/21 66/150/21 56/149/21
f 66/150/21 63/151/21 68/152/21
f 4/144/21 6/143/21 7/153/21
f 76/156/32 59/155/32 77/154/32
f 59/155/32 76/156/32 58/157/32
f 58/124/30 75/158/30 60/126/30
f 75/158/30 58/124/30 76/159/30
f 77/161/17 61/137/17 74/160/17
f 61/137/17 77/161/17 59/162/17
f 72/165/29 70/164/29 71/163/29
f 70/164/29 72/165/29 73/126/29
f 64/168/18 67/167/18 69/166/18
f 67/167/18 64/168/18 17/169/18
f 17/169/18 64/168/18 57/170/18
f 17/169/18 57/170/18 26/171/18
f 17/169/18 26/171/18 15/172/18
f 15/172/18 26/171/18 24/173/18
f 15/172/18 24/173/18 71/174/18
f 71/174/18 24/173/18 5/175/18
f 1/176/18 71/174/18 5/175/18
f 8/177/18 71/174/18 1/176/18
f 71/174/18 8/177/18 72/178/18
f 1/176/18 5/175/18 3/179/18
f 79/182/34 47/181/34 78/180/33
f 47/181/34 48/183/33 78/180/33
f 37/186/35 54/185/36 36/184/35
f 37/186/35 80/187/36 54/185/36
f 81/190/37 52/189/38 53/188/37
f 81/190/37 82/191/38 52/189/38
f 84/194/40 43/193/40 83/192/39
f 43/193/40 44/195/39 83/192/39
f 83/198/39 44/197/39 85/196/41
f 44/197/39 45/199/41 85/196/41
f 45/202/41 47/201/34 79/200/34
f 85/203/41 45/202/41 79/200/34
f 80/206/36 81/205/37 53/204/37
f 80/206/36 53/204/37 54/207/36
f 86/210/42 78/209/33 48/208/33
f 86/210/42 48/208/33 49/211/42
f 40/214/44 41/213/43 87/212/43
f 88/215/44 40/214/44 87/212/43
f 41/218/43 43/217/40 84/216/40
f 87/219/43 41/218/43 84/216/40
f 89/222/45 49/221/42 51/220/45
f 89/222/45 86/223/42 49/221/42
f 87/226/21 62/225/21 88/224/21
f 62/225/21 87/226/21 84/227/21
f 62/225/21 84/227/21 13/228/21
f 13/228/21 84/227/21 83/229/21
f 13/228/21 83/229/21 11/230/21
f 11/230/21 83/229/21 23/231/21
f 23/231/21 83/229/21 85/232/21
f 23/231/21 85/232/21 65/233/21
f 65/233/21 85/232/21 79/234/21
f 65/233/21 79/234/21 21/235/21
f 21/235/21 79/234/21 78/236/21
f 21/235/21 78/236/21 19/237/21
f 19/237/21 78/236/21 86/238/21
f 19/237/21 86/238/21 55/239/21
f 55/239/21 86/238/21 89/240/21
f 55/239/21 89/240/21 35/241/21
f 35/241/21 89/240/21 82/242/21
f 35/241/21 82/242/21 33/243/21
f 33/243/21 82/242/21 81/244/21
f 33/243/21 81/244/21 30/245/21
f 30/245/21 81/244/21 80/246/21
f 30/245/21 80/246/21 31/247/21
f 31/247/21 80/246/21 37/248/21
f 31/247/21 37/248/21 39/249/21
f 88/133/29 42/251/29 40/250/29
f 42/251/29 88/133/29 62/252/29
f 82/255/38 89/254/45 51/253/45
f 82/255/38 51/253/45 52/256/38

