# Created by Kenney (www.kenney.nl)

mtllib road_bridge.mtl

g road_bridge

v 0.01 0.51 0.5
v -0.01 0.51 0.5
v 0.01 0.51 -0.5
v -0.01 0.51 -0.5
v 0.5 0.01 -0.00999999
v 0.5 0.01 0.00999999
v -0.5 0.01 -0.00999999
v -0.5 0.01 0.00999999
v 0.3 0.51 0.5
v 0.3 0.51 -0.5
v -0.3 0.51 0.5
v -0.3 0.51 -0.5
v 0.5 0.5 -0.5
v -0.4 0.51 -0.5
v -0.5 0.5 -0.5
v -0.5 0.52 -0.5
v -0.4 0.52 -0.5
v 0.4 0.51 -0.5
v 0.5 0.52 -0.5
v 0.4 0.52 -0.5
v 0.4 0.51 0.5
v -0.5 0.5 0.5
v 0.5 0.5 0.5
v 0.5 0.52 0.5
v 0.4 0.52 0.5
v -0.4 0.51 0.5
v -0.5 0.52 0.5
v -0.4 0.52 0.5
v 0.5 0.01 0.3
v -0.5 0.01 0.3
v 0.5 0.01 -0.3
v -0.5 0.01 -0.3
v -0.5 0.02 -0.5
v -0.5 0.01 -0.4
v -0.5 0 -0.5
v -0.5 0 0.5
v -0.5 0.06 -0.5
v -0.5 0.01 0.4
v -0.5 0.02 0.4
v -0.5 0.06 0.4
v -0.5 0.06 0.5
v -0.5 0.02 0.5
v -0.5 0.06 -0.4
v -0.5 0.02 -0.4
v 0.5 0.06 0.4
v 0.5 0.02 0.4
v 0.5 0.06 0.5
v 0.5 0.01 0.4
v 0.5 0 0.5
v 0.5 0.01 -0.4
v 0.5 0 -0.5
v 0.5 0.06 -0.4
v 0.5 0.02 -0.5
v 0.5 0.06 -0.5
v 0.5 0.02 -0.4
v 0.5 0.02 0.5
v -0.4 0.06 0.5
v -0.4125 0.12 0.4875
v -0.4875 0.12 0.4875
v -0.4875 0.12 0.4125
v -0.4875 0.47 0.4125
v -0.4875 0.5 0.4125
v -0.4875 0.47 0.4875
v -0.4875 0.5 0.4875
v -0.4 0.06 0.4
v -0.4125 0.12 0.4125
v -0.4125 0.47 0.4875
v -0.4125 0.5 0.4875
v -0.4 0.02 0.4
v -0.4 0.02 0.5
v -0.4125 0.47 0.4125
v -0.4125 0.5 0.4125
v -0.4225 0.12 0.4775
v -0.4225 0.12 0.4225
v -0.4775 0.12 0.4225
v -0.4775 0.12 0.4775
v -0.4225 0.47 0.4775
v -0.4775 0.47 0.4775
v -0.4775 0.47 0.4225
v -0.4225 0.47 0.4225
v 0.4 0.06 0.4
v 0.4125 0.12 0.4125
v 0.4875 0.12 0.4125
v 0.4875 0.47 0.4875
v 0.4125 0.47 0.4875
v 0.4875 0.5 0.4875
v 0.4125 0.5 0.4875
v 0.4 0.02 0.4
v 0.4 0.02 0.5
v 0.4 0.06 0.5
v 0.4875 0.5 0.4125
v 0.4875 0.47 0.4125
v 0.4125 0.47 0.4125
v 0.4125 0.5 0.4125
v 0.4875 0.12 0.4875
v 0.4125 0.12 0.4875
v 0.4775 0.12 0.4775
v 0.4775 0.12 0.4225
v 0.4225 0.12 0.4225
v 0.4225 0.12 0.4775
v 0.4775 0.47 0.4775
v 0.4225 0.47 0.4775
v 0.4225 0.47 0.4225
v 0.4775 0.47 0.4225
v -0.4875 0.12 -0.4875
v -0.4875 0.12 -0.4125
v -0.4875 0.47 -0.4875
v -0.4875 0.5 -0.4875
v -0.4875 0.47 -0.4125
v -0.4875 0.5 -0.4125
v -0.4 0.06 -0.4
v -0.4125 0.12 -0.4125
v -0.4125 0.47 -0.4875
v -0.4225 0.47 -0.4225
v -0.4125 0.47 -0.4125
v -0.4775 0.47 -0.4225
v -0.4775 0.47 -0.4775
v -0.4225 0.47 -0.4775
v -0.4 0.06 -0.5
v -0.4125 0.12 -0.4875
v -0.4125 0.5 -0.4875
v -0.4125 0.5 -0.4125
v -0.4225 0.12 -0.4225
v -0.4225 0.12 -0.4775
v -0.4775 0.12 -0.4775
v -0.4775 0.12 -0.4225
v -0.4 0.02 -0.5
v -0.4 0.02 -0.4
v 0.4125 0.47 -0.4875
v 0.4125 0.5 -0.4875
v 0.4125 0.47 -0.4125
v 0.4125 0.5 -0.4125
v 0.4875 0.47 -0.4875
v 0.4775 0.47 -0.4225
v 0.4875 0.47 -0.4125
v 0.4225 0.47 -0.4225
v 0.4225 0.47 -0.4775
v 0.4775 0.47 -0.4775
v 0.4 0.02 -0.5
v 0.4 0.06 -0.5
v 0.4 0.02 -0.4
v 0.4 0.06 -0.4
v 0.4875 0.12 -0.4125
v 0.4125 0.12 -0.4125
v 0.4875 0.5 -0.4875
v 0.4875 0.5 -0.4125
v 0.4125 0.12 -0.4875
v 0.4875 0.12 -0.4875
v 0.4775 0.12 -0.4225
v 0.4775 0.12 -0.4775
v 0.4225 0.12 -0.4775
v 0.4225 0.12 -0.4225

vn 0 1 0
vn 0 0 -1
vn 0 0 1
vn -1 0 0
vn 1 0 0
vn 0 0.2039542 0.9789804
vn -0.9789804 0.2039542 0
vn 0 0.2039542 -0.9789804
vn 0 -1 0
vn 0.9789804 0.2039542 0

vt -0.3937008 19.68504
vt 0.3937008 19.68504
vt -0.3937008 -19.68504
vt 0.3937008 -19.68504
vt -19.68504 -0.3937008
vt -19.68504 0.3937008
vt 19.68504 -0.3937008
vt 19.68504 0.3937008
vt -11.81102 19.68504
vt -11.81102 -19.68504
vt 11.81102 19.68504
vt 11.81102 -19.68504
vt -19.68504 19.68504
vt 15.74803 20.07874
vt 19.68504 19.68504
vt 19.68504 20.47244
vt 15.74803 20.47244
vt 11.81102 20.07874
vt -15.74803 20.07874
vt -19.68504 20.47244
vt -11.81102 20.07874
vt 0.3937008 20.07874
vt -0.3937008 20.07874
vt -15.74803 20.47244
vt -19.68504 11.81102
vt 19.68504 11.81102
vt -19.68504 -11.81102
vt 19.68504 -11.81102
vt -19.68504 0.7874016
vt -15.74803 0.3937008
vt -19.68504 -2.579528E-13
vt 19.68504 -2.579528E-13
vt -19.68504 2.362205
vt -11.81102 0.3937008
vt -0.3937008 0.3937008
vt 0.3937008 0.3937008
vt 11.81102 0.3937008
vt 15.74803 0.3937008
vt 15.74803 0.7874016
vt 15.74803 2.362205
vt 19.68504 2.362205
vt 19.68504 0.7874016
vt -15.74803 2.362205
vt -15.74803 0.7874016
vt -19.68504 2.063622E-13
vt 19.68504 2.063622E-13
vt -15.74803 -1.702295
vt -19.68504 -1.702295
vt -16.24016 0.710628
vt -19.19291 0.710628
vt 15.74803 -1.702295
vt 16.24016 0.710628
vt 19.68504 -1.702295
vt 19.19291 0.710628
vt 16.24016 18.50394
vt 16.24016 19.68504
vt 19.19291 18.50394
vt 19.19291 19.68504
vt 19.68504 5.52443
vt 15.74803 5.52443
vt 19.19291 7.937354
vt 16.24016 7.937354
vt -16.24016 18.50394
vt -19.19291 18.50394
vt -16.24016 19.68504
vt -19.19291 19.68504
vt 16.63386 18.79921
vt 16.63386 16.63386
vt 16.24016 16.24016
vt 19.19291 16.24016
vt 18.79921 16.63386
vt 19.19291 19.19291
vt 16.24016 19.19291
vt 18.79921 18.79921
vt -16.24016 16.24016
vt -16.63386 18.79921
vt -16.24016 19.19291
vt -19.19291 19.19291
vt -18.79921 18.79921
vt -18.79921 16.63386
vt -16.63386 16.63386
vt -19.19291 16.24016
vt -15.74803 5.52443
vt -19.68504 5.52443
vt -16.24016 7.937354
vt -19.19291 7.937354
vt -16.24016 -19.19291
vt -16.63386 -16.63386
vt -16.24016 -16.24016
vt -19.19291 -16.24016
vt -18.79921 -16.63386
vt -18.79921 -18.79921
vt -16.63386 -18.79921
vt -19.19291 -19.19291
vt 16.63386 -16.63386
vt 16.63386 -18.79921
vt 16.24016 -19.19291
vt 19.19291 -19.19291
vt 18.79921 -18.79921
vt 19.19291 -16.24016
vt 16.24016 -16.24016
vt 18.79921 -16.63386
vt 19.68504 20.07874
vt -19.68504 20.07874
vt -15.74803 19.68504
vt -19.68504 -19.68504
vt -15.74803 -19.68504
vt 15.74803 19.68504
vt 15.74803 -19.68504
vt 19.68504 -19.68504
vt -15.74803 -15.74803
vt 15.74803 -15.74803
vt 19.68504 -1.776357E-13
vt -19.68504 -1.776357E-13
vt -15.74803 15.74803
vt 15.74803 15.74803
vt 19.68504 0
vt -19.68504 0
vt 16.63386 4.72441
vt 16.63386 18.50394
vt 18.79921 4.72441
vt 18.79921 18.50394
vt -16.63386 4.72441
vt -18.79921 4.72441
vt -16.63386 18.50394
vt -18.79921 18.50394
vt -19.68504 15.74803
vt 19.68504 15.74803
vt -19.68504 -15.74803
vt 19.68504 -15.74803

usemtl line

f 3/3/1 2/2/1 1/1/1
f 2/2/1 3/3/1 4/4/1
f 7/7/1 6/6/1 5/5/1
f 6/6/1 7/7/1 8/8/1

usemtl asphalt

f 10/10/1 1/1/1 9/9/1
f 1/1/1 10/10/1 3/3/1
f 4/4/1 11/11/1 2/2/1
f 11/11/1 4/4/1 12/12/1
f 15/15/2 14/14/2 13/13/2
f 14/14/2 15/15/2 16/16/2
f 14/14/2 16/16/2 17/17/2
f 12/18/2 13/13/2 14/14/2
f 18/19/2 13/13/2 12/18/2
f 13/13/2 18/19/2 19/20/2
f 18/19/2 12/18/2 10/21/2
f 4/22/2 10/21/2 12/18/2
f 10/21/2 4/22/2 3/23/2
f 19/20/2 18/19/2 20/24/2
f 11/21/3 9/18/3 2/23/3
f 9/18/3 11/21/3 21/14/3
f 2/23/3 9/18/3 1/22/3
f 22/13/3 21/14/3 11/21/3
f 23/15/3 21/14/3 22/13/3
f 21/14/3 23/15/3 24/16/3
f 21/14/3 24/16/3 25/17/3
f 26/19/3 22/13/3 11/21/3
f 22/13/3 26/19/3 27/20/3
f 27/20/3 26/19/3 28/24/3
f 6/6/1 30/26/1 29/25/1
f 30/26/1 6/6/1 8/8/1
f 32/28/1 5/5/1 31/27/1
f 5/5/1 32/28/1 7/7/1
f 35/31/4 34/30/4 33/29/4
f 34/30/4 35/31/4 36/32/4
f 33/29/4 34/30/4 37/33/4
f 34/30/4 36/32/4 32/34/4
f 32/34/4 36/32/4 7/35/4
f 7/35/4 36/32/4 8/36/4
f 8/36/4 36/32/4 30/37/4
f 30/37/4 36/32/4 38/38/4
f 38/38/4 36/32/4 39/39/4
f 39/39/4 36/32/4 40/40/4
f 40/40/4 36/32/4 41/41/4
f 41/41/4 36/32/4 42/42/4
f 34/30/4 43/43/4 37/33/4
f 43/43/4 34/30/4 44/44/4
f 47/33/5 46/44/5 45/43/5
f 46/44/5 47/33/5 48/30/5
f 49/45/5 48/30/5 47/33/5
f 49/45/5 29/34/5 48/30/5
f 49/45/5 6/35/5 29/34/5
f 49/45/5 5/36/5 6/35/5
f 49/45/5 31/37/5 5/36/5
f 49/45/5 50/38/5 31/37/5
f 51/46/5 50/38/5 49/45/5
f 51/46/5 52/40/5 50/38/5
f 53/42/5 52/40/5 51/46/5
f 52/40/5 53/42/5 54/41/5
f 50/38/5 52/40/5 55/39/5
f 49/45/5 47/33/5 56/29/5
f 58/49/6 41/48/6 57/47/6
f 41/48/6 58/49/6 59/50/6
f 41/53/7 60/52/7 40/51/7
f 60/52/7 41/53/7 59/54/7
f 63/57/4 62/56/4 61/55/4
f 62/56/4 63/57/4 64/58/4
f 60/61/8 65/60/8 40/59/8
f 65/60/8 60/61/8 66/62/8
f 68/65/3 63/64/3 67/63/3
f 63/64/3 68/65/3 64/66/3
f 57/33/5 69/44/5 65/43/5
f 69/44/5 57/33/5 70/29/5
f 62/58/2 71/55/2 61/57/2
f 71/55/2 62/58/2 72/56/2
f 57/43/3 42/29/3 70/44/3
f 42/29/3 57/43/3 41/33/3
f 66/69/1 74/68/1 73/67/1
f 74/68/1 66/69/1 60/70/1
f 74/68/1 60/70/1 75/71/1
f 75/71/1 60/70/1 59/72/1
f 58/73/1 73/67/1 59/72/1
f 73/67/1 58/73/1 66/69/1
f 59/72/1 73/67/1 76/74/1
f 59/72/1 76/74/1 75/71/1
f 68/66/5 71/63/5 72/65/5
f 71/63/5 68/66/5 67/64/5
f 40/41/2 69/39/2 39/42/2
f 69/39/2 40/41/2 65/40/2
f 67/77/9 77/76/9 71/75/9
f 77/76/9 67/77/9 63/78/9
f 77/76/9 63/78/9 78/79/9
f 78/79/9 63/78/9 79/80/9
f 80/81/9 71/75/9 77/76/9
f 71/75/9 80/81/9 61/82/9
f 61/82/9 80/81/9 79/80/9
f 61/82/9 79/80/9 63/78/9
f 66/85/10 57/84/10 65/83/10
f 57/84/10 66/85/10 58/86/10
f 82/85/8 45/84/8 81/83/8
f 45/84/8 82/85/8 83/86/8
f 86/58/3 85/55/3 84/57/3
f 85/55/3 86/58/3 87/56/3
f 89/42/4 81/40/4 88/39/4
f 81/40/4 89/42/4 90/41/4
f 81/43/2 46/29/2 88/44/2
f 46/29/2 81/43/2 45/33/2
f 86/66/5 92/63/5 91/65/5
f 92/63/5 86/66/5 84/64/5
f 85/57/4 94/56/4 93/55/4
f 94/56/4 85/57/4 87/58/4
f 95/54/6 90/51/6 47/53/6
f 90/51/6 95/54/6 96/52/6
f 83/82/1 98/80/1 97/79/1
f 98/80/1 83/82/1 82/75/1
f 98/80/1 82/75/1 99/81/1
f 99/81/1 82/75/1 96/77/1
f 95/78/1 97/79/1 96/77/1
f 97/79/1 95/78/1 83/82/1
f 96/77/1 97/79/1 100/76/1
f 96/77/1 100/76/1 99/81/1
f 47/41/3 89/39/3 56/42/3
f 89/39/3 47/41/3 90/40/3
f 94/65/2 92/64/2 93/63/2
f 92/64/2 94/65/2 91/66/2
f 84/72/9 101/74/9 92/70/9
f 101/74/9 84/72/9 85/73/9
f 101/74/9 85/73/9 102/67/9
f 102/67/9 85/73/9 103/68/9
f 104/71/9 92/70/9 101/74/9
f 92/70/9 104/71/9 93/69/9
f 93/69/9 104/71/9 103/68/9
f 93/69/9 103/68/9 85/73/9
f 90/59/7 82/62/7 81/60/7
f 82/62/7 90/59/7 96/61/7
f 83/49/10 47/48/10 45/47/10
f 47/48/10 83/49/10 95/50/10
f 43/47/7 105/50/7 37/48/7
f 105/50/7 43/47/7 106/49/7
f 109/63/4 108/66/4 107/64/4
f 108/66/4 109/63/4 110/65/4
f 112/85/6 43/84/6 111/83/6
f 43/84/6 112/85/6 106/86/6
f 115/89/9 114/88/9 113/87/9
f 114/88/9 115/89/9 109/90/9
f 114/88/9 109/90/9 116/91/9
f 116/91/9 109/90/9 117/92/9
f 118/93/9 113/87/9 114/88/9
f 113/87/9 118/93/9 107/94/9
f 107/94/9 118/93/9 117/92/9
f 107/94/9 117/92/9 109/90/9
f 120/61/10 111/60/10 119/59/10
f 111/60/10 120/61/10 112/62/10
f 122/56/5 113/57/5 121/58/5
f 113/57/5 122/56/5 115/55/5
f 105/54/8 119/51/8 37/53/8
f 119/51/8 105/54/8 120/52/8
f 120/97/1 124/96/1 123/95/1
f 124/96/1 120/97/1 105/98/1
f 124/96/1 105/98/1 125/99/1
f 125/99/1 105/98/1 106/100/1
f 112/101/1 123/95/1 106/100/1
f 123/95/1 112/101/1 120/97/1
f 106/100/1 123/95/1 126/102/1
f 106/100/1 126/102/1 125/99/1
f 111/40/5 127/42/5 119/41/5
f 127/42/5 111/40/5 128/39/5
f 37/41/2 127/39/2 33/42/2
f 127/39/2 37/41/2 119/40/2
f 122/65/3 109/64/3 115/63/3
f 109/64/3 122/65/3 110/66/3
f 108/58/2 113/55/2 107/57/2
f 113/55/2 108/58/2 121/56/2
f 111/43/3 44/29/3 128/44/3
f 44/29/3 111/43/3 43/33/3
f 131/63/4 130/66/4 129/64/4
f 130/66/4 131/63/4 132/65/4
f 135/100/9 134/102/9 133/98/9
f 134/102/9 135/100/9 131/101/9
f 134/102/9 131/101/9 136/95/9
f 136/95/9 131/101/9 137/96/9
f 138/99/9 133/98/9 134/102/9
f 133/98/9 138/99/9 129/97/9
f 129/97/9 138/99/9 137/96/9
f 129/97/9 137/96/9 131/101/9
f 141/44/4 140/33/4 139/29/4
f 140/33/4 141/44/4 142/43/4
f 143/61/6 142/60/6 52/59/6
f 142/60/6 143/61/6 144/62/6
f 140/43/2 53/29/2 139/44/2
f 53/29/2 140/43/2 54/33/2
f 146/56/5 133/57/5 145/58/5
f 133/57/5 146/56/5 135/55/5
f 142/83/7 147/86/7 140/84/7
f 147/86/7 142/83/7 144/85/7
f 52/41/3 141/39/3 55/42/3
f 141/39/3 52/41/3 142/40/3
f 147/49/8 54/48/8 140/47/8
f 54/48/8 147/49/8 148/50/8
f 148/94/1 150/92/1 149/91/1
f 150/92/1 148/94/1 147/87/1
f 150/92/1 147/87/1 151/93/1
f 151/93/1 147/87/1 144/89/1
f 143/90/1 149/91/1 144/89/1
f 149/91/1 143/90/1 148/94/1
f 144/89/1 149/91/1 152/88/1
f 144/89/1 152/88/1 151/93/1
f 130/65/2 133/64/2 129/63/2
f 133/64/2 130/65/2 145/66/2
f 146/58/3 131/55/3 135/57/3
f 131/55/3 146/58/3 132/56/3
f 148/54/10 52/51/10 54/53/10
f 52/51/10 148/54/10 143/52/10

usemtl pavement

f 28/20/5 14/103/5 17/16/5
f 14/103/5 28/20/5 26/104/5
f 21/103/4 20/20/4 18/104/4
f 20/20/4 21/103/4 25/16/4
f 19/106/1 25/105/1 24/13/1
f 25/105/1 19/106/1 20/107/1
f 17/109/1 27/15/1 28/108/1
f 27/15/1 17/109/1 16/110/1
f 24/20/5 13/15/5 19/16/5
f 13/15/5 24/20/5 23/13/5
f 22/15/4 16/20/4 15/13/4
f 16/20/4 22/15/4 27/16/4
f 39/42/2 48/6/2 38/8/2
f 48/6/2 39/42/2 46/29/2
f 46/29/2 39/42/2 69/39/2
f 46/29/2 69/39/2 88/44/2
f 55/42/3 34/6/3 50/8/3
f 34/6/3 55/42/3 44/29/3
f 44/29/3 55/42/3 141/39/3
f 44/29/3 141/39/3 128/44/3
f 36/13/9 51/110/9 49/15/9
f 51/110/9 36/13/9 35/106/9
f 127/109/1 141/111/1 139/107/1
f 141/111/1 127/109/1 128/112/1
f 56/42/3 36/114/3 49/113/3
f 36/114/3 56/42/3 42/29/3
f 42/29/3 56/42/3 89/39/3
f 42/29/3 89/39/3 70/44/3
f 69/116/1 89/105/1 88/115/1
f 89/105/1 69/116/1 70/108/1
f 33/42/2 51/118/2 35/117/2
f 51/118/2 33/42/2 53/29/2
f 53/29/2 33/42/2 127/39/2
f 53/29/2 127/39/2 139/44/2
f 23/15/9 86/72/9 13/110/9
f 86/72/9 23/15/9 22/13/9
f 86/72/9 22/13/9 87/73/9
f 87/73/9 22/13/9 94/69/9
f 94/69/9 22/13/9 68/77/9
f 94/69/9 68/77/9 130/97/9
f 68/77/9 22/13/9 64/78/9
f 64/78/9 22/13/9 62/82/9
f 62/82/9 22/13/9 108/94/9
f 146/100/9 13/110/9 86/72/9
f 145/98/9 13/110/9 146/100/9
f 13/110/9 145/98/9 15/106/9
f 15/106/9 145/98/9 130/97/9
f 15/106/9 108/94/9 22/13/9
f 15/106/9 130/97/9 121/87/9
f 15/106/9 121/87/9 108/94/9
f 121/87/9 130/97/9 122/89/9
f 122/89/9 130/97/9 68/77/9
f 72/75/9 122/89/9 68/77/9
f 122/89/9 72/75/9 110/90/9
f 110/90/9 72/75/9 62/82/9
f 110/90/9 62/82/9 108/94/9
f 132/101/9 94/69/9 130/97/9
f 146/100/9 91/70/9 132/101/9
f 132/101/9 91/70/9 94/69/9
f 91/70/9 146/100/9 86/72/9
f 76/121/4 79/120/4 75/119/4
f 79/120/4 76/121/4 78/122/4
f 79/122/2 74/119/2 75/121/2
f 74/119/2 79/122/2 80/120/2
f 77/125/3 76/124/3 73/123/3
f 76/124/3 77/125/3 78/126/3
f 77/126/5 74/123/5 80/125/5
f 74/123/5 77/126/5 73/124/5
f 103/125/2 98/124/2 99/123/2
f 98/124/2 103/125/2 104/126/2
f 100/121/4 103/120/4 99/119/4
f 103/120/4 100/121/4 102/122/4
f 101/126/5 98/123/5 104/125/5
f 98/123/5 101/126/5 97/124/5
f 101/122/3 100/119/3 97/121/3
f 100/119/3 101/122/3 102/120/3
f 117/122/2 124/119/2 125/121/2
f 124/119/2 117/122/2 118/120/2
f 126/123/4 117/126/4 125/124/4
f 117/126/4 126/123/4 116/125/4
f 114/125/3 126/124/3 123/123/3
f 126/124/3 114/125/3 116/126/3
f 114/120/5 124/121/5 118/122/5
f 124/121/5 114/120/5 123/119/5
f 152/123/4 137/126/4 151/124/4
f 137/126/4 152/123/4 136/125/4
f 137/125/2 150/124/2 151/123/2
f 150/124/2 137/125/2 138/126/2
f 134/120/5 150/121/5 138/122/5
f 150/121/5 134/120/5 149/119/5
f 134/122/3 152/119/3 149/121/3
f 152/119/3 134/122/3 136/120/3

usemtl asphaltEdge

f 12/12/1 26/108/1 11/11/1
f 26/108/1 12/12/1 14/109/1
f 18/107/1 9/9/1 21/105/1
f 9/9/1 18/107/1 10/10/1
f 30/26/1 48/127/1 29/25/1
f 48/127/1 30/26/1 38/128/1
f 34/130/1 31/27/1 50/129/1
f 31/27/1 34/130/1 32/28/1

